<svg id="Слой_1" data-name="Слой 1" xmlns="http://www.w3.org/2000/svg" viewBox="0 0 512 512"><defs><style>.cls-1{fill:#6c757d;}.cls-2{fill:#609abd;}.cls-3{fill:#fefefe;}.cls-4{fill:#a5d4f1;}.cls-5{fill:#fdfdfe;}</style></defs><path class="cls-1" d="M375.72,402.91c-.1,7.44,2.39,14,6.65,20,3.37,4.75,3,6.73-1.74,9.83A204.35,204.35,0,0,1,311,461.69c-5.91,1.27-7.45-.07-8.89-7.36-3-15.23-15.92-26.71-30.83-27.44-16.92-.83-30.81,8.52-35.61,24-.15.47-.35.93-.48,1.42-2.75,10.88-2.78,11-13.53,8.45A203.24,203.24,0,0,1,156.92,433c-5.29-3.46-5.57-5.16-1.93-10.52,9.81-14.44,8.3-32.33-3.73-44.28s-29.46-13.5-43.83-3.85c-5.79,3.89-7.53,3.55-11.23-2.2A201.06,201.06,0,0,1,67.82,302.9c-1-5,.33-7,5.47-7.89,17.55-3.18,29.49-16.79,29.59-33.74C103,244,91,230.16,73.33,227c-5.32-.94-6.55-2.83-5.42-8.34a199.72,199.72,0,0,1,28-68.35c4.11-6.39,5.53-6.71,11.85-2.46a34.21,34.21,0,0,0,52.65-20.26,33.14,33.14,0,0,0-5.09-27.6c-4.1-6-3.74-7.56,2.43-11.54a200.83,200.83,0,0,1,66.88-27.74c7.48-1.61,8.73-.86,10.19,6.56a34.27,34.27,0,0,0,56,19.85,33.41,33.41,0,0,0,11.58-20.39c1.2-6.72,2.85-7.61,9.61-6.14a200.6,200.6,0,0,1,67.75,28.19c5.7,3.73,6,5.28,2.28,10.81-9.8,14.45-8.26,32.3,3.81,44.27s29.56,13.38,43.85,3.69c5.68-3.86,7.46-3.49,11.2,2.32a200.44,200.44,0,0,1,28.24,68.78c1.13,5.5-.08,7.39-5.4,8.34-17.47,3.13-29.47,16.85-29.57,33.78-.1,17.21,11.9,31.07,29.6,34.23,5.11.91,6.49,2.9,5.47,7.9a200.47,200.47,0,0,1-27.59,68c-4.69,7.39-5.67,7.57-12.86,2.93-11.35-7.33-23.17-7.73-35-1.59A33.7,33.7,0,0,0,375.72,402.91Z"/><path class="cls-2" d="M113.42,435.87A39.84,39.84,0,1,1,73.4,396,39.88,39.88,0,0,1,113.42,435.87Z"/><path class="cls-2" d="M478.28,80.89a29.86,29.86,0,1,1-29.77-29.81A29.88,29.88,0,0,1,478.28,80.89Z"/><path class="cls-1" d="M61.27,126a7.48,7.48,0,1,1,7.12-7.92A7.31,7.31,0,0,1,61.27,126Z"/><path class="cls-1" d="M468.26,393.47a7.33,7.33,0,1,1-7.05-7.51A7.42,7.42,0,0,1,468.26,393.47Z"/><path class="cls-1" d="M388.27,43.34A7.32,7.32,0,1,1,381,36.1,7.33,7.33,0,0,1,388.27,43.34Z"/><path class="cls-1" d="M141,31.1a7.48,7.48,0,1,1-7.24,7.81A7.31,7.31,0,0,1,141,31.1Z"/><path class="cls-1" d="M423.26,463.35a7.32,7.32,0,1,1-7.13-7.42A7.35,7.35,0,0,1,423.26,463.35Z"/><path class="cls-1" d="M148.38,473.24a7.32,7.32,0,1,1-7.24-7.31A7.37,7.37,0,0,1,148.38,473.24Z"/><path class="cls-3" d="M171.38,118.8a38.28,38.28,0,0,0-5.09-19.86c-1.42-2.52-.9-3.58,1.43-5a200.7,200.7,0,0,1,54.17-22.46c3.61-.92,3.7,1.09,4.49,3.39,5.77,17,21.17,29.21,38,30.21,19.62,1.16,36.13-8.12,44.13-24.8.22-.45.41-.92.61-1.37,3.58-8.22,3.59-8.27,12.45-5.71a201,201,0,0,1,47,20.28c2.79,1.66,3.52,2.73,1.89,6a44.32,44.32,0,0,0,40.81,64.4,39.58,39.58,0,0,0,19.08-5.16c2.75-1.56,3.83-.94,5.31,1.55a205.08,205.08,0,0,1,22.18,53.21c.85,3.22,0,4.41-3.13,5.48a44.22,44.22,0,0,0-19.38,71.5,40.71,40.71,0,0,0,19.9,12.75c2.93.82,3.41,2,2.68,4.84a202.79,202.79,0,0,1-22.3,53.7c-1.57,2.63-2.73,2.73-5.36,1.4-17.69-8.95-37.7-5.8-51.58,7.89a43.92,43.92,0,0,0-8.14,51.56c1.51,3,1.11,4.08-1.61,5.7a200,200,0,0,1-52.78,21.92c-3.38.87-4.42.3-5.56-3A44.28,44.28,0,0,0,239,427.86a40.41,40.41,0,0,0-12.61,19.41c-1,3.54-2.35,3.78-5.61,2.94a201.07,201.07,0,0,1-52.35-21.67c-2.74-1.61-3.65-2.65-1.93-6a43.9,43.9,0,0,0-7.9-51.18c-13.89-14-34-17.22-51.94-8.15-2.72,1.38-3.8,1.05-5.32-1.49a204.94,204.94,0,0,1-22.2-53.21c-.85-3.23,0-4.43,3.16-5.48a44,44,0,0,0,30.55-41.84c0-19.35-11.87-36-30.67-42.24-3.26-1.09-3.83-2.45-3-5.55a206.8,206.8,0,0,1,21.93-52.78c1.79-3,3.1-3.11,6.08-1.6C136.54,173.84,170.94,152.86,171.38,118.8Z"/><path class="cls-4" d="M43.77,436.08A29.82,29.82,0,1,1,73.62,465.9,29.81,29.81,0,0,1,43.77,436.08Z"/><path class="cls-4" d="M468.25,81.08a19.82,19.82,0,1,1-19.92-20A19.89,19.89,0,0,1,468.25,81.08Z"/><path class="cls-1" d="M268.48,379c-62.64-.1-117.71-49.48-117.82-117.86-.12-67.24,53.89-118.13,118.14-118,63.9.14,117.74,50.83,117.57,118.05C386.2,329.44,331.29,378.86,268.48,379Z"/><path class="cls-3" d="M182.89,266c5.66,0,11.33.19,17-.08,3.29-.16,4.78.65,4.85,4.2a183.26,183.26,0,0,0,5.79,41.41c.55,2.15-.16,3-1.81,3.89a94.07,94.07,0,0,0-18.86,13.85c-2.62,2.5-3.78,1.37-5.41-.7-11.61-14.81-19.39-31.35-22.32-50C160.14,266,160.3,266,172.9,266Z"/><path class="cls-4" d="M182.66,256c-5.48,0-11-.41-16.45.12s-5.59-2.31-5.11-6.21c2.1-17.24,7.5-33.3,17.18-47.8,2-3,4.21-6,6.37-8.93,1.33-1.84,2.53-2.61,4.76-.64a108.25,108.25,0,0,0,19.32,14c1.65.9,2.22,1.92,1.71,4a185.36,185.36,0,0,0-5.64,40.81c-.05,3.36-1.38,5-5.18,4.71C194,255.72,188.32,256,182.66,256Z"/><path class="cls-4" d="M376.18,269c-1.89,19.39-7.52,36-17.63,51.09-2.48,3.7-4.23,9.35-8.28,10.13-3.78.73-6.66-4.63-10.2-6.95-3.06-2-5.77-4.69-9-6.17-4.37-2-5-4.44-3.84-8.91a153.66,153.66,0,0,0,4.94-34.89c.18-7.35.33-7.35,7.55-7.35,10.65,0,21.29.09,31.93,0C374.94,265.91,377,266.5,376.18,269Z"/><path class="cls-3" d="M354.37,256c-6,0-12-.12-18,.05-2.65.08-3.9-.56-4-3.44a191.3,191.3,0,0,0-6-42.38c-.5-1.93.19-2.64,1.67-3.49a105.23,105.23,0,0,0,19.65-14.46c2.84-2.67,3.8-.06,5,1.4,10.42,13.26,17.79,28,21.19,44.61.93,4.55,1.33,9.21,2.09,13.79.49,3-.43,4.13-3.65,4C366.37,255.82,360.37,256,354.37,256Z"/><path class="cls-3" d="M220.38,212.74a122.57,122.57,0,0,0,40.57,10c2.28.18,2.69,1.26,2.68,3.19-.05,9-.08,18,0,26.94,0,2.4-.83,3.13-3.19,3.12-14.3-.09-28.6-.05-42.9,0-1.82,0-3.21,0-3.07-2.59C215.25,239.82,216.59,226.31,220.38,212.74Z"/><path class="cls-4" d="M238.93,266c6.83,0,13.66.12,20.48-.05,3-.07,4.55.51,4.46,4.05-.24,8.49-.15,17-.05,25.48,0,2.46-.7,3.44-3.33,3.7-12.78,1.27-25.31,3.7-37.15,8.89-2.17.95-3.22.7-3.81-1.79a174.2,174.2,0,0,1-4.82-38c-.05-2.93,1.73-2.27,3.23-2.28C224.94,266,231.93,266,238.93,266Z"/><path class="cls-3" d="M298.25,266c7,0,14,.08,21,0,2.5,0,3.45.5,3.3,3.34a219.51,219.51,0,0,1-4.71,36c-.54,2.44-1,4.23-4.39,2.69-11.32-5.08-23.34-7.63-35.66-8.64-3-.24-4.33-1-4.24-4.36.25-8.31.24-16.64,0-24.95-.1-3.35,1-4.24,4.25-4.14C284.6,266.14,291.43,266,298.25,266Z"/><path class="cls-4" d="M298.2,256c-6.83,0-13.66-.13-20.49.05-3.08.09-4-1-4-4,.16-8.5.12-17,0-25.49,0-2.44.65-3.51,3.3-3.75,12.8-1.2,25.29-3.85,37.12-9,2.44-1.07,2.84.22,3.3,2,3.25,12.44,4.27,25.18,5.13,37.95.19,2.78-1.87,2.24-3.42,2.25C312.2,256,305.2,256,298.2,256Z"/><path class="cls-5" d="M263.61,339c0,8.49-.09,17,.05,25.45,0,3.25-.77,4.12-4.05,2.94-7.29-2.63-13-7.34-17.93-13.06-8.25-9.59-13.55-20.82-17.75-32.64-.71-2-.37-2.88,1.61-3.75a115.37,115.37,0,0,1,35.15-8.71c3.29-.32,2.91,1.85,2.91,3.83Q263.62,326,263.61,339Z"/><path class="cls-4" d="M263.79,183.13c0,7.82,0,15.65,0,23.48,0,6.43,0,6.21-6.37,5.67a107.63,107.63,0,0,1-31.26-7.95c-2.44-1-2.94-2-2.07-4.41,5.16-14,11.56-27.26,22.88-37.53a38.29,38.29,0,0,1,12.68-7.74c3.2-1.17,4.21-.27,4.17,3C263.71,166.14,263.78,174.63,263.79,183.13Z"/><path class="cls-4" d="M273.79,338.47c0-7.82.23-15.65-.09-23.45-.2-4.72.64-6.15,6-5.44a121.2,121.2,0,0,1,31.17,8.15c1.81.75,3.28,1.18,2.3,3.84-5.27,14.33-11.76,27.85-23.39,38.3a41.39,41.39,0,0,1-10.86,7c-3.62,1.63-5.38,1.27-5.21-3.42C274,355.11,273.79,346.78,273.79,338.47Z"/><path class="cls-3" d="M273.61,183.06c0-8.48.09-17-.05-25.46-.06-3.32.84-4,4.06-2.85,8,2.91,14,8.29,19.15,14.69,7.43,9.15,12.29,19.68,16.28,30.68.8,2.21.38,3.13-1.81,4.08a115.8,115.8,0,0,1-34.69,8.59c-3.3.34-2.93-1.76-2.94-3.76Z"/><path class="cls-5" d="M237.42,157.66a102.15,102.15,0,0,0-21.79,36.58c-1.28,3.63-2.54,3.8-5.43,1.68-4.7-3.43-9.45-6.77-13.82-10.64-1.71-1.51-2-2.65-.1-4.37A108.69,108.69,0,0,1,237.42,157.66Z"/><path class="cls-4" d="M300.18,157.94a104,104,0,0,1,40.1,22.64c2.33,2.11,1.66,3.41-.25,5.17a124.22,124.22,0,0,1-13.86,10.53c-2.4,1.67-3.44,1.49-4.49-1.5a106.55,106.55,0,0,0-14.63-28.15C305,163.9,302.83,161.28,300.18,157.94Z"/><path class="cls-4" d="M237.43,364.22a103.23,103.23,0,0,1-40.94-23.07c-1.82-1.67-1.61-2.86.06-4.45a110.57,110.57,0,0,1,15-11.46c2.4-1.62,2.94-.13,3.7,1.86C220.29,340.34,226.53,352.91,237.43,364.22Z"/><path class="cls-5" d="M300.87,363.56c9.51-10.74,15.94-23.06,20.79-36.27,1-2.63,1.66-3.62,4.36-1.72a157.32,157.32,0,0,1,14.67,11.19c1.63,1.45,2.17,2.46.14,4.28A101.51,101.51,0,0,1,300.87,363.56Z"/></svg>