<svg id="Слой_1" data-name="Слой 1" xmlns="http://www.w3.org/2000/svg" viewBox="0 0 512 512"><defs><style>.cls-1{fill:#6c757d;}.cls-2{fill:#609abd;}.cls-3{fill:#a3d2f1;}.cls-4{fill:#fefefe;}.cls-5{fill:#fdfdfe;}</style></defs><path class="cls-1" d="M296,483.26q-86.46,0-172.93,0c-27.46,0-54.92.16-82.38.23-4.31,0-6.35-2.19-6.35-6.5q.07-145.68.13-291.37c0-7.15,1.35-8.46,8.49-8.46q139.44,0,278.89,0c6.59,0,8.06,1.52,8.06,8.36q0,50,0,100c0,1.55-.88,3.88.94,4.5a12,12,0,0,0,7.85,0c1.9-.71,1-3,1.11-4.49a46.82,46.82,0,0,1,48.57-44.25c23.89,1,43.65,20.48,44.5,44.2.14,3.81,1.07,5.14,5.07,5,10.49-.29,21-.14,31.49-.1,6.53,0,8.07,1.48,8.07,7.91q.06,54.69,0,109.38,0,33.48,0,67c0,7.55-1.12,8.66-8.66,8.66H296Z"/><path class="cls-2" d="M442.94,110.84A32,32,0,1,1,410.89,79,31.71,31.71,0,0,1,442.94,110.84Z"/><path class="cls-2" d="M98.66,113.4a24.24,24.24,0,0,1,24.13-24.55c13.68-.12,25,10.9,25,24.36A25.1,25.1,0,0,1,123,137.94,24.69,24.69,0,0,1,98.66,113.4Z"/><path class="cls-1" d="M192,66.61a7.4,7.4,0,1,1-7.2-7.46A7.57,7.57,0,0,1,192,66.61Z"/><path class="cls-1" d="M447.92,199.25a7.39,7.39,0,1,1-7.4-7.21A7.45,7.45,0,0,1,447.92,199.25Z"/><path class="cls-1" d="M445.25,39.48a7.61,7.61,0,0,1,7.62,7,7.4,7.4,0,0,1-14.8.44A7.61,7.61,0,0,1,445.25,39.48Z"/><path class="cls-1" d="M71.58,74.07a7.4,7.4,0,0,1,7.29,7.27,7.7,7.7,0,0,1-7.31,7.37,7.57,7.57,0,0,1-7.48-7.66A7.26,7.26,0,0,1,71.58,74.07Z"/><path class="cls-1" d="M305.06,120.68A7.28,7.28,0,0,1,298,128a7.14,7.14,0,0,1-7.32-7.12,7.22,7.22,0,1,1,14.43-.24Z"/><path class="cls-3" d="M123.05,300.47c0-36,.08-72-.09-107.93,0-4.25.86-5.62,5.42-5.61q93.21.25,186.4,0c4.12,0,5.32,1,5.29,5.22q-.27,46.47,0,92.94c0,4.32-1.36,5.51-5.4,5.15a106,106,0,0,0-11-.05c-6.86.1-8.52,1.71-8.52,8.66q-.06,45,0,89.94c0,13.49-.12,27,.09,40.48.06,3.72-1,4.8-4.76,4.79q-81.21-.18-162.41.05c-5.16,0-4.89-2.35-5.12-6-.28-4.39,1.46-5.17,5.43-5.15,26.32.16,52.64.09,79,.08,1.49,0,3,0,4.49-.07,2.76-.19,4.28-1.72,4.35-4.48a4.2,4.2,0,0,0-4.11-4.71,48.7,48.7,0,0,0-5-.11H129.61c-6.55,0-6.56,0-6.56-6.31Z"/><path class="cls-4" d="M305.13,386.83c0-27.32.07-54.63-.09-81.95,0-3.69.88-4.91,4.7-4.78,8.32.3,16.66.26,25,0,3.78-.11,5.28.78,5.14,4.93-.32,9.31-.05,18.65-.12,28,0,3.39.84,6.27,4.61,6.44,4.14.19,5.2-3,5.22-6.43.05-9.33.15-18.66,0-28-.08-3.48.55-5,4.56-5,21.66.2,43.31.16,65,0,3.27,0,4.32.93,4.24,4.24-.22,8.65-.08,17.32-.07,26,0,1.17-.05,2.34,0,3.5.22,3.16,1.54,5.74,5,5.64s4.81-2.45,4.8-5.79c0-9.33.3-18.67-.12-28-.22-4.83,1.48-5.8,5.88-5.62,8.15.33,16.33.26,24.48,0,3.58-.11,4.52,1.13,4.46,4.56q-.3,15.49,0,31c.07,3.41-1.16,4.36-4.34,4.14s-6.66,0-10,0c-3.15,0-5.26,1.52-5.39,4.65s2,4.76,5.05,5.07c1.32.14,2.73-.2,4,.14,3.48,1,10-2.45,10,2.2.06,5.15-6.38,1.34-9.76,2.44-1.22.39-2.65.05-4,.16-3,.25-5.32,1.59-5.3,4.82,0,3.46,2.34,4.91,5.65,4.91,3.67,0,7.33.06,11,0,2.06,0,3.08.65,3,2.87-.08,2.37-1.73,2-3.17,2.06-3.5,0-7,0-10.5,0s-6.11,1.43-6,5.17c.11,3.39,2.59,4.73,5.89,4.68,3.67-.05,7.33,0,11,0,1.78,0,2.77.41,2.78,2.48S466.86,384,465,384q-5.75-.11-11.49,0c-3.32.06-5.57,1.72-5.47,5.12.08,3.15,2.39,4.63,5.41,4.73,3.82.11,7.66.09,11.49,0,1.77,0,2.8.44,2.77,2.51s-1.14,2.45-2.87,2.43c-3.83,0-7.66,0-11.49,0-3.19,0-5.21,1.61-5.32,4.71s2.09,4.85,5.09,5c3.65.21,7.33,0,11,.12,1.56,0,3.49-.49,3.56,2.2.08,2.87-1.86,2.65-3.71,2.67-3.5,0-7,0-10.5.05-3.06,0-5.34,1.39-5.42,4.6-.08,3.47,2.24,5,5.55,5s6.67.22,10,0,4.3,1.16,4.16,4.33a129.24,129.24,0,0,0,0,15c.33,4.29-.8,5.6-5.38,5.57-28.65-.25-57.3-.13-85.95-.13h-43c-1.17,0-2.34-.06-3.5,0-2.84.25-4.8,1.72-4.94,4.64-.15,3.24,2,4.79,4.94,5.17a35.33,35.33,0,0,0,4.49.07c42.65,0,85.29.09,127.94-.1,4.57,0,5.52,1.31,5.4,5.58-.3,10.29-.08,10.3-10.21,10.3H311.68c-6.55,0-6.55,0-6.55-6.32Z"/><path class="cls-4" d="M113.19,466.35c-10-10-19.1-19.08-28.25-28.19-1.67-1.67-1-3.77-1-5.68q-.06-58.2,0-116.41a34.39,34.39,0,0,0-.23-5.47c-.42-2.59-2.11-4.33-4.75-4.28-2.82.05-4.6,1.75-4.83,4.7-.11,1.5-.06,3-.06,4.5,0,38.63-.07,77.27.09,115.9A12,12,0,0,1,70,441c-8.39,8.06-16.52,16.39-24.82,24.69-1.62-1.65-.89-3.39-.89-4.9q-.06-134.14-.13-268.28c0-4.29.87-5.61,5.41-5.54,19.65.29,39.31.22,59,0,3.71,0,4.72.92,4.71,4.68q-.22,112.91-.18,225.8c0,14.32.07,28.64.1,43Z"/><path class="cls-5" d="M209.39,443.93c27,0,54,.08,80.94-.08,3.85,0,5.21.88,5,4.9-.33,7-.22,14,0,21,.09,3.12-1,3.93-4,3.93q-82.19-.12-164.38,0c-3.06,0-4-.89-3.93-3.95.21-7.15.27-14.33,0-21.48-.15-3.59,1-4.38,4.47-4.36C154.76,444,182.08,443.93,209.39,443.93Z"/><path class="cls-4" d="M385.93,290.36c-10.81,0-21.63-.09-32.44.05-3.09,0-3.91-1-3.86-4,.35-19.11,17.17-35.34,36.8-35.31s36.43,16.18,36.78,35.32c.05,3-.72,4.08-3.84,4C408.23,290.27,397.08,290.36,385.93,290.36Z"/><path class="cls-3" d="M106.35,473.56H52.88c-.78-1.42.29-2,.92-2.64Q65,459.61,76.33,448.37c1.09-1.08,2-2.86,4-.86C88.65,456,97.11,464.34,106.35,473.56Z"/><path class="cls-3" d="M431.91,104.24a22.31,22.31,0,0,1-14.05,27.69c-11.4,3.74-24.32-3-27.93-14.48-3.73-11.87,2.65-23.82,14.71-27.57A21.47,21.47,0,0,1,431.91,104.24Z"/><path class="cls-3" d="M123.28,98.9a14.5,14.5,0,0,1,14.66,14.35,15,15,0,0,1-15,14.8c-7.63-.06-14.78-7.17-14.72-14.64C108.32,105.13,114.81,98.87,123.28,98.9Z"/><path class="cls-1" d="M271.89,249.88c0-6.16-.1-12.33.05-18.49.07-2.92-.82-4.38-3.95-4.21-3.42.18-6.1-1-5.91-5,.18-3.7,2.91-4.39,6-4.37,5.81,0,11.62,0,17.42,0,3,0,5.34.93,5.5,4.37.18,3.66-2.06,5.17-5.36,4.93-3.71-.26-3.87,1.79-3.91,4.64-.21,13.64.4,27.27-.58,40.92C279.37,298,257,321.24,232,325.17c-31.13,4.9-61.68-16.23-67.32-46.91a96.17,96.17,0,0,1-1.4-15.35c-.21-10.49-.13-21,0-31.48,0-2.79-.46-4.47-3.77-4.27s-5.61-1.08-5.5-4.8,2.71-4.53,5.85-4.52c5.64,0,11.27,0,16.9,0,3.33,0,6.2.68,6.2,4.71,0,3.66-2.52,4.8-5.74,4.63-3-.16-4.2,1-4.09,4.06.49,14.3-.72,28.61.83,42.91,2.35,21.56,23.64,41.26,45.5,41.82,29.9.76,52.2-20.75,52.43-50.6C271.93,260.2,271.89,255,271.89,249.88Z"/><path class="cls-1" d="M241.07,423c-3.14.07-4.68-1.92-4.7-4.59s1.58-4.64,4.68-4.62,5,1.62,4.9,4.83C245.86,421.65,244,423,241.07,423Z"/><path class="cls-1" d="M231.11,418.4c-.19,3-1.72,4.65-4.75,4.57s-4.54-1.83-4.44-4.81c.1-2.77,1.69-4.27,4.45-4.32C229.4,413.79,230.92,415.44,231.11,418.4Z"/><path class="cls-2" d="M412.39,384.61c12.94-3,22,1.32,24.93,11.81,1.94,6.94,0,13.26-4.27,18.73-7.05,9.05-16.86,15-25.72,22-2.55,2-5,.71-7-1.48-4.72-5.16-9.59-10.18-14.15-15.47-1.73-2-2.78-2.7-5.11-.74-11.69,9.87-10.48,8.44-20.24-2.19-6.17-6.74-12.88-13-18-20.67-4.77-7.1-7.83-14.69-5.92-23.46,1.82-8.34,6.83-14,15.05-16.34s15.48-.67,21.45,5.6c1.24,1.3,1.79,3,4.13,1,7.46-6.4,15.9-6.58,24.1-1.95s11.85,12.23,10.64,21.83A8.5,8.5,0,0,0,412.39,384.61Z"/><path class="cls-3" d="M376.81,399.86c.12,1.66-.23,3.56.46,4.93,2.55,5.09-1.94,6.28-4.44,8.52-1.25,1.11-2.15-.09-2.91-.91-7-7.6-14.74-14.52-20.2-23.38-3.05-4.95-4.94-10.25-2.58-16.09,1.79-4.43,5.19-6.72,10-7.08s8.52,1.07,10.71,5.58c.29.6.61,1.19.91,1.78,4.08,8,7.1,8.26,12.21,1,3-4.29,6.64-7,12.19-5.65a12,12,0,0,1,9.59,10.23c.46,2.92,0,4.43-3.54,3.23C388.61,378.32,375.81,388,376.81,399.86Z"/><path class="cls-3" d="M386.63,397.71c-.25-2.32,1.9-5,5.81-6.31,4.17-1.35,7,.81,9.17,4.17a19.78,19.78,0,0,1,.88,1.79c2.87,5.71,6.46,6,10.33.67,2.26-3.1,4.63-5.78,9-4.67,5.47,1.38,7.71,6.49,5.32,12.27-2.26,5.48-7,8.82-11.25,12.47-3.25,2.79-6.91,7.07-10.38,7.06-3.64,0-6.3-5.35-9.22-8.5C391.8,411.82,387,407,386.63,397.71Z"/></svg>