<svg id="Слой_1" data-name="Слой 1" xmlns="http://www.w3.org/2000/svg" viewBox="0 0 512 512"><defs><style>.cls-1{fill:#fefefe}.cls-2{fill:#5d5d70}.cls-3{fill:#86c5ed}.cls-4{fill:#87c5ed}.cls-5{fill:#88c6ed}.cls-6{fill:#5d5d71}.cls-8{fill:#8fc9ee}.cls-10{fill:#8dc8ee}.cls-13{fill:#8cc7ed}.cls-14{fill:#8ec9ee}.cls-20{fill:#8cc8ee}.cls-21{fill:#8dc7ec}.cls-24{fill:#a3d0f1}.cls-25{fill:#fdfdfd}.cls-26{fill:#fbfcfc}</style></defs><path class="cls-1" d="M511.91 256.54q0 125.67.09 251.33c0 3.39-.62 4.11-4.08 4.11q-251.84-.17-503.69 0C.32 512 0 510.82 0 507.52Q.14 256 0 4.37C0 .81.68 0 4.33 0q251.6.18 503.19 0c4 0 4.47 1.17 4.47 4.72q-.16 125.91-.08 251.82z"/><path class="cls-2" d="M129.1 284c9.63-7.13 20.48-9.55 32.35-9.06 10 .42 19.94 0 29.92.14 2.69 0 3.89-.56 3.71-3.52-.27-4.48-.16-9-.21-13.45-1.12-1.76-1.48-3.51 0-5.28.35-3.68 2.91-3.82 5.79-3.81q32.49.06 65 0c2.83 0 5.66-.08 8.49-.12 3.32-.77 6.63-2.5 10 0h36.88c1.63-1.34 3.58-1.29 5.53-1.3q30-.39 60 0c1.91-.07 3.83-.11 5.74 0 9.14-.2 10.31.92 10.33 10.13 0 4.63.18 9.27-.11 13.9 0 1.93 0 3.86-1.28 5.47Q401 336 401 395c0 4.24-2 9.92 1 12.34 2.52 2.06 8 .56 12.11.61 2.83 0 5.68.17 8.49 0 2.62-.18 3.42.71 3.43 3.34 0 2.87-1.56 2.67-3.5 2.73-10.65.33-10.39.37-10.7 11-.13 4.4 1.37 5.13 5.33 5 11.82-.26 23.65-.12 35.48-.08 1.94 0 4.31-.93 4.4 2.82.09 4-2.42 3.13-4.58 3.15-4.17.05-8.34.1-12.5 0-21.95-.48-43.86 1.82-65.81 1-2.42-.09-3.42.7-4.11 3.07-4 13.58-14.41 22.32-27 22.92-12.88.61-24.14-7-29.26-19.92-.83-2.09-1.68-3.1-4.17-3.09q-64.47.13-128.94 0c-2.37 0-3.28.74-4.09 3.07-4.88 14-17.49 22.79-30.64 21.78-14.08-1.09-24.9-10.86-28-25.62-.6-2.85-1.94-3.26-4.41-3.24-13.83.09-27.66-.1-41.48.12-4.56.08-6.28-1.4-6.07-6 .28-6.32 0-12.66-.06-19-.9-3.63 1.74-3.8 4.13-4.34 1.85-.42 4.4 1 5.3-2a224.24 224.24 0 00.08-26.94 31.36 31.36 0 017-22.22c1.64-2.21 2.94-4.64 4.43-7 1.66-3 3.75-5.74 5.44-8.74 1-1.75 2.16-3.39 3.1-5.17 1.66-2.64 3.23-5.35 4.85-8 1.16-1.63 2-3.48 3.1-5.12a52 52 0 004.14-6.81c1.69-2.4 3.05-5 4.6-7.49 3.59-6.21 7.53-12.21 11.25-18.34 1.71-1.83 3.07-4.13 5.76-4.83z"/><path class="cls-3" d="M326 248.85h-5.09c0-12.82-.09-25.65.13-38.47.06-3.59-1.13-4.65-4.57-4.42-4 .26-8 0-12 0-1.37 0-2.74-.14-3.35-1.62s.27-2.54 1.25-3.51c5.81-5.73 11.65-11.43 17.4-17.22 1.62-1.64 3.5-1.64 5.52-1.64 7.32 0 14.66-.09 22 .06 2.84.06 3.78-.91 3.72-3.73-.16-6.66.09-13.33-.11-20-.11-3.74.95-5.42 5-5.39q33.48.21 67 0c4.07 0 5.19 1.58 5.07 5.35-.2 6.49.09 13-.12 19.48-.1 3.21.83 4.41 4.19 4.3 6.82-.23 13.65 0 20.48-.12a8.15 8.15 0 016.56 2.7c5.25 5.34 10.76 10.43 16.19 15.59 1.1 1 2.43 2 1.87 3.74-.64 1.91-2.4 2.08-4.14 2a2.78 2.78 0 00-.5 0c-4.07.41-9.62-1.92-11.84 1.09-2 2.74-.7 8-.73 12.13-.05 10 .06 20-.07 30 0 3 .8 4.18 3.91 5.05a38 38 0 0125.82 49.16c-5.64 16.48-16.05 30.15-26.52 43.72-2 2.55-2.85 4.09-.43 7.06 4 5 3.06 12.72-1.48 16.74s-12 4.23-16.49.34c-5.54-4.78-6.81-11.21-2.34-16.81 2.56-3.2 1.66-4.65-.41-7.36-9.17-12-18.1-24.21-24.26-38.21-4.53-10.29-5.93-20.62-1.59-31.88h-15v-5.1c3.29-2.4 7.08-1.37 10.64-1.34 4 0 6.7-1.36 9.27-4.57 6.74-8.4 15.79-13.08 26.47-14.41 5.75-.71 5.93-.67 5.95-6.2.06-10.81-.07-21.62.07-32.43.05-4.07-1.52-5.6-5.59-5.55-11.15.15-22.3-.2-33.43.15-6.17.2-11-1.58-14.93-6.28-1.43-1.69-2.8-3.7-5.27-4.34-1.39 1.65-.82 3.56-.83 5.3-.05 13.31 0 26.61-.05 39.92 0 2.28.36 4.7-1.4 6.65h-5.1c-1.86-2.1-1.43-4.69-1.44-7.15v-40.44c0-1.59.51-3.29-.74-5.2a40.45 40.45 0 00-8.18 7.11 13.61 13.61 0 01-10.69 4.4c-10.82-.1-21.64-.08-32.46 0-5.26 0-5.77.51-5.82 5.68-.09 9.66 0 19.31 0 29-.08 2.32.24 4.74-1.54 6.67zM76.91 405.88c-.32 3.69-3.15 1.72-4.81 2-2.5.35-5.36-.42-6.17 3.14-12.83 0-25.66 0-38.48-.08-1.76 0-4.3.94-4.34-2.43s2.46-2.51 4.26-2.51c11.71-.29 11.71-.26 11.71-12.16 0-43.14.05-86.29-.1-129.43 0-4.17 1-6.33 5.27-7.43 7.88-2 15.58-4.75 23.42-6.94 3.67-1 4.73-1.94 2.38-5.83C64.92 235.66 60 227 58.89 216.72a36.58 36.58 0 0130.76-39.58c20.49-3 38.61 9.06 42.91 29.15 2.64 12.33-2.13 23.22-8.13 33.61-2.24 3.89-4.67 7.68-7.21 11.38-1.61 2.33-1.16 3.21 1.47 4.18 10.4 3.82 10.36 3.91 10.37 15v13.49l-4.86 5.23c-2.53-2.42-1.66-5.59-1.72-8.49-.16-8.13-.08-8.14-8.39-8.14h-6a10.23 10.23 0 00-7.23 2.75c-3.84 3.46-5.82 3.58-9.56.36a13 13 0 00-9.14-3.15c-9.83.07-19.65 0-29.47 0-6.64 0-7.07.43-7.07 7.09v118.37c.06 6 .36 6.28 6.14 6.34 6.33.06 12.65 0 19 0 2.15.1 4.39-.1 6.15 1.57z"/><path class="cls-4" d="M194.84 252.79v5.28c-34.57-14.74-54.75-40.73-59.86-77.9-4.27-30.95 5.77-57.64 27.43-79.52 16.41-16.58 36.79-25.78 60.36-27.71 51.49-4.23 96.14 33.45 103 83.91a72.69 72.69 0 01.31 8.49c0 1.65.27 3.54-2.3 3.51-2.29 0-2.68-1.58-2.67-3.4a69.46 69.46 0 00-2.88-20.16c-10.9-36.76-35-59.3-72.8-66.25-50-9.19-96.76 24.56-105.24 74.57-7.01 41.59 14.81 82.39 54.65 99.18z"/><path class="cls-4" d="M298.51 169c-2.83 2.92-5.14 5.25-7.39 7.64-1.24 1.33-2.32 1.59-3.77.19s-1.05-2.49.22-3.73c3.57-3.5 7.08-7 10.61-10.59 2.06-2.06 4-2 6 .14 2.75 2.9 5.63 5.68 8.45 8.51 1.17 1.17 2.53 2.06.65 4-2.08 2.15-3 .54-4.39-.67s-2.41-3.16-4.74-3.87c-1.24 14.63-5.32 28.16-14 40-12.85 17.5-29.92 27.88-51.65 30.52-43.2 5.25-83.91-29.36-82.29-75.41 1.22-34.62 25.2-65.23 62.23-71.49a67.79 67.79 0 0121.79 0c1.47.22 4.52-.53 4.29 2.69s-2.48 3.4-5 3.06c-25.1-3.4-45.13 5.37-62.13 24-32.7 35.74-14.83 101.75 40.54 111.76 37.52 6.79 74.75-18.39 80.17-57.6.34-2.65 1.24-5.21.41-9.15z"/><path class="cls-4" d="M203.27 163c3.16 0 6.42-.5 9.47.1 6 1.19 9.93-2.24 14.07-5.5 1.63-1.29 1.16-3 1.17-4.6 0-9 0-18 .06-27 0-1.65-.76-3.88 2.27-4 3.33-.15 2.69 2.22 2.69 4.1 0 8.82.06 17.64 0 26.46 0 2.63.24 4.6 3 6.14 3.72 2.11 5.77 5.74 4.89 10.11-.52 2.57.59 3.62 2.39 4.72 4.69 2.85 9.38 5.69 14 8.64 1.44.92 3.46 1.67 2 4.2s-2.94 1.13-4.48.16c-3.38-2.11-6.82-4.14-10.17-6.3-3.88-2.51-7.34-4.78-12.64-2.57-4.25 1.77-9.14-1.39-11-6.35-1.16-3-2.84-3.43-5.57-3.39-8.82.12-17.64.07-26.46 0-1.73 0-3.83.54-3.87-2.43s2-2.54 3.76-2.54c4.77.05 9.59.05 14.42.05z"/><path class="cls-5" d="M284.05 248.85h-10c15.67-9.21 28.28-21.42 36.78-37.64.75-1.43 1.45-2.56 3.44-1.57 2.17 1.09 1.72 2.39.86 4.06-6.87 13.48-17 24.12-28.93 33.17-.74.62-1.42 1.33-2.15 1.98z"/><path class="cls-2" d="M414.33 392.92c-1.72-.32-4.45 1.23-4.5-2.88-.06-3.92 2.37-3.18 4.5-3.07 2 .1 4.66-1.23 4.72 2.86.06 3.92-2.36 3.04-4.72 3.09z"/><path class="cls-6" d="M436.31 413.91c-2.31 0-4.46.67-4.49-2.89 0-3.37 1.78-3.22 4-3.1 2 .1 4.2-.7 4.21 2.9.02 3.34-1.72 3.3-3.72 3.09z"/><path d="M221.87 47.18c2.1 0 3.86-.34 4.09 2.2.31 3.58-2.62 2.71-4.39 3.26-2.07.65-2.47-.71-2.59-2.45-.16-2.55 1.22-3.19 2.89-3.01z" fill="#93cbef"/><path class="cls-8" d="M135.94 101c-1.16 1.35-1.41 3.88-3.78 3.86-1.3 0-3.39-.83-2.85-2.59s1.18-4.44 3.78-4.3a3.14 3.14 0 012.85 3.03z"/><path d="M115 164.51c0 1.66.14 3.43-2.39 3.46-2.8 0-2.64-1.82-2.63-3.72s.21-3.28 2.65-3.19 2.37 1.72 2.37 3.45z" fill="#87c5ec"/><path class="cls-10" d="M115.28 134.14c1.56 1 4.1.5 3.49 2.67-.44 1.61.49 4.53-2.4 4.64-1.38.06-3.71-.22-3.17-2.76.35-1.62.46-3.54 2.08-4.55z"/><path d="M291.09 127.44c2.26 1 3.08 3 3.61 4.7.58 1.9-1.52 2.66-2.82 2.69-2.54 0-2.95-2.53-3.49-4.23-.61-1.9 1.96-1.8 2.7-3.16z" fill="#8ec8ed"/><path d="M119.8 121.56c1.8.58 3.79.79 3.14 2.83-.51 1.64 0 4.49-2.91 4.35-1.28-.07-3.37-.61-2.76-2.66.49-1.65.24-4.08 2.53-4.52z" fill="#92cbee"/><path class="cls-13" d="M266 53.66c-.75 1.49-.73 3.64-2.81 3.11-1.68-.43-4.33-.09-4.22-3.17.07-1.88.94-2.78 2.84-2.47s3.62.48 4.19 2.53z"/><path class="cls-14" d="M274.85 115c-1.66-1.23-4-1.78-4.39-3.82a2.74 2.74 0 012.65-3 4.6 4.6 0 014.3 3.52c.35 1.3-1.08 2.6-2.56 3.3z"/><path class="cls-10" d="M266.62 103.93c-1.07 1.62-1.27 4-2.85 3.49s-4.58-.63-4.51-3.43c0-1.25.58-3.22 2.64-2.75a8.44 8.44 0 014.72 2.69z"/><path class="cls-8" d="M290.8 63.92c-.67 1.41-1.18 3.33-3 2.81s-4.29-.75-4.24-3.28c0-1.23.8-3.45 2.64-2.91s3.8 1.28 4.6 3.38z"/><path d="M235.6 52.18c-1.63-.06-3.5.19-3.41-2.35s1.8-2.74 3.79-2.71 3.18.44 3.09 2.75c-.07 2.52-1.8 2.32-3.47 2.31z" fill="#90c9ee"/><path d="M349.65 148.64c.55 2.54-1.32 2.63-2.66 2.81-3.32.45-2.29-2.58-2.8-4.1-.71-2.07 1.09-2.24 2.63-2.49 3.71-.59 1.44 3.03 2.83 3.78z" fill="#8ac6ed"/><path d="M346.85 135.28c.39 2.71-1.33 3-2.73 3.07-3.1.18-2.26-2.75-2.8-4.31-.78-2.22 1.57-2.28 2.78-2.42 3.29-.4 1.53 2.99 2.75 3.66z" fill="#8ec7ec"/><path d="M252.77 50.8c-.44 2-1.06 3.57-3.3 3.09-1.77-.37-3.75-.57-3.53-3.22.12-1.51.57-2.93 2.3-2.23 1.57.63 4.36-.44 4.53 2.36zM126 116.93c-1.44-1-3.65-.84-3.33-2.79s.73-4.28 3-4.58c1.21-.15 3.28.71 3.06 2.52a7.32 7.32 0 01-2.73 4.85z" fill="#8cc6ec"/><path class="cls-8" d="M249.77 96.8c1.49.67 4.42-.3 3.8 3-.38 2-1.77 2.66-3.68 2.19-1.69-.42-3.74-.45-3-3.29.4-1.7.71-2.98 2.88-1.9z"/><path d="M327.33 102.57a7.3 7.3 0 01-3.63-4.95c-.22-1.34 1.9-2.47 3.23-2.23 2.07.38 3.08 2.54 3.39 4.3.24 1.39-1.62 2.2-2.99 2.88z" fill="#8ec8ee"/><path class="cls-14" d="M140.31 94.52c-1.22-.87-3.28-1.31-3-2.93.37-1.84 1.61-3.86 3.71-4.13a2.57 2.57 0 012.75 2.77 5.4 5.4 0 01-3.46 4.29z"/><path class="cls-8" d="M199.66 55.33c-.09 2.06-2.41 1.45-3.93 2-2.48.91-3-1.14-3.14-2.58-.29-2.61 2.14-2.28 3.71-2.67 2.08-.5 2.97.78 3.36 3.25z"/><path class="cls-20" d="M309.77 82.63c-1.83-1.14-3.83-2.22-4.11-4.17-.17-1.19 1.53-3.19 2.87-2.82 1.73.49 4 1.54 4.12 3.79.05 1.44-1.65 2.28-2.88 3.2zM164 72.09c-1.09 2.06-2.49 3.61-4.46 3.86a2.59 2.59 0 01-2.69-2.89c.36-2 2.36-3.19 4.16-3.61s2.05 1.68 2.99 2.64zM275.26 61c-1-1-4.12-.25-3.52-3.41.25-1.31.65-2.94 2.44-2.38s4.36.36 4.16 3.19c-.1 1.36-.6 3.06-3.08 2.6z"/><path class="cls-21" d="M187 59.08c-.22 2.69-2.77 2.45-4.38 3.14-1.9.81-2.23-1.21-2.39-2.3-.4-2.79 2.17-3 3.9-3.6 2.05-.68 2.13 1.44 2.87 2.76z"/><path class="cls-13" d="M171.07 68.64c-2.15.27-2.6-1.33-2.8-2.43-.49-2.68 2.09-3.15 3.69-3.86 1.95-.87 2.74 1.17 2.82 2.48.15 2.52-2.53 2.65-3.71 3.81z"/><path class="cls-20" d="M299.4 74.07c-1.62-.94-3.91-1.43-4.23-3.57-.19-1.34.92-3.2 2.59-2.9 1.84.33 4 1.37 4.41 3.33.22 1.07-1.04 2.68-2.77 3.14zm-148.92 3.47c1.48.65 3.17 1.81 3 3.07a5.56 5.56 0 01-4 4c-1.52.4-2.88-1.72-2.78-2.87.12-2 2.3-2.97 3.78-4.2zm167.96 6.99c1.75 1.11 3.2 2.59 3.34 4.63a2.58 2.58 0 01-2.57 2.57c-2.23-.19-3.48-2.23-3.74-4.11-.18-1.35 1.53-2.43 2.97-3.09z"/><path class="cls-13" d="M337.44 110.82c.17 2.2-1.7 2.67-2.87 2.71-2.51.1-2.8-2.48-3.32-4.12-.57-1.8 1.47-2.72 2.75-2.71 2.45.02 2.25 2.78 3.44 4.12zm-50.03 10.1a3.24 3.24 0 01-3.18 2.9c-2.09-.11-3.43-1.95-3.89-3.83-.33-1.37 1.23-2.55 2.39-2.63 2.53-.17 2.99 2.64 4.68 3.56z"/><path d="M208.26 49.28c3.1-.65 4.23.54 4.33 2.39.14 2.83-2.24 2.2-3.92 2.48-2.34.4-2.9-1.18-3-2.91-.14-2.69 2.14-1.83 2.59-1.96z" fill="#94caed"/><path d="M340.28 118.53c2.17.91 2.17 3.14 2.53 4.91s-1.53 2.25-2.68 2.23c-2.7-.06-2.76-2.6-3-4.38s1.69-2.13 3.15-2.76z" fill="#8bc6ec"/><path class="cls-21" d="M298 147c-3.17-.07-3.09-2.57-3.57-4.27-.6-2.13 1.52-2.49 2.8-2.51 2.45 0 2.3 2.37 2.92 4 .94 2.36-1.53 1.87-2.15 2.78z"/><path class="cls-5" d="M115.91 151.74c-.22.89.34 3-2.35 2.63-1.57-.24-3.37-.17-2.67-2.79.44-1.64-.14-3.75 2.7-3.65 2.31.07 2.66 1.39 2.32 3.81z"/><path class="cls-1" d="M298.11 255c30.65 0 61.3.06 91.95-.09 3.77 0 5 .77 5 4.84q-.26 56.7 0 113.42c0 4-1.13 4.89-5 4.86-23-.18-46 0-69-.16a10.11 10.11 0 00-7.9 3.25c-8.08 8.16-16.41 16.09-24.54 24.21a8.5 8.5 0 01-6.6 2.65c-25.48-.09-51-.13-76.45 0-3.65 0-4.73-.77-4.72-4.6q.22-72 0-143.9c0-3.86 1.12-4.6 4.74-4.58 30.9.17 61.71.1 92.52.1z"/><path class="cls-24" d="M195 344.73c0 19.3-.17 38.61.13 57.91.07 4.63-1.4 5.71-5.62 5.36s-8.31 0-12.48-.08c-7.42-.09-14.76.5-22-2.64-5.6-2.42-11.88-1.62-17.53.82a25.42 25.42 0 01-10.64 1.9c-13.14-.06-26.3-.15-39.44.06-3.54.05-4.51-1-4.44-4.48.22-10.64-.21-21.31.19-31.95.27-7.35 6-12.31 9.58-18.19.45-.74 2.83-.42 4.31-.42h69.9c7 0 7.07 0 7.08-6.88 0-20.13.09-40.27-.08-60.41 0-3.65.8-5.1 4.66-4.75a67.59 67.59 0 0011.47 0c3.86-.32 5.07.86 5 4.89-.2 19.58-.09 39.22-.09 58.86z"/><path class="cls-1" d="M169.84 413.93h13.81c33.31 0 66.61 0 99.92.07a10.64 10.64 0 008.34-3.39c8.07-8.18 16.39-16.1 24.53-24.21a8 8 0 016.15-2.52q34.21.15 68.44 0c2.92 0 4.15.56 4 3.8a164.7 164.7 0 000 16.48c.17 3.21-1 4.15-4 3.79-1.48-.18-3 .09-4.49 0-2.42-.23-2.63 1.12-2.65 3s.32 3.09 2.68 3c5.33-.13 10.67.08 16-.09 2.58-.08 3.57.66 3.41 3.35a83.29 83.29 0 000 10.48c.18 2.8-1 3.28-3.49 3.25-9-.11-18-.23-27 .05-3.5.11-4.74-1-5.58-4.36-3.17-12.89-14.55-22.19-27.15-22.68a29.93 29.93 0 00-30.55 25.91c-.41 3.08-1 4.11-4.31 4.1q-62.94-.17-125.89 0c-2.65 0-4.16-.24-4.46-3.49-.55-5.93-3.3-11.07-7.71-16.54zm-92.93-8.05c-9.5 0-19-.06-28.48.1-3 .06-4.43-.53-4.42-4q.16-63.45 0-126.9c0-3.45 1.25-4.14 4.37-4.1q18 .22 36 0c3.2 0 5.56.6 7.7 3.31 3.21 4.06 4.94 4 7.72 0 1.89-2.72 4.09-3.44 7.16-3.31 4.49.19 9 .18 13.49 0 2.9-.12 3.73 1 3.66 3.78-.12 4.82.08 9.65.15 14.47l-11.42 18.93c-2.39 1.49-5.06 1.42-7.72 1.42-14.77 0-29.54-.05-44.31 0-2.35 0-5.65-.85-6.53 2.15-1.14 3.95-1.45 8.3.35 12.17.91 1.95 3.54 1.43 5.48 1.45 11.28.08 22.57 0 33.85.06 2.43 0 5-.42 7.06 1.59a31.52 31.52 0 01-4.87 8.05c-2.15 1.69-4.71 1.42-7.18 1.43-9.65.05-19.3-.05-28.95.05-5.68.06-6.23.71-6.37 6.36-.24 9.4-.16 9.49 9.2 9.5 5.33 0 10.65-.11 16 .07 2 .07 4.47-.34 5.52 2.31-6.5 8-8.09 17.21-7.38 27.31.5 7.92.01 15.92-.08 23.8zM392 248.84V192c3.43 3.32 6.12 5.46 8.23 8.06 3.89 4.78 8.54 6.42 14.76 6.15 11.8-.51 23.63 0 35.44-.23 3.41 0 4.63.85 4.57 4.44-.2 12.81-.18 25.63 0 38.44.05 3.33-1.07 4.18-4.26 4.22-12.65.17-22.69 5.68-30 15.86-1.68 2.33-3.35 3.25-6.12 3.13-4.48-.2-9-.08-13.47-.1-.05-5.32-.11-10.64-.14-16 0-6.86 0-6.86-7-7-.68.03-1.35-.08-2.01-.13zm-66 .01c0-12.82.1-25.64-.12-38.46-.06-3.57 1.1-4.49 4.54-4.44 12.15.19 24.31 0 36.46.14a9.89 9.89 0 007.91-3.24c3.55-3.65 7.43-7 12.09-11.31v57.31zM116.71 347c9.05-15 17.44-29.08 26.11-43 3.52-5.67 9.4-6.93 15.66-6.94 9.56 0 9.56 0 9.55 9.56v36.92c0 1.86.28 3.57-2.64 3.55-15.91-.19-31.84-.09-48.68-.09z"/><path class="cls-24" d="M172 434.38a24.36 24.36 0 11-24.5-24.31 24.23 24.23 0 0124.5 24.31zm169.22-24.45A23.2 23.2 0 01364.94 433c.12 13.49-10 23.81-23.48 23.85a23.48 23.48 0 01-.24-47zM96.28 347c7.74-12.75 15-24.8 22.37-36.84 3-5 6.13-9.91 9.15-14.89 5.7-9.38 14.51-13.33 25-14.16 3.65-.29 7.36.24 11-.16 4.38-.49 4.3 2 4.32 5.08s0 5.42-4.36 5.09a36.55 36.55 0 00-12.4.65 24.12 24.12 0 00-15.46 11.64c-7.45 12.8-15.38 25.32-22.78 38.16-2.34 4.06-4.83 6.4-9.75 5.49-2.05-.42-4.21-.06-7.09-.06z"/><path class="cls-1" d="M125.37 413.93c-3.55 4.68-6.1 8.8-7.07 13.58-.46 2.26-1.65 2.43-3.47 2.43-13.16 0-26.32-.1-39.47 0-2.69 0-3.27-.88-3.35-3.42-.39-12.66-.47-12.64 12.06-12.62 13.45.1 26.93.03 41.3.03z"/><path class="cls-3" d="M101 327c-14.45 0-28.91-.18-43.35 0-4.46.07-5.69-1.51-5.66-5.78C52.1 308 52 308 65 308q23.91 0 47.83.14l-4.6 7c-15.09-1.27-30.23-.38-45.23-.54-1.81 0-3.92 0-4 2.67 0 2.83 2.16 3 4.19 3.07 11.28.16 22.57 0 33.85.1 2.43 0 5-.45 7 1.6A14.32 14.32 0 01101 327z"/><path class="cls-25" d="M104.08 322c-14.13 0-28.26-.18-42.38 0-3.79.05-4.76-1.12-4.76-4.8s1.34-4.39 4.67-4.35c14 .16 27.92 0 41.88.11 1.78 0 4.23-1 4.73 2.12a23.36 23.36 0 01-4.14 6.92z"/><path class="cls-3" d="M84.32 354.78c-7.2-1.82-14.51-.57-21.77-.77-11.53-.32-10.47 1.41-10.48-10.37a24.85 24.85 0 000-3c-.54-4.33 1.21-5.86 5.63-5.77 12.81.26 25.63.15 38.44.18a11.66 11.66 0 01-3.08 4.95c-1.79 1.54-4 1.46-6.13 1.48H68.06c-1.32 0-2.65-.1-4 0-2.16.22-5.16-.48-5.07 3.1.08 3.23 2.88 2.68 4.88 2.73 6 .15 11.92 0 17.88.09 2.11 0 4.36-.26 6.07 1.49-1.15 2-2.33 3.94-3.5 5.89z"/><path class="cls-25" d="M87.85 348.94c-8.62 0-17.23-.1-25.85.07-3.29.07-5.17-.24-5.07-4.42.09-3.73 1.12-4.79 4.82-4.71 10.43.25 20.87.11 31.31.12z"/><path class="cls-1" d="M486.12 289.74c.21 12.51-5.13 21.78-10.68 30.85a254.15 254.15 0 01-20.38 28.27c-1.76 2.14-2.87 2.35-4.58.23-12-14.89-24-29.82-30.15-48.32a32.45 32.45 0 0117.25-39.62c15.66-7.15 35.2-1.91 43.73 11.87 3.38 5.48 5.23 11.47 4.81 16.72z"/><path class="cls-25" d="M309.18 201c5.12-5 9.15-8.88 13.15-12.82A4.79 4.79 0 01326 187c18.94 0 37.88 0 57 .46-7 5.3-10.57 14.68-22.43 13.83-16.47-1.17-33.13-.29-51.39-.29z"/><path class="cls-1" d="M395.85 187h55.66c1.34 0 2.71-.07 3.73 1 4 4.17 7.9 8.35 12.27 13h-17.58c-12.16 0-24.32-.15-36.47.09-3.68.07-6.39-.9-8.69-3.7-2.93-3.56-6.03-7-8.92-10.39zM407 158.05c4.15 0 8.3.09 12.45 0 2.45-.08 3.65.6 3.58 3.33q-.23 8.7 0 17.42c.07 2.77-1.2 3.3-3.61 3.28q-11.94-.13-23.89 0c-2.46 0-3.63-.62-3.56-3.33q.22-8.72 0-17.42c-.07-2.76 1.17-3.38 3.6-3.3 3.75.1 7.57-.03 11.43.02zm-34.18 0c4 .59 10.53-2.25 13.32 1.19 2.39 2.95.76 9.2.78 14 .05 8.77 0 8.77-8.95 8.78-6 0-12-.18-17.92.06-3.37.14-4.28-1.13-4.14-4.3.21-5.31.23-10.63 0-15.93-.14-3.2 1.16-4 4.07-3.85 4.02.2 7.96.05 12.84.05z"/><path class="cls-26" d="M460.08 361.32c0 3-.83 5.66-3.82 7s-5.93 1.33-8.52-.65-3.34-4.92-2.74-8.08c.64-3.4 2.84-4.3 5.56-2.26 1.2.9 2.17 1.27 3.59.53 4.39-2.32 5.85-1.4 5.93 3.46z"/><path class="cls-1" d="M96.05 182c24.31.1 38.85 23.14 28.45 46-6.72 14.81-16.51 27.59-26.45 40.28-1.3 1.65-2.54 1.94-4 .12-11.13-14.07-22.67-28-28.4-45.33-7-21.22 7.93-41.16 30.4-41.07z"/><path class="cls-25" d="M85 266H46.86c-1.12 0-2.44.2-2.71-1.46s.64-2.33 2.11-2.78q13.58-4.14 27.12-8.4c1.83-.57 2.73.29 3.67 1.65 2.4 3.38 4.88 6.7 7.95 10.99z"/><path class="cls-26" d="M107.61 266c3.5-7 9.69-8.35 15.45-3.82a2.3 2.3 0 01.81 2.6c-.29 1.28-1.4 1.21-2.37 1.21-4.56.01-9.12.01-13.89.01z"/><path class="cls-2" d="M317.08 319a33.08 33.08 0 00-3.45 0c-2.27.24-2.75-.92-2.68-2.92.06-1.76 0-3.31 2.48-3.11 1.8.14 3.61 0 5.42 0 2 0 4.22-.71 4.25 2.89 0 3.41-1.83 3.22-4.05 3.11-.65.03-1.31.03-1.97.03z"/><path class="cls-6" d="M271.74 319.15c-2.58-.69-6 1.45-5.83-3.41.17-4.61 3.43-2.71 5.3-2.63 2.15.09 6-2.19 5.84 3.08s-4.11 1.36-5.31 2.96zm22.74.06c-2.19-.93-5.5 1.52-5.56-3.09-.07-5.35 3.79-2.84 5.91-3 1.87-.14 5.12-1.86 5.23 2.7.14 5.51-4.06 1.97-5.58 3.39z"/><path class="cls-2" d="M169.5 372c-2.21-.58-5.71 1.5-5.51-3.31.19-4.49 3.45-2.68 5.4-2.64s5.63-2 5.67 2.84-3.62 2.32-5.56 3.11z"/><path class="cls-3" d="M82.57 302c-8.32 0-16.64-.15-24.95.06-4 .1-5.63-1-5.63-5.33C52 283 51.82 283 65.59 283s27.61.15 41.41-.08c4.41-.07 6.24 1 6.17 5.83C113 301.94 113.15 302 100 302z"/><path d="M148.26 440c-3.77-.58-6.2-2.45-6.09-6.16s2.44-5.87 6.11-5.77a5.48 5.48 0 015.64 5.74c.08 3.7-2.38 5.5-5.66 6.19zm193.49-.06c-3.52-.68-5.85-2.65-5.65-6.35a5.46 5.46 0 015.83-5.54c3.64 0 6 2.28 5.91 5.94s-2.49 5.53-6.09 5.95z" fill="#5e5e72"/><path class="cls-4" d="M452.42 276.19c8-.05 16.37 8 16.43 15.85.06 8.64-8.16 16.91-16.6 16.7s-15.49-7.61-15.47-16.36 7.22-16.14 15.64-16.19zm-341.27-61.45c-.07 8.2-7.17 15.3-15.24 15.26a15.66 15.66 0 01-15.3-15.78c.23-8.12 7.56-15.24 15.58-15.14s15.03 7.52 14.96 15.66z"/><path class="cls-25" d="M82.55 297c-7.3 0-14.62-.16-21.92.07-3.5.11-3.68-1.71-3.59-4.32s-.42-4.87 3.6-4.82q21.92.3 43.84 0c4 0 3.51 2.31 3.6 4.82s-.12 4.42-3.61 4.31c-7.3-.26-14.61-.06-21.92-.06z"/><path d="M441.78 292.55c0-6.65 4.67-11.48 11.13-11.4a11.4 11.4 0 0110.92 11.37 11.56 11.56 0 01-11.17 11.2c-6.05.15-10.84-4.72-10.88-11.17z" fill="#fdfdfe"/><path class="cls-25" d="M106.13 214.61c0 6.36-3.86 10.29-10.19 10.38a10.45 10.45 0 010-20.89c6.15-.02 10.2 4.18 10.19 10.51z"/></svg>