<svg id="Слой_1" data-name="Слой 1" xmlns="http://www.w3.org/2000/svg" viewBox="0 0 512 512"><defs><style>.cls-1{fill:#3d454f;}.cls-2{fill:#e5e6e7;}.cls-3{fill:#2a9d8f;}.cls-4{fill:#6bddca;}</style></defs><path class="cls-1" d="M416.33,378.13c15.7-19.61,26.61-41.72,33.48-65.76q19.47-68.13-7.46-133.84c-1.31-3.18-.89-4.42,2.37-5.71,7.41-2.93,14.67-6.25,21.88-9.65,2.77-1.31,3.89-.81,5,2a239.35,239.35,0,0,1,17.45,72.41c3.14,40.34-3,79.22-20.41,115.64C434,425.71,377.16,471.16,297.85,485.81c-69.57,12.84-133.06-3.3-188.32-47.64-49-39.32-77.9-90.74-85.46-153.34C16.25,220.1,32.35,161.52,73,110.5,112.58,60.91,164.24,31.68,227.4,24c63.64-7.7,121,8.68,172.09,47.2,2.94,2.23,3.66,3.65.9,6.72-5.22,5.82-10.07,12-14.85,18.18-1.8,2.33-3,2.7-5.47.73-25.61-20-54.38-33.32-86.38-39.06-62.54-11.21-118.45,3.66-167.58,43.81A191.28,191.28,0,0,0,84.7,149.31c-1,1.54-1.74,3.19-2.61,4.79-5.25,13.45-12.52,26-16.86,39.89-7.24,23.12-11,46.72-9.69,70.85,2.59,46.18,18.5,87.25,49,122.34,32.07,36.89,72.41,59.24,120.53,66.95,39.63,6.35,77.89.83,114.48-15.93a201.41,201.41,0,0,0,70.78-54.15A63.14,63.14,0,0,1,416.33,378.13Z"/><path class="cls-2" d="M416.33,378.13c-15.32,21-34.54,37.72-56.73,51.05-34.74,20.85-72.5,30.15-112.91,28.57-89.62-3.5-168.17-69.26-187.55-157.13-11.14-50.48-4-98.42,21-143.68a34,34,0,0,1,2-2.84c-2.94,16.5-4.74,33.14-4,49.91,1.32,28,7.17,55.07,18.81,80.74a220.33,220.33,0,0,0,31.68,51,216.32,216.32,0,0,0,56.23,47.71,220.37,220.37,0,0,0,62.05,25,206.13,206.13,0,0,0,60.18,5.4c28.46-1.83,55.91-8.13,81.81-20.67C398.31,388.55,407.05,382.86,416.33,378.13Z"/><path class="cls-3" d="M234.05,340.1c-5.23.23-9.39-2-12.73-5.78q-36.75-41.86-73.5-83.72c-2-2.31-1.47-3.38.55-5.08,6.24-5.26,12.48-10.53,18.4-16.13,2.59-2.45,3.76-1.7,5.72.56C192.17,252.56,212,275,231.6,297.71c2.61,3,3.74,2.64,6.29.09q83.81-84,167.67-168c3.81-3.83,5.77-3.58,9.1.2a185.28,185.28,0,0,0,14.83,14.83c2.86,2.59,2.54,4-.06,6.6q-46.79,46.5-93.36,93.2-44.54,44.51-89,89C243.39,337.32,239.5,340.25,234.05,340.1Z"/><path class="cls-4" d="M476.06,104.34c-.67.78-1.16,1.43-1.74,2-6.35,6.37-12.78,12.66-19,19.12-1.94,2-3.11,1.56-4.83-.2-5.8-6-11.65-11.9-17.68-17.65-2.19-2.09-1.73-3.31.2-5.18q9.16-8.85,18-18c2-2.12,3.29-2.53,5.52-.15,5.6,5.94,11.49,11.59,17.24,17.38C474.55,102.45,475.24,103.37,476.06,104.34Z"/></svg>