<svg id="Слой_1" data-name="Слой 1" xmlns="http://www.w3.org/2000/svg" viewBox="0 0 512 512"><defs><style>.cls-1{fill:#6c757d;}.cls-2{fill:#609abd;}.cls-3{fill:#fefefe;}.cls-4{fill:#a4d3f1;}.cls-5{fill:#fdfdfe;}.cls-6{fill:#fff;}</style></defs><path class="cls-1" d="M93.69,271.3q0-82.71,0-165.41c0-13,0-26,0-38.94,0-6.64,1.24-7.85,7.93-7.85H381c6.63,0,7.95,1.4,7.95,8.4q0,84.21-.12,168.42c0,4.32,1.31,5.55,5.32,6.12,21.19,3,38,21.75,38.76,43.2.14,4.14,1.29,5.33,5.41,5.22,10.49-.3,21-.16,31.48-.1,6.17,0,7.74,1.56,7.75,7.72q.08,47.19,0,94.4,0,40.95,0,81.91c0,7.84-1,8.87-9,8.87H102.81c-8.56,0-9.11-.54-9.11-9.06Q93.69,372.76,93.69,271.3Z"/><path class="cls-2" d="M477.31,152.83a29.38,29.38,0,1,1-29.2-29.72A29.12,29.12,0,0,1,477.31,152.83Z"/><path class="cls-2" d="M54.1,359.17a19.26,19.26,0,0,1-19.36-19.81A19.58,19.58,0,0,1,54.18,320a19.89,19.89,0,0,1,19.76,19.7A19.58,19.58,0,0,1,54.1,359.17Z"/><path class="cls-1" d="M71.62,256a7.46,7.46,0,0,1-7.52-7.09A7.39,7.39,0,1,1,71.62,256Z"/><path class="cls-1" d="M76.51,438.06a7.64,7.64,0,0,1,7.28,7.39A7.56,7.56,0,0,1,76,452.84a7.4,7.4,0,0,1,.49-14.78Z"/><path class="cls-1" d="M462.73,228.79a7.4,7.4,0,0,1-14.78.54,7.22,7.22,0,0,1,7.34-7.61A7.39,7.39,0,0,1,462.73,228.79Z"/><path class="cls-1" d="M470.17,103.27A7.22,7.22,0,1,1,477.29,96,7,7,0,0,1,470.17,103.27Z"/><path class="cls-1" d="M42.07,88.66a7.27,7.27,0,0,1-7.35-7.24A7,7,0,0,1,41.83,74a7.13,7.13,0,0,1,7.35,7.15A7.29,7.29,0,0,1,42.07,88.66Z"/><path class="cls-1" d="M428.09,42.09a7.22,7.22,0,1,1-14.44-.3,7.22,7.22,0,1,1,14.44.3Z"/><path class="cls-3" d="M103.35,288.31V109.92c0-6.58,0-6.58,6.32-6.58q131.67,0,263.34-.1c4.67,0,6.13.91,6.11,5.9q-.35,64,0,127.92c0,3.66-1.1,5-4.59,5.89A45.61,45.61,0,0,0,340,285.59c-.15,4.11-1.58,4.92-5.29,4.84-10.32-.22-20.65-.1-31-.06-7.11,0-8.42,1.35-8.42,8.52q0,84.45.06,168.9c0,4.31-.72,5.95-5.6,5.93q-90.19-.27-180.39,0c-4.73,0-6.13-1.11-6.12-6Q103.5,378,103.35,288.31Z"/><path class="cls-4" d="M305.08,387c0-27.31.08-54.63-.09-81.95,0-4,1.18-5.11,5.08-5,8.48.28,17,.19,25.48,0,3.25-.06,4.39,1.11,4.34,4.36-.14,9.49,0,19-.08,28.48-.05,3.71,1.15,6.54,5.05,6.58s4.78-3.3,4.83-6.41c.15-9.49.2-19,0-28.48-.07-3.48,1-4.57,4.52-4.55q32.22.21,64.46,0c3.53,0,4.56,1.12,4.49,4.56-.19,9.66-.1,19.32,0,29,0,3.16,1.45,5.88,4.83,5.88s5.28-2.39,5.06-6c-.06-1,0-2,0-3,0-8.49.23-17-.09-25.48-.16-4.13,1.3-5,5.12-4.93,8.32.26,16.66.24,25,0,3.77-.11,4.9,1.24,4.82,4.91-.2,10-.26,20,0,30,.12,4.19-1.52,5.26-5.27,4.95-2.82-.22-5.67.06-8.49-.05-3.31-.14-5.78,1-6,4.48-.27,3.84,2.58,5.14,5.83,5.38,3,.22,6-.07,9,.13,1.73.11,4.61-1.19,4.68,2,.08,3.64-3.08,2.13-4.91,2.28-3,.24-6-.09-9,.16s-5.76,1.55-5.64,5.09,2.39,4.85,5.78,4.75,7,0,10.49,0c1.84,0,3.36.32,3.4,2.62,0,2.61-1.85,2.31-3.49,2.32-3.49,0-7,0-10.49,0-3.25.07-5.66,1.67-5.68,5s2.4,4.87,5.7,4.87c3.67,0,7.33,0,11,0,1.63,0,2.94.16,3,2.33.08,2.39-1.27,2.71-3.16,2.68-3-.06-6,0-9,0-3.77-.09-7.66.34-7.49,5.08.16,4.55,4,5,7.78,4.91,3-.09,6,0,9,0,1.73,0,2.88.42,2.88,2.48s-1.15,2.48-2.88,2.47c-3.66,0-7.33.1-11,0-3.39-.11-5.68,1.3-5.85,4.68s2.48,4.95,5.55,5.17c3.48.24,7,0,10.49.11,1.58,0,3.57-.43,3.61,2.19s-1.89,2.72-3.8,2.73c-3.33,0-6.66.05-10,0s-5.88.9-5.85,4.55c0,3.4,2.28,4.91,5.68,4.83s6.67.11,10-.05c3-.15,4.18,1.08,4.08,4.09a124.88,124.88,0,0,0,.05,14.48c.42,4.89-.88,6.48-6.16,6.43-33.65-.28-67.3-.14-101-.14-9.49,0-19,0-28.48,0-3.63,0-7.18.5-7.14,4.94s3.44,5.06,7.13,5.05c43.14,0,86.28.06,129.42-.11,4.61,0,6.45.81,6.21,5.89-.54,11.73,1.43,10-10.15,10-48.8.06-97.61,0-146.41.14-5.1,0-6.43-1.4-6.39-6.45C305.21,440.59,305.08,413.77,305.08,387Z"/><path class="cls-4" d="M241.4,69.07c44.12,0,88.24.05,132.36-.1,4.08,0,5.59.94,5.3,5.2-.37,5.47-.17,11-.06,16.48.05,2.36-.84,3.29-3.2,3.23-3.83-.11-7.66,0-11.49,0H110.09c-6.85,0-6.85,0-6.85-6.75,0-3.83,0-7.66,0-11.49,0-6.54,0-6.54,6.31-6.54Z"/><path class="cls-3" d="M386.46,290.35c-11,0-22-.09-32.94,0-3,0-3.95-.91-3.89-4,.35-19.12,17.14-35.36,36.78-35.34s36.39,16.15,36.82,35.31c.08,3.57-1.32,4.07-4.33,4C408.09,290.28,397.27,290.36,386.46,290.35Z"/><path class="cls-4" d="M448,172.09c-10.81,0-19.69-8.47-19.84-19a19.74,19.74,0,0,1,39.48-.68A19.44,19.44,0,0,1,448,172.09Z"/><path class="cls-4" d="M54.2,330a9.64,9.64,0,0,1,9.87,9.72,9.51,9.51,0,0,1-9.51,9.46c-5.69.11-10.24-4-10.26-9.28S48.94,330.05,54.2,330Z"/><path class="cls-1" d="M271,201.93h79.47c1.33,0,2.67,0,4,0,2.7.15,4.36,1.56,4.62,4.29.28,3-1.33,4.75-4.15,5.28a26.5,26.5,0,0,1-5,.26q-79.71,0-159.43,0a18.85,18.85,0,0,1-4.45-.36,4.75,4.75,0,0,1,.45-9.38,39.72,39.72,0,0,1,4.5-.13Z"/><path class="cls-2" d="M172.25,196.81c0,6-.13,12,0,18,.13,4.62-1.92,6.84-6.47,6.84-12,0-24,.09-35.95,0-5.24-.05-6.74-1.75-6.77-7.06q-.07-17.47,0-35c0-5.52,1.65-7.29,7-7.32,11.81-.07,23.63,0,35.44,0,4.45,0,6.82,1.89,6.72,6.61C172.15,184.83,172.25,190.82,172.25,196.81Z"/><path class="cls-2" d="M172.25,403.64c0,6.15-.05,12.31,0,18.47,0,4.17-1.94,6.06-6.09,6q-18.46-.07-36.94,0c-4.15,0-6.14-2-6.14-6.1q0-18.46,0-36.94c0-4.08,2.11-6.14,6.18-6.14h36.94c4.1,0,6.09,2,6.05,6.19C172.22,391.32,172.26,397.48,172.25,403.64Z"/><path class="cls-2" d="M123.09,334.46c0-6,0-12,0-18,0-4.33,2.13-6.44,6.43-6.44q18.21,0,36.44,0c4.34,0,6.35,2.07,6.33,6.43-.06,12.15-.08,24.3,0,36.44,0,4.41-1.94,6.36-6.33,6.34q-18.22-.12-36.44,0c-4.72,0-6.53-2.32-6.45-6.83C123.18,346.44,123.09,340.45,123.09,334.46Z"/><path class="cls-2" d="M147.76,290.37c-6,0-12-.07-18,0-4.55.07-6.75-1.95-6.72-6.58q.11-18,0-35.94c0-4.61,2.17-6.73,6.67-6.72,12,0,24,0,35.94,0,4.53,0,6.67,2,6.63,6.68q-.17,18,0,35.93c.05,4.66-1.95,6.71-6.57,6.63-6-.11-12,0-18,0Z"/><path class="cls-1" d="M246.52,270.84q27.94,0,55.89,0c3.64,0,7.56-.09,7.49,4.94-.06,4.53-3.69,4.92-7.2,4.92H189.41c-3.64,0-7.15-.79-7.06-5.13s3.66-4.79,7.27-4.78C208.59,270.86,227.55,270.83,246.52,270.84Z"/><path class="cls-1" d="M236.31,192q-23,0-45.92,0a16.86,16.86,0,0,1-4.45-.27,4.63,4.63,0,0,1-3.66-4.76,4.49,4.49,0,0,1,3.4-4.43,16,16,0,0,1,4.43-.42q46.17,0,92.34,0a17.51,17.51,0,0,1,3.48.15c2.79.55,4.47,2.2,4.28,5.2-.17,2.75-1.87,4.17-4.49,4.49a33.14,33.14,0,0,1-4,.07Z"/><path class="cls-1" d="M229.53,339.75c13,0,25.94,0,38.91,0,3.68,0,7.14.58,7.08,5s-3.72,4.91-7.26,4.91H189.94c-.67,0-1.33,0-2-.06-3.18-.24-5.71-1.61-5.63-5.05s2.52-4.76,5.82-4.75c7.31,0,14.63,0,22,0Z"/><path class="cls-1" d="M229.09,418.31q-19.2,0-38.39,0a31.87,31.87,0,0,1-4.48-.23,4.28,4.28,0,0,1-3.91-4.44,4.4,4.4,0,0,1,4.09-4.8,25.28,25.28,0,0,1,3.48-.18h78.27c1,0,2,0,3,.11a4.72,4.72,0,0,1-.18,9.42c-4.65.14-9.3.12-13.95.13Z"/><path class="cls-1" d="M222,261c-10.82,0-21.64,0-32.45,0-3.65,0-7.16-.61-7.19-4.95s3.41-5.06,7.1-5.05q32.45.06,64.9,0c3.64,0,7,.62,6.86,5.2-.11,4.25-3.35,4.78-6.77,4.77Q238.21,260.95,222,261Z"/><path class="cls-1" d="M212,320c7.48,0,15,0,22.45,0,3.51,0,6.58.76,6.51,5s-3.21,4.92-6.67,4.92q-22.7,0-45.41,0c-3.56,0-6.63-1.07-6.57-5.07s3.17-4.92,6.73-4.89C196.73,320,204.38,320,212,320Z"/><path class="cls-1" d="M212,388.91q11.47,0,22.94,0c3.37,0,6.13.95,6.11,4.88s-2.79,5-6.11,5q-23.21,0-46.39,0c-3.35,0-6.2-1.25-6.17-5s2.69-4.94,6.17-4.91C196.33,389,204.14,388.91,212,388.91Z"/><path class="cls-5" d="M147.07,211.42c-4.45,0-10.34,1.73-13-.45-3.12-2.59-1-8.7-1-13.26,0-5.07-2.26-11.84,1-14.73,2.85-2.51,9.46-.9,14.4-.82,4.44.06,10.16-1.9,13,.84s.73,8.5.89,12.92c.15,4.15-.06,8.3.08,12.44.08,2.56-.83,3.58-3.44,3.48-4-.15-8,0-12,0Z"/><path class="cls-3" d="M147.67,388.92c3.81,0,7.64.14,11.44-.05,2.68-.12,3.39,1,3.35,3.47-.13,7.47-.11,14.94,0,22.4,0,2.43-.58,3.64-3.31,3.59-7.63-.12-15.27-.14-22.9,0-2.81.06-3.27-1.17-3.23-3.57.1-7.47.17-14.94,0-22.4-.08-3,1.07-3.65,3.75-3.51C140.36,389.06,144,388.92,147.67,388.92Z"/><path class="cls-3" d="M133.39,334.46c0-4.63-1.82-10.84.48-13.48,2.69-3.1,9.06-.71,13.82-1,2.66-.15,5.33,0,8,0,6.74,0,6.74,0,6.74,7,0,6.16-.11,12.32.05,18.48.07,2.85-.55,4.27-3.81,4.18-7.49-.2-15-.13-22.48,0-2.37,0-3.27-.75-3.17-3.17.15-4,0-8,0-12Z"/><path class="cls-6" d="M148.69,251c4,.61,10.31-2.24,13,1.14,2.3,2.88.67,8.91.72,13.55.05,3.82-.1,7.64,0,11.45.09,2.49-.68,3.61-3.36,3.56-7.64-.12-15.27-.1-22.91,0-2.34,0-3.21-.73-3.18-3.14.11-7.79.15-15.6,0-23.39-.07-2.81,1.12-3.32,3.54-3.22C140.33,251.14,144.15,251,148.69,251Z"/></svg>