<svg id="Слой_1" data-name="Слой 1" xmlns="http://www.w3.org/2000/svg" viewBox="0 0 512 512"><defs><style>.cls-1{fill:#6c757d;}.cls-2{fill:#609abd;}.cls-3{fill:#a4d3f1;}.cls-4{fill:#fefefe;}.cls-5{fill:#99c7fd;}.cls-6{fill:#9ac8fd;}.cls-7{fill:#f7f9fb;}.cls-8{fill:#f8fbfd;}</style></defs><path class="cls-1" d="M195,181.9H317.17c-5-13.74-10-27.1-14.71-40.54-3.58-10.18-8.35-20-10.52-30.6-3.49-17.05,6.65-33.64,23.4-39.09,16.16-5.25,34.58,2.41,41.29,18.22,6,14.21,10.92,28.9,16.23,43.41,5.49,15,11,30,16.24,45,1.08,3.1,2.66,3.89,5.78,3.86,16.32-.15,32.65-.28,49,0,19.39.35,36,15.32,38.11,33.76,2.3,20.44-9.39,38.24-28.59,43.51-1,.26-1.94.46-2.92.64-8.6,1.65-8.59,1.65-10.32,10.11Q422,358.38,403.91,446.55c-4.87,23.93-24.78,41-50,40.83q-97.93-.81-195.88,0c-24.9.22-45.13-16.8-50.08-41.3C95.84,385.79,83.28,325.59,70.93,265.34c-.58-2.84-1.32-4.33-4.9-4.61C44.33,259,29,241.27,29.83,219.5c.82-20.76,17.92-37.11,39.32-37.34q23.49-.25,47,0c3.85.05,5.71-.85,7.11-4.81,9.83-27.72,19.94-55.34,30.11-82.94,8.54-23.18,33.78-31.61,53.09-17.88,12.67,9,17.52,25,12,40.43-7.17,20-14.52,40-21.79,60C196.09,178.5,195.61,180.06,195,181.9Z"/><path class="cls-2" d="M393.9,93.48a29.49,29.49,0,1,1,29.32,29.57A29.43,29.43,0,0,1,393.9,93.48Z"/><path class="cls-2" d="M93.44,118.23a19.63,19.63,0,0,1-19.66,19.68c-10.67-.08-19.75-9.35-19.55-20A19.64,19.64,0,0,1,73.81,98.69,19.28,19.28,0,0,1,93.44,118.23Z"/><path class="cls-1" d="M125.41,54.2A7.62,7.62,0,0,1,133,61.3a7.4,7.4,0,1,1-14.79.37A7.64,7.64,0,0,1,125.41,54.2Z"/><path class="cls-1" d="M61.64,388.87A7.39,7.39,0,1,1,69,381.59,7.57,7.57,0,0,1,61.64,388.87Z"/><path class="cls-1" d="M248.47,49.28A7.58,7.58,0,0,1,256,56.4a7.47,7.47,0,0,1-7,7.65,7.39,7.39,0,1,1-.57-14.77Z"/><path class="cls-1" d="M248.73,157.4a7.23,7.23,0,1,1,0-14.45,7.28,7.28,0,0,1,7.22,7.26A7.16,7.16,0,0,1,248.73,157.4Z"/><path class="cls-1" d="M467.65,150.48a7.39,7.39,0,0,1-7.59,6.93,7.23,7.23,0,1,1,.59-14.45A7.4,7.4,0,0,1,467.65,150.48Z"/><path class="cls-1" d="M460.39,369a7.18,7.18,0,0,1-7.45-7,7.1,7.1,0,0,1,6.89-7.49,7.24,7.24,0,1,1,.56,14.45Z"/><path class="cls-3" d="M256,261h169.9c6,0,6.12,0,4.95,5.69q-13.2,64.11-26.48,128.21-5.1,24.62-10.27,49.22c-4.57,21.64-18.52,33.46-40.72,33.52q-97.44.27-194.88,0c-22.31-.06-36.08-11.7-40.75-34.08-12.37-59.28-24.46-118.62-36.91-177.89-1-4.81.78-4.72,4.26-4.72Q170.6,261,256,261Z"/><path class="cls-4" d="M255.59,251H70.74c-17.86,0-31.15-12.46-31.28-29.28s13.24-29.63,31-29.69c14.65,0,29.31.06,44-.06,2.87,0,3.94.45,3.93,3.76,0,17.76,11.52,32,28,35.12s32.27-6.09,38.83-22.67c1.65-4.17,3.27-8.37,4.64-12.63.82-2.57,2-3.61,4.9-3.6q61.2.17,122.4,0c3.16,0,4.3,1.16,5.2,3.9,1.65,5,3.49,10.06,5.63,14.91a34.29,34.29,0,0,0,65.76-13.84c0-3.83.72-5.06,4.75-5,14.49.26,29,.07,43.47.11,17.35.06,30.62,12.87,30.64,29.5S459.24,251,441.94,251Q348.78,251,255.59,251Z"/><path class="cls-3" d="M359.3,221.18c-10.88,0-19.3-5.75-23.2-16.34C327,180.05,318,155.22,309,130.39c-2.38-6.55-5-13-6.91-19.73a24.4,24.4,0,0,1,46-16c4.09,9.8,7.48,19.9,11.11,29.89,7.83,21.54,15.79,43,23.36,64.68C388.06,205.16,376.23,221.15,359.3,221.18Z"/><path class="cls-3" d="M152.29,221.2C135.7,221.05,124,205,129.5,189.34q16.56-46.72,33.77-93.23a24.55,24.55,0,0,1,31.32-14.76c12.74,4.64,19.58,18.14,14.95,31.15-11.08,31.15-22.49,62.17-34,93.17C171.81,215.81,163.09,221.3,152.29,221.2Z"/><path class="cls-3" d="M422.86,113.08c-10.81-.06-19.1-8.84-19-20.07a19.28,19.28,0,0,1,19.67-18.94,19.5,19.5,0,0,1,19.37,19.87C442.78,104.8,434,113.15,422.86,113.08Z"/><path class="cls-3" d="M74,108.26c4.85,0,9.94,5.14,9.87,10-.08,5.12-4.92,9.85-10,9.78a10,10,0,0,1-9.77-9.87A10.44,10.44,0,0,1,74,108.26Z"/><path class="cls-1" d="M138,371.77c0-20.32-.05-40.64,0-61,.05-14.65,10.37-25,24.67-25S187,296.42,187,311.17c0,25.81.09,51.63-.08,77.45,0,4,.83,5.5,5.16,5.38,9.86-.28,9.86,0,9.86-10.09q0-36.48,0-73c0-13,8.91-23.69,20.53-25,13.84-1.56,24.77,5.86,28,19.14A25.55,25.55,0,0,1,251,311c0,26,.11,52-.06,77.95,0,4,1.09,5.07,5,5,10-.19,10,0,10-9.94,0-24.49,0-49,0-73.46,0-12.78,9.27-23.54,20.9-24.64,13.91-1.32,24.83,6.32,27.74,19.52a25.37,25.37,0,0,1,.36,5.45c0,25.82.11,51.64-.08,77.45,0,4.22.78,5.83,5.41,5.65,9.6-.36,9.62-.08,9.62-9.84q0-36.72,0-73.45c0-11.91,7.3-21.5,18.32-24.39s22,2.07,27.89,12.46a21.81,21.81,0,0,1,2.81,11q0,62,0,123.92c0,13.24-11.43,24.21-24.86,24.15-12.81-.05-24.08-11-24-23.86,0-4.79-1.28-6.77-6.11-5.94a8.83,8.83,0,0,1-3,0c-4.75-.79-6.19,1-6.13,5.9.18,13-11.26,23.82-24.5,23.9-12.76.09-24.35-10.86-24.23-23.59.05-5-1.25-7.1-6.34-6.21a11,11,0,0,1-3.49,0c-4-.58-5.41.85-5.38,5.13a24.4,24.4,0,1,1-48.79.32c0-4.4-1.15-6.22-5.57-5.43a5.55,5.55,0,0,1-1,0c-7.91,0-7.91,0-8.54,7.85-1,12-12.57,22.12-25.1,21.93-12.3-.17-23.71-11-23.81-23.12-.18-21,0-42,0-63Z"/><path class="cls-2" d="M344.85,196.85a14.55,14.55,0,0,1,14.34-14.74,14.87,14.87,0,1,1-14.34,14.74Z"/><path class="cls-2" d="M167.16,197.29a14.64,14.64,0,0,1-14.61,14.54,14.86,14.86,0,0,1,.22-29.71C161,182.21,167.28,188.82,167.16,197.29Z"/><path class="cls-4" d="M147.87,372q0-30.45,0-60.91c0-6.63,2.63-11.66,8.8-14.34,5.71-2.48,11.1-1.53,15.76,2.61,3.43,3.05,4.78,7,4.77,11.61q-.06,54.9,0,109.82c0,4.16.12,8.32,0,12.48-.27,8.35-6.56,14.62-14.56,14.67A14.41,14.41,0,0,1,148,433.37c-.18-20.46-.06-40.93-.06-61.4Z"/><path class="cls-4" d="M211.84,372c0-20.47-.11-40.94,0-61.4.08-10.31,8.36-16.89,18-14.74a14.17,14.17,0,0,1,11.21,13.53c.22,7.32.1,14.65.1,22,0,33.28-.05,66.55,0,99.83,0,6.55-2,11.79-7.95,14.93-9.92,5.25-21.24-1.62-21.36-13.23C211.69,412.61,211.84,392.31,211.84,372Z"/><path class="cls-4" d="M339.78,371.43q0-30.45,0-60.91c0-6.44,2.86-11.25,8.82-13.82,5.73-2.47,11.1-1.47,15.76,2.66,3.76,3.33,4.76,7.72,4.75,12.61q-.11,42.94,0,85.87c0,11.32,0,22.63,0,34-.06,9.55-6.1,16.13-14.61,16.11s-14.62-6.5-14.66-16.08C339.72,411.69,339.78,391.56,339.78,371.43Z"/><path class="cls-4" d="M305.12,371.78c0,20.3.11,40.6-.05,60.9-.09,11.42-10.84,18.5-20.75,13.81-5.81-2.75-8.54-7.61-8.53-14.06,0-13,0-25.95,0-38.93,0-27.45-.07-54.91,0-82.37,0-10.8,8.61-17.69,18.45-15.17,6.56,1.68,10.78,7.31,10.81,14.92C305.17,331.18,305.12,351.48,305.12,371.78Z"/><path class="cls-5" d="M194.7,403.82c8.3.11,7.26-1.08,7.26,7.46,0,7.93,1,6.83-8.4,6.84-7.82,0-6.42.88-6.49-8.72C187,402.83,186.54,403.9,194.7,403.82Z"/><path class="cls-6" d="M258.44,418.14c-7.42,0-7.42,0-7.42-6,0-8.36,0-8.36,8-8.37,6.93,0,7,0,6.92,5.94C265.83,419.23,267.26,418,258.44,418.14Z"/><path class="cls-6" d="M322.3,418.13c-8.28-.09-7.3.94-7.28-7.07,0-8.33-1.22-7.22,8.1-7.22,8.1,0,6.68-1.09,6.8,8.53C330,418.13,329.92,418.13,322.3,418.13Z"/><path class="cls-7" d="M359.14,192c2.75.29,4.71,1.56,4.9,4.53.21,3.23-1.66,5.13-4.68,5.17-2.74.05-4.63-1.65-4.68-4.66S356.32,192.58,359.14,192Z"/><path class="cls-8" d="M152.79,201.86c-2.67-.37-4.67-1.59-4.82-4.59-.16-3.21,1.67-5.09,4.73-5.13,2.83,0,4.56,1.77,4.64,4.72S155.59,201.28,152.79,201.86Z"/></svg>