<svg id="Слой_1" data-name="Слой 1" xmlns="http://www.w3.org/2000/svg" viewBox="0 0 512 512"><defs><style>.cls-1{fill:#3d454f;}.cls-2{fill:#e5e6e7;}.cls-3{fill:#e76f51;}</style></defs><path class="cls-1" d="M440.09,338a157,157,0,0,0,14.73-47.36c10.92-71.4-9.41-132.49-61.46-182.72a177.27,177.27,0,0,0-43.58-30.56c-3.57-1.8-3.89-3.31-2.06-6.66,3.66-6.7,7-13.57,10.17-20.54,1.48-3.3,2.91-3.46,5.92-1.87,38,20.05,68.48,48.14,91,84.66,25.09,40.61,36.39,85,34.82,132.63C486.24,369.87,410,461.5,308.07,484,200,507.85,93.15,456.36,44.87,356.74,26.87,319.59,19.09,280.11,23,239,31.79,145.71,79.76,79.81,164.54,40.76c27.67-12.74,57.28-18,87.72-18.7,3.2-.08,3.9.86,3.82,3.87q-.3,12,0,24c.08,3.07-.54,4.22-4,4.31Q183.18,55.9,129.3,99c-15.67,12.58-29.37,27-40.23,44-1,3.39-2.92,6.3-4.7,9.29-16,26.91-25.65,55.8-28.09,87.11-4.21,54,10.88,102.2,45,144,32.07,39.2,73.76,62.77,123.77,70.76,39.64,6.34,77.92.87,114.48-15.94,38.22-17.58,67.79-44.74,89.43-80.69C432.84,351.09,435.43,344,440.09,338Z"/><path class="cls-2" d="M440.09,338c-7,17.62-17.33,33.29-29.54,47.67-32.63,38.4-73.87,62.28-123.67,69.71-60.15,9-114.27-6.21-161-45.32C87.58,378,64.3,336.69,56.63,287.28c-8.06-52,2.84-100.1,32-144,.08-.13.27-.19.41-.28.06,9.3-1.35,18.53-1,27.86,1,31.41,7.75,61.49,21.58,89.69,9.37,19.12,21,36.85,35.73,52.48,4.88,5.17,10,10.07,14.82,15.29,0,2.31-1.81,3.45-3.17,4.82-5.47,5.56-10.93,11.14-16.57,16.53-2.53,2.43-2.38,4.24.07,6.59,5.15,4.93,10.23,10,15.12,15.15,2.33,2.46,3.85,2.12,6.05-.16,6.68-6.92,13.55-13.67,20.39-20.44,1.38-1.36,2.53-3.18,4.83-3.16,3.82,4.68,9.5,6.53,14.5,9.35A206.6,206.6,0,0,0,274,381.63a211.38,211.38,0,0,0,48.58,1.54c21.81-1.89,42.88-6.33,63.2-14.31A228.74,228.74,0,0,0,440.09,338Z"/><path class="cls-3" d="M186.87,347.67c-8.53,8.38-17.13,16.71-25.56,25.19-2.09,2.1-3.36,2.9-5.81.24-5.51-6-11.31-11.75-17.23-17.35-2.34-2.21-2-3.41.12-5.48,7.37-7.2,14.53-14.6,21.76-21.93,6-5.79,12-11.52,17.91-17.37,17.39-17.24,34.66-34.59,52.15-51.72,2.72-2.66,2.59-3.95,0-6.54-30.34-30-60.48-60.12-90.87-90-3.26-3.22-3-4.8.13-7.65,5.52-5,10.78-10.42,15.86-15.93,2.45-2.66,3.79-2.24,6.17.14,30.26,30.27,60.68,60.39,90.9,90.7,2.93,2.94,4.36,3,7.3,0,30.11-30.19,60.42-60.18,90.55-90.35,2.71-2.71,4.26-3,7,0,5.15,5.67,10.59,11.08,16.19,16.3,2.64,2.45,2.35,3.79-.09,6.19-30.2,29.86-60.24,59.88-90.5,89.69-3.31,3.26-3.71,4.84-.15,8.35,30.17,29.65,60.06,59.59,90.18,89.29,3,2.94,3.09,4.48,0,7.29-5.54,5-10.83,10.39-15.85,15.93-2.65,2.93-4.1,2.38-6.61-.13-30.14-30.16-60.46-60.14-90.54-90.35-3.21-3.23-4.7-2.88-7.68.11-20.4,20.58-41,41-61.54,61.41C189.3,344.94,188.11,346.33,186.87,347.67Z"/><path class="cls-1" d="M289.65,54.7c1.51-9.28,3-18.13,4.36-27,.29-1.85.82-2.5,2.89-2.13a275.27,275.27,0,0,1,30.92,7.65c2.17.66,2.23,1.7,1.53,3.7q-4.28,12.2-8.15,24.56c-.69,2.22-1.48,3-3.86,2.15a169.22,169.22,0,0,0-25.07-6.35C290.42,56.94,288.87,56.73,289.65,54.7Z"/></svg>