<svg id="Слой_1" data-name="Слой 1" xmlns="http://www.w3.org/2000/svg" viewBox="0 0 512 512"><defs><style>.cls-2{fill:#5d5d71}.cls-3{fill:#86c5ed}.cls-6{fill:#8dc8ee}.cls-8{fill:#8fc8ed}.cls-9{fill:#89c6ed}.cls-10{fill:#8bc7ee}.cls-11{fill:#8cc6ec}.cls-16{fill:#8ac7ed}.cls-17{fill:#fefefe}.cls-18{fill:#a3d0f1}.cls-30{fill:#616174}.cls-31{fill:#626275}</style></defs><path d="M309.06 411.09c-10.11 0-20.23.07-30.33-.2-3.37-.09-4 1.26-3.51 4.05a10.68 10.68 0 01-5.35 6.92 78.21 78.21 0 01-10.08 5.43 513.36 513.36 0 00-63.5 31.24c-12.75 7.52-25.56 8.56-39.34 5.86-18.44-3.61-36.83-7.41-55.28-10.94a95.2 95.2 0 00-26.85-1.23c-2.64.25-4.93.63-3.82 4.41.82 2.83-.78 4.28-3.63 4.69-5.76.81-11.5 1.73-17.25 2.66-3.11.5-4.56-.79-5.07-3.88q-6.88-41.6-14-83.14c-.77-4.48.1-6.93 5.23-7.21 4.46-.24 8.87-1.28 13.31-2 6.13-1 6.81-.44 7.48 5.7.07.64.24 1.27.48 2.56l7.63-4.91c1.15-1.83 3-2.64 4.84-3.59 9-4.86 18.81-6.67 28.86-7.59 2.59-.54 4.56 1.36 6.92 1.77a41.48 41.48 0 015.45.6c2.33.55 4 1.15 4-2.53 0-3.27 3-2.88 5.33-2.88H184l219.18.05c2.63 0 5.32-.31 7.76 1.09l.57.57c1.47 6.56.76 13.17.46 19.76-.09 2.09-1.65 3.56-3.06 5-6.3 6.35-12.49 12.83-19 18.95a37.44 37.44 0 01-24.79 10.1c-4.16.19-8.32-.17-12.48.1-14-.23-27.94.58-41.9-.43a3.5 3.5 0 01-1.68-.98z" fill="#5d5d70"/><path class="cls-2" d="M286.92 334.7c.88-5.25 1.6-10.53 2.68-15.74.54-2.6.24-4.48-2.08-6a10.42 10.42 0 01-3.27-3c-5.4-9.12-13.28-8.87-22.22-6.66-8.17 2-8.43 1.71-11.85-6.09-7.08-16.12-8.39-10.43 5.14-22.26 4.08-3.57 4.93-6.93 5.28-12.48.74-11.63-5.41-16.8-14.38-20.61-5.27-2.24-5.86-5.47-4.37-10.68 4.24-14.84 4-15.15 19.44-14.94 5.22.07 9-.92 10.84-6.08a2.1 2.1 0 01.57-.81c7.85-6.82 6.59-14.42 2.77-22.92-3.51-7.82-3-8 4.16-13 11.41-8 11.65-8.23 21.94.89 4.79 4.25 8.91 4.19 15 3.24 9.66-1.51 13.45-6.74 16-15.11 2.75-9 3.26-9.24 12.35-8.16 16.27 1.93 12.28-2.08 15.81 13.78a15.78 15.78 0 01.34 2.47c.3 5.17 2.47 8.75 8 9.68a6 6 0 012.73 1.18c6.42 5.37 12.13 3.55 18.6-.6 9.64-6.19 10-5.83 17.88 2.22 9.32 9.49 9.35 6.17 2.28 17.88-4 6.61-4.27 11.68-.93 18.95S417 229.9 424.39 231c12 1.73 12 2.1 12.6 14 .56 10.56.71 11-9.61 14.26-7.5 2.35-11.17 6.13-13.22 14.19-1.9 7.44-.87 12 3.92 17.61 9.39 11 9.16 7 .73 19.2-6.87 9.91-4.39 9.35-15.68 4.86-7.48-3-13-3.13-20.15 2.24-6.15 4.65-8.25 8.83-8.14 16.14.23 14.22 2.4 11.05-11.42 14.85-11.75 3.23-9.64 4.81-15.5-6.37-3.86-7.37-8.56-10.53-17.05-11.13-7.13-.51-11.37 1-15.8 6.51-9.61 11.89-6.05 10.37-19.59 4.44-2.13-.94-4.22-2-6.3-3a3.55 3.55 0 01-2.26-4.1z"/><path class="cls-3" d="M70.19 368.69l-5 2.43c0-32.82-.17-65.63 0-98.44 0-3.7-1.06-5.42-4.44-7-34.2-16.26-41-59.34-14-85.92 4.4-4.38 9.25-3.76 14.25-3.62 2.48.06 2 2.27 2 3.84-.25 8.64-.48 17.29-.92 25.92a5.87 5.87 0 003.22 6.1c5.15 3 10.17 6.33 15.13 9.68a5.1 5.1 0 006.38.09c5.13-3.39 10.29-6.75 15.6-9.87 2.92-1.72 3.13-4.32 2.51-6.9-.84-3.47-3.52-1.13-5.38-1.14-5.5 0-11 .3-16.49.13-6-.19-10-4.79-10-11.44q-.08-35.48 0-71c0-6.17-.07-12.33 0-18.49.09-6.47 3.5-10 9.82-10q54-.06 107.93 0c6.28 0 10 4.87 9.2 11.43-.19 1.52-.48 2.5-2.28 2.54s-3-.61-2.71-2.55c1-6.24-2.69-6.53-7.47-6.51-34.31.13-68.62.07-102.94.08-6.13 0-6.55.4-6.56 6.48v87c0 5.78 1.72 7.57 7.39 7.47 5.31-.1 10.62.1 16-.59 3.18-.41 3.77-1.67 3.68-4.43-.16-4.82.07-9.66-.08-14.49-.07-2.59 1-3.07 3.42-3.55 8.08-1.59 12.2 3.8 16.54 8.78 2 2.24 4.09 4.7 5 7.43 2 6.36 6.21 7.76 12.15 7 2.61-.36 5.32 0 8 0 1.66 0 2.91.2 3 2.35.08 2.41-1.29 2.68-3.17 2.66-3.5 0-7 .2-10.49-.07-3.17-.25-4 .72-3.35 3.82 2.7 11.83.74 23.2-4.39 33.94-4.86 10.15-12.92 17.58-22.74 22.78-3.58 1.88-4.92 3.89-4.89 8 .2 27.82.1 55.63.12 83.45 0 2.07-.7 4.42 1.75 5.77l-6.89-.85c-2.13-2.38-1.56-5.34-1.57-8.11q0-37.23-.08-74.46c0-2.27 1.27-5.59-2-6.43-3-.77-5.63.5-7.39 3.66-1.87 3.35-4.72 3.15-7 0-.29-.4-.44-.9-.72-1.31-1.74-2.35-4.33-2.68-6.78-2.35-2.81.44-1.87 3.15-1.88 5-.06 27.82 0 55.64 0 83.46-.05 2.82.24 5.7-1.48 8.23z"/><path d="M353 411.14l13-.06c15.5 2.05 29.12-1.27 39.34-14 7.33-9.13 9.93-19.44 7.26-30.93-.64-2.72-.53-5.59-1.71-8.2l.05.1c-3.65-10.07-11.23-16.11-20.73-20.15-1.07-.45-2.21-.74-3.32-1.09-1.8-.57-2.16-1.87-1.83-3.54.47-2.32 2.05-1.71 3.48-1.27a41.52 41.52 0 0124 18.36c2.48 4.06 4.51 5.07 8.94 3 6.88-3.29 14.09-5.92 21.21-8.68 2.79-1.08 3.51-2.38 2-5.19-4.75-8.86-10.27-17.08-18-23.63-1.17-1-3.05-1.63-1.3-3.86 1.64-2.08 2.86-1.48 4.44-.08 12.87 11.38 21 25.59 24.95 42.21.66 2.78 1.27 4.51 4.6 5.39 4.64 1.22 7.51 4.79 7.55 10 0 4.32.09 8.65 0 13-.14 5.61-3.77 9.93-9.42 10.37-2.88.22-3.57 1.66-4.26 3.8-8.93 27.55-27.73 45.11-55 54-2.22.72-3.06 1.51-3.5 3.87-1 5.32-5.2 8.4-10.76 8.5q-6 .09-12 0c-5.38-.07-9.22-2.7-10.73-8a4 4 0 00-3.48-3.34c-21-5.21-37.8-16.69-50-34.68-2.65-2.64-.44-4.19 1.31-5.85a1 1 0 011 0c2.21.75 3.3 2.65 4.5 4.44 6.29 9.4 14.61 16.62 24.28 22.34 4.26 2.53 5 2.3 6.94-2.33 2.51-5.95 4.74-12 7.59-17.81 1.17-2.59-.14-4.51-.4-6.69z" fill="#87c5ed"/><path class="cls-3" d="M300 135.07V67.4c0-1.28.65-3-.55-3.73-1.6-1-2.72.88-3.76 1.71a81 81 0 00-25.76 35.54 96.58 96.58 0 00-4.07 13.86c-.32 1.54-.59 3.47-3.08 3s-2.35-2-1.89-4.06c3.85-17.27 11.26-32.62 24-45.18 2.23-2.2 4.32-4.54 7-7.41-30.1 5.05-51.1 20.87-63.71 47.87a14.46 14.46 0 01-1.75 3.52c-1 1.09-2.17.17-3.16-.37-2.17-1.17-.59-2.73-.12-3.86a82.61 82.61 0 0128.44-35.93c13.35-9.7 28.24-15.45 44.83-16.25 2.9-.14 3.86-1.19 3.58-3.89-.19-1.91.29-3.21 2.68-3.13 2.19.07 2.45 1.41 2.28 3-.34 3.08 1 3.86 4 4 39.29 2.34 73.74 35.27 78.05 74.43.27 2.47.66 4.93.82 7.41.12 1.77.59 3.89-1.54 4.85-1.94.88-3-.85-4.23-1.9-8-6.81-16.91-8.85-26.93-5.09a17.38 17.38 0 00-7.07 4.55c-2.78 3.13-5 3.29-8.25.26-8.72-8-20.44-8.82-30.46-2.74-3.68 2.23-6 5-5.42 9.69.38 3.12.06 6.32.09 9.49 0 1.64-.2 2.91-2.35 3-2.4.09-2.7-1.26-2.68-3.15 0-4-.17-8 .07-12 .19-3.1-1.16-5-3.57-6.59-6-3.86-12.48-5.4-19.53-3.74-2.08.49-4.19 1.07-4.73-1.76s2-2.53 3.62-3c8.82-2.31 16.67.62 25.15 5.27z"/><path class="cls-2" d="M229.77 258.07c9.14-.37 9.17-.38 12.48 7.43 5.64 13.34 5.82 9.29-3.73 18.52-4.87 4.71-4.76 9.64.3 14.33 9.62 8.9 9.26 4.87 4.16 18-3.71 9.56-2.92 8.53-12 7.87-3.72-.27-7.37-.93-10.3 3-1.75 2.33-2.79 4.27-2.36 7.12.38 2.46.41 5 .7 7.45.31 2.71-.7 4.5-3.31 5.38-1 .32-1.84.79-2.75 1.18-12.11 5.18-12.11 5.18-21.37-4.21-3.13-3.16-9.18-3-12.26.34-8.67 9.41-8.54 9-20.51 4.86-5.71-2-7.34-5-6.72-10.67.35-3.07 1.58-6.4-1-9.55-3.14-3.86-6.8-4.49-11.43-3.85-8.47 1.18-8.5 1-11.76-6.59-4.86-11.27-4.86-11.27 4-19.76a8.77 8.77 0 00.49-12.38c-.21-.22-.42-.42-.64-.62-9-8.37-9-8.37-4.51-19.62 3-7.39 3-7.28 11.19-7.23 2.89 0 6.08 1.45 8.67-.79 2.89-2.5 5.72-5 4.3-9.71-.66-2.16-.15-4.65-.43-7-.33-2.79.84-4.43 3.36-5.33a8.24 8.24 0 001.84-.77c8.64-5.55 16.16-6.21 22.34 3.88 2 3.29 9.08 2.59 12-.37 9.08-9.36 9-9.06 21.25-4.6 5.38 2 6.81 4.94 5.92 10.13-.76 4.43-1.07 8.61 3.32 12.1 3.19 2.63 6.31.88 8.76 1.46zm24.67-46.71c-2.85-.51-5.3-1-7.76-1.36-5.32-.78-9.14 2.05-9.39 7.45-.55 12.09.23 9.85-11.25 13-7.54 2.1-7.56 2-12-4.4-5.18-7.54-8.78-8.24-15.35-1.89-4.2 4.06-7.88 5.08-12.45 1.17a9.21 9.21 0 00-1.3-.73c-10.54-6.16-8.17-3.72-6.57-14.66.9-6.16-1.69-9.65-8-10-9.5-.54-9.5-.54-11.93-9.53a14.07 14.07 0 00-.47-1.94c-2.5-5.31-1.23-9.1 4.21-11.66 7.82-3.69 8.08-10.51 2-15.81-4.28-3.73-4.94-7.5-1.18-11.91a16.53 16.53 0 001.24-2.16c4.86-7.73 2.84-8.63 13-6 6.94 1.78 11.78-2.41 11.52-8.73a20.46 20.46 0 01.31-5c1.54-7.48 8.67-5 13.17-7.17 2.8-1.35 5.42-1.58 7.65 1.91 2 3.19 3.24 7.29 7.67 8.67s7.39-1.12 10-3.89c3.81-4.12 7.57-5 11.93-1a7.88 7.88 0 001.3.73c8.63 5 8.63 5 6.72 14.52-1.22 6.13 1.58 9.75 7.9 10.2a16.65 16.65 0 002 .13c5.95-.31 9.42 2.19 9.72 8.4a4.29 4.29 0 00.24 1c3 11.1 3.18 8.79-5.27 14.74-5.58 3.93-6.15 7.94-1.79 13.13 7 8.35 7.22 5.51 1.08 15.91-1.73 2.81-2.19 7.43-6.95 6.88z"/><path class="cls-3" d="M137.54 174.06h-12.46c-2.63 0-4.2-1-4-3.77.17-2.44-1.12-5.87 3-6.16 3.44-.25 4-2.17 4-5-.08-4-.18-8 0-11.95.18-3.53-.16-6.48-4-8.12-3-1.3-2.2-4.21-1.91-6.57.34-2.74 2.71-2.44 4.69-2.45h12.45c4.83.06 7.61 2.81 7.66 7.67q.1 10.47 0 20.93c0 2.89.18 5.23 4 5.49 4.13.29 2.81 3.73 3 6.17.19 2.81-1.4 3.79-4 3.75-4.13-.05-8.28 0-12.43.01z"/><path d="M145 118.33c.12 4.78-4.71 9.71-9.52 9.7-4.58 0-9.28-4.63-9.43-9.27-.14-4.79 4.68-9.72 9.5-9.69 4.63.03 9.34 4.65 9.45 9.26z" fill="#88c5ed"/><path class="cls-6" d="M473.55 316.05c.23 2.15-1.59 2.6-2.83 2.63-2.58.07-2.74-2.58-3.39-4.21-.74-1.86 1.32-2.81 2.56-2.89 2.91-.18 2.64 2.76 3.66 4.47z"/><path d="M456.66 294.48c-.88 1.18-1.48 3.31-2.86 3-1.89-.44-4.31-1.4-4.54-3.77-.12-1.16.75-3.29 2.47-3 2.12.29 3.67 1.93 4.93 3.77z" fill="#8dc9ee"/><path class="cls-8" d="M476.75 423.26c-1.16 1.24-.26 4.27-3 4.3-1.57 0-3.5-1-2.73-3.16.57-1.6 0-4.49 3.06-4.13 1.34.15 3.06.73 2.67 2.99z"/><path class="cls-9" d="M480.93 355.93c.09 1.51-.1 3-2.5 3-2.85 0-2.47-2-2.52-3.75s.09-3.25 2.51-3.25c2.86-.02 2.46 1.94 2.51 4z"/><path class="cls-10" d="M480.91 369.09c0 1.89.24 3.77-2.56 3.74-2.43 0-2.47-1.58-2.44-3.32s-.25-3.71 2.57-3.67c2.42.04 2.52 1.57 2.43 3.25z"/><path class="cls-11" d="M480.92 382.73c.07 1.75 0 3.48-2.7 3.37-2.51-.1-2.28-1.79-2.32-3.43-.06-1.93 0-3.64 2.72-3.54 2.51.09 2.3 1.79 2.3 3.6z"/><path class="cls-6" d="M441.8 290c-1.25-1.25-4.29-.75-4.31-3.53 0-1.14.6-3.35 2.59-2.72 1.74.54 4.2.88 4.51 3.19a2.69 2.69 0 01-2.27 3 3 3 0 01-.52.06z"/><path d="M475.91 396.84c0-2-.19-3.68 2.33-3.77 2.75-.1 2.74 1.66 2.69 3.56 0 1.62.25 3.36-2.3 3.43-2.71.07-2.81-1.62-2.72-3.22z" fill="#8bc7ed"/><path d="M479.92 410.38c-.27 1.15.52 3.41-2.28 3.57-2.07.11-3-.88-2.75-3 .23-1.62-.54-3.84 2.31-4 2.1-.05 3.03.88 2.72 3.43z" fill="#8cc8ee"/><path class="cls-11" d="M481 343.07c0 .48-.27 1.86-2.61 1.89-2.89 0-2.41-2-2.53-3.72s.19-3.24 2.5-3.27c2.79-.04 2.4 2.03 2.64 5.1z"/><path class="cls-8" d="M475.79 324c2.59.88 2.48 3.37 2.86 5.22.43 2.17-2 2.18-3.09 2.12-2.67-.12-2.2-2.76-2.59-4.44-.48-2.01 1.55-2.06 2.82-2.9z"/><path d="M467.27 439.8c-1.52-.49-3.26-1.23-3-2.77.31-1.81 1.37-3.95 3.29-4.45a2.76 2.76 0 013.19 2.25v.11c.09 2.31-1.75 3.65-3.48 4.86z" fill="#8cc7ed"/><path d="M451.93 455.3c-.9 2.21-2.94 3-4.95 3.37-1.51.27-2.37-1.51-2.35-2.64 0-2.62 2.62-3.19 4.42-3.68 1.46-.35 2.24 1.5 2.88 2.95z" fill="#8cc8ed"/><path class="cls-16" d="M466.48 304.27c-.58 1.63-1.66 2.7-3 2.62a4.65 4.65 0 01-4.2-4.15 2.56 2.56 0 012.61-2.48c2.37.27 3.19 2.61 4.59 4.01z"/><path class="cls-6" d="M431.91 281.82c-.76 1.34-.68 3.5-2.92 2.69-1.63-.59-4.41.11-4.11-3.15.14-1.58.8-2.75 2.45-2.26s4.18.06 4.58 2.72z"/><path class="cls-16" d="M462.62 446.09c-1.24 2-2.46 4-4.53 4.36-1.43.25-2.86-1.91-2.65-3a5.6 5.6 0 013.92-4c1.4-.36 2.17 1.62 3.26 2.64z"/><path class="cls-17" d="M171.5 460c-14.7-.8-28.88-4.53-43.2-7.54C111.37 448.89 94.48 445 77 446c-7.78.42-7.67.35-8.93-7.39-2.78-16.91-5.56-33.81-8.62-50.67-.7-3.85.21-6 3.49-8.14 21.9-14.27 44.62-16.76 68-4.37A161.24 161.24 0 00178.79 392c8.15 1.44 11 7.09 8.21 14.73-1.8 4.92-6.38 7.24-12.16 5.86-17-4.06-33.91-8.26-50.9-12.26-1.47-.34-3.58-2.21-4.76.24-1.06 2.23-1.94 4.45 2.1 5.41 18.59 4.42 37.07 9.33 55.67 13.7 10.05 2.36 20.11.67 29.34-3.32 10.88-4.7 22-5.85 33.56-5.39 8.65.34 17.32.05 26 .11 1.06 0 2.5-.57 3.09.84a3.38 3.38 0 01-1 4.1 25.39 25.39 0 01-5.8 3.81c-26.8 11.05-52.46 24.4-78 38.09-3.91 2.08-8.26 2.22-12.64 2.08z"/><path class="cls-17" d="M401.35 381.25c-6.13 5.94-11.23 11.19-16.65 16.07a29.68 29.68 0 01-20.55 7.68q-82.95-.08-165.9 0c-2.9 0-4.19-.34-4.48-3.86-.65-8.18-6-13.51-14.14-15.24a178.84 178.84 0 01-18.37-4.63zM122.24 362.9h5.83q135.87 0 271.74.11c1.66 0 4.41-1.12 4.85 1a19.71 19.71 0 01-.2 10.31c-.48 1.38-2.73.62-4.17.62H150.53a26 26 0 01-12.86-3c-5.16-2.78-10.55-5.12-15.85-7.65z"/><path class="cls-18" d="M54.52 457.19c-3.43 1.58-4-.61-4.55-4q-6-36.88-12.34-73.65c-.58-3.3.48-4.06 3.25-4.51 9.87-1.62 10-1.69 11.71 8 3.89 22.39 7.52 44.83 11.47 67.2.73 4.12 0 6.27-4.5 6.35a50.22 50.22 0 00-5.04.61z"/><path d="M353 411.14c2.08 1.28 3.62 2.4 2.17 5.48-3.39 7.22-6.48 14.59-9.37 22-1.19 3.06-2.39 3.06-5 1.68-13-6.83-23-16.79-30.73-29.21z" fill="#fdfdfe"/><path d="M410.88 357.94c10.26 18.4.26 44.17-20.24 51.94-8.06 3.06-16.24 4.79-24.65 1.2a39.07 39.07 0 0025.62-12q8.39-8.62 16.86-17.08a7.46 7.46 0 002.55-6.11c-.25-5.95-.12-11.95-.14-17.95z" fill="#fdfdfd"/><path d="M201.68 411.22c-3.86 1.52-7.69 2.9-12.47 2.76 3.73-5.37 8.57-1.98 12.47-2.76z" fill="#f1f1f3"/><path class="cls-18" d="M431.05 246.67c1.72 4.1-1 5.93-5.13 6.86-10 2.27-15.27 7.38-17.8 18.45-2.16 9.42-2.06 15.87 4.93 22.33 1.93 1.78 5.36 3.91 4.45 6.69-1.09 3.33-3.87 6.13-6.05 9.07-1.13 1.52-2.65.79-4.1.28-4.55-1.6-9.18-3-13.66-4.75a5.41 5.41 0 00-6.32 1.22 65.12 65.12 0 01-14.71 10.25 5.92 5.92 0 00-3.6 6c.09 4.33-.35 8.69 0 13 .33 3.86-1.39 5.15-4.75 6-8.38 2-8.74 2.35-12.78-5.45-3.67-7.09-7.54-12.47-16.84-11.09-3.62.54-7.56-.77-11.31-1.46a6.21 6.21 0 00-6.57 2.4c-2.73 3.36-5.82 6.43-8.46 9.86-2.09 2.72-4 3.1-7.18 1.58-8.07-3.86-8.45-3.76-6.42-12.63 1.83-8 2.07-15-6.41-19.56a9 9 0 01-3.49-3.53c-4-7.52-10.15-8-17.29-5.77a16.09 16.09 0 01-1.94.46c-8.34 1.37-8.1 1.24-12-6.23-2-3.78-1.36-5.9 2-8.19 8.1-5.48 12.62-11.41 11-23.08-1.37-9.93-3.56-16.39-12.82-20.16-2.3-.94-6.07-1.88-6.1-4.51 0-3.68 1.5-7.42 2.63-11.06.55-1.78 2.42-1.44 3.89-1.45 4.66 0 9.33-.2 14-.06a5.72 5.72 0 005.95-3.53 57.06 57.06 0 0110-14.25 6 6 0 001.43-6.84c-1.62-4.54-3.07-9.15-4.84-13.63-.88-2.24-.58-3.48 1.45-5 8.29-6.15 8.65-6.66 16.17.56 6 5.77 11.72 7.88 19.31 3.68a14.45 14.45 0 016.7-1.78c6.15 0 9.52-2.9 10.65-8.83a25.86 25.86 0 011.63-4.18c3.5-9.2 4.45-9.63 14.13-7.49 2 .44 3.05 1.27 3.05 3.19 0 12.88 5.79 20.5 18.48 24.82 6.46 2.2 11.19 3.78 16.66-.64a17.5 17.5 0 012.62-1.43c8.11-4.4 10.69-3.7 16.09 3.85 1.24 1.74.33 2.7-.37 4-2.42 4.37-4.78 8.77-7.28 13.09a5.53 5.53 0 00.15 6.47 60.11 60.11 0 017.58 16.23c.81 2.88 2.68 4 5.31 4.48 3.27.61 6.51 1.43 9.8 1.86 9.44 1.13 7.61 1.67 8.16 9.9z"/><path class="cls-17" d="M57.12 199c-3.66 10.57 2.48 17.78 13.25 22.57a20 20 0 015.91 3.67c5.43 5.35 10.24 3.84 15.59-.34a148.32 148.32 0 0115.06-9.75c2.47-1.48 3.32-3.32 3.27-6.13-.17-8-.15-16-.1-24 0-1.35-.79-3.19 1.19-3.88 1.61-.57 2.78.39 4 1.42 26.52 22.65 19.23 59.75-5.51 75.42-23.5 14.88-52.95 8-67.55-15.35-12.07-19.27-7.83-45.56 9.65-60.09 1.21-1 2.38-2 4-1.4 2 .69 1.2 2.51 1.23 3.87.07 4.06.01 8.06.01 13.99zm394.79 172.51c.44 9.14-1.51 17.35-3.87 25.51-.84 2.9-1.65 4.23-5.1 2.61-7.36-3.45-15-6.41-22.49-9.5-2-.83-3.4-1.55-2.44-4.3a37.26 37.26 0 00.47-22.55c-.7-2.55 0-3.54 2.31-4.44q12.06-4.72 24-9.83c2.88-1.25 3.64-.34 4.34 2.41 1.69 6.79 3.26 13.58 2.78 20.09zm-44.39 70.18c-1.79.38-2.22-1-2.71-2.24-3.11-7.69-6.13-15.42-9.31-23.08-.82-2-.31-3.05 1.48-4a43.09 43.09 0 0016.88-16.49c1.24-2.07 2.51-2.14 4.52-1.28 7.62 3.28 15.3 6.44 23 9.62 1.9.78 3.19 1.6 1.88 4-8 14.66-19.26 25.78-34.32 32.88-.45.21-.94.38-1.42.59zm-31.8 7.23a95.8 95.8 0 01-24-4c-2.23-.65-2.52-1.7-1.71-3.6 3.4-7.95 6.8-15.9 10.13-23.88.74-1.77 1.73-2 3.48-1.49a41.12 41.12 0 0023.57.34c2.1-.6 3 .21 3.76 2.06 3.05 7.73 6.05 15.49 9.36 23.11 1.31 3-.53 3.43-2.5 4a91.82 91.82 0 01-22.09 3.46z"/><path d="M461.7 376.33a65.08 65.08 0 01-.08 7.9 3.71 3.71 0 01-3.92 3.49h-.23c-2.82-.41-1.56-3-1.25-4.4 1.12-5.09.47-10.21.71-15.31.06-1.28-1-3.39 1.25-3.61a3.28 3.28 0 013.39 3.06c.38 2.93.34 5.92.48 8.88z" fill="#fcfcfd"/><path d="M377.15 458.05a71.79 71.79 0 01-7.89-.55c-1.69-.27-3.25-1.69-2.8-3.52s2.24-.79 3.41-.56c5.5 1.07 10.91 0 16.36-.41 1.14-.08 3-.95 3.32 1 .26 1.57-.95 2.79-2.46 3.37-3.09 1.15-6.27.23-9.94.67z" fill="#fafbfc"/><path class="cls-17" d="M346.47 134.6c-3-31.61-12.24-53.74-33.7-72.71 37.69 2.94 68.5 38.56 69 72-5.81-2.69-11.49-5.1-17.94-4.9s-11.9 2.54-17.36 5.61z"/><path class="cls-17" d="M340.6 134.47c-8-4.71-16.24-7.09-25.3-4.44a22.19 22.19 0 00-5.56 2.13c-3.67 2.28-4.89 1.8-4.84-2.83.2-18.16.09-36.31.1-54.47V63.8c19 9.68 36.14 41.82 35.6 70.67zM229 318.15c-11-.38-17.6 6.58-16.7 16.75.21 2.36 1.94 5.35-.37 7a30.9 30.9 0 01-9.06 4c-2.1.65-3.31-1.55-4.18-3-4.07-6.58-10.16-7.48-17.14-7-3.88.25-5.24 3.22-7.3 5.42-5.25 5.68-8.05 6.14-14.49 1.68-3.3-2.28-1.47-5.86-1.2-8.7.41-4.19-1.12-6.81-3.64-10.12-4.37-5.77-9.71-5.77-15.52-4.76-3.49.61-5.48-.29-6.28-3.65s-5.11-6.55.08-9.82a22.44 22.44 0 003-2.68c6.7-6.19 6.59-15.73-.25-21.76-.5-.44-1-.85-1.49-1.33-1.41-1.56-4.51-2.41-4.08-4.62a30.81 30.81 0 013.89-9.63c1.11-1.87 3.85-1.11 5.54-.63 8.25 2.34 12.53-3.22 17-8.25 2.29-2.57.73-5.76.51-8.66-.43-5.83 4.21-11.09 10-11 1.93 0 2.93 1.71 3.69 3 4.25 7.21 11 7.46 18.13 7 3.61-.25 4.82-3.26 6.75-5.39 4.5-5 9.53-5.44 14.72-1.33 1.53 1.22 1.21 2.66 1 4.07-1.11 6.57-.26 11.93 5.51 16.76 3.71 3.1 7 3.37 10.87 2.65 5.22-1 8.16.6 10 5.87 1.33 3.76 1.44 6.39-2.08 8.39-7 4-7.11 10.45-6.66 17.25.26 3.95 3.89 5.11 6 7.52 1.49 1.7 4.76 2.6 4.39 5a23.26 23.26 0 01-3.71 9.15c-1.86 2.53-5.1.1-6.93.82z"/><path class="cls-18" d="M185.14 206.33c-.13-5.58-7.1-12.2-12.67-12.23-4.29 0-7.38-.37-8.65-5.79-1.09-4.64 1-6.14 4-8.15 8.1-5.37 9.14-13.42 2.88-20.78-3.9-4.57-3.73-7.72.33-12.21 1.52-1.68 3.08-1 4.54-.45 6.66 2.61 11.69-.18 16.55-4.45 3.18-2.79 2.33-6.61 2.43-9.78.15-4.77 3.14-4.9 6.27-6 3.56-1.27 5.16.44 6.83 3 2.09 3.28 3.81 6.42 8.73 7.13 5.68.83 10.12.23 13.81-4.23 2.14-2.58 4.36-2.87 7.37-1s5.84 3.64 4.16 7.71c-2.79 6.73.78 11.39 4.78 16 2.34 2.7 5.54 1.76 8.43 2 4.57.36 8.74 5.36 7.64 9.75-.55 2.2-3 2.94-4.72 4.13-7.93 5.52-9 13.68-2.66 20.82 3.9 4.38 3.69 8-.51 12.16-1.68 1.66-3.49 1.06-5.08.35-7-3.11-11.74.9-16.27 5-2.65 2.42-2 6.21-2.15 9.43-.17 2.84-.71 4.75-3.89 5.23s-6.14 2.62-8.65-1.67c-2.06-3.52-3.88-7.09-9.33-7.85-5.79-.8-10.08 0-13.73 4.36-2.25 2.67-4.58 2.73-7.39.8-2.52-1.74-6-2.59-4.26-7 .84-2.11.9-4.52 1.21-6.28z"/><path d="M148.27 168.86h-21c7.15-4.14 6.11-10.59 5.63-16.5-.47-5.67 3.19-12.55-4.11-17.32 2.86 0 5.73.15 8.57 0 3.42-.22 4.82 1.09 4.7 4.59-.18 5.48.13 11-.09 16.44-.18 4.98.32 9.55 6.3 12.79z" fill="#fcfdfd"/><path d="M135.3 114.05c2.75.1 4.52 1.36 4.66 4.17.14 3-1.45 4.74-4.47 4.75-2.78 0-4.34-1.58-4.39-4.35s1.51-4.25 4.2-4.57z" fill="#f9fbfd"/><path d="M82 288.08c.07-2.32-.24-4 2.31-4.15 2.77-.11 2.77 1.62 2.72 3.53 0 1.62.26 3.35-2.29 3.45-2.74.09-2.74-1.6-2.74-2.83z" fill="#89c7ed"/><path class="cls-9" d="M82.07 342.51c.06-1.59-.33-3.36 2.24-3.49 2.74-.13 2.84 1.56 2.75 3.5-.07 1.6.33 3.37-2.25 3.49-2.74.12-2.81-1.54-2.74-3.5z"/><path class="cls-10" d="M87.08 328c0 2.29.21 4-2.31 4.09-2.76.11-2.76-1.63-2.71-3.53 0-1.64-.22-3.36 2.31-3.44 2.7-.12 2.83 1.55 2.71 2.88zm-.02-26.35c.08 1.64 0 3.17-2.44 3.2-2.8 0-2.55-1.86-2.57-3.69s0-3.27 2.45-3.3c2.8-.03 2.57 1.86 2.56 3.79z"/><path d="M82.08 314.55c-.11-1.81.61-2.75 2.55-2.73 2.88 0 2.35 2.08 2.42 3.83.07 2-1 2.52-2.8 2.45-2.6-.1-2.07-2-2.17-3.55z" fill="#86c3eb"/><path class="cls-2" d="M390.94 252c-.26 27.5-23.48 50.19-51.18 50-27-.18-49.92-23.6-49.77-50.94s23.71-50.33 51.2-50c27.2.28 50.01 23.63 49.75 50.94zm-206.3 69.33c-16.58-.37-29.74-13.6-29.46-29.63.28-16.64 13.91-30.05 30.08-29.63 16.58.43 29.93 14.17 29.46 30.32a29.51 29.51 0 01-30.07 28.94zm27.73-119.2a26.58 26.58 0 1127.5-26.33c-.23 14.91-12.23 26.41-27.5 26.33z"/><path class="cls-17" d="M341 207a44.06 44.06 0 0144 44.11v.74c-.22 25.07-20 44.34-45.23 44.08-24.69-.25-43.95-20.11-43.71-45.09.18-24.72 19.94-44 44.94-43.84zm-155.78 60.93c12.83 0 23.79 11.2 23.6 24.13-.18 12.77-11.36 23.68-24.28 23.69-12.7 0-23.49-11.14-23.5-24.32-.04-12.84 10.96-23.5 24.18-23.5zm27.55-113.22a21.32 21.32 0 0121.13 20.93c.17 10.83-9.7 20.91-20.56 21-11.34.13-21.34-9.54-21.34-20.75 0-11.47 9.52-21.19 20.77-21.18z"/><path d="M346 221.89a24.74 24.74 0 00-11.82-.16c-3 .67-2.34-2.19-3-3.56-.84-1.76.53-2.14 2-2.44a33.88 33.88 0 0113.86.14c1.42.29 3.42.2 2.62 2.49-.54 1.64-.36 4.47-3.66 3.53z" fill="#606074"/><path d="M368.81 273.48c.1 1.19-4.92 6.61-6 6.39-1.94-.39-3.74-2.42-3.43-3.62a9.51 9.51 0 015.46-5.84c1.16-.53 2.95 1.65 3.97 3.07zm6.97-29.86c-.55 2.4-3 2.28-4.21 2.11-3.64-.49-2.81-4.27-3.63-6.58s2.35-3.17 3.48-3c3.98.7 2.58 5.02 4.36 7.47zm-65.37 16.13c-.09 3-3.06 3.3-4.17 2.95-3.27-1-2.24-4.53-2.79-7s1.69-2.5 3.21-2.48c4.94.06 2.09 4.55 3.75 6.53z" fill="#636376"/><path class="cls-30" d="M317.54 229.88c-1.21-1.11-3-1.91-3.47-3.74-.24-.89 6.18-6.07 7.08-5.66 1.75.79 2.27 2.61 2.73 4.29.21.79-5.34 5.23-6.34 5.11z"/><path class="cls-31" d="M375.63 258.49c-.8 1.21.82 5-2.91 5.35-1.33.14-4.54-.12-3.6-2.68.82-2.24-1-6.24 3.16-6.61 1.61-.14 4.53-.44 3.35 3.94z"/><path class="cls-30" d="M328.68 280.11c1.8 1.73 6 0 6 4.19 0 1.35.3 4.09-2.25 3.33s-6.34-.21-7.27-3.57a3.54 3.54 0 013.11-3.93z"/><path d="M312.68 237.82c-1.89 2-.87 5.85-3.92 6.77-1 .31-4.39 0-4.12-2.32.31-2.72.49-6.31 3.82-7.3 1.27-.38 3.41.82 4.22 2.85z" fill="#666679"/><path class="cls-30" d="M366.56 227.53c-1.08.89-2.59 3.05-3.72 2.87a8.68 8.68 0 01-6-4.91c-.51-1.1 1-3.37 2.67-4.32.68-.42 6.87 4.83 7.05 6.36z"/><path class="cls-31" d="M314.39 269c1.7 2.11 3.82 4.05 4.91 6.46.4.88-1.45 3.15-3.38 3.56-1 .22-6.21-5.35-5.83-6.3.7-1.72 2.28-2.72 4.3-3.72z"/><path d="M343.6 284c.58-3.53 4.43-2.64 6.79-3.34s2.75 2.43 2.52 3.68c-.65 3.58-4.27 2.8-6.73 3.48-2.71.75-2.09-1.7-2.58-3.82z" fill="#616175"/></svg>