<svg id="Слой_1" data-name="Слой 1" xmlns="http://www.w3.org/2000/svg" viewBox="0 0 512 512"><defs><style>.cls-2{fill:#86c5ed}.cls-3{fill:#87c5ed}.cls-4{fill:#86c5ec}.cls-11{fill:#86c3eb}.cls-12{fill:#fefefe}.cls-13{fill:#a3d0f1}.cls-14{fill:#fdfdfe}.cls-16{fill:#fdfdfd}.cls-29{fill:#86c4ec}</style></defs><path d="M264.93 397q-6.78 9.51-13.57 19c-3.1 4.32-4.72 4.34-7.77-.06q-17.88-25.85-35.69-51.74c-.57-.82-1.55-1.71-1.51-2.53.57-11.4-3.52-23.28 3.24-34.06 2.53-4 2.26-7.79-.45-11.58-3.85-5.37-4.37-11.18-1.22-16.91 2.58-4.69 1.73-8.87-.54-13.18-6.66-12.66-16.36-23-25.81-33.5-1.46-1.63-2.78-1.17-4.43-.59-5.33 1.87-10.74 3.5-16 5.49-2.75 1-4.44.26-5.82-2.08-3.44-5.88-6.86-11.77-10.41-17.6-1.49-2.45-1-4.26 1-6.09 4.12-3.64 8-7.52 12.22-11.05 2.07-1.76 2.6-3.4 1.78-6a61.43 61.43 0 01-3.1-17.62c0-3.37-1.65-4.85-4.81-5a4.51 4.51 0 01-4.87-1.94c-3-1.29-6-2.72-9.09-3.82-2.64-.94-3.66-2.51-3.19-5.27 1.15-6.84 2.21-13.7 3.29-20.56.4-2.55 1.94-3.64 4.44-3.75 4.13-.18 8.26-.44 12.39-.66a6.35 6.35 0 014.13-1.16c3.1.34 3.93-2 4.82-4.18.81-1.63 1.6-3.26 2.39-4.9 7.18-7.84 8.31-15.88 1-24.38-1.14-1.33-1.71-3.18-2.47-4.84-1.69-3.37.08-5.69 2.36-7.87 4.66-3.69 9.13-7.61 13.6-11.53 2.69-2.35 5.34-3.22 8.43-.87 2.08 1.45 4.29 2.76 5.55 5.11a3 3 0 00.27.42c5.52 6 11.4 9 19.2 3.47a19.28 19.28 0 018.42-2.9c4.52-.62 6.51-2.85 7-7.3.47-4.28 1.68-8.47 2.34-12.74.55-3.52 2.12-5.22 5.93-5.1 6.49.19 13 0 19.47-.08 2.78 0 4.25 1 4.79 3.85 1 5.22 2.47 10.35 3.34 15.58.51 3.06 1.72 4.61 4.83 5.25a62.38 62.38 0 0116.79 6.16c2.33 1.25 3.86.79 5.72-.79 4.06-3.43 8.37-6.58 12.41-10 2.46-2.1 4.46-2.23 7 0q7.32 6.41 15 12.44c2.6 2 2.93 4 1.34 6.83-2.62 4.62-4.88 9.45-7.49 14.08-1.31 2.32-1.29 4.08.4 6.3a65.09 65.09 0 018.95 15.5c1.15 2.88 2.92 3.61 5.7 3.59 5.16 0 10.32.3 15.47.2 3.13-.07 4.59 1.33 5.1 4.2 1.16 6.54 2.16 13.12 3.59 19.61.71 3.2-.55 4.65-3.19 5.72-5.08 2-10.09 4.31-15.23 6.19a4.68 4.68 0 00-3.51 4.73A75.88 75.88 0 01335.1 215c-.71 2.27.1 3.72 1.83 5.16 4 3.29 7.73 6.83 11.72 10.1 2.62 2.15 3.21 4.3 1.4 7.32q-5 8.34-9.58 16.92c-1.45 2.69-3.33 3.37-6.15 2.44-5.36-1.78-10.79-3.35-16.13-5.18-1.9-.65-3.33-.87-4.9.78-9.39 9.89-18.91 19.65-26 31.49-3.35 5.6-3.68 10.84.5 16.07 1.53 1.34 2.39 2.86 1.26 4.89a21.61 21.61 0 01-1.36 8.12 3.83 3.83 0 01-2.42 3.81c-2.82 4.45-2.13 8.5 1.42 12.22 2 1 2.5 2.74 2.21 4.82 0 6.3-.22 12.62.14 18.91.33 5.71-.5 10.85-4.47 15.19a7.51 7.51 0 01-3.67 5.73 123.47 123.47 0 00-11.09 16c-1.18 2.73-1.81 5.81-4.88 7.21z" fill="#5d5d70"/><path class="cls-2" d="M264.93 397a25.28 25.28 0 014.91-7.19c-.36 3.95 1.12 5.26 5.35 5.22 23.49-.24 47 0 70.47-.18 8.07-.05 14.62 2.55 19.69 9.87 5.89-9.23 14.79-10.05 24.46-9.91 21.82.32 43.65 0 65.47.19 3.77 0 4.74-1.07 4.73-4.78q-.19-58.22 0-116.43c0-4.13-1.36-4.92-5.12-4.9-23.82.15-47.65.06-71.47.09-10 0-14.84 4.2-16.42 14.24-.26 1.68-.65 3.11-2.42 3.17-2.09.07-2.44-1.51-2.71-3.38-1.42-9.63-6.45-14-16.12-14-11.83-.05-23.66 0-35.49 0-1.79 0-4.3.86-4.28-2.5s2.55-2.43 4.32-2.44c11.5-.07 23 .1 34.48-.09 7-.11 12.76 2.13 17.18 7.48 1.75 2.11 2.88 2.55 4.83.14 4.61-5.74 10.8-7.69 18.11-7.64 24.32.19 48.64.06 73 .06 7 0 7 0 7.06 6.78.12 8.27-1.21 7.14 7.61 7.22 7.37.06 7.37 0 7.37 7.43v134.43c0 7.09 0 7.09-7.24 7.09-27.66 0-55.31 0-83-.05a9.61 9.61 0 00-7.12 2.61c-9.85 8.87-23.24 9-33.08.18a10.25 10.25 0 00-7.54-2.8c-28.15.08-56.31 0-84.46.12-4 0-6.09-1-5.53-5.33.14-1.15-.05-2.48 1.57-2.64 1.13-.11 2.75-.49 3.14.78 1 3.18 3.48 2.07 5.39 2.07q41.22.11 82.46 0c3.14 0 5.34.64 7.65 3.32 7 8.18 21 8 27.88-.27a7.8 7.8 0 016.79-3.06c27.49.07 55 0 82.46.13 4.13 0 5.72-.66 5.7-5.35-.2-42.81-.11-85.62-.17-128.42 0-1.69 1-4.3-1.12-4.88a14.83 14.83 0 00-7.85.06c-1.9.6-.94 3.27-.94 5q-.07 51.72 0 103.44c0 5.83-.25 11.67.07 17.48.25 4.5-1.53 5.68-5.8 5.65-25.16-.15-50.31 0-75.46-.12-3.19 0-5.41.65-7.64 3.32-6.73 8.05-15.76 7.93-22.51-.1a8.46 8.46 0 00-7.28-3.23c-25.15.11-50.3-.05-75.46.15-4.65 0-6.31-1.42-5.94-6 .32-4.03.03-8.03.02-12.03z"/><path class="cls-3" d="M196.36 316.21c3 0 4.1 2 2.32 5.39-6.18 11.78-12.45 23.51-18.7 35.26q-16.41 30.83-32.81 61.66c-3.36 6.33-4.06 6.44-9.23 1.81-9-8.1-18.22-16-27.25-24.16-2.14-1.92-4.1-2.16-6.75-1.15-7.76 3-15.61 5.71-23.42 8.54-4.9 1.78-6 .91-6.46-4.42-1-11.41-2.08-22.8-3.08-34.2-.24-2.71-1.7-4.58-3.63-6.29q-14-12.37-28-24.84c-1.29-1.15-3.57-2.19-2.9-4.26.79-2.41 3.37-2.34 5.52-2.48 21.54-1.41 43.08-2.75 64.62-4.21 23.68-1.61 47.38-3.1 71-5.15 6.17-.53 12.41-.09 18.77-1.5z"/><path class="cls-2" d="M167.23 146.2l-2.36 4.92c-2.28.8-3.58 2.63-4.73 4.61l-5.11.17c.74-4-1.07-4.86-4.91-5-5.23-.19-9.13 1.11-12.62 5.2-4.84 5.69-10.27 10.89-15.48 16.27-1.14 1.17-2.33 2.6-4.26 1.91s-1.7-2.62-1.7-4.25c0-5-.15-10 0-15 .12-2.95-.72-4.34-3.9-4a62.67 62.67 0 01-7 0c-7.32-.12-11.1-3.83-11.13-11.08-.06-12.16 0-24.32 0-36.48 0-7-.15-7.16-6.88-6.31-17.45 2.19-30.12 11.5-38.9 26.43-4.19 7.14-7.45 15-7 23.14.89 14.81-4.2 27.4-11.84 39.39-3.42 5.36-3.57 5.83 3.81 6.82 7.79 1.05 7.81.85 7.79 8.83v21.49c0 6.46 1.16 7.66 7.46 7.68 9.16 0 18.33.13 27.49 0 3.55-.07 5.23 1 5.21 4.78 0 3 .58 5.94.85 8.92.16 1.73-.47 3-2.37 3.12s-2.36-1.27-2.62-2.88c-1.45-8.92-1.47-8.91-10.64-8.89h-19c-7.26-.05-11.35-4.18-11.39-11.52 0-7.5-.1-15 0-22.49 0-2.66-.62-4-3.56-4a16.24 16.24 0 01-4.88-1c-4.85-1.54-6.66-6.26-4.13-10.68 1.9-3.32 3.9-6.58 5.78-9.91a52.33 52.33 0 006.9-27.13C36 125.54 54.33 99.35 78.57 93.79c3.88-.89 7.78-1.85 11.79-1.72 2.79.09 3.68-.92 3.76-3.75.31-10.75 3.09-13.26 13.93-13.26h74.46c9.11 0 12.55 3.47 12.51 12.73 0 4.49-.12 9-.18 13.48l-5.67-4.07c-.92-2.92-.58-5.94-.67-8.92-.17-5.68-1-6.61-6.83-6.67-11.31-.11-22.63 0-33.94 0-13.31 0-26.62-.06-39.93 0-6.28 0-7.18 1-7.21 7.32q-.09 24.21 0 48.42c0 6.23 1 7 7.36 7.17 2.83.06 5.66 0 8.48.12 3.78.22 5.78 2.17 6 6 .11 1.83.06 3.66.12 5.49s-.26 3.63.24 5.62c4.3-4.35 8.57-8.53 12.72-12.83a13.58 13.58 0 0110.7-4.36c5.16.14 10.32 0 15.48.07 1.97-.02 4.07-.22 5.54 1.57z"/><path class="cls-3" d="M372.83 183.73c.8-3-.74-5.73-2.73-8.61-16.29-23.57-.68-55.93 27.95-58.16 3.45-.27 6.45-.82 9.2-3.66 14.51-15 36.63-13 48.38 4.38 1.78 2.62 3.34 3.62 6.66 3.5 16.68-.63 27.58 13.1 23.48 29.38a8.7 8.7 0 00.61 6.58c10.18 20.69-1.13 47.17-29.6 48.44a18.61 18.61 0 00-11.7 4.14c-11.76 9-26.53 7.89-37.16-2.39-2.25-2.18-4.1-2.35-7-1.58-14.92 3.91-28.11-6.34-28.09-22.02z"/><path class="cls-4" d="M415.19 321c-9 0-18-.12-26.95.06-3.74.07-5.47-1-5.36-5.07q.33-13 0-25.94c-.1-4.07 1.59-5.11 5.35-5.08q27.19.19 54.4 0c3.75 0 5.47 1 5.37 5.07q-.33 13 0 25.95c.1 4.06-1.6 5.15-5.36 5.07-9.15-.21-18.3-.06-27.45-.06z"/><path class="cls-3" d="M65.73 283.91c.43-1.79-.93-2.68-2-3.71-2.57-2.6-5.26-5.08-7.76-7.74s-1.9-4.64 1.78-5.39a17 17 0 014.89-.71c7.54.7 11-3.72 13.26-10a27.2 27.2 0 012-4c1.75-3.13 3.58-3.22 5.38 0a9.44 9.44 0 011.1 2.23C86.72 263.73 93.17 267 102 267c1.83 0 3.93 0 4.76 2 .92 2.19-1.36 3.09-2.42 4.46a1.7 1.7 0 01-.36.35c-8 5.25-9.55 12.45-6.47 21.1.57 1.59 1 3.35-.53 4.59s-3.31.62-4.63-.42c-7.93-6.26-15.74-5.92-23.62.1-1.34 1-3.07 1.53-4.58.19s-.59-2.71-.31-4.17c.68-3.78 1.25-7.54 1.89-11.29zm215.2 89.9a15 15 0 013.67-5.74c10.33 1.52 14-7.39 19.17-13.09 6-6.65 9.31-6.94 13.28 1.2 3.29 6.74 12.15 8.92 17.16 2.93 2.61-3.13 6.45-5.07 6.13-10.49-.18-3.11 4-1.21 6.23-1.6s4.14.1 4.35 2.83c.13 1.82 0 3.66 0 5.49.05 3.29-3.2 3.36-4 2.26-2.48-3.6-3.59-.63-4.8.66-3.53 3.76-8.18 6.59-9.05 12.55-.32 2.18-2.84 4.13-5.71 4.09-3.08 0-4.81-2.2-6.06-4.56-2.44-4.6-4.68-9.22-11.27-7.45-2 .54-3.57-3.27-5.77-.67-3.38 4-8.7 6.54-10.23 11.87-1.09 3.81-2.81 6.76-6.75 6.66s-6.07-2.89-6.35-6.94zm-98.68 39.01c2-3.91-.51-7.32-4.35-10.66-3.05-2.64-2.45-4.8 1.46-5.21 5.51-.59 8.91-2.87 10.93-8.2 1.34-3.52 4.41-3.36 5.49.28 1.58 5.27 4.87 7.1 10 7.76 4.95.63 5.46 2.51 1.78 5.86-3.31 3-5.57 5.93-3.68 10.73.59 1.51.91 3.75-1.06 5s-3.22-.29-4.47-1.23c-4-3-7.66-2.15-11.46.37-1.15.76-2.5 1.83-4.11.69s-1.13-2.6-.53-5.39zM147.19 190a11 11 0 014.87 1.94 88.23 88.23 0 01-13.85 19.4 5.9 5.9 0 00-1.73 5.76c2.3 13.55 4.37 27.14 6.44 40.73.28 1.88.84 4.08-2.28 4.47s-2.39-2-2.65-3.57c-2.26-14.23-4.46-28.47-6.77-42.69a7.49 7.49 0 012.39-7.13A71.22 71.22 0 00147.19 190zM136 305.85c2.31-3.88 0-6.58-2.91-9.51-2.64-2.68-.84-4.92 2.2-5 3.94-.14 5.81-2 7.38-5.3 1.72-3.62 4-3.52 5.85.24 1.51 3.15 3.31 4.79 7 5 4 .25 4.82 2.86 1.88 5.63-2.7 2.54-3.7 4.87-2.65 8.67s-1.26 5.37-4.8 3.26c-3.31-2-6-1.83-9.16.14-2.89 1.87-4.62.81-4.79-3.13z"/><path class="cls-2" d="M415.41 347h28.43c1.89 0 4.24-.61 4.08 2.71-.14 3-2.36 2.24-4 2.25q-28.43.06-56.86 0c-1.88 0-4.24.61-4.08-2.71.14-3 2.37-2.24 4-2.25 9.48-.07 18.96 0 28.43 0zm.05 33.94h-28.44c-1.89 0-4.23.59-4.06-2.72.15-3 2.38-2.23 4-2.24q28.44-.06 56.87 0c1.89 0 4.23-.59 4.06 2.73-.15 3-2.38 2.23-4 2.24-9.48.05-18.95-.01-28.43-.01z"/><path d="M399.12 215c6.49-.06 12.71 6.18 12.8 12.85.09 6.37-6.22 12.9-12.68 13.1-6.78.22-13.23-6.06-13.27-12.92s6.12-12.94 13.15-13.03z" fill="#87c5ec"/><path class="cls-2" d="M285.3 316.94q1.21-1.9 2.42-3.81c1.59 1.34 3.51.81 5.29.82 16.15 0 32.31 0 48.47.07 1.7 0 4.33-1.15 4.46 2.26.14 3.76-2.72 2.65-4.6 2.66-17.15.06-34.31 0-51.47.05-1.87.01-3.67.01-4.57-2.05zm3.63 17.06l-2.21-4.82 55.83-.19c1.69 0 3.36-.16 3.43 2.38.07 2.9-1.87 2.61-3.7 2.61z"/><path d="M371.33 255c-4.82 0-9.56-5-9.35-9.82.21-4.64 4.94-9.16 9.57-9.11 4.83 0 9.57 5 9.35 9.82-.2 4.59-4.9 9.11-9.57 9.11z" fill="#88c6ed"/><path class="cls-4" d="M401 366.94h-14.94c-2 0-3.15-.44-3.05-2.76S384.44 362 386 362h29.88c1.58 0 3 0 3.05 2.25s-1.07 2.8-3.05 2.77c-4.97-.12-9.95-.08-14.88-.08z"/><path d="M60.92 391.87c.37 1.82-1.13 2.17-2.29 2.68-6.83 2.95-13.69 5.85-20.53 8.8-1.87.8-3.45 1.12-4.42-1.3s1-2.67 2.42-3.3c6.84-2.93 13.7-5.82 20.51-8.84 2.33-1.04 3.78-.74 4.31 1.96z" fill="#88c5ec"/><path d="M39.17 379.18c-3 .87-3.26-.46-3.73-1.45-.72-1.53-.1-2.5 1.4-3.08l21.74-8.36c1.38-.53 2.23 0 2.57 1.4.25 1 1.42 2.37-.17 3-7.66 3.08-15.39 6.01-21.81 8.49z" fill="#89c6ec"/><path d="M107 414.3c-.2.41-.32 1.27-.75 1.47-4 1.88-8.11 3.74-12.24 5.42-1.55.64-1.79-1-2.34-1.93-.75-1.3-.37-2.15 1-2.73 3.64-1.58 7.29-3.14 10.89-4.8 2.55-1.18 2.61.96 3.44 2.57z" fill="#8ac6ed"/><path d="M385.81 338c-1.4.09-2.88 0-2.88-2.5 0-2.89 2-2.45 3.77-2.51s3.26.06 3.26 2.51c.04 2.86-1.96 2.4-4.15 2.5z" fill="#86c4eb"/><path class="cls-2" d="M411.32 337.94c-1.69 0-3.32.17-3.39-2.36-.07-2.86 1.79-2.63 3.63-2.62 1.68 0 3.33-.17 3.39 2.38.05 2.84-1.78 2.66-3.63 2.6zm25 .06c-1.68 0-3.33.18-3.39-2.36-.08-2.85 1.78-2.63 3.62-2.62 1.68 0 3.33-.18 3.39 2.36.06 2.8-1.77 2.62-3.62 2.62zM323 302.6c-.22-1.84.63-2.7 2.53-2.62 1.63.07 3.4-.26 3.42 2.32 0 1.87-.66 2.76-2.57 2.67-1.61-.08-3.49.29-3.38-2.37z"/><path class="cls-4" d="M317 302.37c.21 1.89-.71 2.68-2.58 2.61-1.67-.05-3.38.19-3.39-2.36 0-1.9.74-2.72 2.62-2.64 1.61.07 3.45-.23 3.35 2.39z"/><path class="cls-11" d="M339.1 304.94c-1.86.17-3.2-.18-3.15-2.56.05-2.06 1.16-2.41 2.87-2.42 1.86 0 3.21.23 3.16 2.61-.05 2.07-1.15 2.51-2.88 2.37z"/><path class="cls-2" d="M401.91 335.38c.21 1.94-.78 2.64-2.62 2.59s-3.35.1-3.35-2.42c0-1.93.83-2.65 2.67-2.59s3.49-.15 3.3 2.42z"/><path class="cls-11" d="M426.88 335.22c.23 2-.69 2.8-2.56 2.74-1.67 0-3.38.2-3.38-2.36 0-1.9.73-2.73 2.62-2.63 1.63.03 3.54-.31 3.32 2.25z"/><path class="cls-4" d="M303.94 302.39c.2 1.95-.8 2.63-2.63 2.58s-3.35.1-3.34-2.42c0-1.93.83-2.65 2.67-2.59s3.49-.14 3.3 2.43zM289.08 305l-1.26-4.89c1.56.14 3.7-1.11 4.12 1.75.33 2.24-.52 3.37-2.86 3.14z"/><path class="cls-12" d="M257.85 274c.85-17.28 1.26-34.58 6-51.41 1-3.69 2.73-6.47 6.15-8.54 5-3 9.59-6.6 14.41-9.87 1.9-1.29 3.47-2.16 1.52-5s-3.16-1.24-4.77-.12c-4 2.76-8 5.37-11.85 8.32-2.27 1.76-3.92 1.59-6.12-.09-4.11-3.12-8.54-5.8-12.64-8.92-2.65-2-4.84-2.21-7.58-.13-4.23 3.22-8.78 6-13 9.22-2.06 1.54-3.64 1.62-5.73 0-3.84-2.91-7.89-5.54-11.83-8.34-1.8-1.28-3.17-2.58-5.11.27-2.08 3.05.26 3.67 1.89 4.82 4.35 3.07 8.65 6.22 13.14 9.08a13.56 13.56 0 015.76 7.79c3.82 12 4.82 24.46 5.7 36.89.62 8.79.51 17.64 1 26.45.18 3.37-.6 4.89-4.29 4.53-4.6-.44-10.62 1.86-13.49-.85s-1.19-8.86-.82-13.4c1-12.62-3.64-21.95-13-30.69-28-26.24-26.78-75.1 2.52-98 19.27-15.07 41.49-19 64.45-9.72 22.78 9.25 36.51 26.73 40 51.38 3.22 23.09-4.06 42.71-21.22 58.43-7.5 6.88-11.43 14.94-10.86 25.13a24.86 24.86 0 010 3c-.33 4.77 2.06 12.2-.87 13.7-4.63 2.38-11.28.82-17.07 1-2.27.06-2.2-1.43-2.2-3q-.08-5.93-.09-11.93z"/><path class="cls-13" d="M284.6 277.17c-2.54-12.72 2.49-21 10.7-29.2 19.91-19.81 26.43-44.07 18.48-71.07-7.63-25.88-24.9-42.83-51.51-49.24-41.43-10-80.37 18.23-84.41 60.73-2.34 24.72 5.12 45.76 23.58 62.31 8.27 7.42 9.47 16.18 8.19 26.94-7.21-10.85-15.45-20.09-23.67-29.37-3.08-3.47-6-4-10.07-2.38s-8.53 2.83-12.7 4.47c-2.33.92-3.83.58-4.81-1.73-.07-.15-.18-.28-.24-.43-2-4.5-7.58-8.46-6.24-12.93 1.21-4 6.35-7 10.15-10 4.38-3.38 6-6.86 3.73-12.36a39.52 39.52 0 01-2.84-16.13c.16-5.51-1.72-9.06-7.42-10.54-4-1-7.76-3-11.69-4.33-2.32-.82-3.07-2.1-2.39-4.53 1.35-4.78-.13-11.21 3.31-14.23s9.61-1.3 14.52-1.12c5.64.21 8.89-1.69 10.85-7.15a56.14 56.14 0 019.88-16.64c2.25-2.73 2.35-5.14.5-8.12-2.54-4.09-4.63-8.47-7.13-12.6-1.39-2.29-1.19-3.86 1-5.42 1.75-1.26 3.28-2.82 4.95-4.19 6.68-5.5 7.15-6 13.56 0 7.23 6.77 14 9.53 22.93 3.15 3.45-2.47 8-3.32 12.27-4 4-.61 6.16-2.44 6.66-6.59.49-4 1.85-7.8 2.15-11.75.37-4.75 2.6-5.83 7.06-5.75 12.6.23 12.86 0 15.15 12.64 1.23 6.78 3.26 11.51 11.27 12.35 6.08.63 11.7 3.71 17.1 6.72a4.86 4.86 0 006.3-.64c4-3.47 8.41-6.55 12.44-10 1.89-1.63 3.35-1.85 5.05 0a4.09 4.09 0 00.38.33c3.66 3.12 9.29 5.67 10.44 9.54s-3.38 8.65-5.91 12.67c-3.39 5.38-3.36 9.62 1 14.56 4.09 4.56 6.78 10.26 8.88 16.09 1 2.86 2.84 4.28 5.92 4.32 5 .06 10 .46 15 .34 2.88-.08 4.39.82 4.63 3.7a7.94 7.94 0 00.2 1c2.59 13.55 2.59 13.55-10.27 18.79-1.7.69-3.37 1.45-5.09 2.06-2.48.87-3.59 2.4-3.72 5.18a82.79 82.79 0 01-4.21 23.49 5 5 0 001.73 6.15c3.82 3.22 7.41 6.71 11.31 9.82 2.66 2.12 2.8 4.11.92 6.73-2.7 3.78-3.48 10.1-7.42 11.36-3.52 1.13-8.75-1.4-12.64-3.42-7.06-3.67-11.46-1-16.14 4.3-7.27 8.33-15.01 16.33-21.67 26.12z"/><path class="cls-12" d="M167.23 146.2c-7.82 0-15.64 0-23.46-.2a7.38 7.38 0 00-5.66 2.53c-5.59 5.4-11.29 10.7-17.07 16.14 0-4.47-.09-9.36 0-14.25.09-3.23-1.28-4.52-4.46-4.42-4 .14-8 0-12 .06-3.69.08-5.58-1.45-5.57-5.3V85.33c0-3.85 2-5.28 5.62-5.28q39.95.08 79.9 0c3.75 0 5.71 1.63 5.42 5.4-.31 3.92 1 7.94-.82 11.74-2.63-2.44-4.87-1.67-7.34.52-4.46 3.94-9.14 7.62-13.73 11.41a13.71 13.71 0 01-1.93-.17c-1.71-.36-3.33-.28-4.11 1.58s.45 3 1.76 4.08c.63.51 1.35.89 1.93 1.46a32.81 32.81 0 003 5.16c7.66 8.87 6.29 17.09-1.48 24.97z"/><path class="cls-13" d="M246 357.62c-4.28-2.75-7.64-4.82-10.9-7-3.72-2.53-1.7-6.42-2-9.7-.2-2-.64-3.06-2.88-3-1.82.08-3.15.11-3.24 2.57-.12 3.42 1.65 7.88-.86 10-3.78 3.25-8.83 5-14 7.76 0-7.92-.3-15 .12-22.09.23-4 3.33-7.24 5.4-10.52 1.28-2 5-.7 7.6-.72 16-.12 32-.08 47.95-.19 2.66 0 4 .74 5.8 3.15 6.67 9 2.88 19 4.31 28.9-4.7-1.2-8.09-3.63-11.76-5.45-1.48-.74-1.51-2-1.5-3.37 0-2.5-.1-5 0-7.5s-1.37-2.57-3.21-2.57-2.59.39-2.86 2.44c-1.38 10.79-1.45 10.78-11.94 16 0-5.19-.1-10.09 0-15 .07-2.46-.53-3.59-3.3-3.55s-2.76 1.62-2.75 3.57c.02 5.1.02 10.08.02 16.27z"/><path class="cls-12" d="M248.68 386.74c-4.51 0-9 .11-13.28 1.71-2.44.91-3.62 0-4.88-1.9-4.55-6.75-9.14-13.48-13.86-20.1-1.5-2.1-1.7-3.45 1-4.33a1.46 1.46 0 00.46-.2c8.57-6.67 16.85-7 24.87 1 3.55 3.54 7.23 3.39 10.87 0a11.94 11.94 0 011.67-1.08c11-7.1 11-7 22.33-.41 2 1.19 2.61 2 1.11 4.1q-7.38 10.35-14.42 20.93c-1.27 1.92-2.59 2.18-4.56 1.46-3.64-1.35-7.5-1.08-11.31-1.18z"/><path class="cls-14" d="M246.23 288.78c-4.75 1.2-5.59-.91-5.67-5.17-.38-18.6-.67-37.23-4.49-55.57a53.18 53.18 0 00-3.42-11.42c-1.09-2.39-.65-3.71 1.5-4.82a12.82 12.82 0 001.23-.85c12.06-8.5 12-8.47 23.59.63 1.52 1.21 2.06 2 1.18 4-4.87 11.13-5.91 23.09-7 35a269.26 269.26 0 00-1.22 32.42c.14 4.39-.4 7.41-5.7 5.78z"/><path class="cls-13" d="M212.68 304c3-9 3-9 11.25-9h50.95c2.85 0 7.49 5.27 7 7.87-.28 1.42-1.47 1.09-2.38 1.1-22.16.03-44.28.03-66.82.03z"/><path d="M281.72 310.26c-1.86 6.51-5.32 9.05-12.2 8.76-14.76-.61-29.57-.11-44.35-.07-8.27 0-8.27 0-11.85-8.69z" fill="#a3d0f0"/><path class="cls-16" d="M247.49 411c-3.49-5-6.56-9.61-9.79-14-1.75-2.4-.69-2.93 1.61-3.4a59.54 59.54 0 0116.91-.46c2.76.24 2.78 1.51 1.3 3.56-3.32 4.53-6.52 9.22-10.03 14.3z"/><path d="M165.75 116.08c-2.79.09-4.81-1.06-5.51-3.82a3.85 3.85 0 011.87-4.21c2.31-1.59 4.29-1 6 1.08-1.55 2.06-4.3 3.71-2.36 6.95z" fill="#8ac6ec"/><path d="M160.14 155.73c-.86-4 .93-5.36 4.73-4.61-.87 2.27-.87 5.37-4.73 4.61z" fill="#f1f2f4"/><path class="cls-16" d="M312 409.92c-12.65 0-25.3-.19-38 .1-4.64.11-3.9-2.61-4.08-5.41-.21-3.16.36-4.79 4.2-4.76 24.47.16 48.94 0 73.4.1 8.52 0 13.28 4 15.25 12.65.37 1.61.87 2.3 2.5 2.34 1.86 0 2.47-.67 2.77-2.58 1.16-7.45 6.32-12.28 13.86-12.34 24.8-.18 49.6 0 74.4-.15 5 0 3.25 3.36 3.61 5.82.46 3.18-.73 4.32-4.09 4.31-24.8-.13-49.6 0-74.4-.14-3.67 0-6.06.89-8.28 4.07-5.09 7.3-11.35 7.28-16.52 0a8.69 8.69 0 00-8.22-4.13c-12.13.27-24.28.12-36.4.12z"/><path class="cls-12" d="M189.53 327.88c-7.39 14-14.09 26.82-20.85 39.58-8 15.14-16.2 30.21-24.1 45.41-1.91 3.68-3.11 3.95-6.3 1.07-13.45-12.15-27.16-24-40.85-35.9-1.94-1.68-2.74-2.55.2-4 30.21-15.12 60.37-30.32 91.9-46.16zm-15.47-4.06l-51.44 17.12L77.21 356c-1.7.56-3.44 1.65-5.16.13-8.79-7.78-17.55-15.58-27.11-24.07l128.92-9.16z"/><path class="cls-16" d="M172.86 330.83Q132 351.29 91.23 371.74c-2 1-2.88 2.66-3.79 4.45a121.36 121.36 0 01-9.11 15.87c-.77-9.42-1.63-18.84-2.27-28.27-.21-3.07 2.81-3 4.66-3.57q39.45-13.25 79-26.3c4.1-1.36 8.22-2.65 12.32-4 .27-.16.55-.27.73-.16.42.31.23.7.09 1.07z"/><path d="M103.21 390l-19.28 6.9-1-.74c2.54-5 5-10 7.66-15 1-1.87 2.35-.47 3.25.3 2.94 2.6 5.82 5.3 9.37 8.54z" fill="#fafbfb"/><path d="M172.86 330.83L172 330a5.65 5.65 0 015.25-1.19z" fill="#c0e0f5"/><path class="cls-12" d="M428.25 108.9c12.52 0 20.25 5.28 24.82 15.31 1.24 2.73 2.77 3.83 5.81 2.85 11.69-3.75 20.65 5.22 22.52 13.87a15 15 0 01-1.39 9.63c-1.29 2.83-.85 4.83.69 7.34 6.17 10.08 5.92 20.42-.6 30-6.78 10-16.7 13.94-28.66 11.66a5.09 5.09 0 00-5.22 1.63c-12.85 12.59-25.54 12.35-37.26-.77-1.77-2-3.15-2.77-5.91-1.34-6.17 3.22-12.53 3.24-18.33-1-6-4.4-8-10.5-6.3-17.63.51-2.15-.15-3.39-1.37-4.89-16.26-20.05-7.26-47.82 17.82-52.62 7.73-1.48 14.06-3 19.52-9a17.07 17.07 0 0113.86-5.04zM415.43 290c7.81 0 15.62.08 23.43-.06 2.83-.05 4.25.53 4.13 3.8-.22 6.14-.15 12.3 0 18.44.06 2.67-.6 3.87-3.57 3.85-16-.11-31.91-.08-47.86 0-2.39 0-3.68-.49-3.62-3.28.15-6.47.15-13 0-19.43-.06-2.74 1.14-3.36 3.58-3.33 7.96.06 15.93.01 23.91.01z"/><path class="cls-14" d="M92 293c-7.81-6-14.87-6.49-22.4.33 2.92-9.11 1.33-16.15-7-21.54 9.41-.08 15.5-3.76 17.9-13.23 3.32 8.58 7.91 14.44 18.5 12.54-7.63 5.84-11.23 12.41-7 21.9z"/><path d="M310.72 357.78a1.27 1.27 0 01-1.59-1.33 1.2 1.2 0 011.12-1.33 1.27 1.27 0 011.58 1.33 1.21 1.21 0 01-1.11 1.33z" fill="#f0f8fc"/><path d="M327.7 369.76a1.2 1.2 0 01-1.49-.86 1.34 1.34 0 112.61-.45 1.19 1.19 0 01-1.12 1.31z" fill="#f0f7fb"/><path d="M288.87 374.45c-.14.65-.35 1.23-1.14 1.32a1.28 1.28 0 01-1.59-1.33 1.21 1.21 0 011.12-1.32c.99-.12 1.46.41 1.61 1.33z" fill="#eef5f9"/><path d="M188.24 410.78c-.26-3.52 0-7-5.15-9.26 5.24-.69 8.2-2.34 9.67-6.86 1.87 4.29 4.29 6.75 9.18 6.44-2.59 2.71-4.75 4.85-4 8.27.21 1-.73 1.74-1.55 1.08-2.72-2.2-5.3-.45-8.15.33z" fill="#fafbfc"/><path d="M142.45 301.9c-2.22-3.93-1.27-7.42 2.91-9 1.08-.42 4.89 2.32 4.88 3.59-.03 4.73-3.4 6.22-7.79 5.41z" fill="#f5f9fb"/><path class="cls-14" d="M399 236a8 8 0 117.93-8.27A7.69 7.69 0 01399 236z"/><path d="M371.39 250c-2.68-.26-4.4-1.58-4.39-4.41 0-3 1.69-4.66 4.72-4.51 2.79.14 4.24 1.83 4.15 4.59s-1.73 4.14-4.48 4.33z" fill="#f7fafb"/><path d="M250.85 156c15.35.8 29.86 9.37 39.68 25.74.84 1.4 3.09 3.11 0 4.88-2.71 1.55-3.84.7-5.27-1.83-16.77-29.7-57.9-30.72-75.74-1.91-1.56 2.53-2.75 3.82-5.68 1.9s-.41-3.52.36-4.81c8.8-14.63 25.8-24.09 46.65-23.97z" fill="#5d5d71"/><path d="M149 111.39c-.45 2.75-1.89 4.59-4.57 4.51a4.34 4.34 0 010-8.68c2.69-.08 4.04 1.78 4.57 4.17zm-20 .04c-.34 2.64-1.79 4.48-4.44 4.48a4.34 4.34 0 01-.26-8.67c2.7-.14 4.16 1.62 4.7 4.19z" fill="#89c6ed"/><path class="cls-2" d="M427.89 162h-26.44c-1.63 0-3.4.34-3.51-2.28-.12-2.85 1.7-2.73 3.6-2.72h52.88c1.63 0 3.4-.31 3.51 2.29.13 2.86-1.7 2.71-3.6 2.71h-26.44z"/><path class="cls-4" d="M415.16 177h-13.94c-1.79 0-3.29-.09-3.28-2.55s1.6-2.47 3.35-2.47h28.38c1.78 0 3.29.09 3.27 2.54s-1.6 2.48-3.34 2.47zm34.62.11c-1.79-.58-4.81 1.23-4.81-2.51 0-4 3.22-2.43 5.13-2.47s4.75-1.37 4.77 2.32c.02 4.11-3.29 1.95-5.09 2.66z"/><path class="cls-29" d="M450.6 149c-1.86.21-2.71-.59-2.67-2.52 0-1.61.59-2.41 2.32-2.44s2.74.62 2.69 2.56c-.05 1.61-.58 2.55-2.34 2.4z"/><path class="cls-2" d="M442.89 146.72c.14 1.77-.82 2.28-2.41 2.32-2 .06-2.58-.85-2.55-2.7s.85-2.26 2.45-2.3c1.93-.04 2.72.83 2.51 2.68z"/><path class="cls-29" d="M430.25 144.1c1.88-.13 2.66.55 2.7 2.26s-.63 2.74-2.57 2.7c-1.61-.05-2.43-.6-2.43-2.33s.49-2.93 2.3-2.63z"/><path class="cls-2" d="M420.37 149c-1.68.12-2.39-.63-2.43-2.31-.05-1.88.67-2.7 2.59-2.65 1.63 0 2.38.66 2.41 2.35.06 1.87-.65 2.81-2.57 2.61z"/><path class="cls-29" d="M410.32 149c-1.73.13-2.33-.74-2.37-2.37-.06-1.92.77-2.64 2.65-2.59 1.69 0 2.32.77 2.35 2.41.05 1.91-.75 2.77-2.63 2.55z"/><path class="cls-2" d="M402.9 146.68c.14 1.73-.74 2.32-2.36 2.36-1.92.05-2.63-.78-2.6-2.65 0-1.69.78-2.32 2.41-2.35 1.9-.04 2.76.75 2.55 2.64z"/></svg>