<svg data-name="Слой 1" xmlns="http://www.w3.org/2000/svg" viewBox="0 0 258.9 178.92"><path d="M103.72 137.41c-1.66 0-3.33 0-5-.11-5.07-.19-6.94-3.23-4.43-7.6 5-8.76 10.24-17.41 15.36-26.11.76-1.28 1.49-2.57 2.44-4.21a29.57 29.57 0 00-18.86-3c-14.91 2.26-25.13 10.54-30.4 24.81-6.92 18.76 4.3 37.42 17.39 44.14 16.72 8.58 36.27 4.23 47.23-10.76.49-.67 1-1.36 1.39-2.07 3.87-6.48 3.87-6.48 11.94-5.32-3.63 15-18.64 28.53-34.95 30.72-6.36.86-12.92.22-19.39.26a14.31 14.31 0 00-2.84-1.75c-16.83-5.68-26.71-17.53-30.88-34.52-1.82-7.44-.72-14.81.56-22.18 1.73-3.45 3.19-7.07 5.24-10.32C67.64 95 80.72 87.09 97.9 87.31c6.36.08 12.69 1.87 19.37 2.94 5.65-7.7 11.43-16 7.48-27.16a9.61 9.61 0 01-.19-2.48c-.36-2.89-.9-5.78-1-8.69-.09-2.1-.61-3.29-2.84-3.93A27.1 27.1 0 01109 40.86c-2.35-2.33-2.29-4-.51-6.75 2.89 0 6-.12 9.16 0 2.78.14 4.41-.78 5.89-3.36 3.79-6.65 8.36-12.76 15.24-16.66 4.84.2 8.79-1.25 11-5.94a50.81 50.81 0 0138.2.59c-.19 1.49-.37 2.7 1.66 3.41a18 18 0 016.58 3.63 7.64 7.64 0 006.56 2.29l3 2 1.29-.51a34.17 34.17 0 00-.5-6.27c-1.17-4.42-2.69-8.75-4.06-13.12 4.33-.05 8.66 0 13-.16 11.52-.33 23.16 11.26 21.27 23.6a27 27 0 01-7.38 14.86c-3.55.34-6 .62-8.44.78-1.73.12-4.21.81-5.09 0-3.31-3.25-7-1.86-10.83-2.07v9.69h14.94c4.07 0 7.45 1 9.66 4.89a9 9 0 003.92 3.3c6.4 3.07 9.3 7.38 8 13.54-1.38 6.67-5.38 10.71-11.53 11.4-4.89.54-9.89.11-15.05.11v-8.94h11.73c3.92 0 6.12-1.87 6-4.48s-2.63-4.49-6.14-4.52c-10.32-.06-20.64 0-31.69 0 3 8.74 5.88 17.08 8.83 25.66 8.94-1.23 17.51-1 25.72 2.3 33.83 13.71 38.73 55.51 14 77.15-17.25 15.07-39.39 14.28-54 4.85-11.61-7.48-19.67-17.75-22.48-31.6A9.8 9.8 0 01167 138l-1.24-.61h-62zm86-33.21c-7.64 7-12.77 15.35-13.44 25.9s2.35 19.77 9.44 27.55c12.68 13.91 33 16.32 48.48 5.29 14.91-10.65 20.05-29.59 11.65-46.6-7.17-14.5-25.3-23.47-39-19.12q3.58 10.31 7.16 20.6c1.95 5.66 4 11.29 5.8 17 .86 2.72 0 5.08-2.9 6-2.65.8-4.49-.45-5.45-3-.23-.63-.48-1.24-.7-1.87Q202 110.49 193.1 85.09c-.8-2.29-1.84-4.5-2.73-6.66h-14l-15.54 33.05c-.13.28-.47.48-.58.77-2.42 6.47.92 13.85 7 15.57 2.51-16 11.22-27.49 19.41-31.72zm-36.87-67.14c7.42 8.29 14.11 15.61 20.61 23.09 2.34 2.7 4.23 5.78 6.45 8.85h7.64c-1.14-3.32-2.23-6.27-3.18-9.27-1.21-3.82.2-6 4.18-6.66.92-.14 1.86-.14 3-.23 0-2.33.13-4.31 0-6.26-.42-5.41-4.29-9.37-9.68-9.47-9.26-.18-18.54-.05-29.02-.05zm6.81 41.41H135.9c2.41 16.39 4.78 32.49 7.15 48.58l1 .34a34.5 34.5 0 002.57-4.88 75.68 75.68 0 002.72-9.46 28.74 28.74 0 00.92-8.16c-.85-9.98-.05-19.3 9.4-26.42zm-25.58 49.7c-1.88-12.8-3.68-25.11-5.48-37.41l-.93-.13-21.9 37.54zM151.54 69l-18.86-18.22-.69.59c1 5.94 1.92 11.87 2.86 17.64z" fill="#0f344f"/><path d="M188 8.78a50.81 50.81 0 00-38.2-.59l-11 5.94c-6.88 3.9-11.45 10-15.24 16.66-1.48 2.58-3.11 3.5-5.89 3.36-3.13-.16-6.27 0-9.16 0-1.78 2.74-1.84 4.42.51 6.75A27.1 27.1 0 00120.7 48c2.23.64 2.75 1.83 2.84 3.93.12 2.91.66 5.8 1 8.69a16.47 16.47 0 00-3.32-.73q-60.09-.06-120.18 0C.89 57.23.58 54.62.58 52V.39C2.19.26 3.47.06 4.75.06H201c.5 0 1 .07 1.49.11 1.37 4.37 2.89 8.7 4.06 13.12a34.17 34.17 0 01.5 6.27l-1.29.51-3-2A36.41 36.41 0 00188 8.78z" fill="#0da4b0"/><path d="M1.06 59.85h120.18a16.47 16.47 0 013.32.73 9.61 9.61 0 00.19 2.48c3.95 11.13-1.83 19.46-7.48 27.16-6.68-1.07-13-2.86-19.37-2.94-17.18-.19-30.26 7.72-39.37 22.12-2.05 3.25-3.51 6.87-5.24 10.32l-1.59-.48H1.85a16.05 16.05 0 00-1.07 4c-.05 18 0 36.1 0 54.15a1.73 1.73 0 01-.22.57c-.2-2.77-.56-5.53-.57-8.3q0-51 .1-102a60.7 60.7 0 01.97-7.81z" fill="#f0c441"/><path d="M.57 177.92a1.73 1.73 0 00.22-.57 41.68 41.68 0 001-6.21c.09-17 .06-34 .07-51 14.9 0 29.8 0 44.71-.08a32 32 0 005.17-.84l1.59.48c-1.28 7.37-2.38 14.74-.56 22.18 4.17 17 14.05 28.84 30.88 34.52a14.31 14.31 0 012.84 1.75c-2.45.22-4.9.63-7.36.64q-37.73.09-75.45 0a11.36 11.36 0 01-3.11-.87z" fill="#e36b34"/><path d="M131.72 137.41zm24-.01zm-52 .01zm62 0l1.28.59z" fill="#b9cbd7"/><path d="M188 8.78a36.41 36.41 0 0114.8 9.33 7.64 7.64 0 01-6.56-2.29 18 18 0 00-6.58-3.63c-2.07-.71-1.89-1.92-1.66-3.41zm-49.22 5.35l11-5.94c-2.21 4.69-6.16 6.14-11 5.94z" fill="#034761"/><path d="M1.82 120.16c0 17 0 34-.07 51a41.68 41.68 0 01-1 6.21c0-18-.06-36.1 0-54.15a16.05 16.05 0 011.07-4 2.82 2.82 0 000 .94z" fill="#ac734f"/><path d="M1.82 120.16a2.82 2.82 0 010-1h49.85a32 32 0 01-5.17.84c-14.88.16-29.78.15-44.68.16z" fill="#c9801f"/></svg>