<svg id="Слой_1" data-name="Слой 1" xmlns="http://www.w3.org/2000/svg" viewBox="0 0 2792.3 415.94"><defs><style>.cls-1{fill:#b1b3b4;}.cls-2,.cls-4{fill:none;}.cls-2{stroke:#1b1918;stroke-width:0.57px;}.cls-3,.cls-9{fill:#fff;}.cls-3,.cls-5,.cls-6,.cls-7,.cls-8{fill-rule:evenodd;}.cls-4{stroke:#b1b3b4;stroke-width:0.22px;}.cls-5{fill:#231f20;}.cls-6{fill:#221e1f;}.cls-7{fill:#f07c00;}.cls-8{fill:#004394;}</style></defs><rect class="cls-1" x="448.18" y="94.68" width="15.59" height="228.86"/><rect class="cls-2" x="448.18" y="94.68" width="15.59" height="228.86"/><path class="cls-3" d="M447.12.11C472.33,2.5,495.3,15.79,495.3,42v2.32c0,12.35-7.55,25.06-14.52,35.05-1.34,1.92-2.73,3.84-4.19,5.73,3.51,7.94,6.59,16.09,9.58,24.17,1.91,5.17,3.79,10.58,5.76,16,47.21-7.84,92.72,1.4,129.75,36.59,62.53,59.42,62,157.43-1.84,216.21-28.55,26.27-64.52,37.81-103.43,37.81A149.09,149.09,0,0,1,371,297a47.37,47.37,0,0,1-7.06,2.69c-6.33,26.52-31.86,49.43-60.15,49.43h-6.65a75.78,75.78,0,0,1-20.54-3c-10.38,15.6-24.5,30.22-37.17,39.34C211.24,405.74,183.11,414,147.83,414,68.46,414,.11,347.77.11,270.48v-5.56c0-78.45,67.59-144.7,148.12-144.9a179,179,0,0,1,32,2.43c-1-1-2-2-2.87-3.08A64.11,64.11,0,0,1,168,104.71c-12.72-27.57,1.74-57,35-57,9.45,0,26.75,12.07,35.71,13.37,74.88,10.83,99.33,33,105.66,31.21l60.1-10.85c-.11-.67,12.27-17.72,5.55-19.44C392.63,57.57,394,1.24,447.12.11Z"/><path class="cls-4" d="M447.12.11C472.33,2.5,495.3,15.79,495.3,42v2.32c0,12.35-7.55,25.06-14.52,35.05-1.34,1.92-2.73,3.84-4.19,5.73,3.51,7.94,6.59,16.09,9.58,24.17,1.91,5.17,3.79,10.58,5.76,16,47.21-7.84,92.72,1.4,129.75,36.59,62.53,59.42,62,157.43-1.84,216.21-28.55,26.27-64.52,37.81-103.43,37.81A149.09,149.09,0,0,1,371,297a47.37,47.37,0,0,1-7.06,2.69c-6.33,26.52-31.86,49.43-60.15,49.43h-6.65a75.78,75.78,0,0,1-20.54-3c-10.38,15.6-24.5,30.22-37.17,39.34C211.24,405.74,183.11,414,147.83,414,68.46,414,.11,347.77.11,270.48v-5.56c0-78.45,67.59-144.7,148.12-144.9a179,179,0,0,1,32,2.43c-1-1-2-2-2.87-3.08A64.11,64.11,0,0,1,168,104.71c-12.72-27.57,1.74-57,35-57,9.45,0,26.75,12.07,35.71,13.37,74.88,10.83,99.33,33,105.66,31.21l60.1-10.85c-.11-.67,12.27-17.72,5.55-19.44C392.63,57.57,394,1.24,447.12.11Z"/><path class="cls-5" d="M422,49.53c0,4.66.55,7.41,4.28,7.41,2.58,0,5.65-7.38,6.73-9.66,3-6.24,8.49-3.46,8.49-.07v6c0,6.93-5.71,13.27-5.71,24.56,0,10.92,25.68-23.35,25.68-32V43.5C461.43,35.36,450,25,439.48,24h-3.27C428.47,24.85,422,31.69,422,49.53Z"/><path class="cls-5" d="M223.64,116.74c6.48,0,10.74.05,13.79-5.56-3.94-5.74-33.06-12.73-35.67-23.64l0,1.34L277.39,88V86.61c4.17,0,7.64,1.85,10.94,1.85-6.38-5.4-32.46-4.68-44.24-4.63a167.2,167.2,0,0,1-23.15-1.53c-6.22-.9-15.84-3.57-21.55-3.57-16.2,0-7.89,16.9-2.44,23.24C201.1,106.79,214.92,116.74,223.64,116.74Z"/><path class="cls-6" d="M425.76,73.17c0,9.94,5.87,24.59,8.09,33.83l-174.6,31.51-14.56-25.85-1.55.83c-2.55,4.69-.34,13.89.73,19.68,2.16,11.61,4.4,9-2.07,16.56C236,156.54,227.42,168,221.51,173.5c-30.23-15.59-42.31-22.7-76.82-22.46C81,151,26.74,204.07,26.74,266.46V272c0,60.93,54.7,114,117.47,114,32.34,0,53.34-8.16,73.66-22.78,13.68-9.85,35.22-33.81,39.53-51.85,8.51.69,21.51,9.73,36.15,9.73h6.66c14.34,0,31.38-15.78,31.38-32.44,0-5.06-8.74,10.1-10.08,11.49-7.21,7.43-14.35,8-23.21,8-12.19,0-24.25-11.78-24.25-23.64v-3.7c0-15.4,18.25-28.73,35.48-23,6,2,16.44,11.44,8.44,16.21-5.09,3-13.7,9.68-16.81,14.2.59-.05,13.13-6.31,15.77-7.33,12.53-4.84,32.87-6.14,38-9.33,4.76-3,7.73-11.61-5.26-11.61-3.64,0-17.53,5.82-20,7.41l-3.88-8.3L441.27,122.62l19.88,43.16c-26.22,12.83-38.92,29-46.29,40-53.45,79.7,7.2,182.12,97.93,182.12,36.14,0,63-11.68,82.66-29.76,14.68-13.52,36.71-43.95,36.71-70.82h-.95c-.4,4.74-11.85,29.75-14.52,34-19.49,31.34-52.61,53.56-95.81,53.56-52.3,0-87.63-37.14-102.67-75.61-16.77-42.94,9.81-108.64,49.88-119.07l2.9,6c-12.76,7.51-45.06,30.29-47.61,70h.95a104.64,104.64,0,0,1,18.07-38c5.62-7.38,17.38-19.71,30.92-26l31.54,66.22c-4,5.17-7.76,6.45-7.76,16.29,0,25.91,39.47,23.37,39.47,6.49v-4.17c0-11.49-14.67,5.1-20.92,5.1-4.18,0-8.56-5-8.56-9.27,0-13.61,21.8-16.56,25.2-2.32h1.43c-1.78-7.47-8-15.3-17.12-15.3-5.2,0-5.57,0-10,2.32l-26.25-69c7-.63,13.08-7,39.09-7,48.22,0,88.94,41.67,88.94,89.46,0,47.22-42.71,90.48-92.21,88.5C476.91,358,447,337.47,432.51,307.16c-7.2-15-5.18-19.55-9.13-36.07-4.14,6.37,5.48,34.67,7.25,38.83a89.12,89.12,0,0,0,19,28.27c59.38,60.09,169.67,19.17,169.67-62V265.07c0-31.66-24.47-63-44.78-75.49-14-8.58-24.73-12.9-45.43-15.07-15-1.57-41.66,2.39-51.05,8.51l-2.58-6.88c11-5.64,30.15-9.8,46.82-9.8,42,0,76.11,23,94.56,53.84,2.62,4.39,14.81,33.41,15.29,33.76,0-26.31-21.12-56.09-35.22-69.49-39.49-37.52-87.68-34.77-127-23.21-9.3-18.9-18.06-50.44-29-71.86C440.85,89.12,425.76,63.69,425.76,73.17ZM295.93,243.28l-9,.54-21.13-87.17c4.7-.05,35.9-8.12,43-9.8C337.52,140,418.41,119.16,440,120.91c-3.41,5-58.88,56.56-69.27,67.37-11.09,11.52-23,22.82-34.53,34C299,258.59,319.13,243.28,295.93,243.28ZM58.61,272.48a86,86,0,0,1,24.94-61c11.21-15.1,35.75-27.09,60.19-27.09,33.62,0,44,8.31,55.17,15.3l-36.94,47c-3.05,0-6.49-2.54-12.05-2.54-13.13,0-26.16,10.43-26.16,22.71v4.17c0,5.07,6,14.93,10.47,15.3l-1-8.8c-2.32-19.09,27.65-19,27.65-6v2.31c0,12.43-18.3,15.2-18.55,18.08,4.88,1.11,3.11,2.32,11.42,2.32,9.93,0,4-3.95,18-.89,19.21,4.19,38.42,7.77,57.12,12-3.12,11.37-21.22,30.15-30.72,36.35-12.49,8.14-31.5,16-52,16-19.72,0-38.78-7.57-52.32-13.91.51,5.94,29.6,17.32,38.15,18.91,35.11,6.51,61.76-.82,87.8-21.77,5.41-4.34,24.22-25.4,24.81-32.36l8.54,1.51c-3,12.56-26.2,36.26-36.88,43.17-19.4,12.57-35.49,19.28-65.35,19.28-56.63,0-105.58-47.75-105.58-102v-4.17c0-61.88,51.57-106.7,114.14-102,15.34,0,48.51,10.49,54.22,18.08l-2.43,2.74c-42.95-22.12-90.25-24-127.06,6.86-15,13.75-26.61,29.46-31.46,53.24a93.44,93.44,0,0,0,11.82,68.14c13,21.24,6.16,5.14,1.34-5.94A86.56,86.56,0,0,1,58.61,272.48ZM254.07,164l31.23,79.09L264.06,255.8c-2-23.46-8.65-37.54-18.58-53.28-10.67-16.91-16.33-13.08-9.37-19.85C240.13,178.77,250.81,166.15,254.07,164ZM227,192.29c12.35,8.06,35.19,44.34,35.19,64.43-13.16,0-6.62,2.27-11.48-14.77-3.91-13.71-8.2-24.17-17.05-35.29C229.72,201.75,221.16,196.44,227,192.29Zm8.56,65.82L175.11,263l.6-.16-7.87-12.36h-.52l43-41C223.91,219.14,231.14,239.77,235.53,258.11Zm-60,6.5L236.46,269l0,.75-60.4,1.86v-2.78Zm57.31,31.09-66.78-5.36.54.11,9.22-12.85-.67-.81,60.36,5.9Zm19.87-11.61,5,13.93-8.38-1.09Z"/><path class="cls-7" d="M303.9,243.28l-9,.54-21.12-87.17c4.7-.05,35.9-8.12,43-9.8C345.5,140,420,119.16,441.64,120.91c-3.4,5-52.52,56.56-62.91,67.37-11.08,11.52-23,22.82-34.52,34C307,258.59,327.1,243.28,303.9,243.28ZM203.81,203.62,170,246.75c-3.06,0-6.5-2.54-12-2.54-13.14,0-26.16,10.43-26.16,22.71v4.17c0,5.07,6,14.93,10.46,15.3l-1-8.8c-2.32-19.09,27.64-19,27.64-6v2.31c0,12.43-18.3,15.2-18.54,18.08,4.87,1.11,3.1,2.32,11.41,2.32,9.94,0,4-3.95,18-.89,19.15,4.17,38.31,7.75,57,12l15.85,3.34v-.06l8.54,1.51-.09.34,4.39.93c8.5.69,21.51,9.73,36.14,9.73h6.66c14.34,0,31.39-15.78,31.39-32.44,0-5.06-8.74,10.1-10.08,11.49-7.21,7.43-14.35,8-23.21,8-12.19,0-24.26-11.78-24.26-23.64v-3.7c0-15.4,18.25-28.73,35.49-23,6,2,16.44,11.44,8.44,16.21-5.1,3-13.71,9.68-16.82,14.2.59-.05,13.14-6.31,15.78-7.33,12.52-4.84,32.87-6.14,38-9.33,4.77-3,7.74-11.61-5.26-11.61-3.63,0-17.53,5.82-20,7.41l-3.88-8.3L449.25,122.62l19.88,43.16c.89,3.45,10.89,24.48,12.17,26.51l31.53,66.22c-2,3.93,7.28-1.15,1.76-.86l-26.25-69c-2.64-14.45-33-86.73-39.38-99.24-.13-.26-15.22-25.69-15.22-16.21,0,9.94,5.87,24.59,8.08,33.83L267.23,138.51l-14.56-25.85-1.56.83c-2.55,4.69-.34,13.89.74,19.68,2.16,11.61,4.39,9-2.08,16.56-4.92,5.77-13,16.08-19,22.42ZM262.05,164l31.22,79.09L272,255.8c-2-23.46-8.65-37.54-18.58-53.28-10.67-16.91-16.34-13.08-9.37-19.85C248.1,178.77,258.79,166.15,262.05,164Zm-27.11,28.27c12.36,8.06,35.19,44.34,35.19,64.43-13.15,0-6.62,2.27-11.48-14.77-3.91-13.71-8.2-24.17-17-35.29C237.69,201.75,229.14,196.44,234.94,192.29Zm8.56,65.82L183.08,263l.61-.16-7.87-12.36h-.53l43.05-41C231.88,219.14,239.12,239.77,243.5,258.11Zm-60,6.5L244.44,269v.75l-60.4,1.86v-2.78Zm57.31,31.09-66.78-5.36.54.11,9.21-12.85-.66-.81,60.36,5.9Zm19.87-11.61,5,13.93-8.37-1.09Z"/><path class="cls-7" d="M428.75,49.53c0,4.66.55,7.41,4.28,7.41,2.58,0,5.65-7.38,6.73-9.66,3-6.24,8.49-3.46,8.49-.07v6c0,6.93-5.71,13.27-5.71,24.56,0,10.92,25.68-23.35,25.68-32V43.5c0-8.14-11.4-18.47-21.94-19.46H443C435.27,24.85,428.75,31.69,428.75,49.53Z"/><path class="cls-7" d="M230.43,116.74c6.48,0,10.74.05,13.79-5.56-3.94-5.74-33.06-12.73-35.67-23.64l0,1.34L284.19,88c5.41,1.54,11.78,2,10.92.42-6.38-5.4-32.46-4.68-44.24-4.63a167.41,167.41,0,0,1-23.15-1.53c-6.22-.9-15.84-3.57-21.55-3.57-16.2,0-7.89,16.9-2.44,23.24C207.89,106.79,221.71,116.74,230.43,116.74Z"/><path class="cls-8" d="M2479.8,326.21a10,10,0,0,1-9.87-11.61L2504.51,102a10,10,0,0,1,9.87-8.39h156.29c17,0,29.67,1.67,38.58,5.1,15.16,5.84,24.26,17.41,26.33,33.44,1,7.71.54,17.43-1.39,29.71,0,0-4.37,26.08-4.37,26.08-3.53,21.17-13.91,36.68-30.85,46.07-10.65,5.92-24.51,8.93-41.16,8.93h-84.13l-12.3,74.89a10,10,0,0,1-9.87,8.38Zm159.75-148.45,1.45-9.23h-55.33l-1.45,9.23ZM2351.32,326.21a10,10,0,0,1-9.87-11.61l13.81-85.07-80,93.19a10,10,0,0,1-7.59,3.49h-70.11a10,10,0,0,1-9.87-11.61L2222.3,102a10,10,0,0,1,9.87-8.39h70.11a10,10,0,0,1,9.87,11.6l-13.82,85.08,80-93.19a10,10,0,0,1,7.58-3.49h69.79a10,10,0,0,1,9.87,11.6L2431,317.81a10,10,0,0,1-9.87,8.4Zm-284.46,0a10,10,0,0,1-10-10.2l1.2-61.42L2030.4,320.1a10,10,0,0,1-9.21,6.11h-60.46a10,10,0,0,1-10-9l-6.33-64.07-19.81,66a10,10,0,0,1-9.58,7.13h-71.39a10,10,0,0,1-9.53-13l67.38-212.59a10,10,0,0,1,9.53-7h85.87a10,10,0,0,1,9.93,8.86l7.58,66.36,30.42-69.24a10,10,0,0,1,9.15-6h86a10,10,0,0,1,10,10.08l-1.77,212.6a10,10,0,0,1-10,9.92Zm-432.72,0c-18.83,0-32.88-1.62-42.93-4.93-17.79-6-28.34-18.19-30.56-35.39-1-7.94-.63-17.29,1.23-28.59l16.28-100.37c3.91-24.38,13.95-41.62,29.84-51.24,13.18-8.12,33.06-12.08,60.72-12.08h79.76c18.83,0,32.87,1.61,42.94,4.93l.15,0c17.7,6.16,28.23,18.48,30.45,35.63,1,7.41.64,16.13-.93,25.9l-16.28,100.41c-4,25.23-13.75,43-29.06,52.87-13.19,8.6-33.44,12.81-61.85,12.81Zm80.54-77.58,13.06-80.1h-59.49l-13.06,80.1Zm-283,77.58a10,10,0,0,1-9.87-11.61l23.71-146.07h-47l-15,91.71c-4.15,24.85-10.56,41.23-19.61,50.11-10.76,10.66-29.13,15.86-56.14,15.86h-36a10,10,0,0,1-9.87-11.6l9.28-57.57a10,10,0,0,1,9.87-8.41h13.36l15.3-94.07c3.85-23.48,14-40.15,30.22-49.56,13-7.65,32.32-11.39,59-11.39H1539a10,10,0,0,1,9.87,11.6l-34.58,212.6a10,10,0,0,1-9.87,8.4Zm-401.2,0a10,10,0,0,1-9.87-11.61L1055.21,102a10,10,0,0,1,9.87-8.39h196.18a10,10,0,0,1,9.86,11.61l-9,54.92a10,10,0,0,1-9.87,8.39h-115l-1.25,7.76h100.83a10,10,0,0,1,9.87,11.62l-7.38,44.88a10,10,0,0,1-9.87,8.38H1125.45l-1.22,7.46H1236a10,10,0,0,1,9.88,11.59l-9.28,57.58a10,10,0,0,1-9.87,8.41Zm-281.24,0a10,10,0,0,1-9.87-11.61L774,102a10,10,0,0,1,9.87-8.39H958.79c39.69,0,50.4,18.39,52.39,33.82a69.52,69.52,0,0,1-.75,19.68s-4.81,30.21-4.81,30.25a44.4,44.4,0,0,1-10.75,22.71,48.77,48.77,0,0,1-5.61,5.2,28.11,28.11,0,0,1,7,15.46c.69,5.37.41,11.64-.85,19.18l-5.12,30.14c-3.2,18.54-9.84,32.48-19.74,41.46-10.65,9.74-26.46,14.7-47,14.7ZM902.39,248l1.41-8.64H844l-1.4,8.64Zm11.45-71.16,1-5.69H855l-1,5.69Z"/><path class="cls-9" d="M2670.67,103.61q23.48,0,35,4.43,17.6,6.79,20,25.39,1.31,10-1.35,26.87-2.17,13-4.36,26-4.51,27.17-25.83,39-13.8,7.68-36.31,7.68h-92.62l-13.68,83.27H2479.8l34.58-212.6h156.29m-18,54.92h-75.58l-4.58,29.23h75.58l4.58-29.23m-197-54.92-34.58,212.6h-69.78L2370.83,196,2267.7,316.21h-70.11l34.58-212.6h70.11l-19.52,120.18L2385.9,103.61h69.78m-315.65,0-1.77,212.6h-71.4l1.86-95.08a144.67,144.67,0,0,1,2.11-21h-.65l-49,116h-60.46l-11.47-116h-.64a148.13,148.13,0,0,1-5,21l-28.55,95.08h-71.39l67.38-212.6h85.87l9.71,85a115.28,115.28,0,0,1-.29,30.12h.65c1.28-7.93,4.53-18,9.7-30.22L2054,103.61h86m-391.55,0q26.37,0,39.81,4.43,21.21,7.38,23.81,27.46,1.26,9.74-.88,23l-16.29,100.39q-5.29,33.68-24.59,46.07-17.21,11.22-56.44,11.22h-79.75q-26.39,0-39.81-4.43-21.18-7.09-23.78-27.17-1.33-10.33,1.19-25.69L1588,158.53q5.16-32.19,25.15-44.29,17.27-10.63,55.54-10.63h79.76m-9,54.92h-79.75l-16.33,100.1h79.76l16.32-100.1M1539,103.61l-34.58,212.6H1431.7l25.6-157.68h-67.22l-16.32,100.1q-5.61,33.66-16.75,44.58-13.11,13-49.13,13h-36l9.28-57.58H1303l16.66-102.46q5-30.72,25.37-42.52,17-10,54-10H1539m-277.7,0-9,54.92H1128.78l-4.45,27.76h112.56l-7.38,44.88H1117l-4.49,27.46H1236l-9.27,57.58H1030.5l34.58-212.6h196.18m-302.47,0q39.23,0,42.48,25.1a60.87,60.87,0,0,1-.72,16.83l-4.79,30.11a34.26,34.26,0,0,1-8.32,17.72q-4.5,5-16.12,12.11,13.47,4.72,15,16.53a56.91,56.91,0,0,1-.8,16.25l-5.1,30.11q-4.23,24.51-16.61,35.73-13.23,12.11-40.24,12.11H749.26l34.58-212.6H958.79m-32.11,57.58H846.6l-4.4,25.69h80.08l4.4-25.69M915.56,229.4H835.48L830.83,258H910.9l4.66-28.64M2670.67,83.61H2514.38a20,20,0,0,0-19.74,16.79L2460.06,313a20,20,0,0,0,19.74,23.22h71.71a20,20,0,0,0,19.74-16.76l10.92-66.51h75.64c18.38,0,33.86-3.43,46-10.2,19.44-10.78,31.85-29.17,35.84-53.17l4.36-26,0-.2c2.08-13.23,2.55-23.88,1.43-32.55-2.54-19.6-14.13-34.34-32.64-41.48-10.1-3.89-23.89-5.77-42.19-5.77Zm-215,0H2385.9a20,20,0,0,0-15.18,7l-56.82,66.21,8.12-50a20,20,0,0,0-19.74-23.2h-70.11a20,20,0,0,0-19.74,16.79L2177.85,313a20,20,0,0,0,19.74,23.22h70.11a20,20,0,0,0,15.18-7l56.81-66.2-8.11,50a20,20,0,0,0,19.74,23.21h69.78a20,20,0,0,0,19.74-16.79l34.58-212.6a20,20,0,0,0-19.74-23.21Zm-315.65,0h-86a20,20,0,0,0-18.31,12l-15.52,35.34-3.38-29.57a20,20,0,0,0-19.87-17.73h-85.87a20,20,0,0,0-19.06,14L1824.6,310.16a20,20,0,0,0,19.07,26h71.39A20,20,0,0,0,1934.22,322l5.25-17.5,1.36,13.71a20,20,0,0,0,19.9,18h60.46A20,20,0,0,0,2039.62,324l7.43-17.6-.19,9.44a20,20,0,0,0,20,20.39h71.4a20,20,0,0,0,20-19.84L2160,103.78a20,20,0,0,0-20-20.17Zm-391.55,0h-79.76c-29.51,0-51.08,4.43-66,13.55-18.48,11.22-30.09,30.8-34.49,58.2L1552,255.72c-2,12.24-2.43,22.54-1.28,31.45,2.71,21,15.94,36.44,37.26,43.57l.08,0c11.09,3.66,26.16,5.44,46.08,5.44h79.75c30.39,0,52.42-4.73,67.35-14.46,17.74-11.45,29-31.52,33.43-59.65L1831,161.73c1.75-10.89,2.07-20.3,1-28.8-2.69-20.85-15.86-36.4-37.07-43.78l-.31-.11c-11.09-3.65-26.16-5.43-46.07-5.43Zm-71.73,94.92H1716l-9.8,60.1H1667l9.8-60.1ZM1539,83.61h-139.9c-28.53,0-49.51,4.18-64.14,12.79-18.87,11-30.64,30-35,56.53L1286,238.63h-4.86a20,20,0,0,0-19.74,16.82L1252.12,313a20,20,0,0,0,19.74,23.19h36c29.73,0,50.39-6.13,63.15-18.73,10.76-10.57,17.9-28.22,22.46-55.56v-.07l13.59-83.32h26.7L1412,313a20,20,0,0,0,19.75,23.21h72.68a20,20,0,0,0,19.74-16.79l34.58-212.6A20,20,0,0,0,1539,83.61Zm-277.7,0H1065.08a20,20,0,0,0-19.74,16.79L1010.76,313a20,20,0,0,0,19.74,23.22h196.18a20,20,0,0,0,19.74-16.82l9.28-57.58a20,20,0,0,0-9.16-20.15,19.92,19.92,0,0,0,2.7-7.25l7.39-44.88a20,20,0,0,0-1.4-11.22A20,20,0,0,0,1272,161.76l9-54.92a20,20,0,0,0-19.73-23.23Zm-302.47,0H783.84A20,20,0,0,0,764.1,100.4L729.52,313a20,20,0,0,0,19.74,23.22H923.57c23.06,0,41.13-5.83,53.71-17.33,11.58-10.51,19.26-26.36,22.84-47.11v0l5.11-30.12c1.44-8.56,1.74-15.79.92-22.15a39.2,39.2,0,0,0-3.85-12.71,54.16,54.16,0,0,0,13.16-27.66c0-.1,0-.19,0-.28l4.79-30.12a79.16,79.16,0,0,0,.8-22.54c-1.88-14.54-9.45-26.12-21.9-33.48-10.32-6.09-23.53-9-40.41-9Z"/></svg>