<svg version="1.1" id="Слой_1" xmlns="http://www.w3.org/2000/svg" x="0" y="0" viewBox="0 0 258.9 178.9" xml:space="preserve"><style>.st2{fill:#a5d9f9}</style><path d="M188 8.8c-12.2-5.2-25.9-5.4-38.2-.6l-11 5.9c-6.9 3.9-11.4 10-15.2 16.7-1.5 2.6-3.1 3.5-5.9 3.4-3.1-.2-6.3 0-9.2 0-1.8 2.7-1.8 4.4.5 6.8 3.2 3.3 7.2 5.8 11.7 7.1 2.2.6 2.8 1.8 2.8 3.9.1 2.9.7 5.8 1 8.7-1.1-.4-2.2-.6-3.3-.7H1c-.1-2.7-.5-5.3-.5-7.9V.4C2.1.3 3.4.1 4.7.1H201c.5 0 1 .1 1.5.1 1.4 4.4 2.9 8.7 4.1 13.1.4 2.1.5 4.2.5 6.3l-1.3.5-3-2c-4.1-4.3-9.2-7.5-14.8-9.3z" fill="#fdfeff"/><path d="M1.1 59.8h120.2c1.1.1 2.2.4 3.3.7 0 .8 0 1.7.2 2.5 3.9 11.1-1.8 19.5-7.5 27.2-6.7-1.1-13-2.9-19.4-2.9-17.2-.2-30.3 7.7-39.4 22.1-2 3.2-3.5 6.9-5.2 10.3l-1.6-.5H1.9c-.5 1.3-.9 2.6-1.1 4-.1 18 0 36.1 0 54.2 0 .2-.1.4-.2.6-.2-2.8-.6-5.5-.6-8.3 0-34 0-68 .1-102 .1-2.7.5-5.3 1-7.9z" fill="#c7e8f9"/><path class="st2" d="M-2.4 177.9l.3-.6c.6-2.2.9-4.3 1.1-6.5.1-18 0-35.9 0-53.8 17 0 34 0 51-.1 2-.1 4-.4 5.9-.9l1.8.5c-1.5 7.8-2.7 15.5-.6 23.4 4.8 17.9 16 30.4 35.2 36.4 1.2.5 2.2 1.1 3.2 1.8-2.8.2-5.6.7-8.4.7-28.7.1-57.3.1-86 0-1.2-.2-2.4-.5-3.5-.9z"/><path class="st2" d="M103.7 137.4c-1.7 0-3.3 0-5-.1-5.1-.2-6.9-3.2-4.4-7.6 5-8.8 10.2-17.4 15.4-26.1.8-1.3 1.5-2.6 2.4-4.2-5.8-3.1-12.4-4.1-18.9-3-14.9 2.3-25.1 10.5-30.4 24.8-6.9 18.8 4.3 37.4 17.4 44.1 16.7 8.6 36.3 4.2 47.2-10.8.5-.7 1-1.4 1.4-2.1 3.9-6.5 3.9-6.5 11.9-5.3-3.6 15-18.6 28.5-34.9 30.7-6.4.9-12.9.2-19.4.3-.9-.7-1.8-1.3-2.8-1.8-16.8-5.7-26.7-17.5-30.9-34.5-1.8-7.4-.7-14.8.6-22.2 1.7-3.4 3.2-7.1 5.2-10.3 9.1-14.3 22.2-22.2 39.4-22 6.4.1 12.7 1.9 19.4 2.9 5.7-7.7 11.4-16 7.5-27.2-.2-.8-.2-1.6-.2-2.5-.4-2.9-.9-5.8-1-8.7-.1-2.1-.6-3.3-2.8-3.9-4.5-1.3-8.5-3.8-11.7-7.1-2.3-2.3-2.3-4-.5-6.8 2.9 0 6-.1 9.2 0 2.8.1 5.8-.4 5.9-3.4C135-.1 195-4.6 205.9 19.9l1.3-.5c0-2.1-.1-4.2-.5-6.3-1.2-4.4-2.7-8.8-4.1-13.1 4.3-.1 8.7 0 13-.2 11.5-.3 23.2 11.3 21.3 23.6-.8 5.6-3.4 10.8-7.4 14.9-3.6.3-6 .6-8.4.8-1.7.1-4.2.8-5.1 0-3.3-3.2-7-1.9-10.8-2.1v9.7h14.9c4.1 0 7.4 1 9.7 4.9 1 1.5 2.3 2.6 3.9 3.3 6.4 3.1 9.3 7.4 8 13.5-1.4 6.7-5.4 10.7-11.5 11.4-4.9.5-9.9.1-15.1.1V71h11.7c3.9 0 6.1-1.9 6-4.5s-2.6-4.5-6.1-4.5c-10.3-.1-20.6 0-31.7 0 3 8.7 5.9 17.1 8.8 25.7 8.9-1.2 17.5-1 25.7 2.3 33.8 13.7 38.7 55.5 14 77.2-17.2 15.1-39.4 14.3-54 4.9-11.6-7.5-19.7-17.8-22.5-31.6-.1-.8-.1-1.7.1-2.5l-1.2-.6h-62.2zm86-33.2c-7.6 7-12.8 15.3-13.4 25.9s2.4 19.8 9.4 27.6c12.7 13.9 33 16.3 48.5 5.3 14.9-10.6 20.1-29.6 11.6-46.6-7.2-14.5-25.3-23.5-39-19.1 2.4 6.9 4.8 13.7 7.2 20.6 1.9 5.7 4 11.3 5.8 17 .9 2.7 0 5.1-2.9 6-2.6.8-4.5-.4-5.4-3-.2-.6-.5-1.2-.7-1.9-5.8-17-11.7-33.9-17.7-50.9-.8-2.3-1.8-4.5-2.7-6.7h-14l-15.5 33.1c-.1.3-.5.5-.6.8-2.4 6.5.9 13.8 7 15.6 2.5-16 11.2-27.5 19.4-31.7l3 8zm-36.8-67.1c7.4 8.3 14.1 15.6 20.6 23.1 2.3 2.7 4.2 5.8 6.4 8.8h7.6c-1.1-3.3-2.2-6.3-3.2-9.3-1.2-3.8.2-6 4.2-6.7.9-.1 1.9-.1 3-.2 0-2.3.1-4.3 0-6.3-.4-5.4-4.3-9.4-9.7-9.5-9.2-.1-18.5.1-28.9.1zm6.8 41.4h-23.8c2.4 16.4 4.8 32.5 7.1 48.6l1 .3c1-1.6 1.8-3.2 2.6-4.9 1.1-3.1 2-6.3 2.7-9.5.7-2.7 1-5.4.9-8.2-.8-9.9 0-19.2 9.5-26.3zm-25.6 49.7c-1.9-12.8-3.7-25.1-5.5-37.4l-.9-.1-21.9 37.5h28.3zM151.5 69l-18.9-18.2-.7.6c1 5.9 1.9 11.9 2.9 17.6h16.7z"/></svg>