<svg id="Слой_1" data-name="Слой 1" xmlns="http://www.w3.org/2000/svg" viewBox="0 0 512 512"><defs><style>.cls-2{fill:#87c5ed}.cls-3{fill:#86c5ed}.cls-6{fill:#8ec9ee}.cls-9{fill:#8cc8ee}.cls-18{fill:#fefefe}</style></defs><path d="M386.12 411c-.05 14.65-.24 29.31-.07 44 .06 4.62-1.59 6.1-6.12 6-14.15-.2-28.32-.14-42.48 0-5.52 0-10.36-1.16-13.05-6.46-2.93-5.78-1.18-11.11 2.6-15.76 2.91-3.58 5.31-7.15 5.34-12a15.88 15.88 0 00-11.18-15.47 16.54 16.54 0 00-17.5 5.56 15.61 15.61 0 000 19c2 2.63 4.31 5 5.39 8.3 3 9.15-2.5 16.76-12.31 16.77H175.8c-17.82 0-35.65-.14-53.47.09-4.81.06-6.42-1.44-6.35-6.3.24-16.15.19-32.31 0-48.47-.06-5.91 1.91-10.42 7.21-13.16 5.45-2.81 10-.28 14.21 2.92 3.34 2.58 6.54 5 11 5.26a16 16 0 0016.42-10.5c2.31-6.14 0-14.12-5.13-18a15.94 15.94 0 00-19.88.19c-2.75 2.2-5.39 4.38-8.88 5.38-7.88 2.25-15.71-2.91-15.82-11.11-.25-17.65-.05-35.31-.1-53 0-3.72 2.12-4.32 5.19-4.3 14.16.06 28.32 0 42.48 0 3.37 0 6.95.42 8.67-3.35s-.17-7.07-2.65-10c-6.32-7.39-8.13-15.59-3.83-24.51 3.89-8.07 10.55-12.21 19.57-12.25s15.83 3.84 19.71 12 2.69 15.86-2.44 23.09c-.76 1.08-1.74 2-2.53 3.08-2 2.69-3 5.64-1.51 8.87S202.12 310 205 310h55c-5.37-5.43-10-10-14.49-14.67-4.68-4.88-5.36-10.11-2-15.42 2.15-3.41 5.61-5 9.4-5.94 1.78-.41 3.62-.56 5.43-.8 8.62-1.13 13.93-7.34 13.73-16.09-.18-8.33-6.12-14.6-14.28-15.11-9.18-.57-15.51 4.38-17 13.21-.52 3.1-.6 6.29-2 9.24-4 8.69-13.18 10.88-20 4.26-12.45-12.05-24.55-24.45-36.87-36.63-2.79-2.76-1.83-4.74.56-7.1 10-9.82 19.81-19.76 29.72-29.64 2.25-2.25 5.11-4.45 3.72-8s-4.67-5.11-8.71-5.46c-15.42-1.31-25.1-15.2-20.3-28.81 3.37-9.55 13.56-16.09 23-14.77a22.83 22.83 0 0119.2 20.13 20.46 20.46 0 001 5.37c2.2 5.77 6.81 6.81 11.22 2.45 10.2-10.06 20.28-20.23 30.43-30.35 4.24-4.23 4.89-4.15 9.15.12q16.56 16.65 33.24 33.19c4.21 4.18 7.62 8.62 5 15S311 192.53 304.7 193c-8.4.64-14.89 6.74-15.54 14.81-.6 7.47 5.32 15 13 16.61a15.77 15.77 0 0018.69-14.18 25.75 25.75 0 011.5-7.79c3.87-9.23 13.42-11.37 20.55-4.37 12.13 11.91 24 24.07 36.11 36 3.17 3.12 2.14 5.23-.52 7.87q-31.71 31.55-63.31 63.2c-1.29 1.3-2.79 2.38-4.25 3.62 1.79 1.94 3.55 1.17 5.05 1.17 21.33.07 42.65.15 64 0 4.57 0 6.12 1.44 6.07 6.05-.18 15.65 0 31.3.06 46.95 1.32 1.62 1.29 3.54 1.29 5.47q.35 18.56 0 37.13c.02 1.89.05 3.83-1.28 5.46z" fill="#5d5d70"/><path class="cls-2" d="M114.18 227.59c6.83 6.81 13.55 13.44 20.15 20.19 1.18 1.2 3.91 2.2 1.58 4.74-2.59 2.82-3.77-.06-5.1-1.35-6.19-6-12.36-12.13-18.35-18.38-3-3.11-5.92-5.4-10.68-5.08-3.2.21-6.48-1-11.16-1.79l17.19 17.34c1.88 1.9 3.69 3.86 5.68 5.63 1.64 1.46.94 2.41-.26 3.64s-2.1 1.23-3.27 0c-8.53-9.31-18.71-17.06-25.94-27.6a10.32 10.32 0 00-2.55-3c-10-6.33-17.41-15.44-25.62-23.66-7.85-7.93-16.67-14.95-22.85-24.4a47 47 0 018.09-61.19c17.28-15.29 43.9-16.17 61.24-.75C118 125.83 133.52 140 146 157a7.39 7.39 0 001.64 1.83C162.92 169 174 183.68 187.31 196c1.2 1.11 3.18 2.07 1 4.33-2.47 2.54-3.46.14-4.69-1.08Q170.3 186 157.1 172.73c-8.07-8.13-17.3-13.82-29-15.21-19.64-2.35-44 12.69-44.39 37.07 0 3.19 1.72 5.09 8.32 9 1.43-.69.84-2 .83-3.06-.12-14.69 6.39-25.51 19.82-31.17 13.23-5.57 25.53-2.44 36 7.1 6.39 5.82 12.3 12.18 18.42 18.3 1.19 1.18 2.55 2.24.7 4.09s-2.86.84-4.14-.47c-3.56-3.69-7.14-7.34-10.92-11.2-10.59 27.27-11.81 28.54-38.56 40.41z"/><path class="cls-3" d="M54 274c-3.64 11.15 4.26 15.11 11.93 19.26 1.25.68 2.5 1.17 3.75.39q5.72-3.56 11.33-7.29c1.5-1 1-2.69 1.06-4.14v-14.49c0-1.9-.81-4.55 1.63-5.25 2.77-.8 5.77-1.32 8.46 1 20.79 18 16.35 48.37-6.12 60.35-4.04 2.17-5.1 4.51-5.04 8.78q.3 29.47 0 59c0 4.15 1 6.36 4.85 8.46 22.85 12.53 26.34 41.48 7.45 59.34a8.78 8.78 0 01-6.18 2.59c-3.88.13-5.44-1.23-5.23-5.2.28-5.15 0-10.33.2-15.49.07-2.26-.57-3.87-2.68-4.81a10 10 0 01-1.24-.84c-10.84-7-12.21-6.85-22.36 1.34-1.57 1.26-1.75 2.64-1.75 4.33 0 4.83.09 9.67 0 14.49 0 2 1 4.9-1.74 5.68s-5.74 1.09-8.45-1.18a36.45 36.45 0 01-6-49.76 34.87 34.87 0 0112.35-10.63c2.29-1.15 3-2.63 3-5.09-.09-22-.15-44 0-65.95 0-3.27-1.79-4.18-3.94-5.51-22.09-13.68-24.93-41.44-6.24-59 2.73-2.57 5.63-2.57 8.75-2.22 2.07.24 3.08 1.63 2.82 3.91-.34 2.6-.42 5.26-.61 7.93z"/><path class="cls-2" d="M424.25 294.42c-1.71-.19-1.89-1.56-2.55-2.42-.84-1.12 0-1.64.84-2.35 2.56-2.18 7.56-2.27 7.74-6.07.15-3.22-2.28-6.5-3.21-9.86-2-7.3-7.74-14.51-6-21.64s7.63-13.08 10.53-20.2c.79-1.94 2.5-2.46 4.35-2.89 8.58-2 17.12-4.1 25.72-6 2.81-.61 4.19-1.56 4.45-4.77.67-8.44 1.77-16.84 2.84-25.23.4-3.1-.64-4.72-3.58-6-7.59-3.41-14.95-7.32-22.47-10.89-2.89-1.38-4.62-3.05-5.2-6.56a64.06 64.06 0 00-4.87-16.71c-1.38-3-.78-5.34.88-7.93 4.57-7.14 8.87-14.46 13.53-21.55 1.68-2.54 1.5-4.32-.36-6.58q-8.4-10.2-16.48-20.67c-1.63-2.12-3.22-1.7-5.2-1-8.31 2.94-16.66 5.75-24.94 8.75-2.7 1-4.92 1.06-7.35-.83a63 63 0 00-15.22-8.5c-3.57-1.45-5-3.9-5.7-7.39-1.63-7.8-3.53-15.54-5.25-23.32-.67-3-1.83-4.73-5.53-5-8.27-.53-16.49-1.75-24.72-2.8-2.89-.37-4.52.59-5.78 3.32-3.49 7.56-7.37 14.93-10.91 22.46-1.45 3.09-3.3 4.88-6.9 5.58A96.26 96.26 0 00297.12 92a9.52 9.52 0 01-9.35-1.09c-7-4.47-14.2-8.68-21.17-13.22-2.31-1.51-3.83-1.64-6.07.25-6.85 5.8-13.91 11.36-21 16.9-1.37 1.08-2.8 3.43-5 1-2.52-2.85.45-3.62 1.93-4.82 7.61-6.2 15.3-12.3 22.87-18.54 2.64-2.17 4.73-2.54 7.87-.42 7.58 5.1 15.57 9.61 23.29 14.51a5 5 0 005.07.55c2.31-.92 4.69-2.15 7.09-2.28 9.77-.53 14.29-6.67 17.43-15 2-5.27 4.82-10.22 7.19-15.36 1.41-3.07 3.1-4.3 6.95-3.72 10 1.51 20.1 2.45 30.19 3.21 3.88.29 5.61 1.91 6.4 5.51 1.88 8.59 4.08 17.11 5.9 25.72a6.81 6.81 0 004 5.23c4.6 2.31 9.13 4.8 13.54 7.47a6.48 6.48 0 006.12.47c8.46-3 17-5.74 25.43-8.87 3.38-1.26 5.33-.6 7.53 2.31 6.31 8.35 12.88 16.53 19.6 24.57 2 2.39 2 4.16.39 6.61-4.84 7.56-9.49 15.26-14.3 22.84-1.52 2.4-2.07 4.53-.75 7.37a31.19 31.19 0 013 10c.55 5.94 3.71 8.92 9 11.07 6.92 2.83 13.49 6.49 20.3 9.61 2.76 1.27 4 2.71 3.56 6.07-1.32 10.54-2.26 21.13-3.25 31.71-.29 3.09-1.7 4.72-4.8 5.4-8.59 1.89-17.13 4-25.7 6-2.91.66-4.9 1.82-6.18 4.91a86.21 86.21 0 01-6.75 12.21 7.87 7.87 0 00-.68 7.52c3 8.27 5.69 16.68 8.69 25 1.1 3.05.52 5.07-2.34 6.61-3.07 1.63-6.04 3.46-8.87 5.11z"/><path class="cls-3" d="M386.11 368v-5.1c8.81 0 17.64-.12 26.45.13 3.56.1 4.6-1.1 4.45-4.55-.24-6-.08-12-.06-18 0-1.64-.32-3.53 1.58-4.38 1.73-.79 3.07.21 4.48 1.28q30 22.69 60.09 45.31c5 3.81 5.07 4.59.17 8.28q-30.27 22.87-60.51 45.65c-1.17.88-2.28 2.2-3.95 1.49-1.85-.78-1.87-2.53-1.87-4.25 0-6.15-.17-12.32.08-18.46.14-3.45-.88-4.64-4.45-4.54-8.81.25-17.63.11-26.45.13v-5.1a3.54 3.54 0 012.2-1.07c10-.4 20-.35 29.93 0 3.82.13 4.93 2.81 5 6.19.13 5.43-.16 10.87.17 16.29 1.72 0 2.45-1 3.34-1.65 15.69-11.81 31.52-23.42 47-35.48 4.1-3.19 4.1-3.18 0-6.37-15.49-12.06-31.32-23.68-47-35.48-.89-.67-1.62-1.69-3.43-1.65-.11 4.92 0 9.86-.06 14.79-.11 6.57-1.31 7.78-8 7.85-8 .07-16 0-24 0-1.79-.05-3.67.09-5.16-1.31z"/><path class="cls-2" d="M333.29 132.1c-4.51.35-10.47.85-16.18 2.81-2.15.73-3.85.93-4.54-1.87s1.68-2.49 3-2.89a63.24 63.24 0 0181.59 53.69 61.64 61.64 0 01-6.08 34.77c-.74 1.54-.63 5.11-4 3.64s-1.25-3.79-.31-5.75c11.24-23.23 6.54-50.15-11.88-67.94a60.36 60.36 0 00-41.6-16.46zM192 101.87c-.12 11.75-10.76 22.21-22.55 22.17-12 0-22.56-10.78-22.42-22.8.13-11.76 10.74-22.2 22.54-22.17 12.03.03 22.58 10.75 22.43 22.8z"/><path d="M406.36 233.25c-1.41 1.28-1.32 4.32-4 4.08-1-.08-3.35-.84-2.5-2.86.69-1.65 1-4.26 3.54-4.06 1.14.1 2.97.59 2.96 2.84z" fill="#8fc9ed"/><path d="M304 121.56a2.89 2.89 0 01-2.47-3.26c.34-2.25 2.82-2.59 4.56-3 2.45-.51 2.61 2.24 2.44 3.34-.41 2.26-3.13 1.87-4.53 2.92z" fill="#8ec8ed"/><path class="cls-6" d="M402.91 146.71c-.39 1.78-1.64 3.11-3.05 2.86-2.1-.37-3-2.65-3.45-4.43s1.78-2.66 3-2.62c2.36.09 2.39 2.72 3.5 4.19z"/><path d="M411.41 181.91c-.47-2.1 1.26-2.48 2.65-2.58 2.68-.19 2.51 2.13 2.8 3.83s-.25 2.8-2.31 3c-3.29.18-2.43-2.49-3.14-4.25z" fill="#92caee"/><path d="M413.31 206c1.53.06 3.06.57 2.27 2.28-.72 1.55.52 4.61-2.69 4.45-1.39-.07-3.16-.59-2.86-2.69.28-1.96.47-4.13 3.28-4.04z" fill="#8dc7ec"/><path class="cls-9" d="M380.24 123.65c1.65 1.23 4.11 1.86 4.08 4.39 0 1.12-1 3-2.47 2.58-1.8-.47-3.81-1.65-4.08-3.68a3 3 0 012.47-3.29z"/><path d="M373.12 120.81c-.93 1.3-.9 3.59-3 2.67-1.57-.69-4.3-.73-3.87-3.51.2-1.26.63-3.32 2.69-2.61 1.73.64 3.65 1.37 4.18 3.45z" fill="#8dc8ee"/><path d="M343.62 110.28c1.09.87 4.13-.47 4.07 2.65 0 1.41-.54 3.31-2.6 2.87-1.73-.38-4.32 0-4.16-3.14.07-1.51.42-2.66 2.69-2.38z" fill="#94cbee"/><path d="M331.11 110.05c1.91 0 3.7.14 3.72 2.39 0 2.56-2 2.47-3.84 2.66-2.38.24-3.4-.85-3.36-3 .04-2.67 2.22-1.77 3.48-2.05z" fill="#88c5ed"/><path d="M409.16 225.57c-1.39-.63-3.54-.51-3.14-2.59.33-1.73.19-4.35 3-4.29 1.12 0 3.14.19 2.76 2s-.39 4.05-2.62 4.88z" fill="#8fc9ee"/><path d="M414.28 170.58c.35 2.09-1 2.36-2.38 2.45-3 .19-2.86-2.3-3.37-4.09-.7-2.44 1.7-2.4 2.77-2.47 2.87-.17 2.23 2.63 2.98 4.11z" fill="#92caed"/><path d="M406.25 153.94c2.47.75 2.88 2.94 3.27 4.71.36 1.62-1.61 2.21-2.74 2.16-2.82-.12-3-2.82-3.35-4.72-.26-1.58 1.86-1.45 2.82-2.15z" fill="#8cc7ed"/><path class="cls-9" d="M394.67 136.39c-.66 1.51-1.83 3.21-3.08 3a5 5 0 01-3.88-4c-.18-1.29 1.55-3.12 2.86-3 2.02.22 2.76 2.61 4.1 4z"/><path class="cls-6" d="M360.92 115.59c-.74 1.28-.52 3.5-2.6 3-1.7-.41-4.21-.29-4.32-3.09-.06-1.48.48-2.62 2.22-2.48 1.93.14 3.89.33 4.7 2.57z"/><path d="M319.08 111.51c2.2-.18 1.87 1.44 1.89 2.65.06 2.56-1.85 2.73-3.71 2.91-2.28.21-3.09-1.45-2.9-3.07.32-2.78 3.21-1.52 4.72-2.49z" fill="#90caee"/><path d="M417 196.18c.1 1.87-.42 3.09-2.71 3-2.48-.13-2.26-1.8-2.28-3.44s.57-2.75 2.51-2.77c2.31-.05 2.59 1.36 2.48 3.21z" fill="#88c6ed"/><path class="cls-18" d="M184.76 454.91c-19.32 0-38.64-.14-58 .1-4.1.06-4.87-1.26-4.82-5 .21-14.32.07-28.64.09-43 0-3.12-.61-6.59 3-8.34 3.8-1.85 6.68.31 9.47 2.55 9.08 7.27 19.08 8.09 27.59 2.26a22.29 22.29 0 005.61-30.95c-6.79-9.7-21.23-11.85-31.12-4.63-2 1.46-3.66 3.4-6.06 4.34-5.42 2.11-9.41-.37-9.44-6.17-.09-15.49.08-31-.11-46.46 0-3.37 1.3-3.72 4.09-3.7 12.82.12 25.64 0 38.47.09 5.53.05 10.34-1.14 13-6.43 3-5.78 1.18-11.07-2.55-15.76-2.75-3.45-5.22-6.81-5.36-11.48a15.91 15.91 0 0111.12-16c6-2 13.85.45 17.54 5.44a15.73 15.73 0 01-.26 19.45c-2 2.47-4.07 4.8-5.1 7.89-3 9 2.33 16.72 11.79 16.8 13 .12 26 .17 39-.06 3.59-.06 4.39 1 4.34 4.47-.18 14.82-.09 29.64-.06 44.46 0 3.08.06 6.2-3.4 7.59s-6.28 0-9-2.49a23.5 23.5 0 00-28.2-2.82c-6.64 3.91-10.48 15.06-8.28 24 3.84 15.7 23.5 21.39 36 10.42 1.48-1.3 2.65-3 4.74-3.52 6.92-1.7 9.06-.05 9.06 7 0 15.16-.11 30.31.08 45.47 0 3.45-.81 4.48-4.37 4.44-19.55-.06-39.21.04-58.86.04zm71.37-219.05a22.25 22.25 0 00-21.2 17.81c-.41 2.12-.45 4.32-.94 6.42-.66 2.88-2.13 5.27-5.2 6.15-2.8.8-4.75-.7-6.6-2.54-10.71-10.7-21.37-21.5-32.19-32.09-2.33-2.27-2.41-3.51 0-5.81 8.86-8.57 17.42-17.45 26.24-26.06 4.3-4.19 7.53-8.58 5.27-14.93s-7.64-8.28-13.72-8.93c-10.91-1.17-16.51-7.18-16-17.13a15 15 0 0114.79-14.64c8.48-.4 15.44 5.24 16.4 13.48.35 3 .6 6 1.8 8.75 4.05 9.41 13.2 11.42 20.52 4.28 9.3-9.07 18.53-18.22 27.51-27.61 2.8-2.93 4.28-2.6 6.91.12 10 10.28 20.19 20.32 30.32 30.45 2.24 2.23 5.09 4.38 3.67 8-1.5 3.85-4.94 5.1-8.84 5.38-9.45.67-16.61 4.89-19.89 14-3 8.5-1.8 16.58 4.79 23.06 6.34 6.22 14.19 8.09 22.59 5.15 8.63-3 13.21-9.68 14.56-18.63a28.74 28.74 0 01.83-5.38c2.09-5.82 6.82-7 11.18-2.73 11 10.88 21.86 22 32.94 32.77 2.26 2.22 1.51 3.27-.29 5-10 9.83-19.82 19.76-29.71 29.65-17.79 17.78-35.64 35.49-53.28 53.42-2.86 2.9-4.34 2.61-7-.13-9.84-10.18-19.95-20.09-29.9-30.16-2.27-2.3-5.5-4.39-3.93-8.4s5.05-5.1 8.88-5.32a21.73 21.73 0 0017.87-10.3c4.53-7 4.86-14.32.74-21.72a21.89 21.89 0 00-19.12-11.38z"/><path d="M379.81 326.92q.07 62.13.2 124.27c0 2.7-.63 3.84-3.58 3.78-9.81-.21-19.63-.16-29.44-.22a116.86 116.86 0 00.7-15.2 16.49 16.49 0 00-2.35-8.48c-2.7-4.19-3.8-4.38-7.18-1.27-.28-13.67-5.06-21.08-15.57-24.15a21.85 21.85 0 00-24.52 8.79c-4.87 6.93-4.41 18.06 1 25.25.4.52.86 1 1.3 1.51 2.56 3 4.76 6.27 3 10.37-1.87 4.41-6.05 3.31-9.58 3.32-10.3 0-20.6-.08-30.9-.13-1.64-1.77-1.4-4-1.41-6.13-.05-8.12-.43-16.27.1-24.36.48-7.52-1.15-13.72-7.45-18.25-.07-2 0-4-.25-5.93-.48-4.25-3-7.28-7-7.89-5.77-.88-11.51-.77-16 4.27-4.29 4.86-10 5.35-15.94 4.27-2.25-5.24-.22-12.11 5-16.87a18 18 0 0122.91-1.53c1.51 1 2.93 2.18 4.38 3.3 2.65 2 5.51 3.18 8.79 1.62a9.08 9.08 0 005.43-8.3c.13-2.65.07-5.31.07-8v-36.39c0-8.55 1-9.43 9.51-9.09 1.68.07 3.23.76 4.91.66 8.44 8.56 8.44 8.56 17.93.76 2.37-1.44 5-1.6 7.68-1.6h71.12c2.5.06 5.08-.3 7.14 1.62z" fill="#a3d0f1"/><path class="cls-18" d="M386.11 368c10.16 0 20.32-.19 30.48 0 4.21.09 5.59-1.45 5.42-5.55-.25-6.14-.07-12.31-.07-19.45 7 5.26 13.48 10.07 19.9 14.92q17.73 13.37 35.45 26.76c1.76 1.32 3.22 2.12.42 4.21-18.36 13.72-36.6 27.59-55.77 42.09 0-7.17-.19-13.4.07-19.61.17-4.1-1.22-5.63-5.42-5.55-10.16.22-20.32 0-30.48 0z"/><path d="M276 326.17c-2.8 1.62-5.87.77-8.78.71-3.26-.08-4.3 1-4.27 4.27.14 15.49-.07 31 .13 46.47.06 5.06-1.63 8.86-6 11.12s-8.2.54-11.66-2.72c-5.59-5.26-12.05-7.8-19.55-4.36-8.08 3.71-11.12 10.5-10.82 19.08-7.17-1.85-10.72-7.11-11.54-13.86-.7-5.81 1.18-11.22 6.59-14.58 5.82-3.61 11.8-4.27 17.76-.36a40.78 40.78 0 014.16 3.54c4 3.46 8.46 4.61 13.37 2.49a11.9 11.9 0 007.61-11.72c0-15.12.1-30.23-.09-45.35 0-3.66.78-4.57 4.73-5.17 9.36-1.4 13.13 5.47 18.36 10.44z" fill="#fdfdfe"/><path class="cls-18" d="M379.81 326.92h-85.89c3.07-3.23 6.18-6.42 9.2-9.7 1.62-1.77 3.66-1.24 5.58-1.24 21.88 0 43.77.1 65.66-.12 4.41-.05 6.41.92 5.63 5.59a38.14 38.14 0 00-.18 5.47z"/><path d="M338.16 429.8c1.68-1.48 0-3.91 1.47-5.45 10.58 3.4 11.53 21.41 7.36 30.4-3.46.05-6.93 0-10.39.18-3 .14-5.68-.51-7-3.47s-.46-5.92 1.51-8.3c3.27-3.99 6.19-8.16 7.05-13.36zM254.2 406c6.43 2.19 8.77 5.16 8.78 11.49v37.25c-8.95.45-9 .45-8.94-8.43q.05-20.14.16-40.31z" fill="#fdfdfd"/><path class="cls-18" d="M138.18 175.56c8.42 3.59 10.26 6.79 8.24 14.63C142.25 206.38 132 217 116 221.5c-15.35 4.33-29 .4-40.44-10.61-11.14-10.75-22-21.78-32.88-32.84-16.31-16.59-16.84-42.05-1.38-58.61 15.71-16.78 40.8-18.36 58.48-3.3 12.56 10.7 23.5 23.11 35.27 34.65a14.79 14.79 0 011.67 2.51c-7.21.95-11.34-.46-16-5-9-8.67-17-18.34-26.86-26.07a32.6 32.6 0 00-44.23 3.82 33.2 33.2 0 001 44.9q15.18 15.56 30.73 30.75c10.14 9.91 22.19 13.3 35.7 8.3s20.9-16.71 21-32c.02-.68.07-1.34.12-2.44z"/><path class="cls-18" d="M78.76 191c-8.85-8.57-18.15-16.48-26.12-25.56-9.85-11.22-8.67-26.72 1.59-37 10.4-10.46 25.31-11.44 37-1.93 9.53 7.76 17.52 17.15 26.66 26-21.61 4.74-35.18 16.83-39.13 38.49zm46.76-19.13c7.18 0 7.54.4 7.58 7.65A27.64 27.64 0 01101.69 207c-6-.8-4.18-6.1-4.08-9.08.52-14.92 12.89-26.13 27.91-26.05zM87 444.73c2.51-7.32-2.31-11.41-8.93-15.25-10.34-6-9.9-5.85-20.35.15-6.74 3.86-10 8.43-8.72 16.22.44 2.59.11 5.31 0 8 0 .92.43 2.14-.75 2.64s-1.75-.62-2.47-1.23c-9.56-8-12.89-21.83-8.21-34C42.64 408.16 55.48 399.5 69 400a32.18 32.18 0 0130.3 23.4c3.37 11.13-.47 24.75-9 31.85-.74.62-1.37 1.67-2.5 1.23s-.79-1.69-.81-2.61c.01-2.67.01-5.33.01-9.14zm.1-165.61c0-3.09-.15-4.94 0-6.75s-1.12-4.14 1-4.91c1.56-.57 2.69 1.62 3.81 2.77 16.53 16.75 8.81 44.9-14.22 52-13.21 4.06-27.94-.58-35.63-11.23-8.25-11.43-8.61-26.31-.74-37.26 1.81-2.53 4.13-6.69 6.64-6 2.91.77 1.49 5.39 1 8-1.78 10.09 2.8 15.44 11.26 20.34 6.42 3.72 11 4 16.19-.66a6.87 6.87 0 011.69-1.06c7.07-3.36 11.27-8.15 9-15.24zm-29.01 82.33c0-10 .07-20-.05-30 0-2.78.19-4.33 3.68-3.58 3.86.83 7.76 1.33 11.83.35 3.43-.83 2.49 2.28 2.49 4 .07 16.14 0 32.28 0 48.42 0 3.83-.16 7.67 0 11.48.18 3.19-1 4.36-4 3.51a16.73 16.73 0 00-6.92-.48c-7.08 1-7.07 1-7.07-6.27zM187 101.53a17.48 17.48 0 11-17.38-17.45A17.2 17.2 0 01187 101.53z"/></svg>