<?xml version="1.0" encoding="utf-8"?>
<!-- Generator: Adobe Illustrator 25.0.0, SVG Export Plug-In . SVG Version: 6.00 Build 0)  -->
<svg version="1.1" id="Слой_1" xmlns="http://www.w3.org/2000/svg" xmlns:xlink="http://www.w3.org/1999/xlink" x="0px" y="0px"
	 viewBox="0 0 512 512" style="enable-background:new 0 0 512 512;" xml:space="preserve">
<style type="text/css">
	.st0{fill:#EFF1FE;}
	.st1{fill:#5D5D70;}
	.st2{fill:#A3D1F1;}
	.st3{fill:#FEFEFE;}
	.st4{fill:#FDFDFE;}
</style>
<path class="st0" d="M289,64c3.6,3.8,8.8,3.2,13.2,4.5c20.2,5.9,39.3,13.9,56.6,25.9c0.6,0.3,1.2,0.5,1.8,0.7
	c1.4,2.1-0.6,3.3-1.4,4.8c-1.7,3.2-4,6.1-5.3,9.5c-0.9,2.4-1.1,5,1.3,6.8c2,1.7,4.8,1.8,6.9,0.3c4-2.4,8-4.8,11.9-7.2
	c1.5-0.9,2.9-2.5,4.9-1.2c3.5,4.1,7.4,8,11.5,11.5c4.8,4.6,9.4,9.4,13.6,14.4c1.2,1.3,2.3,2.3,4.1,2.3c-0.6,2.2-2.7,2.2-4.4,2.7
	c-2.8,0.9-5.8,1.3-8.6,2.3s-4.7,2.6-4.6,5.7c0.1,2.9,2.1,4.4,4.6,5.2c4.6,1.4,9.3,2.5,14,3.5c3.7,0.8,7.4,1.7,11.1,2.7
	c1.5,0.4,3.4,0.5,3.8,2.6c0.5,5.7,4.6,9.8,6.9,14.7c9.5,20.4,16.3,41.5,18.9,64c1.3,10.7,2.3,21.4,1.8,32.2
	c-1.2,26.5-6.6,52.1-17.5,76.5c-7.2,16.3-16.4,31.5-27.6,45.4c-0.7,0.9-1,2.1-0.9,3.3c-6.2,1.5-11.7,1-16.2-4.4
	c-3.1-3.5-6.4-6.8-9.8-10c-3.1-3-3.3-6.1-1-9.8c10.1-16.4,15.1-35.4,14.4-54.7c-0.7-24.8-9.4-46.5-26.7-64.5c-3.8-3.9-5-7.7-3.8-13
	c2-8.2,3.4-16.6,4.9-25c2-11-3.6-17.8-14.8-18c-10.5-0.2-10.5-0.2-10.5-10.6c0-15.3,0-30.6,0-46c0-8.6-4-12.8-12.7-13.3
	c-1.8-0.1-3.7-0.1-5.5-0.1H119.4c-1.3,0-2.7,0-4,0c-10.4,0.3-14.8,4.7-14.9,15.1c0,4.2,0,8.3-0.1,12.5c-0.1,3.4-1.8,5.2-5.2,5.3
	c-1.2,0.1-2.3,0.1-3.5,0c-6.9-1.3-14.1,0.2-20,4.1c-0.6,0.1-1.2-0.1-1.7-0.5c3.6-8.6,9.2-16,14.9-23.2
	c18.3-23.3,40.3-42.4,66.7-56.2c11.6-6,23.5-11.3,36.3-14.5c1.8,5,5.6,7.9,9.9,10.5c14.1,8.5,28.1,17.2,42.2,25.8
	c0.8,0.6,1.7,1.1,2.6,1.5c2.6,1.1,5.3,1.7,7.4-0.7s1.9-4.9,0.5-7.4c-2-3.7-4.2-7.2-6.4-10.7c-4.5-7.2-9-14.4-13.3-21.7
	c-0.9-1.6-2.7-3.1-1.6-5.3c11.3-1.4,22.7-1.5,34-0.2c2.8,0.3,6.6,2.3,8.7-1.8c2.4,0.1,2,2.3,2.4,3.7c0.6,1.7,0.8,3.6,1.9,5.1
	c2.8,3.8,7.1,3.5,9.6-0.8C286.9,66.6,286.4,64.2,289,64z"/>
<path class="st0" d="M70.1,164h1c0.5,0.9,0.5,2,0,2.9c-1.9,4.2-1.5,8.4-0.7,12.7c10.3,51.9,20.7,103.7,31.1,155.5
	c1.3,6.4,4,11.2,10.3,13.5c1.1,0.4,2.1,1,2.9,1.9c3.3,4.4,7.9,7.6,13.2,9.4c16.5,6,33.8,7.9,51.1,9.8c9.2,1,18.6-0.3,27.7,2.2
	c2.6,0.9,3.7,3.3,5.1,5.3c11.6,16.4,26.3,29.2,45.3,36.3c32.6,12.3,63.7,9.2,93.1-9.9c6.6-4.3,6.5-4.4,12.1,1.1
	c3,2.9,5.7,6.1,8.9,8.8c4.4,3.9,4.6,8.4,2.8,13.4c-13.1,9.9-27.3,18.4-42.3,25.2c-17.2,7.8-35.5,13.2-54.2,16
	c-9.5,1.6-19,2.4-28.6,2.4c-19.1-0.2-38.2-2.4-56.9-7.7c-26-7.4-50.2-19.7-71.4-36.4c-19.4-15.2-35.8-33.8-48.4-54.9
	c-12.1-19.9-20.6-41.7-25.3-64.5c-3.2-15.8-5.1-31.7-4.4-47.8c1.5-31.7,9-61.9,24.2-90C67.6,167.4,68.8,165.7,70.1,164z"/>
<path class="st1" d="M373.8,426.9c-0.1-0.3-0.1-0.7-0.1-1c1.3-12.6-10.7-16.1-16.5-23.9c-1.5-2.1-3,0.3-4.1,1.1
	c-17.8,12.6-37.5,19.2-59.3,18.7c-35.7-0.8-63.9-15.8-84.2-45.3c-0.8-1.2-1.7-2.4-2.6-3.6c-4.4-3-5.6-8.1-7.6-12.6
	c-3.4-7.8-3.3-7.9-12-7.9c-21.9,0-43.8,0-65.8,0c-2.6,0-5.4,0.4-7.6-1.5c-8.6-2.2-12.6-7.6-14.3-16.4
	C89.6,282.3,79,230.1,68.4,177.8c-1-4.8,0-9.7,2.6-13.8c5.5-5.9,12.6-5.7,19.9-5.4c8.1,0.3,8.1,0.1,8.1-8.1c0-2.8,0-5.7,0-8.5
	c0-11,4.8-15.6,15.9-15.7h60.5c50.1,0,100.2,0,150.3,0.1c2.9,0,5.9-0.8,8.9,0.3c6.4,2.3,9.6,6.1,9.6,12.9
	c0.1,17.1,0.1,34.3-0.1,51.4c0,3.9,1,5.5,5,4.9c1.5-0.1,3-0.1,4.5,0c11.5,0.1,18.1,8.2,15.8,19.4c-1.9,9.4-3.6,18.9-5.7,28.4
	c-0.7,2.2,0,4.6,1.7,6.1c33.5,34.6,39,84,14,124.8c-1.5,2.5-1.4,3.9,0.7,5.9c4.1,3.8,8.1,7.9,12,12c2.4,2.6,4.7,4.4,8.5,3.4
	c1.8-0.5,3.6,0.4,5.3,1c19.5,19.5,39,39,58.5,58.5c8,8.1,9.7,17.5,5.2,26.3c-4.2,8.6-13.5,13.6-23,12.3c-5-0.6-9.6-3-13.1-6.6
	c-19.7-19.6-39.3-39.2-59-58.8C374.3,428.2,374,427.6,373.8,426.9z"/>
<path class="st1" d="M229.3,62c7.2,12,14.4,24,21.7,35.8c2.2,3.6,3.3,7.2,0.1,10.4s-6.9,2.1-10.5-0.1C224.7,98.4,208.9,88.7,193,79
	c-3.5-2.1-5.4-4.8-5-9c6.5-8.7,14.7-15.8,22.5-23.3c3.4-3.2,7.7-2,10.5,2.3S226.5,57.7,229.3,62z"/>
<path class="st1" d="M378.9,108c-5.1,3-10.3,6-15.3,9.1c-3.5,2.2-7,2.6-9.9-0.5c-2.8-2.9-2.2-6.3-0.2-9.6c2.4-4,4.8-8,7.2-12
	c7.4-12,14.8-24,22.3-36.1c4-6.4,8.3-7,13.7-1.7c5.8,5.7,11.6,11.5,17.3,17.3c4.6,4.7,4.1,9.1-1.5,12.7
	C401.3,94.1,390.1,101,378.9,108z"/>
<path class="st1" d="M289,64c-1.5,4.2-2.4,9.5-8.6,8.9c-5.9-0.6-6.4-5.7-7.4-10.2c-0.3-0.9-0.6-1.8-1-2.7c-2.4-10.7-4.9-21.3-7.3-32
	c-1.6-7,1-10.5,8.1-10.6c5.5-0.1,11-0.2,16.4,0c6.9,0.1,9.6,3.7,8,10.3L289,64z"/>
<path class="st1" d="M424.2,160.9c-9.1-2.3-18.3-4.7-27.4-6.8c-4-1-7.5-2.6-7.7-7.2c-0.2-4.9,3.5-6.7,7.7-7.7c3.8-0.9,7.7-2,11.5-3
	c8.2-1.9,16.5-3.7,24.7-5.6c8.6-2,11.7,0.5,11.8,9.4c0,4.8,0.1,9.6,0,14.4c-0.1,7.5-3.5,10.1-10.9,8.5
	C430.7,162.3,427.4,161.6,424.2,160.9z"/>
<path class="st2" d="M114.1,351c26.8,0,53.5-0.1,80.3-0.2c2,0,3.4,0.4,4,2.6c2,6.9,5.5,13.1,8.6,19.5c-18.3-1.4-36.7-1.7-54.8-5.1
	c-11.5-2.2-23.2-4.2-33.3-10.9C116.8,355.4,114.5,353.9,114.1,351z"/>
<path class="st3" d="M358.7,243.2c-9.3-6.8-18.6-12.4-28.9-16.4c-58.2-22.6-123.6,14-134.8,75.5c-2.5,13.1-2.4,26.6,0.3,39.7
	c0.6,2.9,0.2,3.7-2.8,3.7c-25.3-0.1-50.6,0-75.9-0.1c-6.8,0-9.8-2.8-11.2-9.7c-10.1-50.2-20.1-100.4-30.1-150.6
	c-0.7-3.3-1.4-6.5-1.9-9.8c-1-6.5,3.1-11.7,9.7-11.7c27-0.1,54-0.1,81,0c5,0,8.1,2.7,9.2,7.5c1.1,5,2.1,10.1,3.1,15.1
	c2,10.1,7.4,14.6,17.6,14.6h157.8c10.9,0,14.5,4.3,12.4,14.9C362.3,224.8,360.5,233.7,358.7,243.2z"/>
<path class="st2" d="M263.6,196c-23.3,0-46.7,0-70,0c-7.9,0-10.8-2.4-12.4-10c-0.8-4.1-1.5-8.2-2.3-12.2
	c-2.1-10.9-8.2-15.5-19.2-15.4c-16.4,0.3-32.9,0.1-49.4,0.4c-4.8,0.1-7-1.3-6.3-6.5c0.5-3.6,0.1-7.3,0.1-11c0-7.5,1.9-9.5,9.4-9.5
	c37.6,0,75.3,0,112.9,0c35,0,69.9,0.1,104.9,0.2c6.1,0,7.7,1.8,7.7,7.8c0,17.3-0.1,34.6,0.1,52c0,3.7-1.4,4.3-4.7,4.3
	C310.9,195.9,287.3,196,263.6,196z"/>
<path class="st3" d="M293.7,417c-53,0.2-95.4-43-95.6-97.2c-0.2-50.8,43.6-94.6,94.7-94.8c54.3-0.1,97.1,42.4,97.3,96.6
	C390.2,374.3,347.1,416.9,293.7,417z"/>
<path class="st2" d="M467,472.6c-0.4,7.6-4.7,12.7-11.3,15.7s-12.5,1.4-17.4-3.5c-19.4-19.2-38.6-38.6-58-57.8
	c-2.8-2.8-2.6-4.9,0.1-7.5c5.6-5.4,11.2-11,16.6-16.6c2.6-2.7,4.8-2.9,7.6-0.1c19.3,19.3,38.5,38.7,57.9,58
	C465.6,463.9,467.2,468.2,467,472.6z"/>
<path class="st4" d="M392.2,400.2c-0.7,0.8-1.2,1.4-1.8,2c-3.6,3.6-7.3,7.2-10.9,11c-1.5,1.6-2.5,1.4-3.9-0.1
	c-4.4-4.5-8.8-9-13.4-13.4c-1.8-1.7-1.5-2.6,0.2-4.2c3.5-3.3,6.8-6.8,9.9-10.5c1.6-1.9,2.6-2.9,4.8-0.5c4.1,4.5,8.6,8.7,13,13.1
	C390.8,398.3,391.5,399.2,392.2,400.2z"/>
<path class="st3" d="M214.6,50.2c1.6,0.3,2,1.4,2.6,2.4c9.9,16.2,19.8,32.3,29.8,48.5c0.7,1.1,1.8,2.3,0.5,3.5s-2.5,0.1-3.6-0.5
	c-16.2-9.9-32.3-19.8-48.5-29.7c-1.7-1-3.3-2.1-1.2-4.2c6.3-6.4,12.7-12.7,19-19.1C213.6,50.8,214.1,50.5,214.6,50.2z"/>
<path class="st3" d="M358.9,113.7c-1.5-0.2-2.2-1-1.8-2.4c0.3-0.9,0.8-1.8,1.4-2.6c9.5-15.6,19.1-31.2,28.5-46.8
	c2-3.3,3.6-3.7,6.3-0.8c5.4,5.7,11,11.1,16.6,16.6c1.8,1.8,2.9,3.2,0,5c-16.5,10-32.9,20.1-49.3,30.2
	C360,113.2,359.4,113.4,358.9,113.7z"/>
<path class="st4" d="M281.3,22.7c12.2-0.6,12.2-0.6,9.4,11c-2.5,10.3-5,20.7-7.5,31c-0.3,1.3-0.3,2.9-2,3.1c-2.1,0.2-2-1.7-2.4-3.1
	c-3.1-12.8-6.1-25.5-9.3-38.3c-0.7-2.8,0.2-3.7,2.8-3.7C275.3,22.8,278.3,22.7,281.3,22.7z"/>
<path class="st4" d="M439.6,146.8c0.1,12.2,0.1,12.1-11.7,9.3c-10-2.4-20-4.8-30-7.2c-1.5-0.4-3.7-0.3-3.6-2.6
	c0.1-1.9,2.2-1.8,3.5-2.1c12.2-3,24.5-5.9,36.8-8.9c3.7-0.9,5.4,0,5.1,4C439.5,141.8,439.6,144.3,439.6,146.8z"/>
<path class="st1" d="M293.9,402.2c-45.7-0.2-81.3-36.2-80.9-81.8c0.2-44.6,36.4-80.6,81-80.4c0.2,0,0.3,0,0.5,0
	c45.4,0.3,80.9,36.5,80.6,81.6S338.9,402.5,293.9,402.2z"/>
<path class="st2" d="M217.9,320.8c0.2-42.1,34.4-76,76.5-75.9c41.8,0.1,76.4,34.3,76.1,76.4c-0.1,42.1-34.3,76.2-76.4,76.3
	C252.3,398,217.7,362.9,217.9,320.8z"/>
<path class="st1" d="M340.9,350.4c0.1,1.2-0.6,2.2-1.7,2.6c-1.8,0.5-2.8-0.5-3.6-1.9c-3.4-5.7-8-10.7-13.5-14.5
	c-20.3-13.7-48-8.5-61.9,11.7c-0.5,0.7-0.9,1.4-1.4,2.1c-1,1.3-2,3-4,1.7c-2.2-1.4-1.2-3-0.1-4.7c6.9-11.2,18-19.2,30.9-22.1
	c20.6-5.1,42.8,4.2,53.9,22.4C340,348.7,340.5,349.7,340.9,350.4z"/>
<path class="st1" d="M265.1,283.1c2.3,0.3,3.3,2,4.6,3.2c4.9,4.8,4.9,4.8,9.6,0.2c0.8-0.8,1.7-1.6,2.6-2.4c1.1-0.9,2.4-1.4,3.5-0.1
	s1.1,2.8,0,3.6c-6.9,4.9-7.4,9.5-0.1,14.5c1,0.8,1.2,2.2,0.4,3.3c-0.1,0.1-0.2,0.2-0.3,0.3c-1.3,1.3-2.6,0.8-4-0.3
	c-2.4-2-4.1-6.1-7-5.8c-2.4,0.2-4.4,3.7-6.6,5.7c-1.4,1.3-3,1.9-4.4,0.3c-1.2-1.4-0.4-2.7,0.6-4c2-2.4,6.1-4.1,5.9-7
	c-0.2-2.3-3.7-4.4-5.8-6.5c-1-1-1.8-2.1-0.9-3.5C263.8,284,264.5,283.5,265.1,283.1z"/>
<path class="st1" d="M315.5,298.9c-1.1,1-2.1,1.9-3,2.8c-1.3,1.3-2.6,2.6-3.9,3.8s-2.8,1.4-4,0c-1-1.1-0.7-2.4,0.3-3.6
	c2.1-2.5,6.4-4.3,6.1-7.3c-0.2-2.5-4-4.6-6.1-6.9c-1-1.1-1.3-2.4-0.2-3.6c1.3-1.4,2.6-1,3.9,0.1c2.3,2.1,4.6,5.9,6.9,6
	s4.6-3.8,7-5.8c1.2-1,2.5-1.9,3.9-0.4c1.2,1.3,0.8,2.7-0.2,4c-1.9,2.4-5.9,4-5.8,7c0.1,2.7,3.8,4.4,5.7,6.6c1.1,1.3,1.6,2.7,0.4,4
	s-2.7,0.9-3.9-0.3c-1.5-1.5-3-3.1-4.6-4.5C317.2,300.1,316.4,299.5,315.5,298.9z"/>
</svg>
