<svg id="Слой_1" data-name="Слой 1" xmlns="http://www.w3.org/2000/svg" viewBox="0 0 512 512"><defs><style>.cls-1{fill:#fefefe}.cls-2{fill:#5d5d70}.cls-3{fill:#86c5ed}.cls-5{fill:#a3d0f1}.cls-7{fill:#fdfdfd}.cls-9{fill:#88c6ed}.cls-10{fill:#86c5ec}.cls-11{fill:#86c4ec}.cls-12{fill:#deeef9}.cls-13{fill:#fdfefe}.cls-20{fill:#5d5d71}.cls-22{fill:#86c3eb}.cls-25{fill:#5f6175}.cls-31{fill:#8fc9ee}.cls-32{fill:#8ec9ee}.cls-34{fill:#8dc8ed}.cls-35{fill:#8cc8ee}.cls-38{fill:#90caee}</style></defs><path class="cls-1" d="M.1 256Q.1 130 0 4.09C0 .67.67 0 4.09 0Q256 .17 507.91 0c3.42 0 4.09.67 4.09 4.09q-.17 251.91 0 503.82c0 3.42-.67 4.09-4.09 4.09Q256 511.84 4.09 512C.67 512 0 511.33 0 507.91Q.18 382 .1 256z"/><path class="cls-2" d="M275 166.87c9.32.06 18.63 0 27.94.21 2.47 0 3.14-.85 3-3.17-.15-3.82-.14-7.66 0-11.48.29-8.66 7-15.49 15.11-15.42 8.44.07 14.58 6.49 14.84 15.53v.5c.11 4.46-1.48 10.42.78 13 2.64 3 8.74.88 13.33.94 9 .13 18 0 26.95-.06 1.55-1.4 3.47-1.27 5.35-1.31 12.49-.48 13.14.14 13.13 12.38 0 1.83-.05 3.66-.12 5.49.15 2.41 0 4.82 0 7.24-.1 1.19-.09 2.39-.09 3.59 0 2.45.27 4.9.06 7.35.22 21.26.26 42.53 0 63.79.32 2.79-.21 5.58 0 8.36.07 3.59.07 7.18-.05 10.77 0 1.74.11 3.49 0 5.23 0 1.7.07 3.41 0 5.12s.06 3.37 0 5.05c0 7.5.15 15 0 22.48-.12 4.69.78 8.81 3.81 12.55a46.87 46.87 0 015.37 9c.62 1.19 1.16 2.42 1.73 3.64 2.26 5.9 4.46 11.82 5.14 18.17a35.77 35.77 0 01.94 5.63c.17 5.65.36 11.29-1 16.85a49.78 49.78 0 01-1.22 5.41 75.57 75.57 0 01-24.25 38.51c-2.06 1.5-4 3.27-6.69 3.54-20.77 13.08-42.67 16-65.75 7.07a69.18 69.18 0 01-27.11-19c-1.44-1.62-2.76-2.94-5.35-2.93-33.62.16-67.24.18-100.86.23-1.65 1.33-3.61 1.28-5.56 1.29-15.13.33-30.26.2-45.38.08-6-.05-7.54-1.74-7.66-7.93-.12-5.64-.22-11.3.08-16.94 0-1.88-.14-3.75 0-5.62-.09-4-.11-7.9 0-11.85-.1-1.83-.06-3.66 0-5.49-.17-7.09-.19-14.18 0-21.27 0-1.83-.11-3.66 0-5.49-.11-4.25-.13-8.5 0-12.75-.12-1.84-.07-3.68 0-5.53-.18-9.38-.21-18.75 0-28.13 0-1.84-.13-3.68 0-5.52-.1-3.94-.12-7.88 0-11.81-.11-1.85-.06-3.69 0-5.53q-.28-13.16 0-26.32c-.11-1.91-.08-3.82 0-5.73-.27-24-.14-48.05-.11-72.08 0-2 .09-4 1.38-5.69 2.82-2.84 6.47-2 9.88-2.2 1.8-.14 3.62.16 5.43 0 3-.14 5.93.21 8.9 0 9.31 0 18.63-.12 27.94 0 4.09.07 5.79-1.48 5.55-5.56a64.89 64.89 0 01.07-8.48c.68-9.62 8.25-17.14 17-16.9 8.9.25 15.49 7.38 15.88 17.23.09 2.49.15 5 0 7.48-.21 3.9 1.58 5.24 5.36 5.22 10.65-.07 21.29-.15 31.94 0 1.79-.08 3.58-.08 5.38 0q6.79-.19 13.59 0a7.59 7.59 0 015.34 1.26z"/><path class="cls-3" d="M256.21 166.82l-5.2.08c-1.34-1.15-1.73-2.8-2.33-4.34-12-30.92-34.42-49.62-67-54.55-27.45-4.16-51.71 4-71.5 24-1.49 1.5-4.89 3.4-2.19 6.06 2.23 2.21 4.68 5.43 9 2.64 2.82-1.83 6.17.75 5.34 4.25-.68 2.83.44 4.14 2.4 5.23 4 2.22 6.95 7.11 12.76 4.75 1.29-.52 2.94.94 2.93 2.14 0 4.6 3.37 6.53 6.21 9a1.89 1.89 0 01.54 1.83l-9 .07c-10.14-5.49-19.12-12.72-28.52-19.3q-29.68-20.76-59.21-41.76a2.28 2.28 0 00-1.89-.46c8.7 6.41 17.3 12.31 25.83 18.32 18.64 13.15 37.26 26.34 56 39.39 1.31.91 3 1.63 2.76 3.76-2.93.55-6-.53-8.88.92-2.93-1.29-5.19-3.57-7.8-5.34-2.18-1.49-4.2-2.84-6.44-.05-1.27 1.57-2.92 1.36-4.49.38s-1.79-2.5-1.43-4.35c.7-3.61-2.7-8.15-6.12-8.54-2-.23-2.6 1.2-3.26 2.52A79.87 79.87 0 0086.49 180c-2.48 21.72 2.74 41.47 15.3 59.42 3.06 4.38 6.43 6.78 11.93 6.38 3-.23 6.35-1 9.18 1.14v5.1c-2.4 2.1-5.35 1.54-8.12 1.54-22.48.06-45 0-67.44 0-7.45 0-7.63.18-7.63 7.47v170.33c0 7.68.2 7.87 7.78 7.88h117.89c8 0 7.91-.08 8.07-8.11.07-3.41-.9-7 1.55-10.11h5.1c0 6.66-.18 13.33 0 20 .09 3.73-1.43 4.91-5 4.9q-68.46-.12-136.92 0c-4 0-5.12-1.5-5.11-5.31q.12-94.18 0-188.38c0-4.24 1.5-5.44 5.56-5.38 12.48.2 25 .07 37.7.07.12-2.51-1.39-4.17-2.31-6-14.27-27.74-15.97-56.49-6.28-85.94 1.15-3.5.59-5.17-2.42-7.21-11.83-8-23.44-16.4-35.13-24.65-1.46-1-3.44-1.82-3-4.12.37-2 2.3-2.26 3.82-2.78 4.39-1.51 8.82-2.89 13.39-4.37-2.24-3.2-4.88-6.23-2.14-10 2.54-3.52 6.18-3.24 9.7-1.69V85.86c0-1.47-.35-3.17 1.31-4s2.85.34 4 1.19c11.73 8.18 23.51 16.31 35 24.83 3.43 2.54 5.51 2.39 8.78-.31 22.92-19 49.6-27.12 79-24.25 46.29 4.52 82.3 36.09 94.35 81.16.21.8.45 1.59.67 2.39h-5.15c-1.55-1.18-2.1-2.92-2.67-4.68-13.89-42.41-43.25-66.78-87.15-72.37-28-3.57-53.33 4.68-75.35 22.66-3.22 2.63-4.7 5.32-3.59 9.43.6 2.23-.07 4.63.54 7.43A109 109 0 01116 117c33.36-24.42 80.84-23.23 112.47 4a94.39 94.39 0 0127.18 38.78c.84 2.22 2.25 4.52.56 7.04zM394.08 274v-8c.95-2.28 2.95-3.54 4.82-4.93 6.33-4.68 13.48-7.9 20.54-11.25 3.89-1.84 7.82-1.28 11.62.37A100.63 100.63 0 01454.13 264a27.33 27.33 0 018.66 13.15c.52 1.55.56 3.29 2.26 5.11a49.69 49.69 0 00-4.48-29.26 56.92 56.92 0 00-20.34-22.82c-1.11-.73-2.23-1.46-3.28-2.28-8.14-6.27-8-15.72.38-21.68 6.24-4.44 12.26-9 17.15-15.05 10.61-13.21 11.83-28.5 11-44.42-.12-2.25-1.36-3.24-3.54-3.31h-71.89c-6.58 0-6.48.15-6.78 6.69-.26 5.57 1.29 11.28-1.1 16.72l-5.14.09c0-7-.2-14 0-21 .08-3.14-1.07-4-4.05-3.92-9.83.31-9 .7-9-9.24 0-6.75 0-6.78 6.5-6.78 36.31 0 72.63.05 108.94-.07 4.34 0 7 .7 5.67 5.79a2.77 2.77 0 000 .5c-.22 9.47-.22 9.64-9.43 9.77-3.35.05-3.7 1.49-3.74 4.23-.14 8.79.69 17.6-1.53 26.32-3.88 15.23-12.53 26.95-25.21 35.92-.82.58-1.66 1.11-2.49 1.67-7.55 5.09-7.53 9 .11 14.11 19.58 13.1 29.95 31.06 29.19 55-.08 2.46-1 5.33 2.76 6.48 1.61.49 1.19 2.56 1.2 4 0 5.67.08 11.33 0 17-.05 2.61.06 4.65 3.57 4.34 2.57-.23 3.48 1.42 3.47 3.79v18.49c0 2.5-1.17 3.81-3.65 3.62-2.65-.2-3.79 1-3.31 3.49.4 2.05-1.68 5.44 2.74 5.56 2.67.07 3.24 1.8 3.22 4.07v18c0 2.35-.79 3.93-3.4 3.88-1.92 0-2.65.8-2.61 2.71 0 1.75.87 2.35 2.47 2.32 2.93 0 3.58 1.73 3.56 4.25-.06 5.83 0 11.66 0 17.49 0 1.71-.07 4-2.08 3.95-4.47 0-4 2.83-3.94 5.67 0 12.83-.1 25.66.08 38.48.05 3.95-1.39 5.21-5.26 5.19-30.15-.11-60.3-.05-90.45-.09-1.78 0-4.3.89-4.31-2.47s2.53-2.47 4.3-2.47c28.49 0 57-.11 85.46.06 4.12 0 5.39-1 5.29-5.24-.29-11.66-.16-23.32-.07-35 0-2.6-.45-3.95-3.5-3.95s-3.6 1.24-3.57 3.9c.11 10-.07 20 .12 30 .07 3.87-1.24 5.3-5.19 5.28-24.65-.13-49.31-.27-74 .07-5.32.07-4.44-3.66-5.69-6.31l5.65-4c2.1 2.69 4.81 3.61 8.24 3.59 19.3-.11 38.6 0 57.89-.07 5.95 0 6.37-.46 6.38-6.69q.06-42.42 0-84.85c0-2-.06-4 .07-6 .34-5.48 1.87-7 7.32-7.36 1.66-.11 3.33 0 5-.07 5.88-.11 8.92-5.63 6.11-11-.76-1.46-2-1.58-3.35-1.71-2.65-.25-5.32 0-8-.19-5.25-.37-7-1.85-7-7 0-9.16 0-8.9-9.82-8.9h-46.41c-2.46 0-5.05.38-7.13-1.51v-5.09c1.92-1.78 4.33-1.5 6.63-1.51q27.7-.06 55.41 0c7.93 0 9.11 1.31 9.36 9.37a8.35 8.35 0 000 1c.27 1.7-.48 4.45 1.82 4.55 2.54.12 1.93-2.69 1.94-4.33.09-14.07 1-12.37-11.64-12.43-18.64-.09-37.28 0-55.91 0-2.61 0-5.39.48-7.63-1.51V285c2-1.74 4.4-1.29 6.69-1.3h49.48c6.08 0 6.68-1.09 4.19-6.76-2.9-6.57-8.9-9.82-14.55-13.22-15-9-15.6-8.76-30.75 0-5.34 3.01-9.55 7.59-15.11 10.28z"/><path d="M296 130c1-6.38 1.81-12.82 3.21-19.12.66-3-.31-4.6-2.25-6.43-4.36-4.12-8.57-8.38-12.8-12.62-1-1-2.53-2-1.79-3.76.66-1.56 2.25-1.75 3.76-2 6.07-.9 12.1-2.07 18.19-2.71 2.78-.3 4-1.62 5.09-3.9 2.55-5.42 5.27-10.75 8-16.11.66-1.31 1.18-3 3-3.05 2.12-.12 2.61 1.76 3.34 3.21 2.24 4.45 4.84 8.79 6.54 13.44 1.81 4.94 5.14 6.71 10 7.13s9.86 1.32 14.78 2c1.52.21 3.11.48 3.66 2.12s-.94 2.7-2 3.72c-4.36 4.35-8.71 8.71-13.16 13-1.71 1.63-2.39 3.1-1.81 5.64 1.28 5.65 2 11.41 2.94 17.14.27 1.74 1.17 3.81-.7 5.07s-3.53 0-5.15-.82c-4.85-2.55-9.79-5-14.49-7.79-2.81-1.68-5.08-1.47-7.8.09-5 2.9-10.21 5.61-15.44 8.16-3.57 1.66-5.06.81-5.12-2.41z" fill="#87c5ed"/><path class="cls-1" d="M388 323.69c-33.49-27.62-70.61-21.3-93.47-2.44A70.53 70.53 0 00269 365.17c-3 17.65.95 33.94 10.34 49.77h-5q-70.23 0-140.44.09c-3.85 0-5-.89-4.94-4.88q.21-85.2 0-170.42c0-4.1 1.29-4.8 5-4.8q124.44.15 248.88 0c4.1 0 5.25.9 5.22 5.13-.21 27.64-.06 55.29-.06 83.63z"/><path class="cls-1" d="M175 421.09c0 5-.25 10 .12 15 .29 4.08-1.22 5-5.06 4.95-36-.13-71.91-.08-107.87-.09-6.33 0-12.67-.25-19 .1-4.19.21-5.19-1.26-5.19-5.35.15-43.78.1-87.56.1-131.34 0-16 .09-32-.08-47.94 0-3.5 1-4.51 4.49-4.49 26.8.15 53.6.1 80.4.12v26.89q-3.51 2.55 0 5.1v11.9c-2 1.94-4.61 1.31-7 1.5-2.69.21-5.51-.55-8.62 1 5.32 2.62 11-.7 15.65 2.6v28.89c-2 1.94-4.61 1.31-7 1.5-2.69.21-5.52-.54-8.63 1 5.32 2.62 11-.71 15.64 2.6v12.9c-2 1.94-4.61 1.31-7 1.5-2.69.21-5.52-.55-8.63 1 5.33 2.62 11-.71 15.65 2.6v21.9c-.91 1.29-2.8 1-3.8 2.24.44 2.15 3 1.35 3.8 2.85v11.9c-2.21 2.05-5 1.6-7.6 1.61-16 .05-32 0-48 .05-1.93 0-4-.48-5.86.89 1.86 1.38 3.93.88 5.85.89 16 .05 32 0 48 .05 2.61 0 5.39-.45 7.6 1.61 0 6.16.29 12.33.09 18.48-.14 4.15 1.46 5.55 5.56 5.52 15.39-.13 30.9-.02 46.39.07z"/><path class="cls-5" d="M258.46 229c-41.3 0-82.6-.06-123.9.08-4.15 0-5.75-.67-5.64-5.34.34-15 .23-30 .05-45 0-3.53.61-4.93 4.57-4.86q22 .38 44 0c3.93-.06 4.81 1.25 4.59 4.84-.29 4.64-.18 9.33 0 14 .3 8.44 6.93 15.09 14.9 15.13 7.7 0 14.69-6.91 15-15.16.2-5.32.17-10.66 0-16-.09-2.73.66-3.78 3.6-3.77q43.45.15 86.92 0c3 0 3.61 1.2 3.53 3.84-.15 5.16-.13 10.33 0 15.49.2 8.75 6.79 15.55 15 15.57 7.87 0 14.76-7.14 15-15.7.13-5.33.11-10.66 0-16-.06-2.34.72-3.21 3.13-3.2 15.15.09 30.31.13 45.46 0 3.12 0 3.47 1.35 3.46 3.91-.08 16-.12 32 0 48 0 3.22-.84 4.28-4.16 4.23-12.66-.18-25.31-.07-38-.07zm146.47 147.68A65.47 65.47 0 11339.44 311a65.13 65.13 0 0165.49 65.68z"/><path class="cls-1" d="M394.1 300c20.13 0 40.27.05 60.4-.12 3.5 0 4.5 1 4.5 4.51 0 11.56.16 11.52 11.64 11.57 8.56 0 7.17-1 7.25 7.54s0 8.39-8.34 8.44c-12 .07-10.6-1.38-10.62 10.67-.05 29.78-.08 59.57.08 89.35 0 3.9-1 5.07-5 5-21.29-.2-42.59-.23-63.89 0-4.24.05-5.69-1.31-5.33-5.24A80.54 80.54 0 00409 393.93c2.44-2 5.36-1.42 8.14-1.48 6.55-.15 13.12.18 19.66-.87-5.66-1.58-11.42-.84-17.11-1.13-3.24-.17-6.7.84-9.59-1.55l.9-17.9c2.25-2 5-1.45 7.61-1.52 6.06-.15 12.14.23 18.18-.91-5.3-1.54-10.7-.78-16-1.11-3.55-.22-7.35 1-10.57-1.53-.93-6.16-3-12-5-17.85 1.69-1.8 3.94-1.55 6.06-1.58 6.8-.07 13.61 0 20.41-.05 1.75 0 3.65.43 5.19-1.4-11-.48-21.94-1.06-32.92.06-2.92-4.38-5.79-8.79-8.8-13.11a6.73 6.73 0 01-1.13-4.17c-.03-9.28.02-18.54.07-27.83zm-11.93-133.17c-.07-7 0-14-.28-21-.12-3.25 1.27-3.85 4.13-3.84 25.65.08 51.3 0 77 .07 1.71 0 3.9-.59 3.94 2.38.18 13.48.89 27-6 39.44a60 60 0 01-20.67 21.87c-10.8 6.9-11 15.61-.34 22.54 19.27 12.54 28.38 30.14 27 53.12-.09 1.36.6 3.21-1.74 3.46s-2.21-1.47-2.49-2.87c-1.69-10.16-7.83-17-16.43-22-.43-.25-.82-.57-1.24-.83-19.53-12.17-25.5-11.66-46.45 3.83-1.46 1.09-3 2.05-4.52 3.07v-64.94a48.1 48.1 0 0117.26 12.77c2.82 3.27 1.22 6.58-1.52 9.28-2.38 2.35-5.45 3.81-8 6-1.21 1-2.85 1.71-3.1 3.66 5.38-.48 15.36-8.8 16.49-13.46.85-3.53-2.06-6.28-1.84-9.65a1.77 1.77 0 011-1.07c3.55-.24 4.64 2.68 6.28 4.89 2.55 3.42 4.14 3.58 6.45.12a41.49 41.49 0 0113-12.22c6-3.7 10-9.25 13.9-14.84 3.44-4.91 2.13-7.5-4-8-6.37-.58-12.6.79-18.84 1.79-11 1.75-21.82 4.79-33.12 4.11-1.31-.08-2.67.26-3.88-.55-.06-3.78-.33-7.58-.14-11.35.21-4-1.3-5.82-5.43-5.49a57 57 0 01-6.42-.29zm-235.04 1.03c-1.42-1.12-2.83-2.28-4.27-3.37-1.87-1.41-4.43-2.06-3.09-5.67.53-1.42-1-4.73-3.9-2.12-1.77 1.6-2.86.79-4.28-.24q-4.43-3.21-9-6.27c-2.11-1.42-4.53-2.51-1.27-5.36 1.45-1.27-.28-2.32-1.12-3.24s-2-1.46-2.82 0c-2.24 4-4.52 1.75-6.85.16-6.84-4.68-7.12-4.94-1.35-10.76 14.69-14.81 32.45-23.49 53.37-24.93 26.68-1.83 49.79 6.56 68.52 25.78 9.62 9.86 16.75 21.4 19.92 35.06-12 0-23.93 0-35.9.16-2.35 0-3.23-.67-3.13-3.09.16-4 .14-8 0-12-.29-8.62-6.58-14.92-14.83-15-7.86-.07-14.7 6.61-15.07 14.92-.18 4.15-.2 8.32 0 12.46.13 2.74-.59 3.77-3.54 3.71-10.45-.19-20.92-.14-31.39-.2zM122.9 247a34 34 0 00-6 .1c-8.88 1.68-13.87-2.69-18.37-9.9-9-14.36-14.13-29.78-14.17-46.57a84.2 84.2 0 019.28-38.4c1.6-3.18 3.25-4.89 6.49-1.71a15.85 15.85 0 004 2.92c2.74 1.35 3 3 1.45 5.52-.8 1.25-2.1 2.76.3 4.13s3.29.15 4-1.78c.93-2.45 2.31-2.47 4.12-.88 3.3 2.9 8 4.13 10.11 8.42-1.76 1.79-1.1 4.07-1.11 6.15q-.06 36-.1 72z"/><path class="cls-1" d="M256.21 166.82c-2.46-11.84-8.22-22.13-15.59-31.45-15.36-19.41-35.48-31.21-60-34-26-2.94-49.4 4.1-69.62 21.08-3.64 3.05-6.75 6.64-10.62 10.34-.61-5.44 0-10.27-1.13-15-.44-1.84.74-3.07 2-4.24 36.47-32.67 92.45-34.54 131.47-4.28 19.09 14.81 31.41 34.07 37.14 57.54zM394.08 274c7.75-8.91 18.09-13.86 28.54-18.62 1.77-.81 3.53-.14 5.29.55 8.11 3.2 15.36 7.88 22.28 13.07a18.19 18.19 0 014 4.41c2.16 3.2 4.61 7.2 3.12 10.52-1.21 2.71-5.75 1-8.77 1-18.13.12-36.27 0-54.4 0z"/><path class="cls-1" d="M206 172.51c0 6.49.08 13 0 19.48-.1 6-3.58 9.78-9 9.87-5.09.1-8.93-4-9-9.86q-.1-19.49 0-39c0-6.44 3.51-10.09 9.2-10 5.22.06 8.68 4 8.73 10 .13 6.51.07 13 .07 19.51zm124 .19c0 6.49.08 13 0 19.48-.09 5.93-3.81 9.77-9.12 9.69-5-.08-8.76-4-8.79-9.55q-.15-19.74 0-39.47c0-6.13 3.43-9.75 8.89-9.85 5.26-.1 9 3.75 9 9.71.02 6.66.02 13.29.02 19.99z"/><path d="M394.14 183.83c6.11-2 12.49-.22 18.74-1.59 9.37-2.06 18.91-3.31 28.39-4.8a28.86 28.86 0 0112.84.43c3.62 1.09 4.94 3.28 2.72 6.74-4.61 7.15-9.68 13.88-17 18.54-4.95 3.14-9.3 6.78-12.14 12.18-2 3.79-5.35 3.55-7.67-.29-1.57-2.58-3-5.21-6.05-6.29-1.3.07-2.28-.73-3.38-1.23a17.87 17.87 0 01-3.1-2 18.52 18.52 0 00-3.47-2.69 10.05 10.05 0 01-1.06-.79c-3.24-3.4-7.34-6.1-8.82-10.92z" fill="#87c5ec"/><path class="cls-7" d="M394.1 290c24.13 0 48.27 0 72.41-.11 3.51 0 4.69 1 4.48 4.52a134.68 134.68 0 000 13.48c.11 3-1.63 3-3.82 3.09s-3.46-.74-3.21-3.15a8.34 8.34 0 000-1c-.35-11.83-.35-11.83-12.43-11.83l-57.43-.05z"/><path d="M133.06 167.88Q112.15 153 91.24 138.15c-14.1-10-28.26-19.89-42.35-29.92-1.14-.81-3.76-1.44-2.25-3.56 1.17-1.65 2.78 0 3.89.78q43 30.27 85.95 60.65a10.65 10.65 0 011.63 1.83z" fill="#fbfcfd"/><path class="cls-3" d="M122.89 397q-30.14 0-60.27-.06c-1.43 0-3.19.59-4.17-.83a4 4 0 01-.16-2.88c.47-1.81 2.13-1.24 3.34-1.25 9.47-.05 18.93 0 28.4 0h32.87c0 1.62-.01 3.32-.01 5.02z"/><path class="cls-9" d="M408.08 205.05l2.83 1.86a10.57 10.57 0 013 3.11c4.55 8.45 3.37 13.07-4.65 18.45a83.73 83.73 0 00-7.26 5.25c-1.73 1.44-3 2.44-4.8.1-2-2.62.77-3.19 1.86-4.12a93.16 93.16 0 017.65-5.55c6.65-4.58 6.67-8.7.08-13.52-4.28-3.14-8.49-6.36-12.72-9.55v-7.11c4.29 1.46 6.08 6 9.84 8.06 1.45.97 2.65 2.18 4.17 3.02z"/><path class="cls-10" d="M403.87 345.09c.12-2.6 2.08-2.1 3.64-2.1h28.83c1.9 0 3.71-.13 3.59 2.71-.1 2.6-1.86 2.29-3.49 2.3l-31.31.1zm6.18 43.81c8.62 0 17.25 0 25.88.08 1.65 0 3.86-.74 4 2.27.14 3.32-2.22 2.67-4.09 2.68h-26.88c.36-1.68.72-3.35 1.09-5.03zm.11-22.99c8.61 0 17.22 0 25.82.06 1.67 0 3.84-.66 3.94 2.32.11 3.33-2.26 2.64-4.11 2.65-8.28.05-16.55 0-24.83 0-.27-1.65-.55-3.34-.82-5.03z"/><path class="cls-3" d="M122.89 335h-14.83c-1.58 0-2.93-.07-3-2.25s1-2.79 3-2.77c4.94.05 9.89 0 14.83 0 .01 1.64.01 3.34 0 5.02z"/><path class="cls-10" d="M122.9 353h-14.83c-1.58 0-2.93-.09-3-2.26s1-2.79 3-2.77c4.94.05 9.89 0 14.83 0z"/><path class="cls-3" d="M122.9 301c-5 0-9.89-.08-14.83 0-2 0-3.1-.5-3-2.77s1.44-2.25 3-2.25h14.82c0 1.66 0 3.35.01 5.02z"/><path class="cls-11" d="M122.9 380c-1 0-2-.09-2.93 0-2 .12-3-.55-2.93-2.76s1.36-2.27 2.94-2.25h2.92z"/><path class="cls-12" d="M404 202c-4.45-1.25-6.29-5.69-9.84-8.06v-2.86z"/><path class="cls-11" d="M122.9 284c-1.87-.11-4 .39-3.88-2.8.15-3 2.28-2.06 3.87-2.3 0 1.74.01 3.44.01 5.1z"/><path class="cls-13" d="M99.42 247c-5.31 0-9.45-.1-13.58 0-2.19.07-3.28-1-4.3-2.71a103.56 103.56 0 01-14.64-44.48c-1.35-15 .89-29.38 5.52-43.56 1.2-3.65 2.91-6 7-6.61 3.7-.58 7.26-2 11.42-3.23C73.5 181.58 76 214.72 99.42 247z"/><path d="M34.91 120.28c5-1.62 9.06-2.9 13.12-4.31a4.28 4.28 0 014.19.77q16.34 11.48 32.69 22.93c2.12 1.48 2.5 2.62-.51 3.41-3.21.85-6.37 1.87-9.57 2.78a5.89 5.89 0 01-5.19-1.06z" fill="#fdfdfe"/><path d="M94.64 129.66c-11.43-3.45-11.87-12.66-12.56-21.92 10.66 3.7 13.92 9.4 12.56 21.92z" fill="#fcfdfd"/><path d="M67.81 110.83C57.17 105.28 57.22 105.58 57.4 90c8.6 3.74 11.14 8.61 10.41 20.83z" fill="#fafbfc"/><path d="M71.9 100.48c3.1.56 4 2 4.25 4.27.39 3.11 1.19 6.16 1.69 9.25.2 1.22 1 3-.45 3.56-1.67.61-2.77-1.08-3-2.52-.97-4.66-1.65-9.37-2.49-14.56z" fill="#f4f9fc"/><path class="cls-7" d="M424.57 131h50.46c2.05 0 4.91-1.16 5.05 2.84s-2.49 3.19-4.72 3.19H373.43c-2 0-4.45.82-4.53-2.83-.09-3.87 2.45-3.21 4.7-3.22z"/><path d="M476.92 389.89c0 1.91-.09 3.41 0 4.89.16 2.33-.81 3.07-3.15 3.23-9.88.67-10 .75-9.81-9.41 0-2.14-1.38-5.55 1.16-6.23 3.38-.89 7.58-1.13 10.69.14 2.54 1.03.63 5.12 1.11 7.38z" fill="#fcfcfc"/><path class="cls-1" d="M463.94 359.36c0-2 .11-3.37 0-4.68-.27-2.74.73-3.82 3.61-3.75 11.69.29 9.16-1.47 9.32 9.34 0 2.13 1.37 5.56-1.12 6.24-3.38.91-7.57 1.17-10.7-.08-2.71-1.07-.36-5.15-1.11-7.07zm7.06-16.75c.38 2.2-.57 3.41-3.76 3.45-4.25.05-3.08-2.78-3.31-5-.28-2.79.47-4.13 3.72-4.15 4.23-.06 3.1 2.75 3.35 5.7z"/><path d="M468.11 377c-2.19-.07-4.18.38-4.19-2.51 0-2.45 1.49-2.55 3.26-2.49s3.76-.41 3.76 2.49c0 2.4-1.47 2.56-2.83 2.51z" fill="#fbfbfb"/><path class="cls-1" d="M301.7 126.24c1-6.09 1.63-11.18 2.82-16.13a6.85 6.85 0 00-2.28-7.5c-3.33-3-6.44-6.26-9.6-9.45-.56-.56-1.32-1.39-1.24-2 .16-1.28 1.49-1 2.42-1.1 4.09-.64 8.16-1.63 12.28-1.82 4-.18 5.85-2.1 7.29-5.54 1.91-4.56 4.33-8.9 7.09-14.48 2.8 5.69 5.23 10.32 7.34 15.1 1.36 3 3.18 4.67 6.7 4.89 4.29.27 8.52 1.21 12.78 1.87.78.12 1.81-.16 2.17.79.45 1.19-.65 1.77-1.3 2.43-3.05 3.07-6 6.21-9.24 9.09-2.5 2.24-3.31 4.5-2.46 7.91 1.24 4.91 1.79 10 2.78 15.92-5.43-2.76-10.2-4.75-14.49-7.49-3-1.92-5.36-1.68-8.24-.07-4.52 2.49-9.13 4.69-14.82 7.58z"/><path class="cls-20" d="M338.33 260c3.33 0 6.65.1 10 0s4.76 1.45 4.71 4.8q-.17 10.22 0 20.44c.05 3.34-1.22 4.88-4.68 4.82-7-.12-13.95-.08-20.93 0-3.18 0-4.48-1.4-4.45-4.54.09-7 .11-14 0-20.93-.06-3.54 1.65-4.68 4.92-4.57 3.45.07 6.95-.02 10.43-.02zm-110.81 78C213 338 213 338 213 323.6c0-3.66.1-7.32 0-11-.12-3.46 1.46-4.74 4.8-4.68q10.23.17 20.44 0c3.36-.06 4.86 1.25 4.81 4.69-.11 7-.09 14 0 20.94 0 3.2-1.42 4.5-4.55 4.42-3.67-.07-7.33.03-10.98.03z"/><path class="cls-2" d="M283 290c-15 0-15 0-15-14.89 0-3.49.11-7 0-10.46s1.49-4.73 4.82-4.67q10.21.16 20.44 0c3.36-.06 4.85 1.25 4.79 4.7-.12 6.81-.14 13.62 0 20.43.08 3.7-1.52 5.09-5.09 4.92-3.34-.17-6.67-.03-9.96-.03zm-55 0c-15 0-15 0-15-14.9 0-3.32.11-6.65 0-10-.16-3.51 1.08-5.25 4.85-5.17 6.81.15 13.62.13 20.43 0 3.39-.06 4.83 1.3 4.78 4.72-.12 6.81-.14 13.62 0 20.43.08 3.72-1.54 5.08-5.11 4.91-3.32-.13-6.65.01-9.95.01z"/><path class="cls-20" d="M172.65 290c-3.32 0-6.65-.09-10 0s-4.65-1.47-4.65-4.8q.17-10.21 0-20.44c-.06-3.36 1.24-4.86 4.69-4.8 7 .12 13.95.09 20.93 0 3.19 0 4.47 1.44 4.43 4.56q-.12 10.47 0 20.93c0 3.13-1.24 4.62-4.43 4.54-3.62-.07-7.32.01-10.97.01zM188 323.34c0 3.32-.09 6.65 0 10s-1.46 4.75-4.81 4.7q-10.22-.17-20.43 0c-3.35.06-4.87-1.24-4.81-4.69.11-7 .08-13.95 0-20.93 0-3.19 1.41-4.47 4.54-4.43 7 .08 14 .1 20.93 0 3.54-.05 4.69 1.66 4.57 4.93-.05 3.44.01 6.93.01 10.42zM172.85 390c-3.32 0-6.65-.1-10 0s-4.93-1.12-4.88-4.62c.11-7 .09-14 0-20.93 0-3.16 1.31-4.54 4.47-4.5 7 .08 14 .11 20.94 0 3.48-.05 4.69 1.56 4.64 4.87q-.17 10.21 0 20.43c.06 3.4-1.33 4.88-4.74 4.76s-6.94-.01-10.43-.01z"/><path class="cls-2" d="M228 389.94c-15 0-15 0-15-14.86 0-3.49.07-7 0-10.47-.08-3 1-4.7 4.31-4.67 7.15.07 14.29.05 21.44 0 2.89 0 4.29 1.24 4.27 4.18v21.93c0 2.69-1.39 3.92-4 3.9-3.71-.03-7.37-.01-11.02-.01z"/><path class="cls-3" d="M71.06 306c-3.82 0-7.65-.1-11.47 0-3.11.11-4.6-1-4.55-4.3.12-7.82.09-15.64 0-23.45 0-2.88 1-4.34 4.07-4.29 5 .1 10 0 15 0 1.64 0 2.92.18 3 2.33.08 2.4-1.26 2.71-3.15 2.68-3.49-.05-7 .07-10.47 0-2.18-.06-3.45.45-3.4 3q.18 8 0 16c-.06 2.49 1.11 3.1 3.34 3.05 5-.09 10-.15 15 0 2.79.09 4-.82 3.72-3.68-.24-1.71-.15-3.34 2.35-3.34 2.93 0 2.5 1.94 2.57 3.74.3 8.26.31 8.26-8 8.27zm-15.98 35c0-4 .05-8 0-12-.05-2.62.89-4.12 3.72-4.09q7.74.06 15.48 0c1.77 0 2.81.49 2.81 2.52S76 330 74.26 330c-3.66 0-7.33.08-11 0-2.33-.08-3.29.76-3.24 3.16.12 5.15.14 10.32 0 15.47-.08 2.65.94 3.5 3.5 3.42 4.82-.14 9.65-.16 14.47 0 2.86.11 4.51-.53 4.1-3.81-.23-1.79.08-3.27 2.53-3.24s2.44 1.67 2.43 3.39 0 3.32 0 5c0 2.49-1.2 3.64-3.67 3.63H58.92c-2.74 0-3.92-1.25-3.87-4 .08-4.02.03-8.02.03-12.02z"/><path d="M66.09 334.26l4.18 5.55c1.79 2.39 3.39 2.46 5.54.14 4-4.37 8.4-8.46 12.6-12.7 1.22-1.24 2.16-2.37 4-.55s1 2.7-.37 4q-8.31 8.21-16.53 16.51c-1.51 1.53-2.89 2.08-4.61.29-2.52-2.63-5.14-5.17-7.71-7.75-.88-.88-1.55-1.83-.44-3a7.41 7.41 0 013.34-2.49z" fill="#87c4eb"/><path class="cls-9" d="M93.88 277.6c-.69.77-1.21 1.42-1.79 2-5.41 5.42-10.87 10.79-16.22 16.27-1.84 1.88-3.38 2.41-5.38.23-2.25-2.45-4.66-4.75-7-7.07-1.25-1.21-1.75-2.28-.29-3.78s2.43-1 3.76.15c2.07 1.85 3.59 5.41 6.3 5.15s4.44-3.71 6.59-5.75c3.14-3 6.14-6.11 9.21-9.16.68-.67 1.39-1.65 2.48-.63.78.76 1.46 1.65 2.34 2.59z"/><path class="cls-10" d="M74.65 413.94H61.21c-1.9 0-3.22-.3-3.14-2.68.08-2.16 1.35-2.33 3-2.33h27.88c1.91 0 3.21.31 3.13 2.69-.08 2.14-1.34 2.34-3 2.34-4.8-.03-9.62-.02-14.43-.02z"/><path class="cls-3" d="M91.19 375c1.55.22 3.74-.69 3.86 2.31.14 3.29-2.18 2.69-4 2.66-1.65 0-3.82.72-3.94-2.27-.18-3.35 2.14-2.63 4.08-2.7zm17.38-91c-2 .1-3.64 0-3.52-2.74.12-2.61 1.91-2.17 3.5-2.24 1.93-.08 3.64-.05 3.51 2.73-.12 2.6-1.91 2.15-3.49 2.25z"/><path class="cls-11" d="M104.91 380c-1.4.08-2.87-.06-2.87-2.51 0-2.89 2-2.45 3.76-2.5s3.26.05 3.26 2.5c0 2.87-1.99 2.41-4.15 2.51z"/><path class="cls-3" d="M75.55 374.91c2.64.12 4.41-.28 4.53 2.32.13 2.79-1.6 2.81-3.52 2.72-1.6-.06-3.39.35-3.49-2.26s1.52-2.89 2.48-2.78z"/><path class="cls-22" d="M60.94 380c-1.41.08-2.87-.07-2.87-2.51 0-2.91 2-2.44 3.76-2.5s3.26 0 3.26 2.49c-.01 2.87-1.99 2.43-4.15 2.52z"/><path class="cls-20" d="M375.5 374c5.49 0 11 .1 16.47 0 2.55-.07 3 1.08 3 3.3S394 380 392 380c-10.82-.05-21.63 0-32.45-.07-2.59 0-4 .53-5.26 3.16-3.19 6.91-10.42 10.79-17 9.71-7.18-1.18-13.43-7.71-14.22-14.83-.72-6.6 3.53-13.86 10.46-16.56 3-1.17 3.54-2.76 3.5-5.52-.12-8.15 0-16.31-.06-24.46 0-2 .08-3.46 2.82-3.51s3.26 1.23 3.23 3.61c-.08 8.49 0 17-.06 25.46 0 2.21.39 3.53 2.76 4.5a15.28 15.28 0 019 9.45c.89 2.7 2.38 3.12 4.79 3.07 5.34-.13 10.67-.01 15.99-.01z"/><path d="M366.25 419c-1.72 2.93-4.57 3.8-7.06 4.41s-2.71-2.56-2.56-3.8c.38-3.37 3.95-3.57 6.3-4.27 2.19-.65 1.81 2.59 3.32 3.66z" fill="#606275"/><path d="M345 420.77c2.42-.82 3.54 1.15 3.52 3.75 0 3.47-3 2.28-4.86 2.45s-4.39.83-4.54-2.72c-.2-4.32 2.88-2.98 5.88-3.48z" fill="#616378"/><path class="cls-25" d="M298.43 406.47a14.26 14.26 0 01-4.6-7.27c-.51-2.1 2.81-3 3.74-2.77 2.92.64 4 3.76 4.66 6.2.43 1.49-2.11 2.61-3.8 3.84z"/><path d="M328.08 426.09c-2.13-1.5-5.9-.24-6.71-3.59-.26-1.05.4-4.4 2.61-3.83s6-.23 6.76 3.32a3.21 3.21 0 01-2.66 4.1z" fill="#5f6075"/><path d="M294.84 385.12c.53 3.31-1.3 3.92-3.21 3.87-4.13-.11-2.69-3.87-3.44-6-.88-2.51 1.07-3 3.14-3 4.67-.22 1.52 4.42 3.51 5.13z" fill="#606276"/><path class="cls-25" d="M297.71 355.06c-1.29-1.38-4.52-1-3.74-3.32s.84-6 4.33-6.33c1.18-.1 4.22.6 3.38 3.18-.76 2.31-1.21 5.13-3.97 6.47z"/><path d="M294.66 365.62c-1.15 1.87.63 6-4.25 5.47-2.42-.27-3-1.62-2.26-3.25.94-2-.94-6 3.52-5.7 1.8.13 3.82.58 2.99 3.48z" fill="#5d5e71"/><path d="M309 409.58c1.92 2 5.11 2.56 5.64 5.27.26 1.34-1.16 4.11-3 3.69-2.65-.6-5.38-2.4-6.17-5.12-.39-1.32 1.87-2.74 3.53-3.84z" fill="#5e5f73"/><path class="cls-3" d="M421.76 416.94h-14.94c-1.71 0-2.87-.34-2.89-2.42s.9-2.61 2.73-2.6h30.38c1.71 0 2.85.34 2.9 2.42.05 2.45-1.41 2.6-3.23 2.59-4.98-.02-9.96.01-14.95.01z"/><path class="cls-10" d="M421.83 326h-14.44c-1.67 0-3.38.21-3.45-2.36-.06-2.4 1.31-2.65 3.17-2.64H437c1.66 0 2.88.24 2.94 2.37.07 2.4-1.29 2.67-3.16 2.66-4.98-.03-9.97-.03-14.95-.03z"/><path class="cls-3" d="M426.89 222.63c.18 2.11-.18 3.44-2.55 3.39-2.07 0-2.4-1.16-2.41-2.86 0-1.86.22-3.23 2.61-3.15 2.01.07 2.61 1.05 2.35 2.62z"/><path class="cls-22" d="M424.47 232.05c1.66-.12 2.44.55 2.48 2.27s-.64 2.74-2.58 2.7c-1.6 0-2.41-.6-2.43-2.32s.6-2.85 2.53-2.65z"/><path class="cls-3" d="M424.15 243.07c2.13-.22 2.82.72 2.79 2.59 0 1.68-.77 2.31-2.41 2.34-1.91.05-2.65-.77-2.59-2.65.06-1.64.67-2.51 2.21-2.28z"/><path d="M413.94 210a6.4 6.4 0 01-3-3.11 3.33 3.33 0 013 1.85z" fill="#d8ebf6"/><path class="cls-31" d="M219.06 139.1c-.37 1.77-1.29 3.57-2.67 3.24-1.94-.48-4.27-1.67-4.58-3.93a3 3 0 012.91-2.83c1.98.23 3.35 1.89 4.34 3.52z"/><path class="cls-32" d="M165.37 119.1c2-.07 3.61-.18 3.72 2.29.13 2.77-1.65 2.7-3.51 2.73s-3.3.06-3.42-2.35c-.16-2.77 1.66-2.72 3.21-2.67zm69.53 41.53a2.66 2.66 0 01-2.89 3c-2.45-.1-2.64-2.64-3.29-4.31-.81-2.07 1.43-2.57 2.57-2.68 3.03-.26 2.1 3.15 3.61 3.99z"/><path d="M179 119.55c1.11.91 4-.5 3.73 2.54-.19 2-1.3 3.21-3.65 2.9-2.13-.28-3.3-1.12-3.15-3.46.16-2.04 1.15-2.53 3.07-1.98z" fill="#91c9ed"/><path class="cls-34" d="M131.89 135.09a6 6 0 01-4.45 3.37c-1.32.21-3.09-1.77-2.77-2.9a5.42 5.42 0 014.73-3.81c1.6-.11 1.9 1.93 2.49 3.34z"/><path class="cls-35" d="M228.07 149.44c-.49 1.95-2 3.19-3.22 2.79a5.16 5.16 0 01-3.44-4.34 2.6 2.6 0 013-2.56c1.92.52 2.89 2.48 3.66 4.11z"/><path d="M196 125.71c-.71 1.3-.63 3.33-2.9 2.51-1.72-.61-4.21-.49-4-3.31.11-1.53.64-3.11 2.73-2.34 1.64.62 4.08.43 4.17 3.14z" fill="#8dc7ec"/><path class="cls-34" d="M156 124.07c-.25 2.81-3 2-4.58 2.52s-2.25-1.09-2.29-2.44c-.1-2.88 2.27-2.85 4.16-3.07s2.54 1.15 2.71 2.99z"/><path d="M150.83 150.74c-.35 2.42-2.58 2.87-4.26 3.42-2.4.78-2.84-1.87-2.76-3 .16-2.21 2.71-2.67 4.35-3.28 1.95-.74 1.84 1.75 2.67 2.86z" fill="#8ec7ec"/><path class="cls-38" d="M163.07 146.36c0 2.2-2.13 2.39-4 2.6-2.26.26-2.91-1.69-2.75-3.19.27-2.72 3.07-1.79 4.71-2.39 1.77-.65 1.97 1.02 2.04 2.98z"/><path d="M204 128c1.51.85 4 1 4 3.53 0 1.34-1.19 3.11-2.3 2.73-1.81-.61-4.45-1.13-4.43-3.86A2.38 2.38 0 01204 128z" fill="#8bc7ed"/><path d="M173.44 143c1.1.33 3.43-.76 3.27 2-.12 2-1.16 3.29-3.5 3.07-1.72-.16-3.28-.18-3.27-2.57s1.41-2.67 3.5-2.5z" fill="#8cc6ec"/><path class="cls-31" d="M143.55 128.44c-.88 2.07-3 2.59-4.73 2.94-1.93.37-2.55-1.94-2.41-3 .28-2.26 2.73-2.65 4.49-3s2 1.72 2.65 3.06z"/><path class="cls-38" d="M112.78 225.47a2.65 2.65 0 01-2.83 2.81c-2.69 0-3.09-2.56-3.68-4.42-.52-1.63 1.31-2.36 2.42-2.47 2.82-.28 2.86 2.61 4.09 4.08z"/><path d="M106.92 213.07c.2 2.13-1.16 2.82-2.72 2.86-2.89.09-2.51-2.68-3.16-4.29-.91-2.23 1.26-2.36 2.57-2.51 3.03-.36 2.32 2.6 3.31 3.94z" fill="#8fc8ed"/><path d="M103.67 200.3c.09 2.17-1.61 2.57-3 2.5-2.53-.12-2.26-2.42-2.53-4.13-.3-1.93.73-2.63 2.6-2.67 3.34-.06 1.96 2.88 2.93 4.3z" fill="#8fc8ec"/><path class="cls-32" d="M103.11 176.09c-1.69-.13-3.31-.37-2.93-2.16s-.1-4.4 2.59-4.66c1.32-.13 3.41.42 3 2.4-.28 1.71-.07 4.25-2.66 4.42z"/><path d="M117.56 239.68c-1.83-1.28-3.54-2.65-3.74-4.65-.16-1.55 1.85-2.84 3-2.6a5.28 5.28 0 013.65 4.22c.22 1.43-1.79 2.12-2.91 3.03z" fill="#8dc8ee"/><path class="cls-35" d="M98 185.54c.28-1.2-.59-3.25 1.78-3.21s3.47 1.29 3.29 3.81c-.14 2-.59 3.08-2.84 3-2.53-.14-2.14-1.92-2.23-3.6z"/><path class="cls-13" d="M399.11 188.21c14.72.13 28.31-4.21 42.3-5.78 3.28-.37 8-1.72 9.45.42 1.57 2.29-2.51 5.15-4.31 7.58a34.74 34.74 0 01-10 8.89 44.54 44.54 0 00-10.83 9.52c-.71.84-1.43 3.11-2.89 1.16-5.13-6.84-13.76-9.35-19.18-15.77-1.5-1.74-3.65-2.95-4.54-6.02z"/><path class="cls-12" d="M408.08 205.05a4.7 4.7 0 01-4.15-3c2.01.12 3.21 1.37 4.15 3z"/><path class="cls-1" d="M347 275.07c0 8.92 0 8.92-8.69 8.91-9.31 0-9.31 0-9.3-9.31 0-8.66 0-8.66 8.46-8.67h.5c8.97 0 8.97 0 9.03 9.07zM227.55 332c-8.55 0-8.55 0-8.53-8.57 0-9.38 0-9.38 9.2-9.41 8.79 0 8.79 0 8.78 8.83 0 9.15 0 9.15-9.45 9.15zm55.19-48c-8.75 0-8.75 0-8.75-8.88 0-9.11 0-9.11 9-9.11s9 0 9 9.14c.01 8.85.01 8.85-9.25 8.85z"/><path class="cls-5" d="M227.66 284c-8.63 0-8.63 0-8.64-8.6 0-9.41 0-9.41 9.33-9.39 8.66 0 8.66 0 8.66 8.59-.01 9.4-.01 9.4-9.35 9.4z"/><path class="cls-1" d="M182 274.91c0 9.09 0 9.09-9 9.09s-8.94 0-8.93-8.67c0-9.31 0-9.31 9.28-9.31 8.7-.02 8.7-.02 8.65 8.89zM173.28 314c8.73 0 8.73 0 8.75 8.87 0 9.14 0 9.14-9 9.12s-9 0-9-9.1C164 314 164 314 173.28 314zm-.05 70c-9.18 0-9.18 0-9.18-8.92s0-9.06 9-9.06 9 0 8.95 9.16c0 8.75 0 8.75-8.77 8.82zm63.77-8.94c0 8.89 0 8.89-8.74 8.89-9.25 0-9.25 0-9.26-9.35 0-8.65 0-8.65 8.48-8.64h.5c9.02.04 9.02.04 9.02 9.1z"/><path class="cls-7" d="M350 376.42A10.48 10.48 0 11339.56 366 10.14 10.14 0 01350 376.42z"/></svg>