<svg id="Слой_1" data-name="Слой 1" xmlns="http://www.w3.org/2000/svg" viewBox="0 0 512 512"><defs><style>.cls-1{fill:#fefefe}.cls-2{fill:#5d5d70}.cls-4{fill:#87c5ed}.cls-6{fill:#87c5ec}.cls-7{fill:#5d5d71}.cls-9{fill:#fdfdfd}.cls-12{fill:#fdfdfe}.cls-13{fill:#fdfefe}.cls-19{fill:#fafbfc}.cls-22{fill:#5f6074}.cls-23{fill:#5e6074}.cls-30{fill:#8fc9ee}</style></defs><path class="cls-1" d="M255.45 511.91q-125.67 0-251.32.09C.72 512 0 511.35 0 507.91Q.18 256.07 0 4.22C0 .29 1.21 0 4.49 0q251.56.14 503.15 0c3.58 0 4.35.71 4.35 4.34q-.18 251.59 0 503.19c0 4-1.2 4.46-4.73 4.46q-125.9-.16-251.81-.08z"/><path class="cls-2" d="M390.82 271.08c-4.27 3.18-8.4 6.55-12.83 9.47-3.79 2.5-5 5.45-3.37 9.72.93 2.47 1.52 5.07 2.26 7.61 1.85 3.54 3.19 7.15 1.57 11.18-1.68 4.58-5.26 7.1-9.62 8.67a43.7 43.7 0 01-7.61 2.29c-6.45 1-9.63 4.52-9.36 11.09-.69 3.89-.78 7.87-1.79 11.72-1.42 4.67-4.7 7.27-9.33 8.35a7 7 0 01-4.85-.88c-17-1.58-17-1.58-24.66 13.45-4.46 8.79-9.21 10.53-18.17 6.63-3.8-1.66-7.53-3.49-11.39-5-4.81-1.87-8.55.89-7.64 5.84 5.35 29-11.83 57.12-36.93 67.71a6.79 6.79 0 00-1.21.82c-6 4.46-13.22 4.87-20.24 5.51-6.83.62-13.53-.63-20.05-2.71a66.51 66.51 0 01-25.85-14.69 48.43 48.43 0 01-5.59-6.46c-4.15-4.34-6.58-9.74-9.21-15-.64-1.79-1.78-3.49-1.06-5.53-5.6-19.78-2.9-38.19 9.12-55a6 6 0 001-4.69c-.7-5.27-1.41-10.55-2-15.85-.3-2.94-2-4.41-4.6-5.18-4.47-1.31-8.94-2.6-13.37-4-6.9-2.2-9.82-7.22-8.28-14.15q1.47-6.58 3.09-13.11c.8-3.23.25-5.73-2.78-7.73-3.74-2.48-7.26-5.3-10.8-8.08-5.76-4.52-6.66-10-2.73-16.22a101.55 101.55 0 016.61-10c3.05-3.78 2.76-7-.12-10.69-2.05-2.6-3.7-5.53-5.51-8.32-5.42-8.32-4.56-13 3.52-19.06 3.06-2.3 6-4.72 9.22-6.84 2.8-1.86 3.46-4.22 2.72-7.3-1.14-4.69-2.28-9.37-3.28-14.09-1.3-6.12 1.65-11.33 7.6-13.31q6.85-2.29 13.85-4.15c3.16-.85 4.7-2.59 5-5.93.38-4.8 1.1-9.59 1.82-14.36.93-6.13 5.11-9.82 11.26-9.73 5 .07 10 .44 15 .85a5.8 5.8 0 006.37-3.66q3-6.32 6.26-12.49c3.3-6.23 8.58-8.2 15.06-5.62a119.56 119.56 0 0111.43 5c4 2.09 7.11 1.81 10.12-1.71a82 82 0 016.91-6.51c7.81-7.23 11.67-7.41 19.83-.9a10 10 0 014.79 2.78c8.43 8.55 7.25 7.25 16.82 3.25 2.12-.89 4.22-1.85 6.34-2.74 4.37-1.85 8.63-1.92 12.74.71a18.94 18.94 0 014.5 5.26 13.05 13.05 0 01.67 1.22c1.06 2.34 2.27 4.61 3.5 6.87 4.07 7.65 5.18 8.23 13.82 6.94a41.22 41.22 0 016.46-.55c8.86.09 13.55 4 15.07 12.78.65 3.77.91 7.6 1.3 11.41.36 3.5 2.05 5.39 5.28 6.39 4.3 1.33 8.68 2.36 12.89 4 6.62 2.53 9.81 8.14 8.36 15.06a90.25 90.25 0 01-2.48 10.58c-1.69 4.93-.18 8.26 4.1 11a85 85 0 018.8 6.58c5.21 4.31 6.42 10.09 3.34 16.09-2 3.86-4.64 7.3-7 10.93-1.76 2.68-2.59 5.4-.92 8.42a66 66 0 003.41 5.78c3.11 4.91 7.66 9.3 5.79 16-.63 1.69-.89 3.62-2.97 4.28z"/><path d="M390.82 271.08l2.09-4.13c5.12 3 8.36.21 11.46-3.54 1.81-2.17 4-4 6-6.05 2.93-3.09 2.77-4.32-1.15-6.22-6-2.88-12.19-3-18.5-1.22-1.28.35-2.46 1.05-3.85 1l-3-4.76c1.95-3.34 5.53-3.67 8.66-4 8.06-1 16-.36 23.07 4.27 2.56 1.69 4.45 1.38 6.56-.76q12.25-12.45 24.71-24.72c2.3-2.26 2.47-4.26.84-7-6.84-11.65-6.91-23.43.28-34.93 1.91-3.06.89-4.73-1.22-6.82-9.94-9.83-19.79-19.75-29.68-29.63Q385.67 111 354.24 79.6c-4.35-4.35-4.3-4.2-9.63-1.21-10.69 6-21.6 6.42-32.24.08-3.79-2.26-6.1-1.65-9 1.34-9.26 9.56-18.74 18.92-28.21 28.28-1.46 1.44-2.63 3.62-5.3 3.08l-3.7-3.19c2.76-2 4.41-4.94 6.25-7.69 9.73-14.5 19.54-29 29-43.63 2.67-4.13 5.09-5.44 8.85-1.76s6.3 2.61 9.67-.92c9.86-10.32 7.65-9.59 17.2-.12 16.67 16.53 33.4 33 49.84 49.77 11 11.2 24.82 18.37 37.52 27.11 19.88 13.67 40.05 26.91 60.24 40.1 4.08 2.67 4.67 4.93 1.57 8.67a97.56 97.56 0 00-5.85 8.68c-1.43 2.17-3.35 4.12-1.72 7.16.67 1.24-.32 2.55-1.34 3.51-19.72 18.48-31.38 42.8-46.74 64.45-.19.27-.38.54-.56.82-4.8 7.32-4.93 7.51-12.14 2.35-3.65-2.6-6.23-2.84-9.08.93a65.52 65.52 0 01-6.29 6.41c-4.55 4.54-5 4.54-9.53-.1-.79-.83-1.48-1.72-2.23-2.64z" fill="#86c5ec"/><path class="cls-4" d="M349 342.94c.7-4 .38-8.21 2-12.09 3.59.24 5.81-2.3 8-4.39 5.28-5 11-7.92 18.46-5.71 3.15.94 3.88-.3 2.6-3.27a71.72 71.72 0 01-2.82-8.5c1.78-3.76-.54-7.39-.36-11.1 5.19 6.07 7.79 13.43 10.1 20.87 1 3.3 2.17 5.51 6.21 5.61S401 325.52 405 326c4.87.63 8.46 2.61 11.17 7.13 12.53 21 25.4 41.75 38.14 62.6 3 5 6 10 9.08 14.91 1.69 2.67 1.31 4.29-1.5 6q-27.94 16.92-55.72 34.1c-2.42 1.49-4.34 1.4-5.85-1.19a10.74 10.74 0 01-1-1.72c-2.92-8.65-9.66-8.25-16.93-7.59-13.93 1.26-27.92.38-41.89.66-2.22.05-3.41-1.06-3.47-3.3v-4l-1.08-83.33 5.18-.13c1.73 2 1.32 4.42 1.26 6.69-.57 24 1.68 47.91 1.07 71.89-.13 5.27.44 5.83 5.67 5.75 11.47-.2 23 .75 34.42-.86 5-.7 5.05-.49 2.51-4.71-10.52-17.39-20.88-34.9-31.98-51.9-5.05-7.74-6.44-15-2.38-23.38a47.29 47.29 0 002.4-7.09c.43-1.4 1.27-3 0-4.24s-2.41.38-3.61.66a2.89 2.89 0 01-1.49-.01z"/><path d="M165.2 421.08l5 5.78c-2.16 2.16-5 1.65-7.56 1.64-24.81-.08-49.59 1.71-74.4 1.08-2.92-.08-6.2-.53-6.52 4.07-.37 5.21.58 6.45 6 6.67a27 27 0 016.46.53 3.7 3.7 0 010 7.2 20.42 20.42 0 01-5.46.47H58.24c-5.83 0-7.47 2.16-6.28 7.67.36 1.69 1.14 2.67 2.88 2.91a40.31 40.31 0 005.49.19h136.34c4.91-.19 5.7-.95 5.71-5.43s-.72-5.29-5.73-5.31c-23-.08-46 0-69 0a26.88 26.88 0 01-6.46-.42 3.48 3.48 0 01-3-3.44c-.09-2.18 1.07-3.4 3.1-3.9a20.71 20.71 0 015-.42c19.65 0 39.31 0 59-.06 3.34 0 6.52 1.38 9.87.86 13.77 4.59 27.33 3 40.8-1.38.29 7.18.29 7.18-7 7.17-5.49 0-11 .12-16.48 0-2.64-.07-3.55.92-3.42 3.49.15 3 0 6 0 9 0 6.53 0 6.54-6.77 6.54H52.89c-7.77 0-7.77 0-7.79-7.53 0-3.66.2-7.34-.05-11-.28-4.07 1.16-5.71 5.39-5.55 7 .27 14 0 21 .12 2.82.06 3.65-.92 3.74-3.72.3-10.37.41-10.37-10.06-10.35-4.16 0-8.35-.26-12.48.11-4.8.43-6.73-1.3-6.5-6.16a148 148 0 00-.14-15.53c-.22-4.14 1.29-5.53 5.45-5.5 23.64.14 47.29.07 70.93.06q15.74 0 31.47-.07 1 2.55 2 5.09c-2.38 2.16-5.34 1.55-8.1 1.55-28.95.06-57.9 0-86.85 0-7.76 0-10.11 3.29-8 11a3.06 3.06 0 002.63 2.58 26.81 26.81 0 004.48.24c20.63 0 41.27.47 61.89-.17 12.13-.38 24.25-.78 36.39-.83a23 23 0 016.91.75z" fill="#86c5ed"/><path class="cls-6" d="M57.17 78.14c3.76 1.07 6.2-.78 8.07-5 3-6.76 6.07-8 12.67-4.82 4.54 2.19 7.43 1.56 10.79-2 4.62-5 8.54-4.89 13.16.13 3.35 3.65 6.34 4.35 10.84 2 6.09-3.2 9.66-2 12.48 4.3 2 4.53 4.73 5.94 9.59 5.55 7.51-.59 10.14 1.91 10.18 9.36 0 4.33 1.89 6.17 5.78 7.33 8.77 2.61 9.74 4.34 7.39 13.35-.93 3.59-.22 5.72 2.92 7.86 7.47 5.1 7.72 7.3 3 15.11-1.29 2.15-3.44 4.11-1.34 7.14 1 1.46-.82 2.29-1.86 3-1.43 1-2.12-.22-2.7-1.23-2-3.59-1.47-6.93.74-10.3 4-6 4.07-6.31-1.7-10.29-5.06-3.49-5.56-7.92-3.67-13.06 1.42-3.88.41-6-3.75-6.68-7.17-1.19-10.05-5.74-9.72-12.72.14-3-1.23-4.32-4.24-4-1 .11-2-.08-3 .08-5.68.93-9.32-1.45-11.16-6.77-1.47-4.23-4.08-5.34-8-3.06-5.68 3.29-10.56 2.25-14.52-2.85-2.54-3.27-5.08-3.41-7.53-.18-4.34 5.73-9.59 6.07-15.31 2.6-3.65-2.2-5.64-.67-6.71 2.6-2.15 6.52-6.59 8.79-13.06 7.6-4-.74-6 .83-5.86 4.87.18 7.59-4 11.13-11 12.16-2.89.42-3.92 1.88-2.73 4.89 2.79 7.07 1.14 12.64-6 16.17-3 1.5-3.1 3.65-1 6 5.12 5.59 5.2 11.18.13 16.81-2.11 2.33-2.2 4.37.84 5.91 7 3.55 8.82 9.09 5.94 16.18-1.41 3.47.33 4.58 3.18 5.06 6.8 1.14 10.84 4.65 10.61 12 0 .48.31 1 .28 1.46-.13 3 1.5 3.7 4.1 3.44 1.32-.14 2.67.05 4-.11 4.86-.58 7.72 1.62 9.71 6 2.94 6.47 3.22 6.58 9.39 3.51 5-2.49 9.06-1.69 12.39 2.52 3.17 4 5.92 4.45 9.25.12s7.65-5 12.83-2.54c6.14 2.94 6.36 2.69 9.37-3.46 1.79-3.67 3.85-6.65 8.58-6.16 1.53.16 2.56.51 2.52 2.31 0 1.46-.22 2.83-2.08 2.66-3.38-.29-4 2.38-5.11 4.54-4 7.79-6.24 8.92-14 5.16-4.16-2-6.66-1.05-9.58 1.87-5.71 5.72-8.61 5.82-14.09-.08-3.23-3.48-5.94-3.59-10-1.52-6.43 3.31-9.87 2.19-12.71-4.44-2-4.66-4.77-5.84-9.55-5.51-7.66.53-9.1-.74-9.91-8.32-.52-4.91-2.44-7.5-7.5-8.74-7-1.71-8.5-4.46-6.34-11.3 1.61-5.08 0-7.88-4.11-10.6-5.75-3.77-6.36-6.86-2.19-12.37 3.23-4.27 3.12-7.51-.07-11.78-4.26-5.71-3.59-8.69 2.6-12.74 4.13-2.7 5.24-5.5 3.79-10.29C30.1 99.84 32 96.67 39 95.21c4.8-1 6.3-3.58 6.9-8C47 79.1 48.56 78 57.17 78.14z"/><path class="cls-7" d="M87.13 339.44c0-14.08 11.63-26.28 25.21-26.4 14.3-.13 26.62 11.64 26.67 25.46.05 14-11.68 26.3-25.23 26.41-14.32.09-26.62-11.63-26.65-25.47z"/><path class="cls-4" d="M118.64 108.52c-4.15 6.41-8.16 12.64-12.21 18.85Q96.89 142 87.31 156.55c-5.22 7.93-5.23 7.93-15.89 7.23 4.08-6.34 8-12.4 11.89-18.43 6.53-10 13.19-19.95 19.65-30 5.17-8.08 5.04-8.15 15.68-6.83zM80.1 107c8.06 0 13.07 4.82 13 12.46a13 13 0 01-26 0C67 111.73 72 107 80.1 107zm30.04 57.18c-8.08-.14-12.44-4.74-12.23-12.92A12.51 12.51 0 01111 139.17c7.1.29 12.93 6 12.84 12.61-.12 7.47-5.71 12.54-13.7 12.4z"/><path class="cls-6" d="M306.93 404.67c-.07 8.75-7.36 16.3-15.66 16.23-8.72-.08-16.31-7.39-16.25-15.67.06-8.67 7.44-16.32 15.68-16.25 8.73.07 16.3 7.39 16.23 15.69z"/><path d="M266 349.86c-13.34-19.78-31.67-30.29-55.79-29.78-10 .21-19.15 3.64-28 8-2-.61-2.17-2.34-2.46-4a51.43 51.43 0 01-1.1-7.9c-.15-5.69-2.67-9.41-8.49-10.67a69.42 69.42 0 01-6.72-1.93c-6.53-2.11-8.51-5.44-7.11-12.09.58-2.77 1.12-5.56 1.84-8.29 1.18-4.49-.35-7.75-3.91-10.42a88 88 0 01-7.1-5.51c-4.79-4.39-5.24-7.66-1.78-13.13 1.78-2.82 3.42-5.72 5.27-8.49a7 7 0 000-8.37c-2-3.07-4.19-6-5.92-9.25-2.66-5-2.08-8.25 2.15-12a79.46 79.46 0 017.54-5.76c3.85-2.61 4.9-6.06 3.73-10.42-.78-2.89-1.4-5.83-1.89-8.78-1-5.81.59-8.66 6.08-11a51.89 51.89 0 019-2.86c4.31-1 6.51-3.57 7-8 .35-3.3.63-6.62 1.3-9.9 1.17-5.73 3.24-7.55 9.18-7.72 3.66-.1 7.32-.1 11 0a7.77 7.77 0 007.66-4.54 103.74 103.74 0 014.92-9.26c3.31-5 6.35-5.95 12-4a12.8 12.8 0 012.76 1.17c8.13 5.39 14.68 3.08 21.1-3.48 6.63-6.78 9.17-6.56 16.5-.55a10.68 10.68 0 011.95 1.56c5.62 7.34 12 6.28 19.37 2.59 8.55-4.29 12.64-3.07 16.23 5.76 3.52 8.66 8.89 12.26 18 10.76a25.85 25.85 0 015.49 0c4 .2 6.4 2.32 7.5 6.14s1 7.57 1.53 11.36c.62 4.47 2.9 7.26 7.45 8.18a47.25 47.25 0 019 2.86c5 2.13 6.54 4.81 5.85 10.2a90.26 90.26 0 01-2.26 9.73c-1 4.18 0 7.47 3.64 10a76.15 76.15 0 017.93 6c4 3.63 4.55 6.82 2.07 11.58a65.19 65.19 0 01-5.12 8c-2.68 3.68-3 7.17-.25 11 1.92 2.71 3.6 5.61 5.29 8.48 2.71 4.59 2.29 7.34-1.54 11.12a79.23 79.23 0 01-8.2 6.52c-3.6 2.72-5 6-3.66 10.48a62.38 62.38 0 012.06 9.77c.62 5-1.11 7.9-5.74 9.82a41.34 41.34 0 01-8.1 2.53c-5.58 1.05-8.28 4.39-8.63 9.95a46.94 46.94 0 01-1.21 8.9c-1.39 5.38-4.68 7.74-10.2 7.23-.33 0-.66-.12-1-.13-16.26-.7-13.9-.78-20 11.06-4.13 8.06-7.3 9.25-15.59 5.71a45.69 45.69 0 01-4.61-1.93c-4.85-2.73-9.18-2.44-13 1.9a4.27 4.27 0 01-3.01 1.8z" fill="#a3d0f1"/><path class="cls-1" d="M269.86 111.17c11.35-11.23 22.76-22.39 34-33.73 2.44-2.46 4-3.1 7.33-1 11.64 7.41 23.57 7.15 35-.59 2.77-1.87 4.29-1.83 6.65.53q48.13 48.24 96.51 96.24c2.11 2.09 2.11 3.34.51 5.72-8 11.82-8.09 23.91-.4 35.93 1.49 2.32 1.7 3.9-.45 6-9.26 9.09-18.4 18.31-27.5 27.56-1.66 1.69-2.78 2-5 .59-10.38-6.9-21.35-7.5-32.67-2.34-2.81-2.62-2.71-5.35-.61-8.41 2.73-4 5.39-8 7.86-12.12 3.28-5.49 2.22-11-2.8-15-3.64-2.89-7.29-5.81-11.18-8.35-3.22-2.11-3.75-4.67-2.82-8.11 1.18-4.32 2.16-8.69 3.13-13.07 1.39-6.32-1.56-11.62-7.74-13.67-4.56-1.52-9.16-3-13.81-4.15-3.25-.83-4.64-2.7-4.94-5.94-.47-5-1-9.91-1.87-14.82-1-5.81-5.25-9.31-11.14-9.31-3.15 0-6.3.34-9.45.59-10.18.81-10.18.82-14.34-8.65 1-1.29 2.59-1.43 3.94-2 3.39-1.48 5.45-4.06 5.32-7.72a7.53 7.53 0 00-5.14-7.3c-3.7-1.28-6.87-.29-9.4 2.72-.63.75-1.05 1.71-2 2.15-4.8-2.58-9.51-2.27-14.24.25-1.75.93-3.64 1.62-5.47 2.4-9.98 4.26-9.98 4.26-17.28-4.4z"/><path class="cls-1" d="M266 349.86c5.13-6.38 8.27-8.86 17.36-4.5 12.91 6.19 13.2 5.7 19.47-6.92 5-10.13 3.95-8.78 20.06-8.16 5.84.23 8.21-1 9.22-6.75a81.33 81.33 0 001.6-10.8c.19-4.75 3-6.69 7-7.81 3.36-.93 6.68-2 10-3 4.53-1.35 5.9-4.55 5.08-8.89a73.93 73.93 0 00-2.26-9.68c-1.65-4.88-.07-8.38 3.87-11.23 2.69-1.95 5.43-3.85 7.95-6 4.51-3.87 4.73-5.76 1.6-10.68-1.95-3.09-3.87-6.21-5.93-9.23s-2.24-6.06 0-9.21 4.15-6.42 6.3-9.59c2.8-4.14 1.7-7.54-1.93-10.42a85.73 85.73 0 00-8.4-6.24c-4-2.42-4.57-5.89-3.71-9.92.73-3.4 1.81-6.73 2.55-10.14 1-4.53-.45-7.87-5.16-9.31-2.7-.82-5.39-1.67-8.11-2.42-7.37-2-8.86-3.6-9.43-11.35-1.3-17.41-3.06-15-16.32-14.35-7.27.35-11.86-1.71-14.06-8.69a21.13 21.13 0 00-1.56-3.12c-4.07-8.13-6.28-8.92-14.49-5.23-2.27 1-4.59 1.94-6.87 2.95-3.93 1.74-7.26 1.32-10.35-2a79.22 79.22 0 00-8.49-7.67c-3-2.39-6.15-2.31-9.06.17a101.69 101.69 0 00-8.49 7.69c-3.15 3.37-6.55 3.43-10.41 1.72-2.88-1.29-5.75-2.6-8.68-3.78-5.85-2.34-8.31-1.44-11.39 4.2-1.59 2.92-3.07 5.91-4.52 8.91-1.61 3.33-4 5-7.91 4.78s-8-.08-12-.23c-4.62-.17-7.15 1.75-7.57 6.55-.35 3.95-1.38 7.85-1.63 11.8s-2.57 5.83-6.08 6.82-7.05 1.94-10.49 3.16c-5.07 1.79-6.35 4.41-5.26 9.64 3.78 18.11 5.71 14.58-9.21 25.61-4.59 3.39-5.11 6.24-2.35 11.09.33.58.69 1.14 1.05 1.7 9.29 14.43 9.11 9.84-.2 25.06-3.67 6-3.43 8.68 2.32 12.94 13.67 10.13 12.18 7.6 8.62 24.13-1.47 6.82-.35 9 6.39 11 2.39.72 4.8 1.36 7.16 2.13 7.19 2.37 8.24 3.72 8.75 11.38.27 4.14.64 8.25 2.2 12.15l-12.67 9.44c-.53-4.34-1.1-8.22-1.47-12.12-.52-5.6-3.41-9.25-8.73-10.94-4.59-1.45-9.19-2.91-13.83-4.2-3.84-1.07-5-3.28-3.94-7.11 1.21-4.32 2.12-8.72 3.16-13.08 1.35-5.6-.12-10.17-4.84-13.62-3.76-2.76-7.44-5.63-11.2-8.37-3-2.18-3.4-4.64-1.32-7.7 2.53-3.71 4.88-7.54 7.41-11.25 3.51-5.16 3.42-10.19-.1-15.3-2.26-3.29-4.41-6.66-6.56-10-3.24-5.07-3-6.07 1.9-9.79 3.32-2.51 6.64-5 10-7.47 4.72-3.47 6.1-8.09 4.78-13.66-1.07-4.52-2.06-9.07-3.25-13.57-.92-3.46.38-5.41 3.67-6.39 4.3-1.27 8.56-2.71 12.88-3.89 6.17-1.7 9.63-5.42 10.09-12 .31-4.47 1.21-8.9 1.67-13.37.37-3.54 2.22-5 5.66-4.72 4 .27 8 .41 12 .73 8.07.65 11.64-1.27 15.25-8.36 1.65-3.26 3.25-6.55 4.92-9.81 2.7-5.28 3.79-5.67 9.4-3.31 4 1.68 7.93 3.43 11.91 5.11 4.76 2 9.15 1.33 13-2.15q5.36-4.87 10.53-9.95c2.79-2.75 5.37-2.82 8.18 0 3.19 3.17 6.56 6.16 9.79 9.28 4.33 4.19 9.17 5 14.65 2.51 3.94-1.78 8-3.3 11.9-5.14 3.74-1.75 6.3-1 8.07 2.85 1.88 4.07 4 8 6 12 2.6 5.1 6.61 7.72 12.48 7.25 4.65-.37 9.31-.58 14-.9 3.38-.22 5.37 1.13 5.77 4.67.47 4.29 1.16 8.57 1.61 12.87.8 7.59 3 10.34 10.54 12.64 4.12 1.27 8.24 2.58 12.39 3.78 3.6 1 4.7 3.26 3.77 6.82-1.18 4.5-2.19 9.05-3.28 13.57-1.26 5.23.15 9.56 4.4 12.86 3.82 3 7.68 5.86 11.59 8.67 3.2 2.3 3.59 4.88 1.39 8.1-2.63 3.85-5.13 7.78-7.66 11.69-3 4.68-3 9.33.08 14 2.49 3.73 4.85 7.56 7.4 11.26 2.31 3.34 2.15 6-1.37 8.47s-6.89 5.24-10.4 7.76c-5.06 3.61-6.91 8.25-5.24 14.34 1.15 4.16 1.86 8.44 3 12.6s-.42 6.34-4.31 7.43c-4.16 1.17-8.29 2.44-12.44 3.64-6.14 1.78-9.45 5.74-9.87 12.23-.27 4.14-1 8.26-1.45 12.39-.43 3.81-2.4 5.58-6.34 5.3-4.32-.32-8.67-.17-13-.61-6.29-.63-10.57 1.85-13.26 7.49-1.86 3.9-4 7.67-5.81 11.59-1.73 3.77-4.15 4.84-8 3-3.59-1.74-7.36-3.1-10.93-4.87-4.27-2.11-8.51-3-12.8-.35-1.72 1.06-2.24.25-2.88-1.16-1.45-3.19-3.02-6.3-4.52-9.44z"/><path class="cls-1" d="M157.07 381.65A56 56 0 11213 437.92a55.56 55.56 0 01-55.93-56.27zm38.02 59.49c-1.6 1.33-3.51.76-5.29.77q-32.2.06-64.42 0h-3c-1.77 0-3.33 0-3.33 2.49s1.56 2.51 3.33 2.51h32.46c15 0 30 .07 44.95-.07 3.18 0 4.31.79 4.32 4.16 0 9.88.18 9.89-9.52 9.89-46.45 0-92.9-.05-139.34.1-4.19 0-5.38-1.14-5.25-5.28.28-8.8.06-8.81 8.64-8.81H92.1c1.68 0 3.87.69 4-2.32.1-3.32-2.3-2.58-4.1-2.58a32.37 32.37 0 00-6 0c-4.95.77-6.2-1.29-6-6 .37-8.08.08-8 8.38-8.09q40.92-.45 81.84-1c7.51 6.09 15.4 11.52 24.87 14.23zM349 342.94a29.84 29.84 0 002.68-2.2c1.09-1.1 2-1.38 3.45-.39s2 1.95 1.34 3.73c-1.84 5.15-3.39 10.42-5.32 15.54-1.6 4.24-1.08 7.89 1.32 11.77 12.31 19.92 24.44 39.95 36.61 60 .57.94 1.66 1.71 1.24 3.47-5.8.32-11.69.81-17.59.93-9 .18-17.95.05-26.93.19-2.59 0-3.91-.47-3.93-3.51-.2-27.42-.54-54.84-.84-82.26a14 14 0 007.97-7.27zm-183.8 78.14c-.84 1.08-2 .94-3.21.95q-53.43.45-106.88 1c-3.07 0-3.94-1-4-4-.34-13.06-.44-13.06 12.33-13.06h92.44a82.79 82.79 0 009.32 15.11z"/><path class="cls-9" d="M386.83 250.87c6.82-5 21.12-4.09 26.88 1.51 1.35 1.3 1.06 2.18 0 3.28-4.69 4.69-9.2 9.58-14.11 14-3.52 3.19-4.17-2.38-6.65-2.74 1.24-6.58-3.34-10.98-6.12-16.05z"/><path d="M377.24 309c3.28 3.17 3.74 7.69 5.23 11.64 1.13 3-1.42 2.1-2.93 1.67-7.41-2.07-14-1.22-19.44 4.86-1.3 1.47-3.25 2.37-4.52 3.86-1.77 2.09-3.1.95-4.58-.15-.22-8.75.06-9.15 8.06-11.57 3.17-1 6.33-2 9.53-2.83 4.12-1.13 7.13-3.42 8.65-7.48z" fill="#fcfcfc"/><path d="M306.86 112.92c.77-5.22 4.62-6.62 9-6.71a9.29 9.29 0 013.6 17.71 11.46 11.46 0 01-5.3 1.16c-1.3-2.25-2.89-4.36-3.19-7.06 1.55-.72 2.86.58 4.35.48a2.92 2.92 0 003.05-2.67 2.54 2.54 0 00-1.54-2.85 2.86 2.86 0 00-3.9 1.1c-.85 1.22-.69 2.94-1.93 4z" fill="#88c5ec"/><path class="cls-12" d="M420 134l60.19 39.85c.41.27 1.11.54 1.16.89.75 5.72-4.25 8.61-6.61 12.76-1.62 2.85-3.05-.4-4-1.37q-25.95-25.47-51.75-51.1c-.32-.92-.08-1.37 1.01-1.03z"/><path class="cls-13" d="M328.63 76.89c-6.06-.5-10.92-1.86-15.38-4.68-2-1.25-2-2.15-.42-3.72 4.63-4.52 9.2-9.08 13.68-13.73 1.62-1.68 2.83-1.8 4.5-.07 4.26 4.4 8.56 8.78 13 13 2.05 1.91 1.21 3-.47 4.23-4.66 3.48-10.16 4.44-14.91 4.97z"/><path class="cls-9" d="M448.89 196.14a27.83 27.83 0 014.87-14.91c1.34-2 2.24-1.86 3.76-.31q6.27 6.44 12.73 12.67c1.61 1.56 2 2.75.2 4.5-4.55 4.38-9 8.87-13.4 13.4-1.86 1.92-3 1.42-4.16-.65-2.6-4.57-4.24-9.36-4-14.7z"/><path d="M444 234q-9.29 14.07-18.57 28.12c-2.7 4.08-4.47-.08-6.42-.95-2.82-1.25-1.11-2.72.23-4.05q12-11.91 24-23.84z" fill="#fafbfb"/><path d="M292 80.06c4-6.1 8.14-12.16 12.08-18.33 1.54-2.41 3-3.26 5.57-1.32 2.89 2.21.28 3.62-.82 4.77-5.16 5.4-10.52 10.61-15.81 15.89-.96.26-1.4.02-1.02-1.01z" fill="#fbfcfe"/><path d="M292 80.06l1 1-3.13 3.65a5.43 5.43 0 012.13-4.65z" fill="#d1e8f7"/><path d="M420 134l-1 1-3.66-3.15A5.58 5.58 0 01420 134z" fill="#d9edf9"/><path d="M446.68 230.72c-.46.32-.94.89-1.5 1s-.73-.54-.37-.94a9.83 9.83 0 011.55-1.14c.09.29.17.59.32 1.08z" fill="#b2daf3"/><path class="cls-1" d="M458.18 411.78c.15 1.52-1.22 1.87-2.1 2.41q-24.82 15.29-49.69 30.51c-1.91 1.18-3 .56-4-1.13Q385.2 415.25 367.92 387c-1.5-2.44.09-3.21 1.67-4.17q24.44-15 48.87-29.93c1.67-1 3-1.34 4.16.59q17.43 28.47 34.89 56.94c.26.4.43.87.67 1.35zm-71.27-66.95a7.44 7.44 0 00-4-6c-2.74-1.49-5.19-.9-7.37 1-1.41 1.2-2.54 2.37-4.71 2.23-6.18-.4-7.6-2.29-5.69-8.06 2.6-7.85 2.62-8 11.08-7 9.88 1.2 19.71 2.79 29.57 4.15 3.63.5 5.16 3.18 6.78 6 5.89 10.1 5.88 10-4 16q-20.3 12.27-40.42 24.78c-3.07 1.91-4.44 1.67-6.88-1.55-5.57-7.35-7.34-14.56-2.6-22.82.08-.14.06-.35.17-.46 2.25-2.36-.53-8.86 5.5-7.72 3.5.66 7.63.62 10.43 4 2.05 2.46 4.94 3.56 8.06 2a7.51 7.51 0 004.08-6.55zM112.64 359c-10.92 0-19.51-8.91-19.55-20.27 0-11.13 9-19.79 20.63-19.69 10.83.1 19.39 9.18 19.32 20.52C133 350.38 124 359 112.64 359z"/><path class="cls-19" d="M80 124.22c-3.22-.21-5-1.77-4.94-5s1.78-5 4.88-5.08c3.38 0 5.09 2.1 5.08 5.38s-2.02 4.62-5.02 4.7z"/><path d="M115.93 151.58c-.66 3-1.81 5.44-5.35 5.47-3.28 0-5-2.19-5-5a4.67 4.67 0 014.9-5.09c3.12-.05 4.8 1.68 5.45 4.62z" fill="#fbfcfc"/><path class="cls-12" d="M291.6 394c5.94.1 10.56 5.32 10.38 11.74-.16 5.77-5.1 10.23-11.35 10.25-6 0-10.69-5-10.63-11.47.05-6.04 5.16-10.67 11.6-10.52z"/><path class="cls-2" d="M302 241.74c0-6 .11-12 0-18-.07-2.69.56-3.87 3.55-3.81 8.66.18 17.33.24 26 0 3.61-.11 3.49 1.78 3.57 4.32s-.57 3.92-3.57 3.82c-5.65-.21-11.33.15-17-.13-4.66-.24-3.39 2.92-3.48 5.32s-.75 5.09 3.49 4.82c5.31-.34 10.66.14 16-.16 3.64-.2 3.46 1.82 3.55 4.34.11 2.69-.58 3.91-3.56 3.8-5.33-.21-10.67.16-16-.12-4.68-.25-3.36 3-3.47 5.33s-.72 5.06 3.5 4.8c5.65-.34 11.33.14 17-.15 3.67-.19 3.43 1.85 3.54 4.34.12 2.72-.62 3.85-3.58 3.79q-13-.26-26 0c-3 .06-3.6-1.18-3.54-3.83.07-6.15 0-12.32 0-18.48z"/><path class="cls-7" d="M213.29 263.19c6.2-13.78 12.34-27.58 18.65-41.31 1.32-2.87 9.22-2.83 10.55.07 6 13.15 11.9 26.38 17.81 39.59.38.85 1 1.73-.42 2.39-3 1.38-8.46-.31-9.55-3.46-1.24-3.58-3.3-4.88-7.05-4.53a53.86 53.86 0 01-10.47 0c-4.68-.47-7.69.58-9.35 5.61s-6.46 1.08-9.46 2.75zm-19.93-44.46c5 0 9.67.77 13.37 4.41 1.17 1.15 3.66 2.61 1.81 4.36-1.65 1.54-4 4.06-6.88 1.34-3.36-3.13-7.53-3.28-11.73-2.75-3 .38-5.61 1.92-5.69 5.26-.07 3 2.4 4.16 5 4.69 3.57.74 7.2 1.25 10.76 2 7.1 1.55 11 5.86 11.15 12.1.16 6.9-3.16 11.54-10.27 13.38-8.94 2.32-17.56 2.13-24.29-5.49-1.07-1.21-3.75-3-.87-4.77 1.89-1.14 4-3.95 6.75-.46 4.08 5.15 9.91 4.85 15.6 3.81a5.61 5.61 0 004.93-5.51c.13-3-1.76-4.64-4.35-5.32-3.84-1-7.78-1.62-11.64-2.58-7.82-1.94-11.31-6-10.95-12.59.35-6.25 5.37-10.83 12.82-11.65 1.48-.14 2.98-.15 4.48-.23z"/><path class="cls-2" d="M266 242c0-6.17.21-12.34-.07-18.49-.17-3.6 1.75-3.5 4.31-3.58s3.88.56 3.82 3.56c-.17 8.82.32 17.67-.21 26.47-.32 5.35 1.57 6.56 6.4 6.1 4.12-.39 8.33.11 12.48-.13 3.32-.2 3.3 1.68 3.3 4s.05 4.16-3.28 4.08c-7.82-.21-15.66-.17-23.48 0-2.75.05-3.36-1.08-3.31-3.55.13-6.12.04-12.28.04-18.46z"/><path d="M294.88 190c-1.44-.18-3.87.95-4-2.72s2.17-3.35 4.46-3.24c1.94.08 4.36-.84 4.49 2.75s-2.18 3.3-4.95 3.21z" fill="#5e6073"/><path class="cls-22" d="M244 190c-3 .23-4.91.27-4.86-3 .06-4 2.84-2.7 4.86-2.87 2.22-.2 4.11-.24 4.08 3.11-.01 3.99-2.86 2.4-4.08 2.76zm-18.08 0c-1.5-.09-3.82.73-3.89-2.84-.08-3.86 2.42-3.14 4.6-3.13 2 0 4.32-.72 4.38 2.85.07 3.85-2.38 3.12-5.09 3.12z"/><path class="cls-23" d="M209.42 300c-2.3 0-4.45.56-4.49-2.94-.05-3.91 2.51-3 4.63-3.05s4.29-.56 4.32 2.93c.03 3.86-2.54 2.93-4.46 3.06z"/><path class="cls-22" d="M226.22 300c-1.77-.13-4.12.77-4.2-2.83-.09-3.83 2.37-3.2 4.58-3.16 2 0 4.32-.75 4.4 2.83.09 3.82-2.36 3.16-4.78 3.16z"/><path d="M243.81 294c2.09 0 4.25-.59 4.29 2.92.05 3.91-2.5 3-4.62 3.07s-4.3.6-4.33-2.92c-.02-3.86 2.52-3 4.66-3.07z" fill="#5f6073"/><path class="cls-23" d="M295.72 294c1.71.1 4-.7 4.13 2.84.1 3.82-2.37 3.19-4.59 3.15-2 0-4.28.76-4.36-2.83-.09-3.85 2.32-3.16 4.82-3.16zm-86.41-110c2.42 0 4.58-.5 4.58 3 0 3.9-2.61 2.95-4.73 3s-4.21.5-4.22-3c-.02-3.9 2.59-2.8 4.37-3z"/><path d="M312.11 299.94c-2.41.2-4.07.13-4.12-2.91-.05-3.49 2.11-3 4.26-3.07s3.79-.08 3.82 3c.02 3.42-1.99 3.16-3.96 2.98z" fill="#5e5e73"/><path d="M312.49 184c2.05-.24 3.54 0 3.57 3 .05 3.54-2.19 2.91-4.28 3s-3.77 0-3.78-3c0-3.5 2.19-3 4.49-3z" fill="#5e5e72"/><path class="cls-2" d="M278.35 190c-2.56.15-4.59.37-4.53-3.08.05-3.17 1.94-2.95 4-2.86s4.44-.78 4.48 2.87c.01 3.38-2 3.22-3.95 3.07z"/><path class="cls-7" d="M260.78 190c-2.52.3-4.18-.11-4-3.32.16-3.74 2.79-2.43 4.68-2.65 2.23-.25 3.73.1 3.76 3.07-.02 3.71-2.49 2.75-4.44 2.9z"/><path class="cls-2" d="M261.9 300c-2.86-.07-5.16.6-5.18-3s2.19-3.07 4.32-3c1.88 0 4.07-.64 4.12 2.69.05 3.17-1.5 3.67-3.26 3.31zm16.15 0c-2.21.11-4.28.37-4.22-3.09.05-3.16 1.92-3 4-2.87s4.42-.78 4.5 2.86c.02 3.4-2.03 3.18-4.28 3.1z"/><path d="M400 208a9.92 9.92 0 119.81 9.89A10 10 0 01400 208z" fill="#89c6ed"/><path d="M358.33 116.05c1.64 0 3.43-.29 3.53 2.28.1 2.31-1.13 2.78-3.08 2.78s-3.76.22-3.82-2.53c-.05-2.49 1.67-2.46 3.37-2.53z" fill="#8ec8ed"/><path d="M399.92 185c-1.26-.75-3.35-.89-2.73-2.88.53-1.7.87-4.21 3.53-3.89 1.22.15 3.37.52 2.6 2.62-.61 1.62-.86 3.94-3.4 4.15z" fill="#8ec7ec"/><path class="cls-30" d="M391.62 195.58c-1.46-.69-2.83-1.69-2.56-3.26a4.34 4.34 0 013.6-3.58c1.55-.15 3.47 1 3.16 3s-2.63 2.71-4.2 3.84z"/><path d="M404.69 144.32a2.87 2.87 0 01-3.5 2.32c-2.2-.39-2.71-2.76-3-4.59-.2-1.53 1.63-2.31 2.81-2.23 2.85.18 2.13 3.35 3.69 4.5z" fill="#8dc8ed"/><path class="cls-30" d="M393.55 128.57c1.74 1.12 3.41 2.46 3.75 4.48.31 1.85-1.88 2.81-2.92 2.64-2-.34-3.4-2.32-3.77-4.12-.24-1.19 1.44-2.44 2.94-3z"/><path d="M387 124.61c-.59 1.2-.87 3.28-2.24 2.86-1.82-.55-4.48-1.07-4.46-3.77 0-1.07.67-3.26 2.07-2.89 1.9.49 4.17 1.29 4.63 3.8zm-15.46-2.52c-2.12-.2-3.87-.67-3.44-3.23.47-2.81 2.69-1.75 4.33-1.77 1.79 0 2.87.78 2.39 2.75-.42 1.78-1.24 3.16-3.28 2.25z" fill="#8dc8ee"/><path d="M407.53 156.27c.46 2.19-.47 2.73-2.08 2.84-2.89.19-3.12-1.91-3.37-3.89-.32-2.51 1.95-2.67 3.32-2.72 3.03-.11.75 3.13 2.13 3.77z" fill="#91c9ed"/><path d="M348.94 121.92c-.59 2.26-2.66 2.74-4.54 2.94-1.62.17-2.18-1.63-2.19-2.81 0-2.87 2.71-2.45 4.38-2.85s2.1 1.19 2.35 2.72zM407 169.15c-.3 1.41.38 3.63-2.42 3.24-1.94-.28-2.94-1.24-2.61-3.38.23-1.54.23-3 2.4-3.06s2.98 1.05 2.63 3.2z" fill="#8cc8ee"/><path d="M382.78 196.3c1.91.29 2.3 1.88 2.77 3.17s-.72 1.85-1.64 1.9c-2 .12-2.11-1.75-2.6-3s.69-1.62 1.47-2.07z" fill="#98ccee"/><path d="M337.78 127.91c-.15 1.24-.73 2-1.58 1.89a3.05 3.05 0 01-2.85-2.88 1.61 1.61 0 012-1.61c1.35.34 1.9 1.69 2.43 2.6z" fill="#93caee"/><path class="cls-7" d="M215.22 419.65c-5 1.12-7.07-.31-6.21-4.91.65-3.48-2.29-3.07-4.15-3.42-7-1.31-12.85-4.2-17.23-10-1.95-2.58-1.69-3.58 1.34-4.94 4.08-1.83 6.71-2 10.66 1.43 7.08 6.14 15.9 6 24.48 2.65 3.1-1.23 5.14-3.62 5-7.31s-2.61-5.14-5.5-6.31C219 384.94 214 384.66 209 384a41.53 41.53 0 01-12-3 14.72 14.72 0 01-2.36-25.65 21.89 21.89 0 0110-4.2c3.23-.4 4.88-1.41 4.42-4.93-.65-4.93 3.23-3.19 5.34-3.09s6.1-2.13 5.6 2.87c-.41 3.77 1.3 4.7 4.62 5.35a19.79 19.79 0 0112.4 7.77c1.32 1.77 1.32 2.81-.86 3.66-3.6 1.39-6.48 3.1-10.78-.09-6-4.46-13.44-4.3-20.55-1.76-3.06 1.1-5.1 3.15-5 6.68s2.48 5 5.41 5.64c5.2 1.06 10.48 1.74 15.69 2.73a58.33 58.33 0 019.18 2.26c6 2.17 10.3 6 10.92 12.87.67 7.37-2.17 13-8.5 16.74a17.34 17.34 0 01-5.94 2.44c-4.61.68-7.39 2-6.77 7.69.41 3.78-3.63 1.02-4.6 1.67z"/><path d="M311 118.06c-.16-2.92-.19-5.83 3.35-6.86a4.47 4.47 0 014.17 7.61c-2.8 2.63-5.16.7-7.55-.79z" fill="#fafcfd"/><path class="cls-4" d="M410.1 371c14 .11 25.81 11.59 25.74 25.14-.08 14.09-11.5 25.78-25.11 25.7-14.16-.08-25.71-11.32-25.72-25.05-.01-13.9 11.62-25.86 25.09-25.79z"/><path d="M237.21 229.52c2.56 5.85 4.59 10.72 6.82 15.49 1.17 2.51.42 3.14-2.11 3q-4.69-.21-9.41 0c-2.44.1-3.37-.4-2.15-3 2.23-4.72 4.25-9.56 6.85-15.49z" fill="#a2ceef"/><path class="cls-19" d="M410.46 213.17c-3.27-.7-5.43-2.2-5.42-5.29a4.49 4.49 0 014.7-4.76 4.77 4.77 0 015.08 5c.07 2.88-2.3 4.05-4.36 5.05z"/><path class="cls-13" d="M430.94 397c-.06 11.08-9.66 20.12-21.23 20-10.81-.12-19.83-9.66-19.79-20.94 0-10.76 9.68-20.11 20.72-20.08s20.36 9.58 20.3 21.02z"/><path d="M410.31 404.76a19.15 19.15 0 003.09-.83c3.11-1.39 6.76-3.14 5.17-7.17-1.43-3.62-4.83-1.4-7.44-.74a24.69 24.69 0 00-3.31 1.1c-2.94 1.22-5.57 1-7.54-1.73s-.87-5.32 1.21-7.59c.22-.24.64-.46.66-.72.71-6.85 6.13-2.79 9.27-4a1.55 1.55 0 011.95 1.15c.19 1.3-.92 1.69-1.92 1.65a10.81 10.81 0 00-6.94 2.39c-1.58 1.13-2.6 2.64-1.6 4.71s2.77 2.13 4.66 1.46c2.81-1 5.47-2.48 8.55-2.56 5.1-.14 7.73 4.14 5.57 8.78-1 2.19-4.53 3.3-3 6.67a4.51 4.51 0 01-1.4 1c-2.33-2.36-5-.84-7.53-.85-1.18 0-3.64.17-3.38-1.89s2.23-1.23 3.93-.83z" fill="#8ac6ed"/></svg>