<svg width="1170" height="390" viewBox="0 0 1170 390" fill="none" xmlns="http://www.w3.org/2000/svg">
<g clip-path="url(#clip0_503_5172)">
<path d="M124.03 387.48C124.03 387.48 -8.41641 262.326 129.968 193.99C217.69 150.657 196.691 139.886 225.004 80.0498C259.715 6.70177 432.163 -48.3162 504.23 64.1563C557.294 146.946 587.417 145.174 626.149 130.665C670.55 114.024 709.094 78.167 761.808 102.949C837.545 138.557 848.477 214.314 896.845 197.811C1026.3 153.592 1077.28 347.553 962.245 388.505L124.03 387.48Z" fill="#EAF1F8"/>
<path d="M773.684 48.2075H713.979V346.002H773.684V48.2075Z" fill="#C4D9ED"/>
<path d="M787.099 48.2075H727.394V346.002H787.099V48.2075Z" fill="#D5E7F7"/>
<path d="M787.099 48.1245H727.421V65.3193H787.099V48.1245Z" fill="#C4D9ED"/>
<path d="M787.099 85.4492H727.421V102.644H787.099V85.4492Z" fill="#C4D9ED"/>
<path d="M787.099 122.774H727.421V139.969H787.099V122.774Z" fill="#C4D9ED"/>
<path d="M787.099 160.071H727.421V177.266H787.099V160.071Z" fill="#C4D9ED"/>
<path d="M787.099 197.396H727.421V214.59H787.099V197.396Z" fill="#C4D9ED"/>
<path d="M787.099 234.72H727.421V251.915H787.099V234.72Z" fill="#C4D9ED"/>
<path d="M787.099 272.045H727.421V289.24H787.099V272.045Z" fill="#C4D9ED"/>
<path d="M787.099 309.37H727.421V326.565H787.099V309.37Z" fill="#C4D9ED"/>
<path d="M869.125 90.3502H809.42V346.002H869.125V90.3502Z" fill="#C4D9ED"/>
<path d="M882.513 90.3502H822.808V346.002H882.513V90.3502Z" fill="#D5E7F7"/>
<path d="M882.513 90.2671H822.835V105.053H882.513V90.2671Z" fill="#C4D9ED"/>
<path d="M882.513 122.303H822.835V137.089H882.513V122.303Z" fill="#C4D9ED"/>
<path d="M882.513 154.339H822.835V169.125H882.513V154.339Z" fill="#C4D9ED"/>
<path d="M882.513 186.403H822.835V201.189H882.513V186.403Z" fill="#C4D9ED"/>
<path d="M882.513 218.439H822.835V233.225H882.513V218.439Z" fill="#C4D9ED"/>
<path d="M882.513 250.475H822.835V265.261H882.513V250.475Z" fill="#C4D9ED"/>
<path d="M882.513 282.511H822.835V297.297H882.513V282.511Z" fill="#C4D9ED"/>
<path d="M882.513 314.548H822.835V329.334H882.513V314.548Z" fill="#C4D9ED"/>
<path d="M681.691 374.231H706.685V336.851H681.691V374.231Z" fill="#DCEAF9"/>
<path d="M338.881 187.4V164.501H345.71V125.127H382.364V164.501H416.616V100.346H454.431V141.99H463.041V92.2884H500.856V185.489H548.657V239.843H566.526V253.549H607.552V229.958H631.116V165.886H660.212V284.173H689.309V387.093H660.212H635.272H631.116H607.552H594.246H572.895H566.526H548.657H531.869H500.856H491.355H472.434H463.041H454.431H434.619H421.15H416.616H382.364H346.33H345.71H338.881H309.676V187.4H338.881Z" fill="#D5E7F7"/>
<path d="M660.212 166.55H630.846V181.336H660.212V166.55Z" fill="#C4D9ED"/>
<path d="M660.212 188.535H630.846V203.321H660.212V188.535Z" fill="#C4D9ED"/>
<path d="M660.212 210.52H630.846V225.306H660.212V210.52Z" fill="#C4D9ED"/>
<path d="M660.212 233.585H630.846V248.371H660.212V233.585Z" fill="#C4D9ED"/>
<path d="M660.212 255.902H630.846V270.688H660.212V255.902Z" fill="#C4D9ED"/>
<path d="M660.212 278.247H630.846V293.033H660.212V278.247Z" fill="#C4D9ED"/>
<path d="M660.212 301.617H630.846V316.403H660.212V301.617Z" fill="#C4D9ED"/>
<path d="M631.251 166.55H620.427V231.176H631.251V166.55Z" fill="#C4D9ED"/>
<path d="M607.552 231.148H585.77V254.933H607.552V231.148Z" fill="#C4D9ED"/>
<path d="M416.616 100.457H409.112V165.138H416.616V100.457Z" fill="#C4D9ED"/>
<path d="M463.041 92.2884H458.425V142.405H463.041V92.2884Z" fill="#C4D9ED"/>
<path d="M500.856 98.6291H463.041V108.209H500.856V98.6291Z" fill="#C4D9ED"/>
<path d="M500.856 116.627H463.041V126.207H500.856V116.627Z" fill="#C4D9ED"/>
<path d="M500.856 132.825H463.041V142.405H500.856V132.825Z" fill="#C4D9ED"/>
<path d="M454.431 132.825H416.616V142.405H454.431V132.825Z" fill="#C4D9ED"/>
<path d="M454.431 116.627H416.616V126.207H454.431V116.627Z" fill="#C4D9ED"/>
<path d="M454.431 100.457H416.616V110.037H454.431V100.457Z" fill="#C4D9ED"/>
<path d="M500.856 148.525H416.616V158.105H500.856V148.525Z" fill="#C4D9ED"/>
<path d="M500.856 164.224H416.616V173.805H500.856V164.224Z" fill="#C4D9ED"/>
<path d="M500.856 179.564H416.616V185.655H500.856V179.564Z" fill="#C4D9ED"/>
<path d="M540.83 195.734H534.433V205.01H540.83V195.734Z" fill="#C4D9ED"/>
<path d="M528.846 195.734H522.449V205.01H528.846V195.734Z" fill="#C4D9ED"/>
<path d="M517.131 195.734H510.734V205.01H517.131V195.734Z" fill="#C4D9ED"/>
<path d="M506.011 195.734H499.614V205.01H506.011V195.734Z" fill="#C4D9ED"/>
<path d="M494.702 195.734H488.305V205.01H494.702V195.734Z" fill="#C4D9ED"/>
<path d="M483.257 195.734H476.86V205.01H483.257V195.734Z" fill="#C4D9ED"/>
<path d="M471.273 195.734H464.876V205.01H471.273V195.734Z" fill="#C4D9ED"/>
<path d="M459.559 195.734H453.162V205.01H459.559V195.734Z" fill="#C4D9ED"/>
<path d="M448.438 195.734H442.042V205.01H448.438V195.734Z" fill="#C4D9ED"/>
<path d="M437.129 195.734H430.732V205.01H437.129V195.734Z" fill="#C4D9ED"/>
<path d="M425.334 195.734H418.937V205.01H425.334V195.734Z" fill="#C4D9ED"/>
<path d="M413.35 195.734H406.953V205.01H413.35V195.734Z" fill="#C4D9ED"/>
<path d="M401.609 195.734H395.212V205.01H401.609V195.734Z" fill="#C4D9ED"/>
<path d="M390.515 195.734H384.118V205.01H390.515V195.734Z" fill="#C4D9ED"/>
<path d="M379.179 195.734H372.782V205.01H379.179V195.734Z" fill="#C4D9ED"/>
<path d="M367.734 195.734H361.338V205.01H367.734V195.734Z" fill="#C4D9ED"/>
<path d="M355.75 195.734H349.353V205.01H355.75V195.734Z" fill="#C4D9ED"/>
<path d="M344.036 195.734H337.639V205.01H344.036V195.734Z" fill="#C4D9ED"/>
<path d="M332.943 195.734H326.546V205.01H332.943V195.734Z" fill="#C4D9ED"/>
<path d="M321.606 195.734H315.209V205.01H321.606V195.734Z" fill="#C4D9ED"/>
<path d="M540.83 212.098H534.433V221.374H540.83V212.098Z" fill="#C4D9ED"/>
<path d="M528.846 212.098H522.449V221.374H528.846V212.098Z" fill="#C4D9ED"/>
<path d="M517.131 212.098H510.734V221.374H517.131V212.098Z" fill="#C4D9ED"/>
<path d="M506.011 212.098H499.614V221.374H506.011V212.098Z" fill="#C4D9ED"/>
<path d="M494.702 212.098H488.305V221.374H494.702V212.098Z" fill="#C4D9ED"/>
<path d="M483.257 212.098H476.86V221.374H483.257V212.098Z" fill="#C4D9ED"/>
<path d="M471.273 212.098H464.876V221.374H471.273V212.098Z" fill="#C4D9ED"/>
<path d="M459.559 212.098H453.162V221.374H459.559V212.098Z" fill="#C4D9ED"/>
<path d="M448.438 212.098H442.042V221.374H448.438V212.098Z" fill="#C4D9ED"/>
<path d="M437.129 212.098H430.732V221.374H437.129V212.098Z" fill="#C4D9ED"/>
<path d="M425.334 212.098H418.937V221.374H425.334V212.098Z" fill="#C4D9ED"/>
<path d="M413.35 212.098H406.953V221.374H413.35V212.098Z" fill="#C4D9ED"/>
<path d="M401.609 212.098H395.212V221.374H401.609V212.098Z" fill="#C4D9ED"/>
<path d="M390.515 212.098H384.118V221.374H390.515V212.098Z" fill="#C4D9ED"/>
<path d="M379.179 212.098H372.782V221.374H379.179V212.098Z" fill="#C4D9ED"/>
<path d="M367.734 212.098H361.338V221.374H367.734V212.098Z" fill="#C4D9ED"/>
<path d="M355.75 212.098H349.353V221.374H355.75V212.098Z" fill="#C4D9ED"/>
<path d="M344.036 212.098H337.639V221.374H344.036V212.098Z" fill="#C4D9ED"/>
<path d="M332.943 212.098H326.546V221.374H332.943V212.098Z" fill="#C4D9ED"/>
<path d="M321.606 212.098H315.209V221.374H321.606V212.098Z" fill="#C4D9ED"/>
<path d="M540.83 228.186H534.433V237.462H540.83V228.186Z" fill="#C4D9ED"/>
<path d="M528.846 228.186H522.449V237.462H528.846V228.186Z" fill="#C4D9ED"/>
<path d="M517.131 228.186H510.734V237.462H517.131V228.186Z" fill="#C4D9ED"/>
<path d="M506.011 228.186H499.614V237.462H506.011V228.186Z" fill="#C4D9ED"/>
<path d="M494.702 228.186H488.305V237.462H494.702V228.186Z" fill="#C4D9ED"/>
<path d="M483.257 228.186H476.86V237.462H483.257V228.186Z" fill="#C4D9ED"/>
<path d="M471.273 228.186H464.876V237.462H471.273V228.186Z" fill="#C4D9ED"/>
<path d="M459.559 228.186H453.162V237.462H459.559V228.186Z" fill="#C4D9ED"/>
<path d="M448.438 228.186H442.042V237.462H448.438V228.186Z" fill="#C4D9ED"/>
<path d="M437.129 228.186H430.732V237.462H437.129V228.186Z" fill="#C4D9ED"/>
<path d="M425.334 228.186H418.937V237.462H425.334V228.186Z" fill="#C4D9ED"/>
<path d="M413.35 228.186H406.953V237.462H413.35V228.186Z" fill="#C4D9ED"/>
<path d="M401.609 228.186H395.212V237.462H401.609V228.186Z" fill="#C4D9ED"/>
<path d="M390.515 228.186H384.118V237.462H390.515V228.186Z" fill="#C4D9ED"/>
<path d="M379.179 228.186H372.782V237.462H379.179V228.186Z" fill="#C4D9ED"/>
<path d="M367.734 228.186H361.338V237.462H367.734V228.186Z" fill="#C4D9ED"/>
<path d="M355.75 228.186H349.353V237.462H355.75V228.186Z" fill="#C4D9ED"/>
<path d="M344.036 228.186H337.639V237.462H344.036V228.186Z" fill="#C4D9ED"/>
<path d="M332.943 228.186H326.546V237.462H332.943V228.186Z" fill="#C4D9ED"/>
<path d="M321.606 228.186H315.209V237.462H321.606V228.186Z" fill="#C4D9ED"/>
<path d="M540.83 245.297H534.433V254.573H540.83V245.297Z" fill="#C4D9ED"/>
<path d="M528.846 245.297H522.449V254.573H528.846V245.297Z" fill="#C4D9ED"/>
<path d="M517.131 245.297H510.734V254.573H517.131V245.297Z" fill="#C4D9ED"/>
<path d="M506.011 245.297H499.614V254.573H506.011V245.297Z" fill="#C4D9ED"/>
<path d="M494.702 245.297H488.305V254.573H494.702V245.297Z" fill="#C4D9ED"/>
<path d="M483.257 245.297H476.86V254.573H483.257V245.297Z" fill="#C4D9ED"/>
<path d="M471.273 245.297H464.876V254.573H471.273V245.297Z" fill="#C4D9ED"/>
<path d="M459.559 245.297H453.162V254.573H459.559V245.297Z" fill="#C4D9ED"/>
<path d="M448.438 245.297H442.042V254.573H448.438V245.297Z" fill="#C4D9ED"/>
<path d="M437.129 245.297H430.732V254.573H437.129V245.297Z" fill="#C4D9ED"/>
<path d="M425.334 245.297H418.937V254.573H425.334V245.297Z" fill="#C4D9ED"/>
<path d="M413.35 245.297H406.953V254.573H413.35V245.297Z" fill="#C4D9ED"/>
<path d="M401.609 245.297H395.212V254.573H401.609V245.297Z" fill="#C4D9ED"/>
<path d="M390.515 245.297H384.118V254.573H390.515V245.297Z" fill="#C4D9ED"/>
<path d="M379.179 245.297H372.782V254.573H379.179V245.297Z" fill="#C4D9ED"/>
<path d="M367.734 245.297H361.338V254.573H367.734V245.297Z" fill="#C4D9ED"/>
<path d="M355.75 245.297H349.353V254.573H355.75V245.297Z" fill="#C4D9ED"/>
<path d="M344.036 245.297H337.639V254.573H344.036V245.297Z" fill="#C4D9ED"/>
<path d="M332.943 245.297H326.546V254.573H332.943V245.297Z" fill="#C4D9ED"/>
<path d="M321.606 245.297H315.209V254.573H321.606V245.297Z" fill="#C4D9ED"/>
<path d="M540.83 261.662H534.433V270.937H540.83V261.662Z" fill="#C4D9ED"/>
<path d="M528.846 261.662H522.449V270.937H528.846V261.662Z" fill="#C4D9ED"/>
<path d="M517.131 261.662H510.734V270.937H517.131V261.662Z" fill="#C4D9ED"/>
<path d="M506.011 261.662H499.614V270.937H506.011V261.662Z" fill="#C4D9ED"/>
<path d="M494.702 261.662H488.305V270.937H494.702V261.662Z" fill="#C4D9ED"/>
<path d="M483.257 261.662H476.86V270.937H483.257V261.662Z" fill="#C4D9ED"/>
<path d="M471.273 261.662H464.876V270.937H471.273V261.662Z" fill="#C4D9ED"/>
<path d="M459.559 261.662H453.162V270.937H459.559V261.662Z" fill="#C4D9ED"/>
<path d="M448.438 261.662H442.042V270.937H448.438V261.662Z" fill="#C4D9ED"/>
<path d="M437.129 261.662H430.732V270.937H437.129V261.662Z" fill="#C4D9ED"/>
<path d="M425.334 261.662H418.937V270.937H425.334V261.662Z" fill="#C4D9ED"/>
<path d="M413.35 261.662H406.953V270.937H413.35V261.662Z" fill="#C4D9ED"/>
<path d="M401.609 261.662H395.212V270.937H401.609V261.662Z" fill="#C4D9ED"/>
<path d="M390.515 261.662H384.118V270.937H390.515V261.662Z" fill="#C4D9ED"/>
<path d="M379.179 261.662H372.782V270.937H379.179V261.662Z" fill="#C4D9ED"/>
<path d="M367.734 261.662H361.338V270.937H367.734V261.662Z" fill="#C4D9ED"/>
<path d="M355.75 261.662H349.353V270.937H355.75V261.662Z" fill="#C4D9ED"/>
<path d="M344.036 261.662H337.639V270.937H344.036V261.662Z" fill="#C4D9ED"/>
<path d="M332.943 261.662H326.546V270.937H332.943V261.662Z" fill="#C4D9ED"/>
<path d="M321.606 261.662H315.209V270.937H321.606V261.662Z" fill="#C4D9ED"/>
<path d="M540.83 277.749H534.433V287.025H540.83V277.749Z" fill="#C4D9ED"/>
<path d="M528.846 277.749H522.449V287.025H528.846V277.749Z" fill="#C4D9ED"/>
<path d="M517.131 277.749H510.734V287.025H517.131V277.749Z" fill="#C4D9ED"/>
<path d="M506.011 277.749H499.614V287.025H506.011V277.749Z" fill="#C4D9ED"/>
<path d="M494.702 277.749H488.305V287.025H494.702V277.749Z" fill="#C4D9ED"/>
<path d="M483.257 277.749H476.86V287.025H483.257V277.749Z" fill="#C4D9ED"/>
<path d="M471.273 277.749H464.876V287.025H471.273V277.749Z" fill="#C4D9ED"/>
<path d="M459.559 277.749H453.162V287.025H459.559V277.749Z" fill="#C4D9ED"/>
<path d="M448.438 277.749H442.042V287.025H448.438V277.749Z" fill="#C4D9ED"/>
<path d="M437.129 277.749H430.732V287.025H437.129V277.749Z" fill="#C4D9ED"/>
<path d="M425.334 277.749H418.937V287.025H425.334V277.749Z" fill="#C4D9ED"/>
<path d="M413.35 277.749H406.953V287.025H413.35V277.749Z" fill="#C4D9ED"/>
<path d="M401.609 277.749H395.212V287.025H401.609V277.749Z" fill="#C4D9ED"/>
<path d="M390.515 277.749H384.118V287.025H390.515V277.749Z" fill="#C4D9ED"/>
<path d="M379.179 277.749H372.782V287.025H379.179V277.749Z" fill="#C4D9ED"/>
<path d="M367.734 277.749H361.338V287.025H367.734V277.749Z" fill="#C4D9ED"/>
<path d="M355.75 277.749H349.353V287.025H355.75V277.749Z" fill="#C4D9ED"/>
<path d="M344.036 277.749H337.639V287.025H344.036V277.749Z" fill="#C4D9ED"/>
<path d="M332.943 277.749H326.546V287.025H332.943V277.749Z" fill="#C4D9ED"/>
<path d="M321.606 277.749H315.209V287.025H321.606V277.749Z" fill="#C4D9ED"/>
<path d="M585.77 306.795H437.237V388.394H585.77V306.795Z" fill="#C4D9ED"/>
<path d="M698.405 347.885H549.872V388.366H698.405V347.885Z" fill="#C4D9ED"/>
<path d="M276.796 388.467H425.33V319.605H276.796V388.467Z" fill="#C4D9ED"/>
<path d="M575.838 316.403H548.171V331.632H575.838V316.403Z" fill="#D5E7F7"/>
<path d="M540.317 316.403H512.651V331.632H540.317V316.403Z" fill="#D5E7F7"/>
<path d="M505.471 316.403H477.805V331.632H505.471V316.403Z" fill="#D5E7F7"/>
<path d="M471.3 316.403H443.634V331.632H471.3V316.403Z" fill="#D5E7F7"/>
<path d="M438.776 306.795H424.524V388.394H438.776V306.795Z" fill="#ADC9E0"/>
<path d="M261.929 290.735H247.677V388.311H261.929V290.735Z" fill="#ADC9E0"/>
<path d="M261.488 388.325H276.792V319.601H261.488V388.325Z" fill="#ADC9E0"/>
<path d="M654.355 160.099H653.573V166.522H654.355V160.099Z" fill="#DCEAF9"/>
<path d="M626.635 160.099H625.852V166.522H626.635V160.099Z" fill="#DCEAF9"/>
<path d="M343.253 290.514H261.497V388.339H343.253V290.514Z" fill="#D5E7F7"/>
<path d="M268.487 270.91H266.976V290.735H268.487V270.91Z" fill="#D5E7F7"/>
<path d="M343.253 317.953H241.253V388.311H343.253V317.953Z" fill="#D5E7F7"/>
<path d="M343.253 308.761H241.253V331.632H343.253V308.761Z" fill="#C4D9ED"/>
<path d="M336.29 338.416H331.053V346.002H336.29V338.416Z" fill="#ADC9E0"/>
<path d="M326.492 338.416H321.255V346.002H326.492V338.416Z" fill="#ADC9E0"/>
<path d="M316.937 338.416H311.701V346.002H316.937V338.416Z" fill="#ADC9E0"/>
<path d="M307.841 338.416H302.604V346.002H307.841V338.416Z" fill="#ADC9E0"/>
<path d="M298.583 338.416H293.346V346.002H298.583V338.416Z" fill="#ADC9E0"/>
<path d="M289.244 338.416H284.007V346.002H289.244V338.416Z" fill="#ADC9E0"/>
<path d="M279.446 338.416H274.21V346.002H279.446V338.416Z" fill="#ADC9E0"/>
<path d="M269.864 338.416H264.628V346.002H269.864V338.416Z" fill="#ADC9E0"/>
<path d="M260.795 338.416H255.559V346.002H260.795V338.416Z" fill="#ADC9E0"/>
<path d="M251.537 338.415H246.301V346.002H251.537V338.415Z" fill="#ADC9E0"/>
<path d="M336.29 351.789H331.053V359.376H336.29V351.789Z" fill="#ADC9E0"/>
<path d="M326.492 351.789H321.255V359.376H326.492V351.789Z" fill="#ADC9E0"/>
<path d="M316.937 351.789H311.701V359.376H316.937V351.789Z" fill="#ADC9E0"/>
<path d="M307.841 351.789H302.604V359.376H307.841V351.789Z" fill="#ADC9E0"/>
<path d="M298.583 351.789H293.346V359.376H298.583V351.789Z" fill="#ADC9E0"/>
<path d="M289.244 351.789H284.007V359.376H289.244V351.789Z" fill="#ADC9E0"/>
<path d="M279.446 351.789H274.21V359.376H279.446V351.789Z" fill="#ADC9E0"/>
<path d="M269.864 351.789H264.628V359.376H269.864V351.789Z" fill="#ADC9E0"/>
<path d="M260.795 351.789H255.559V359.376H260.795V351.789Z" fill="#ADC9E0"/>
<path d="M251.537 351.789H246.301V359.376H251.537V351.789Z" fill="#ADC9E0"/>
<path d="M336.29 364.942H331.053V372.528H336.29V364.942Z" fill="#ADC9E0"/>
<path d="M326.492 364.942H321.255V372.528H326.492V364.942Z" fill="#ADC9E0"/>
<path d="M316.937 364.942H311.701V372.528H316.937V364.942Z" fill="#ADC9E0"/>
<path d="M307.841 364.942H302.604V372.528H307.841V364.942Z" fill="#ADC9E0"/>
<path d="M298.583 364.942H293.346V372.528H298.583V364.942Z" fill="#ADC9E0"/>
<path d="M289.244 364.942H284.007V372.528H289.244V364.942Z" fill="#ADC9E0"/>
<path d="M279.446 364.942H274.21V372.528H279.446V364.942Z" fill="#ADC9E0"/>
<path d="M269.864 364.942H264.628V372.528H269.864V364.942Z" fill="#ADC9E0"/>
<path d="M260.795 364.942H255.559V372.528H260.795V364.942Z" fill="#ADC9E0"/>
<path d="M251.537 364.942H246.301V372.528H251.537V364.942Z" fill="#ADC9E0"/>
<path d="M335.453 315.184H331.053V322.993H335.453V315.184Z" fill="#ADC9E0"/>
<path d="M291.754 315.184H287.354V322.993H291.754V315.184Z" fill="#ADC9E0"/>
<path d="M256.989 315.184H252.59V322.993H256.989V315.184Z" fill="#ADC9E0"/>
<path d="M772.28 317.953H670.28V388.311H772.28V317.953Z" fill="#D5E7F7"/>
<path d="M772.28 308.761H670.28V331.632H772.28V308.761Z" fill="#C4D9ED"/>
<path d="M765.344 338.416H760.107V346.002H765.344V338.416Z" fill="#ADC9E0"/>
<path d="M755.546 338.416H750.309V346.002H755.546V338.416Z" fill="#ADC9E0"/>
<path d="M745.964 338.416H740.727V346.002H745.964V338.416Z" fill="#ADC9E0"/>
<path d="M736.895 338.416H731.658V346.002H736.895V338.416Z" fill="#ADC9E0"/>
<path d="M727.637 338.416H722.4V346.002H727.637V338.416Z" fill="#ADC9E0"/>
<path d="M718.271 338.416H713.034V346.002H718.271V338.416Z" fill="#ADC9E0"/>
<path d="M708.473 338.416H703.237V346.002H708.473V338.416Z" fill="#ADC9E0"/>
<path d="M698.891 338.416H693.655V346.002H698.891V338.416Z" fill="#ADC9E0"/>
<path d="M689.822 338.416H684.586V346.002H689.822V338.416Z" fill="#ADC9E0"/>
<path d="M680.564 338.415H675.328V346.002H680.564V338.415Z" fill="#ADC9E0"/>
<path d="M765.344 351.789H760.107V359.376H765.344V351.789Z" fill="#ADC9E0"/>
<path d="M755.546 351.789H750.309V359.376H755.546V351.789Z" fill="#ADC9E0"/>
<path d="M745.964 351.789H740.727V359.376H745.964V351.789Z" fill="#ADC9E0"/>
<path d="M736.895 351.789H731.658V359.376H736.895V351.789Z" fill="#ADC9E0"/>
<path d="M727.637 351.789H722.4V359.376H727.637V351.789Z" fill="#ADC9E0"/>
<path d="M718.271 351.789H713.034V359.376H718.271V351.789Z" fill="#ADC9E0"/>
<path d="M708.473 351.789H703.237V359.376H708.473V351.789Z" fill="#ADC9E0"/>
<path d="M698.891 351.789H693.655V359.376H698.891V351.789Z" fill="#ADC9E0"/>
<path d="M689.822 351.789H684.586V359.376H689.822V351.789Z" fill="#ADC9E0"/>
<path d="M680.564 351.789H675.328V359.376H680.564V351.789Z" fill="#ADC9E0"/>
<path d="M765.344 364.942H760.107V372.528H765.344V364.942Z" fill="#ADC9E0"/>
<path d="M755.546 364.942H750.309V372.528H755.546V364.942Z" fill="#ADC9E0"/>
<path d="M745.964 364.942H740.727V372.528H745.964V364.942Z" fill="#ADC9E0"/>
<path d="M736.895 364.942H731.658V372.528H736.895V364.942Z" fill="#ADC9E0"/>
<path d="M727.637 364.942H722.4V372.528H727.637V364.942Z" fill="#ADC9E0"/>
<path d="M718.271 364.942H713.034V372.528H718.271V364.942Z" fill="#ADC9E0"/>
<path d="M708.473 364.942H703.237V372.528H708.473V364.942Z" fill="#ADC9E0"/>
<path d="M698.891 364.942H693.655V372.528H698.891V364.942Z" fill="#ADC9E0"/>
<path d="M689.822 364.942H684.586V372.528H689.822V364.942Z" fill="#ADC9E0"/>
<path d="M680.564 364.942H675.328V372.528H680.564V364.942Z" fill="#ADC9E0"/>
<path d="M764.507 315.184H760.107V322.993H764.507V315.184Z" fill="#ADC9E0"/>
<path d="M720.808 315.184H716.408V322.993H720.808V315.184Z" fill="#ADC9E0"/>
<path d="M686.043 315.184H681.643V322.993H686.043V315.184Z" fill="#ADC9E0"/>
<path d="M880.677 317.953H778.677V388.311H880.677V317.953Z" fill="#D5E7F7"/>
<path d="M880.677 308.761H778.677V331.632H880.677V308.761Z" fill="#C4D9ED"/>
<path d="M873.714 338.416H868.477V346.002H873.714V338.416Z" fill="#C4D9ED"/>
<path d="M863.943 338.416H858.706V346.002H863.943V338.416Z" fill="#C4D9ED"/>
<path d="M854.361 338.416H849.125V346.002H854.361V338.416Z" fill="#C4D9ED"/>
<path d="M845.265 338.416H840.028V346.002H845.265V338.416Z" fill="#C4D9ED"/>
<path d="M836.034 338.416H830.797V346.002H836.034V338.416Z" fill="#C4D9ED"/>
<path d="M826.668 338.416H821.431V346.002H826.668V338.416Z" fill="#C4D9ED"/>
<path d="M816.87 338.416H811.634V346.002H816.87V338.416Z" fill="#C4D9ED"/>
<path d="M807.288 338.416H802.052V346.002H807.288V338.416Z" fill="#C4D9ED"/>
<path d="M798.219 338.416H792.983V346.002H798.219V338.416Z" fill="#C4D9ED"/>
<path d="M788.961 338.416H783.725V346.002H788.961V338.416Z" fill="#C4D9ED"/>
<path d="M873.714 351.789H868.477V359.376H873.714V351.789Z" fill="#C4D9ED"/>
<path d="M863.943 351.789H858.706V359.376H863.943V351.789Z" fill="#C4D9ED"/>
<path d="M854.361 351.789H849.125V359.376H854.361V351.789Z" fill="#C4D9ED"/>
<path d="M845.265 351.789H840.028V359.376H845.265V351.789Z" fill="#C4D9ED"/>
<path d="M836.034 351.789H830.797V359.376H836.034V351.789Z" fill="#C4D9ED"/>
<path d="M826.668 351.789H821.431V359.376H826.668V351.789Z" fill="#C4D9ED"/>
<path d="M816.87 351.789H811.634V359.376H816.87V351.789Z" fill="#C4D9ED"/>
<path d="M807.288 351.789H802.052V359.376H807.288V351.789Z" fill="#C4D9ED"/>
<path d="M798.219 351.789H792.983V359.376H798.219V351.789Z" fill="#C4D9ED"/>
<path d="M788.961 351.789H783.725V359.376H788.961V351.789Z" fill="#C4D9ED"/>
<path d="M873.714 364.942H868.477V372.528H873.714V364.942Z" fill="#C4D9ED"/>
<path d="M863.943 364.942H858.706V372.528H863.943V364.942Z" fill="#C4D9ED"/>
<path d="M854.361 364.942H849.125V372.528H854.361V364.942Z" fill="#C4D9ED"/>
<path d="M845.265 364.942H840.028V372.528H845.265V364.942Z" fill="#C4D9ED"/>
<path d="M836.034 364.942H830.797V372.528H836.034V364.942Z" fill="#C4D9ED"/>
<path d="M826.668 364.942H821.431V372.528H826.668V364.942Z" fill="#C4D9ED"/>
<path d="M816.87 364.942H811.634V372.528H816.87V364.942Z" fill="#C4D9ED"/>
<path d="M807.288 364.942H802.052V372.528H807.288V364.942Z" fill="#C4D9ED"/>
<path d="M798.219 364.942H792.983V372.528H798.219V364.942Z" fill="#C4D9ED"/>
<path d="M788.961 364.942H783.725V372.528H788.961V364.942Z" fill="#C4D9ED"/>
<path d="M872.877 315.184H868.477V322.993H872.877V315.184Z" fill="#ADC9E0"/>
<path d="M829.178 315.184H824.778V322.993H829.178V315.184Z" fill="#ADC9E0"/>
<path d="M794.44 315.184H790.041V322.993H794.44V315.184Z" fill="#ADC9E0"/>
<path d="M989.318 317.953H887.317V388.311H989.318V317.953Z" fill="#D5E7F7"/>
<path d="M989.317 308.761H887.317V331.632H989.317V308.761Z" fill="#C4D9ED"/>
<path d="M982.354 338.416H977.117V346.002H982.354V338.416Z" fill="#C4D9ED"/>
<path d="M972.556 338.416H967.32V346.002H972.556V338.416Z" fill="#C4D9ED"/>
<path d="M962.974 338.416H957.738V346.002H962.974V338.416Z" fill="#C4D9ED"/>
<path d="M953.905 338.416H948.669V346.002H953.905V338.416Z" fill="#C4D9ED"/>
<path d="M944.647 338.416H939.411V346.002H944.647V338.416Z" fill="#C4D9ED"/>
<path d="M935.308 338.416H930.072V346.002H935.308V338.416Z" fill="#C4D9ED"/>
<path d="M925.51 338.416H920.274V346.002H925.51V338.416Z" fill="#C4D9ED"/>
<path d="M915.928 338.416H910.692V346.002H915.928V338.416Z" fill="#C4D9ED"/>
<path d="M906.832 338.416H901.596V346.002H906.832V338.416Z" fill="#C4D9ED"/>
<path d="M897.601 338.416H892.365V346.002H897.601V338.416Z" fill="#C4D9ED"/>
<path d="M982.354 351.789H977.117V359.376H982.354V351.789Z" fill="#C4D9ED"/>
<path d="M972.556 351.789H967.32V359.376H972.556V351.789Z" fill="#C4D9ED"/>
<path d="M962.974 351.789H957.738V359.376H962.974V351.789Z" fill="#C4D9ED"/>
<path d="M953.905 351.789H948.669V359.376H953.905V351.789Z" fill="#C4D9ED"/>
<path d="M944.647 351.789H939.411V359.376H944.647V351.789Z" fill="#C4D9ED"/>
<path d="M935.308 351.789H930.072V359.376H935.308V351.789Z" fill="#C4D9ED"/>
<path d="M925.51 351.789H920.274V359.376H925.51V351.789Z" fill="#C4D9ED"/>
<path d="M915.928 351.789H910.692V359.376H915.928V351.789Z" fill="#C4D9ED"/>
<path d="M906.832 351.789H901.596V359.376H906.832V351.789Z" fill="#C4D9ED"/>
<path d="M897.601 351.789H892.365V359.376H897.601V351.789Z" fill="#C4D9ED"/>
<path d="M982.354 364.942H977.117V372.528H982.354V364.942Z" fill="#C4D9ED"/>
<path d="M972.556 364.942H967.32V372.528H972.556V364.942Z" fill="#C4D9ED"/>
<path d="M962.974 364.942H957.738V372.528H962.974V364.942Z" fill="#C4D9ED"/>
<path d="M953.905 364.942H948.669V372.528H953.905V364.942Z" fill="#C4D9ED"/>
<path d="M944.647 364.942H939.411V372.528H944.647V364.942Z" fill="#C4D9ED"/>
<path d="M935.308 364.942H930.072V372.528H935.308V364.942Z" fill="#C4D9ED"/>
<path d="M925.51 364.942H920.274V372.528H925.51V364.942Z" fill="#C4D9ED"/>
<path d="M915.928 364.942H910.692V372.528H915.928V364.942Z" fill="#C4D9ED"/>
<path d="M906.832 364.942H901.596V372.528H906.832V364.942Z" fill="#C4D9ED"/>
<path d="M897.601 364.942H892.365V372.528H897.601V364.942Z" fill="#C4D9ED"/>
<path d="M981.517 315.184H977.117V322.993H981.517V315.184Z" fill="#ADC9E0"/>
<path d="M937.818 315.184H933.418V322.993H937.818V315.184Z" fill="#ADC9E0"/>
<path d="M903.053 315.184H898.654V322.993H903.053V315.184Z" fill="#ADC9E0"/>
<path d="M260.633 386.733C260.66 386.76 260.66 386.76 260.66 386.76H262.063C261.955 386.733 261.82 386.733 261.685 386.733H260.633Z" fill="#2E3552"/>
<path d="M467.764 249.727C467.71 249.727 467.629 249.7 467.548 249.7C467.629 249.727 467.71 249.727 467.764 249.727Z" fill="#7DABBD"/>
<path d="M269.675 386.733C269.648 386.76 269.648 386.76 269.648 386.76H268.245C268.352 386.733 268.487 386.733 268.622 386.733H269.675Z" fill="#2E3552"/>
<path d="M1020.79 388.477C1022.14 386.207 1022.3 383.908 1020.47 381.804C1016.09 376.765 1003.76 382.995 994.986 388.477H1020.79Z" fill="#A8D29F"/>
<path d="M991.531 388.477C999.844 378.924 1013.04 361.37 1004.57 354.614C995.93 347.719 978.494 373.387 969.533 388.062C970.154 376.599 969.263 361.342 959.762 364.831C949.883 368.43 958.062 379.367 963.919 388.477H991.531Z" fill="#A8D29F"/>
<path d="M486.172 357.133C459.073 356.579 442.446 341.157 426.576 328.087C449.518 316.707 477.184 302.392 463.068 292.064C449.788 282.318 430.192 302.364 416.508 320.252C415.212 319.338 413.944 318.479 412.621 317.649C418.451 300.842 421.474 283.204 410.246 280.13C399.503 277.168 396.345 293.144 395.913 310.56C366.358 304.303 342.228 306.573 316.451 314.741C290.539 322.937 253.642 262.299 177.581 269.138C169.456 269.858 162.385 271.63 156.258 274.232C155.988 252.69 152.101 224.752 133.774 224.725C103.894 224.669 135.987 262.022 140.063 271.131C141.736 274.897 143.113 278.275 144.192 281.265C141.979 282.982 139.955 284.837 138.092 286.831C134.476 273.263 128.78 259.253 120.548 258.145C104.245 255.985 93.6107 277.029 106.756 284.034C113.018 287.385 121.574 294.085 128.834 300.205C112.667 332.185 123.112 378.343 131.534 387.702L543.124 387.591C543.07 387.591 529.682 358.047 486.172 357.133Z" fill="#ACD29A"/>
<path d="M804.724 335.121C807.342 333.155 808.476 328.863 808.476 328.863L800.243 331.327C800.243 331.327 802.106 337.086 804.724 335.121Z" fill="#CE8E55"/>
<path d="M825.318 341.129C825.075 340.464 824.535 339.966 823.861 339.772C822.214 339.274 819.002 338.858 816.033 336.117C814.36 334.567 807.99 330.441 807.99 330.441H807.963C807.828 330.441 807.153 330.663 804.265 333.155C802.78 334.456 800.216 331.327 800.216 331.327C800.216 331.327 799.73 331.742 799.38 332.49C799.083 333.099 798.894 333.902 799.056 334.927C799.299 336.366 798.543 338.997 797.949 340.797C797.598 341.877 797.274 342.652 797.274 342.652C797.274 342.652 797.112 343.538 800.216 343.953H803.86C805.075 343.759 805.965 343.399 807.234 343.233C809.123 342.984 810.014 343.787 810.176 343.953C810.203 343.981 810.203 343.981 810.203 343.981H825.642C826.074 343.427 825.696 342.098 825.318 341.129Z" fill="#AA5A0B"/>
<path d="M784.696 257.204C790.418 268.473 814.684 283.481 813.55 284.837C805.48 294.556 800.243 331.327 800.243 331.327C800.243 331.327 801.89 332.269 803.401 332.324C805.938 332.407 808.557 331.493 808.557 331.493C818.624 310.45 834.441 287.468 833.065 282.401C829.556 269.525 802.888 235.08 802.888 235.08L779.028 229.653L771.794 229.404C771.794 229.432 776.869 241.809 784.696 257.204Z" fill="#2C3A64"/>
<path d="M786.534 258.214L781.881 259.741L809.417 348.121L814.07 346.595L786.534 258.214Z" fill="#E69D43"/>
<path d="M862.188 259.917L862.674 258.921L861.811 259.53V259.502L861.784 259.53L742.104 342.541L807.126 348.356L807.531 343.372L756.247 338.775L851.743 276.06L811.769 341.71L815.871 344.424L867.614 265.704L862.188 259.917Z" fill="#D57912"/>
<path d="M896.09 338.471L868.234 277.306L871.959 275.783C874.388 274.786 877.142 276.005 878.113 278.497L900.624 336.588L896.09 338.471Z" fill="#264796"/>
<path d="M868.234 277.306C864.213 266.563 857.465 249.728 857.573 249.894L861.622 247.125C861.811 247.43 861.946 247.623 872.526 275.783L868.234 277.306Z" fill="#D57912"/>
<path d="M867.965 243.941C866.156 243.941 864.591 245.131 864.024 246.793L852.472 246.128C851.824 244.633 850.339 243.581 848.639 243.581C846.318 243.581 844.428 245.519 844.428 247.9C844.428 250.282 846.318 252.22 848.639 252.22C849.718 252.22 850.69 251.804 851.446 251.112L865.778 251.943C866.426 252.358 867.155 252.58 867.965 252.58C870.286 252.58 872.175 250.642 872.175 248.26C872.175 245.879 870.286 243.941 867.965 243.941Z" fill="#415DA5"/>
<path d="M837.303 355.472H826.749C825.507 355.472 824.482 356.524 824.482 357.798C824.482 359.072 825.507 360.124 826.749 360.124H837.303C838.544 360.124 839.57 359.072 839.57 357.798C839.57 356.524 838.544 355.472 837.303 355.472Z" fill="#415DA5"/>
<path d="M811.551 345.528L810.768 347.292L832.16 357.296L832.944 355.532L811.551 345.528Z" fill="#415DA5"/>
<path d="M757.165 340.658C757.165 340.381 757.138 340.105 757.138 339.855L791.255 333.985L791.066 332.878L756.949 338.748C756.544 336.948 755.546 335.397 754.196 334.262L774.898 303.915L774.008 303.278L754.142 332.407L764.858 299.429L763.832 299.07L752.712 333.293C751.794 332.822 750.795 332.545 749.716 332.462V295.913H748.636V332.49C748.015 332.545 747.421 332.656 746.854 332.822L735.788 301.202L734.762 301.589L745.289 331.687L724.128 306.684L723.318 307.404L745.37 333.459C744.209 334.096 743.238 335.037 742.509 336.145L741.267 335.924L710.416 319.892L709.93 320.888L737.65 335.314L706.745 329.86L706.556 330.967L740.916 337.031L741.807 337.502C741.402 338.499 741.186 339.578 741.186 340.714C741.186 340.935 741.186 341.157 741.213 341.351L707.096 346.556L707.258 347.664L741.375 342.486C741.456 342.818 741.537 343.15 741.645 343.455L710.497 357.189L710.929 358.213L742.077 344.479C742.077 344.479 742.077 344.507 742.104 344.507L717.65 369.815L718.433 370.59L742.698 345.476C743.184 346.196 743.804 346.805 744.479 347.331L726.53 376.266L727.448 376.875L745.397 347.941C745.559 348.024 745.721 348.107 745.883 348.19C741.402 360.29 733.197 382.469 732.981 383.078L734.007 383.438C734.196 382.884 741.402 363.363 746.882 348.577C747.61 348.799 748.393 348.937 749.203 348.937C749.338 348.937 749.473 348.937 749.608 348.937L746.774 384.047L747.853 384.13L750.714 348.771C751.065 348.716 751.389 348.605 751.713 348.494C757.354 362.726 764.75 381.416 764.939 382.026L765.964 381.666C765.775 381.056 757.354 359.819 752.712 348.079C752.82 348.024 752.901 347.968 753.009 347.913L772.037 378.786L772.955 378.205L753.926 347.331C754.682 346.75 755.33 346.058 755.87 345.255L784.13 365.357L784.75 364.443L756.409 344.286C756.868 343.15 757.165 341.932 757.165 340.658Z" fill="#2C3A64"/>
<path d="M749.176 388.754C723.345 388.754 702.319 367.184 702.319 340.686C702.319 314.188 723.345 292.618 749.176 292.618C775.006 292.618 796.033 314.188 796.033 340.686C796.033 349.187 793.846 357.549 789.69 364.831C785.641 371.975 779.811 377.955 772.874 382.164C765.721 386.456 757.516 388.754 749.176 388.754ZM749.176 299.263C726.908 299.263 708.824 317.843 708.824 340.658C708.824 363.502 726.935 382.053 749.176 382.053C756.382 382.053 763.427 380.087 769.581 376.377C775.573 372.778 780.594 367.6 784.076 361.453C787.638 355.167 789.528 347.968 789.528 340.658C789.528 317.843 771.444 299.263 749.176 299.263Z" fill="#2C3A64"/>
<path d="M749.527 383.299C726.773 383.299 708.257 364.305 708.257 340.963C708.257 317.621 726.773 298.626 749.527 298.626C772.28 298.626 790.796 317.621 790.796 340.963C790.796 364.305 772.307 383.299 749.527 383.299ZM749.527 300.315C727.691 300.315 709.903 318.535 709.903 340.963C709.903 363.363 727.664 381.61 749.527 381.61C771.363 381.61 789.15 363.391 789.15 340.963C789.15 318.535 771.363 300.315 749.527 300.315Z" fill="#B84C42"/>
<path d="M907.237 340.658C907.237 340.381 907.21 340.105 907.21 339.855L941.327 333.985L941.138 332.878L907.021 338.748C906.616 336.948 905.617 335.397 904.268 334.262L924.97 303.915L924.08 303.278L904.214 332.407L914.929 299.429L913.904 299.07L902.783 333.293C901.866 332.822 900.867 332.545 899.787 332.462V295.913H898.708V332.49C898.087 332.545 897.493 332.656 896.926 332.822L885.86 301.202L884.834 301.589L895.361 331.687L874.2 306.684L873.39 307.404L895.442 333.459C894.281 334.096 893.309 335.037 892.581 336.145L891.339 335.924L860.488 319.892L860.002 320.888L887.722 335.314L856.817 329.86L856.628 330.967L890.988 337.031L891.879 337.502C891.474 338.499 891.258 339.578 891.258 340.714C891.258 340.935 891.258 341.157 891.285 341.351L857.168 346.556L857.33 347.664L891.42 342.486C891.501 342.818 891.582 343.15 891.69 343.455L860.542 357.189L860.974 358.213L892.122 344.479C892.122 344.479 892.122 344.507 892.149 344.507L867.695 369.815L868.477 370.59L892.743 345.476C893.228 346.196 893.849 346.805 894.524 347.331L876.575 376.266L877.492 376.875L895.442 347.941C895.604 348.024 895.766 348.107 895.928 348.19C891.447 360.29 883.242 382.469 883.026 383.078L884.051 383.438C884.24 382.884 891.447 363.363 896.926 348.577C897.655 348.799 898.438 348.937 899.248 348.937C899.382 348.937 899.517 348.937 899.652 348.937L896.818 384.047L897.898 384.13L900.759 348.771C901.11 348.716 901.434 348.605 901.758 348.494C907.399 362.726 914.795 381.416 914.983 382.026L916.009 381.666C915.82 381.056 907.399 359.819 902.756 348.079C902.864 348.024 902.945 347.968 903.053 347.913L922.082 378.786L923 378.205L903.971 347.331C904.727 346.75 905.375 346.058 905.914 345.255L934.174 365.357L934.795 364.443L906.454 344.286C906.94 343.15 907.237 341.932 907.237 340.658Z" fill="#2C3A64"/>
<path d="M899.247 388.754C873.417 388.754 852.391 367.184 852.391 340.686C852.391 314.188 873.417 292.618 899.247 292.618C925.078 292.618 946.104 314.188 946.104 340.686C946.104 349.187 943.918 357.549 939.761 364.831C935.713 371.975 929.883 377.955 922.946 382.164C915.793 386.456 907.588 388.754 899.247 388.754ZM899.247 299.263C876.98 299.263 858.895 317.843 858.895 340.658C858.895 363.502 877.007 382.053 899.247 382.053C906.454 382.053 913.499 380.087 919.653 376.377C925.645 372.778 930.665 367.6 934.147 361.453C937.71 355.167 939.6 347.968 939.6 340.658C939.6 317.843 921.515 299.263 899.247 299.263Z" fill="#2C3A64"/>
<path d="M899.598 383.299C876.845 383.299 858.329 364.305 858.329 340.963C858.329 317.621 876.845 298.626 899.598 298.626C922.352 298.626 940.868 317.621 940.868 340.963C940.868 364.305 922.379 383.299 899.598 383.299ZM899.598 300.315C877.762 300.315 859.975 318.535 859.975 340.963C859.975 363.363 877.735 381.61 899.598 381.61C921.434 381.61 939.221 363.391 939.221 340.963C939.221 318.535 921.461 300.315 899.598 300.315Z" fill="#B84C42"/>
<path d="M787.368 291.344C786.694 291.594 785.911 291.51 785.29 291.123C763.373 277.527 733.035 282.65 724.236 284.533H724.209C723.723 284.644 723.264 284.256 723.264 283.758V281.985C723.264 280.629 724.236 279.493 725.531 279.3C730.282 278.58 741.375 277.029 747.556 277.001C747.718 277.001 747.88 277.001 748.069 277.001C761.943 277.001 773.927 279.549 783.779 284.588C785.803 285.613 788.124 285.751 790.23 285.004L792.929 284.034C794.467 283.481 796.168 284.311 796.707 285.89C797.058 286.914 796.546 288.022 795.547 288.382L787.368 291.344Z" fill="#D57912"/>
<path d="M766.99 257.093C766.99 257.093 766.099 252.995 768.61 252.718C771.12 252.441 780.27 254.463 782.699 254.186C785.128 253.909 797.868 251.749 800.108 253.964C802.349 256.179 801.404 258.145 796.923 258.561C792.443 258.976 786.505 259.751 784.804 261.191C783.104 262.631 770.85 266.95 766.99 257.093Z" fill="#415DA5"/>
<path d="M799.568 347.331C799.568 340.437 805.021 334.816 811.769 334.816C818.516 334.816 823.969 340.409 823.969 347.331C823.969 354.254 818.516 359.847 811.769 359.847C805.021 359.847 799.568 354.254 799.568 347.331Z" fill="#264796"/>
<path d="M831.958 343.538C831.958 343.538 833.2 348.079 835.764 347.747C838.328 347.414 839.705 342.652 839.705 342.652L831.958 343.538Z" fill="#CE8E55"/>
<path d="M831.958 356.164H835.602C836.817 355.97 837.707 355.61 838.976 355.444C840.865 355.195 841.756 355.998 841.918 356.164C841.945 356.192 841.945 356.192 841.945 356.192H857.384C857.762 355.61 857.411 354.309 857.033 353.34C856.79 352.675 856.25 352.177 855.576 351.983C853.929 351.485 850.717 351.069 847.748 348.328C846.075 346.778 839.705 342.652 839.705 342.652H839.678C839.543 342.652 838.868 342.873 835.98 345.365C834.495 346.667 831.931 343.538 831.931 343.538C831.931 343.538 831.445 343.953 831.094 344.701C830.798 345.31 830.609 346.113 830.771 347.137C831.013 348.577 830.258 351.208 829.664 353.008C829.313 354.087 828.989 354.863 828.989 354.863C828.989 354.863 828.827 355.749 831.958 356.164Z" fill="#D57912"/>
<path d="M831.121 344.701C831.985 345.338 833.82 346.556 835.035 346.722C836.682 346.944 839.732 342.652 839.732 342.652H839.705C839.57 342.652 838.895 342.873 836.007 345.365C834.522 346.667 831.958 343.538 831.958 343.538C831.958 343.538 831.472 343.926 831.121 344.701Z" fill="#AA3F3A"/>
<path d="M831.958 356.164H835.602C836.817 355.97 837.707 355.61 838.976 355.444C840.865 355.195 841.756 355.998 841.918 356.164C841.945 356.192 841.945 356.192 841.945 356.192H857.384C857.762 355.61 857.411 354.309 857.033 353.34C856.574 352.925 856.439 355.195 856.169 355.555C855.9 355.915 843.564 355.693 842.863 355.167C842.161 354.641 840.002 353.7 837.033 354.447C834.441 355.084 830.609 353.451 829.664 353.008C829.313 354.087 828.989 354.863 828.989 354.863C828.989 354.863 828.827 355.749 831.958 356.164Z" fill="#AA3F3A"/>
<path d="M772.955 223.506C772.955 223.506 763.4 244.771 774.98 254.49C786.559 264.209 820.19 277.943 820.73 280.103C821.243 282.262 823.564 317.621 831.985 343.51C831.985 343.51 834.873 344.701 839.732 342.624C842.458 341.461 846.102 274.316 841.351 267.836C836.628 261.357 810.257 242.861 810.257 242.861L772.955 223.506Z" fill="#264796"/>
<path d="M803.671 151.986C803.671 151.986 815.304 163.421 824.077 163.421C824.077 163.421 822.916 160.209 820.082 157.164C820.649 156.028 821.135 155.004 821.566 154.062C823.078 150.712 823.726 148.718 823.726 148.718L817.437 138.972L816.033 136.784C815.574 138.474 815.008 139.969 814.36 141.325C814.306 141.436 814.252 141.547 814.198 141.63C810.203 149.632 803.671 151.986 803.671 151.986Z" fill="#CE8E55"/>
<path d="M860.515 239.483C860.515 239.483 843.861 217.609 842.377 215.67C840.892 213.732 826.155 181.142 826.155 181.142L803.698 179.149C803.698 179.149 827.882 219.436 831.715 224.254C838.031 232.228 855.953 242.003 855.953 242.003C855.602 244.107 857.249 246.184 859.813 247.097C862.377 248.011 861.514 248.011 863.322 248.703C865.13 249.396 865.751 246.571 865.751 246.571C866.777 239.732 860.515 239.483 860.515 239.483Z" fill="#CE8E55"/>
<path d="M772.955 223.506C772.631 224.392 774.143 225.971 774.818 226.58C777.814 229.321 780.756 231.73 783.887 233.779C786.073 235.219 788.367 236.465 790.85 237.545C798.003 240.729 807.261 241.836 810.23 242.861C810.554 242.972 810.878 242.944 811.175 242.806C811.418 242.695 814.441 233.502 817.869 221.79C818.004 221.347 818.166 220.848 818.247 220.377L818.301 220.211C819.65 215.643 820.973 210.797 822.241 206.007C825.048 195.374 827.37 185.019 827.721 178.955C828.152 171.839 825.831 166.301 823.456 162.037L821.459 158.659C818.516 158.327 815.655 157.219 813.199 154.81C810.527 152.18 807.639 149.355 806.937 149.577C798.84 152.456 791.012 166.246 785.884 183.108C785.722 183.634 785.56 184.188 785.398 184.714C784.885 186.459 784.399 188.258 783.968 190.058C780.837 202.74 776.788 213.261 774.44 219.408C773.819 221.153 773.279 222.537 772.955 223.506Z" fill="#E2923D"/>
<path d="M772.955 223.506C772.631 224.392 774.143 225.971 774.818 226.58C777.814 229.321 780.756 231.73 783.887 233.779C803.158 205.315 801.188 171.008 801.188 171.008L785.479 184.714C784.966 186.458 784.48 188.258 784.049 190.058C780.918 202.74 776.869 213.261 774.521 219.408C773.819 221.153 773.279 222.537 772.955 223.506Z" fill="#D57912"/>
<path d="M814.144 141.519C814.144 141.519 814.144 141.575 814.171 141.658C814.414 142.821 816.087 150.324 821.566 154.09C823.078 150.74 823.726 148.746 823.726 148.746L817.437 139C815.898 139.969 814.765 140.966 814.333 141.353C814.198 141.464 814.144 141.519 814.144 141.519Z" fill="#C0783D"/>
<path d="M827.478 148.995C827.478 148.995 813.496 149.438 813.334 140.495C813.199 131.551 811.283 125.598 820.217 124.906C829.151 124.241 830.932 127.619 831.688 130.61C832.471 133.6 831.121 148.663 827.478 148.995Z" fill="#CE8E55"/>
<path d="M813.361 141.132C813.361 141.132 815.17 129.419 827.883 129.253C836.601 129.142 832.39 121.113 831.553 119.811C831.553 119.811 824.859 120.199 817.977 120.78C803.536 121.999 812.093 139.166 813.361 141.132Z" fill="#2C3A64"/>
<path d="M812.713 210.769L811.471 210.326C810.851 210.105 810.176 210.437 809.933 211.074L809.663 211.877C809.447 212.514 809.771 213.206 810.392 213.455L811.633 213.898C812.254 214.12 812.928 213.787 813.171 213.151L813.441 212.348C813.657 211.683 813.333 210.991 812.713 210.769Z" fill="#739CF3"/>
<path d="M815.466 215.809L810.176 230.955C809.825 231.979 808.719 232.533 807.693 232.145L802.079 230.096C801.08 229.736 800.567 228.601 800.918 227.549L806.208 212.403C806.559 211.379 807.666 210.852 808.692 211.212L814.306 213.261C815.304 213.649 815.844 214.784 815.466 215.809Z" fill="#B2CBFD"/>
<path d="M809.744 215.227C808.665 214.286 806.775 213.594 805.912 213.317L800.945 227.549C800.594 228.573 801.107 229.709 802.106 230.096L807.72 232.145C808.719 232.505 809.825 231.979 810.203 230.955L815.278 216.418C813.793 216.363 810.77 216.141 809.744 215.227Z" fill="#739CF3"/>
<path d="M805.564 214.412L802.239 223.925L811.487 227.327L814.812 217.813L805.564 214.412Z" fill="#415DA5"/>
<path d="M810.797 218.218C808.287 216.639 802.457 215.947 802.457 215.947C802.457 215.947 789.285 198.448 787.261 194.461C785.236 190.473 808.179 178.456 808.989 171.783C809.798 165.138 811.067 152.789 801.809 153.342C801.809 153.342 779.703 171.534 770.904 194.045C770.904 194.045 780.783 213.012 798.084 221.319C798.084 221.319 808.071 227.494 809.798 227.909C811.526 228.352 812.929 226.248 813.55 225.029C814.198 223.783 813.307 219.796 810.797 218.218Z" fill="#CE8E55"/>
<path d="M805.912 179.453C805.912 179.453 797.031 167.187 788.772 165.36C788.772 165.36 798.273 151.515 807.018 149.549C807.018 149.549 815.197 156.914 813.793 162.784C812.389 168.655 805.912 179.453 805.912 179.453Z" fill="#E2923D"/>
<path d="M97.2546 388.532C97.2546 388.532 104.299 368.569 137.283 373.968C170.293 379.367 184.895 375.574 201.144 371.282C217.366 366.963 224.357 366.741 239.796 372.528C255.262 378.288 260.66 390.166 310.972 378.288C361.284 366.409 385.09 356.718 416.481 365.883C447.872 375.048 486.523 358.296 525.229 373.968C563.934 389.668 623.72 362.089 654.004 388.532H97.2546Z" fill="#88B374"/>
<path d="M265.464 124.324C265.41 123.743 264.763 117.485 255.424 117.513C255.424 117.513 260.012 117.901 260.903 119.922C260.903 119.922 257.691 117.485 255.181 118.399C252.671 119.313 251.348 123.937 251.375 125.432C251.402 126.927 252.994 131.717 254.641 132.077C255.262 132.216 255.963 132.133 256.584 131.994C256.179 132.687 255.775 133.462 255.424 134.348C251.996 142.322 256.098 149.826 259.229 148.857C261.227 148.248 261.929 151.737 261.929 151.737L280.957 134.708C280.93 134.735 273.184 119.728 265.464 124.324Z" fill="#2C3A64"/>
<path d="M258.933 227.272C258.933 227.272 262.441 234.748 266.868 245.104C271.834 256.705 277.961 271.962 281.605 284.367C283.522 290.929 284.763 296.688 284.763 300.675C284.763 302.06 279.608 307.625 278.123 309.757C268.703 323.187 255.856 341.129 255.856 341.129L252.347 340.215C252.347 340.215 257.259 317.787 264.412 306.573C265.815 304.358 269.783 301.7 269.594 301.451C268.973 300.648 267.435 298.654 265.329 295.83C259.526 287.994 249.459 273.734 242.711 260.443C242.279 259.613 241.874 258.782 241.496 257.979C237.933 250.558 235.585 243.636 235.828 238.486L258.933 227.272Z" fill="#C0783D"/>
<path d="M249.243 341.101L251.645 342.68C252.536 343.067 253.291 343.233 254.182 343.649C255.559 344.286 255.802 345.199 255.829 345.393C255.829 345.421 255.829 345.421 255.829 345.421L266.085 352.066C266.571 351.845 266.868 350.82 267.03 350.017C267.138 349.463 266.976 348.91 266.625 348.494C265.734 347.47 263.764 345.781 262.927 342.68C262.441 340.935 259.904 335.453 259.904 335.453L259.877 335.425C259.796 335.37 259.256 335.231 256.314 335.647C254.803 335.868 254.371 332.684 254.371 332.684C254.371 332.684 253.885 332.739 253.345 333.099C252.913 333.376 252.428 333.819 252.131 334.567C251.699 335.619 250.106 337.059 249 338C248.325 338.554 247.785 338.942 247.785 338.942C247.785 338.942 247.326 339.495 249.243 341.101Z" fill="#B84C42"/>
<path d="M253.372 333.127C253.696 333.93 254.398 335.536 255.154 336.173C256.152 337.031 259.958 335.508 259.958 335.508L259.931 335.48C259.85 335.425 259.31 335.287 256.368 335.702C254.857 335.923 254.425 332.739 254.425 332.739C254.425 332.739 253.912 332.767 253.372 333.127Z" fill="#AA3E39"/>
<path d="M249.243 341.101L251.645 342.679C252.536 343.067 253.291 343.233 254.182 343.649C255.559 344.285 255.802 345.199 255.829 345.393C255.829 345.421 255.829 345.421 255.829 345.421L266.085 352.066C266.571 351.844 266.868 350.82 267.03 350.017C266.895 349.519 265.869 350.986 265.545 351.125C265.222 351.263 257.124 345.781 256.881 345.116C256.638 344.452 255.586 342.929 253.318 342.126C251.348 341.433 249.459 338.692 249.027 338C248.352 338.554 247.812 338.941 247.812 338.941C247.812 338.941 247.326 339.495 249.243 341.101Z" fill="#AA3E39"/>
<path d="M320.068 265.317L315.101 258.533L314.238 259.142L314.211 259.17L252.671 301.838L238.959 257.813L234.316 259.336L248.46 304.746L194.558 342.181L259.553 347.968L259.985 342.984L208.675 338.415L250.43 311.003L261.875 347.719L266.517 346.196L265.195 341.987L268.299 344.036L320.068 265.317ZM254.695 308.207L304.197 275.7L264.763 340.492L254.695 308.207Z" fill="#D8716B"/>
<path d="M239.823 290.957C239.148 291.206 238.365 291.123 237.744 290.735C215.827 277.14 185.489 282.262 176.69 284.145H176.663C176.177 284.256 175.718 283.868 175.718 283.37V281.598C175.718 280.241 176.69 279.106 177.986 278.912C182.736 278.192 193.83 276.641 200.011 276.614C200.172 276.614 200.334 276.614 200.523 276.614C214.397 276.614 226.381 279.161 236.233 284.2C238.257 285.225 240.578 285.363 242.684 284.616L245.383 283.647C246.921 283.093 248.622 283.924 249.162 285.502C249.513 286.526 249 287.634 248.001 287.994L239.823 290.957Z" fill="#B84C42"/>
<path d="M219.444 256.705C219.444 256.705 218.554 252.607 221.064 252.33C223.574 252.054 232.724 254.075 235.153 253.798C237.582 253.521 250.322 251.361 252.563 253.576C254.803 255.792 253.858 257.757 249.378 258.173C244.897 258.588 238.959 259.363 237.259 260.803C235.558 262.271 223.304 266.563 219.444 256.705Z" fill="#415DA5"/>
<path d="M284.304 337.751L275.154 332.324C274.075 331.687 272.698 332.075 272.077 333.182C271.457 334.29 271.834 335.702 272.914 336.339L274.048 337.003L272.968 338.249C270.755 335.923 267.651 334.456 264.223 334.456C257.502 334.456 252.023 340.049 252.023 346.971C252.023 353.894 257.475 359.487 264.223 359.487C270.944 359.487 276.423 353.894 276.423 346.971C276.423 344.119 275.478 341.461 273.913 339.357L275.316 337.751L282.091 341.766C283.171 342.403 284.547 342.015 285.168 340.907C285.762 339.8 285.384 338.388 284.304 337.751Z" fill="#264796"/>
<path d="M240.821 333.708L240.632 332.601L199.93 339.606L201.495 337.336L201.981 337.502L202.521 335.84L224.492 303.666L223.601 303.029L203.735 332.158L214.451 299.18L213.425 298.82L201.549 335.342L199.039 339.025L198.607 338.72L198.58 338.637L199.336 337.862V295.636H198.256V336.948L197.986 336.893L196.961 333.958L197.041 333.902L196.88 333.708L185.408 300.925L184.383 301.312L194.909 331.41L173.748 306.407L172.938 307.127L195.935 334.29L196.772 336.699L190.887 335.674L160.036 319.642L159.551 320.639L187.271 335.065L156.366 329.61L156.177 330.718L190.537 336.782L196.097 339.689L195.395 340.437L156.743 346.335L156.905 347.442L194.126 341.766L193.83 342.098L160.063 356.829L160.495 357.853L191.724 344.092L167.216 369.455L167.999 370.23L194.396 342.901L197.365 341.6L176.096 375.934L177.014 376.543L196.367 345.282C192.21 356.469 182.763 382.053 182.547 382.718L183.573 383.078C183.789 382.441 193.344 356.607 198.796 341.904C199.039 342.513 199.309 343.178 199.552 343.815L196.34 383.687L197.419 383.77L200.469 346.085C206.192 360.484 214.316 381.057 214.532 381.666L215.558 381.306C215.342 380.641 206.03 357.133 201.576 345.919L221.631 378.426L222.548 377.845L199.714 340.797L233.696 364.969L234.316 364.055L201.171 340.492L240.821 333.708ZM197.041 337.862L196.529 338.609L194.099 337.336L197.041 337.862Z" fill="#415DA5"/>
<path d="M190.752 340.381C190.752 335.84 194.342 332.186 198.742 332.186C203.168 332.186 206.731 335.868 206.731 340.381C206.731 344.895 203.141 348.577 198.742 348.577C194.315 348.577 190.752 344.922 190.752 340.381Z" fill="#2C3A64"/>
<path d="M198.742 388.449C172.911 388.449 151.885 366.88 151.885 340.381C151.885 313.883 172.884 292.313 198.742 292.313C224.573 292.313 245.599 313.883 245.599 340.381C245.599 348.882 243.412 357.244 239.256 364.526C235.207 371.67 229.377 377.651 222.44 381.859C215.288 386.179 207.082 388.449 198.742 388.449ZM198.742 298.986C176.474 298.986 158.39 317.566 158.39 340.381C158.39 363.225 176.501 381.776 198.742 381.776C205.949 381.776 212.993 379.81 219.147 376.1C225.139 372.501 230.16 367.323 233.642 361.176C237.204 354.89 239.094 347.691 239.094 340.381C239.094 317.538 220.983 298.986 198.742 298.986Z" fill="#2C3A64"/>
<path d="M199.093 383.022C176.339 383.022 157.823 364.028 157.823 340.686C157.823 317.344 176.339 298.35 199.093 298.35C221.846 298.35 240.363 317.344 240.363 340.686C240.363 364.028 221.846 383.022 199.093 383.022ZM199.093 300.039C177.257 300.039 159.47 318.258 159.47 340.686C159.47 363.086 177.23 381.333 199.093 381.333C220.929 381.333 238.716 363.114 238.716 340.686C238.716 318.258 220.929 300.039 199.093 300.039Z" fill="#B84C42"/>
<path d="M276.828 169.513C276.828 169.513 270.215 173.334 270.971 183.025C271.753 192.716 280.418 207.973 287.003 211.766C292.213 214.757 307.301 219.464 307.301 219.464L307.841 215.255C307.841 215.255 295.56 207.031 292.915 204.235C287.219 198.171 281.794 167.159 276.828 169.513Z" fill="#C0783D"/>
<path d="M276.153 191.276C275.856 193.464 275.289 195.347 274.588 197.119C274.021 198.614 273.346 200.054 272.644 201.521C270.62 205.896 265.896 208.028 265.734 216.446C265.68 219.325 263.332 225.86 264.655 230.567C271.214 253.826 228.324 232.671 230.646 226.497C235.261 214.23 241.847 207.114 241.712 197.008C241.712 196.98 241.712 196.953 241.712 196.925C241.658 196.426 241.604 195.125 241.523 193.381C241.334 189.144 241.118 182.36 241.037 178.927C241.037 178.844 241.037 178.761 241.037 178.706C241.01 177.238 240.956 176.186 240.902 175.909C244.087 161.981 251.429 161.926 253.939 161.981C254.857 162.009 255.829 162.064 256.638 162.12C258.204 161.206 260.93 156.914 262.333 149.881L262.9 150.131L272.509 154.312C272.509 154.312 271.618 157.496 270.998 160.542C270.512 162.923 270.188 165.221 270.539 165.858C271.295 166.135 271.753 166.329 271.753 166.329C271.969 166.744 277.692 180.228 276.153 191.276Z" fill="#CE8E55"/>
<path d="M274.614 197.146C274.048 198.642 273.373 200.081 272.671 201.549C270.647 205.924 265.923 208.056 265.761 216.473C265.626 216.501 265.464 216.501 265.329 216.529C247.758 217.941 241.739 196.98 241.739 196.98C241.685 196.482 241.631 195.18 241.55 193.436L273.292 193.491C273.292 193.464 273.94 194.931 274.614 197.146Z" fill="#C0783D"/>
<path d="M272.536 154.339C272.536 154.339 271.645 157.524 271.025 160.569C265.437 159.213 263.548 153.315 262.927 150.131L272.536 154.339Z" fill="#C0783D"/>
<path d="M282.658 177.183C282.118 175.743 279.554 170.205 279.554 170.205C279.554 170.205 277.476 168.378 271.78 166.356C271.888 166.689 274.587 175.466 273.778 177.377C272.968 179.342 255.99 173.777 255.046 172.392C254.263 171.285 254.02 165.276 253.966 162.923C253.939 162.341 253.939 161.981 253.939 161.981C253.939 161.981 247.65 161.345 244.195 162.951C244.195 162.951 245.68 165.996 246.328 169.374C246.382 169.707 246.436 170.011 246.49 170.343C246.57 171.036 246.624 171.728 246.624 172.392C246.597 174.109 245.086 175.494 243.062 177.127C242.441 177.626 241.739 178.179 241.037 178.733C241.037 178.816 241.037 178.899 241.037 178.955C241.145 183.773 241.577 195.236 241.712 196.925C241.712 196.953 241.712 196.98 241.712 197.008C244.708 196.87 251.672 196.676 258.771 197.589C261.065 197.894 263.359 198.282 265.545 198.835C268.137 199.5 270.593 200.386 272.644 201.521C272.725 201.577 272.806 201.604 272.887 201.66C272.887 201.66 275.694 195.43 278.744 187.981C278.852 187.704 278.96 187.455 279.041 187.178C280.013 184.216 279.716 181.198 279.23 178.539C280.822 177.21 282.658 177.183 282.658 177.183Z" fill="#739CF3"/>
<path d="M273.832 157.634C273.832 157.634 260.498 155.004 262.225 146.531C263.953 138.03 263.386 131.994 271.969 133.296C280.553 134.625 281.551 138.197 281.632 141.187C281.74 144.15 277.341 158.105 273.832 157.634Z" fill="#CE8E55"/>
<path d="M272.914 201.687C272.833 201.632 272.752 201.604 272.671 201.549C270.62 200.386 268.191 199.5 265.572 198.863C263.386 198.309 261.092 197.894 258.798 197.617C251.699 196.703 244.735 196.897 241.739 197.036C241.739 197.008 241.739 196.98 241.739 196.953C241.604 195.264 241.172 183.8 241.064 178.982C241.064 178.899 241.064 178.816 241.064 178.761C241.766 178.179 242.441 177.653 243.089 177.155C251.699 181.419 267.948 190.667 272.914 201.687Z" fill="#6488D3"/>
<path d="M282.199 136.369C280.661 133.379 279.014 133.6 277.988 134.182C271.564 128.533 265.653 133.573 265.653 133.573C263.521 139.47 258.528 142.045 258.528 142.045C258.528 142.045 260.633 144.094 266.517 143.817C268.326 143.734 270.08 142.821 271.699 141.602C268.649 145.008 265.006 147.14 265.006 147.14C272.32 145.423 276.936 136.48 277.395 135.538C278.042 136.452 279.311 138.418 279.473 140.107C279.689 142.405 279.095 146.919 280.391 147.057C280.391 147.029 284.52 140.855 282.199 136.369Z" fill="#2C3A64"/>
<path d="M289.946 219.574L289.001 223.755C289.001 223.755 266.652 220.627 259.337 216.252C252.023 211.877 240.956 186.237 240.093 175.383C240.039 174.801 240.012 174.248 240.012 173.749C239.742 164.39 244.249 162.923 244.249 162.923C246.058 162.064 248.298 165.249 250.646 170.177C255.613 180.561 261.173 198.752 264.466 204.152C266.976 208.333 289.946 219.574 289.946 219.574Z" fill="#CE8E55"/>
<path d="M250.619 170.205C244.492 168.71 239.985 173.749 239.985 173.749C239.715 164.39 244.222 162.923 244.222 162.923C246.004 162.092 248.244 165.276 250.619 170.205Z" fill="#739CF3"/>
<path d="M230.241 227.438C230.241 227.438 220.335 243.553 232.589 252.414C244.843 261.274 286.086 265.51 284.061 267.227C277.88 272.488 272.266 280.573 272.563 329.029L275.613 330.635C275.613 330.635 305.034 265.012 303.063 257.176C301.741 252.026 258.825 224.005 230.241 227.438Z" fill="#CE8E55"/>
<path d="M254.02 260.969C254.02 260.969 229.971 256.373 226.462 247.679C224.06 241.726 223.979 238.154 235.288 216.307C235.288 216.307 239.931 225.472 264.628 223.34C264.628 223.34 264.601 224.614 264.601 226.22C264.628 228.906 265.033 232.727 267.084 233.834C267.111 233.862 267.192 233.862 267.219 233.89C270.458 235.413 275.505 238.486 276.261 238.763C276.288 238.763 261.092 241.753 254.02 260.969Z" fill="#264796"/>
<path d="M267.084 233.834C256.071 230.512 243.359 229.736 243.359 229.626C252.698 227.161 259.553 226.22 264.601 226.22C264.628 228.906 265.033 232.727 267.084 233.834Z" fill="#2C3A64"/>
<path d="M268.406 331.382L270.971 332.656C271.888 332.933 272.644 332.988 273.589 333.321C275.019 333.791 275.37 334.677 275.424 334.871C275.424 334.899 275.424 334.899 275.424 334.899L286.356 340.298C286.815 340.021 287.004 338.969 287.057 338.138C287.111 337.585 286.896 337.031 286.491 336.671C285.492 335.757 283.36 334.317 282.172 331.355C281.497 329.693 278.366 324.543 278.366 324.543L278.339 324.515C278.231 324.46 277.691 324.377 274.803 325.152C273.319 325.54 272.536 322.439 272.536 322.439C272.536 322.439 272.05 322.55 271.564 322.965C271.16 323.297 270.755 323.796 270.512 324.571C270.215 325.651 268.784 327.284 267.786 328.337C267.165 328.973 266.706 329.416 266.706 329.416C266.706 329.416 266.328 329.998 268.406 331.382Z" fill="#B84C42"/>
<path d="M271.591 322.965C271.996 323.713 272.887 325.236 273.697 325.762C274.776 326.482 278.393 324.516 278.393 324.516L278.366 324.488C278.258 324.433 277.718 324.349 274.83 325.125C273.346 325.512 272.563 322.411 272.563 322.411C272.563 322.411 272.104 322.55 271.591 322.965Z" fill="#AA3E39"/>
<path d="M268.406 331.382L270.971 332.656C271.888 332.933 272.644 332.988 273.589 333.321C275.019 333.791 275.37 334.677 275.424 334.871C275.424 334.899 275.424 334.899 275.424 334.899L286.356 340.298C286.815 340.021 287.003 338.969 287.057 338.139C286.869 337.668 286.005 339.246 285.708 339.412C285.411 339.578 276.747 335.121 276.423 334.484C276.099 333.847 274.884 332.462 272.536 331.936C270.485 331.493 268.325 329.001 267.786 328.364C267.165 329.001 266.706 329.444 266.706 329.444C266.706 329.444 266.328 329.998 268.406 331.382Z" fill="#AA3E39"/>
<path d="M330.568 278.109C329.866 276.309 328.246 275.202 326.465 275.091C306.221 227.41 306.005 227.023 305.709 226.524L302.793 232.478C302.632 232.228 313.833 257.758 321.822 276.475C321.202 276.724 320.932 277.472 321.202 278.081L348.544 338.083L353.051 336.2L330.568 278.109Z" fill="#B84C42"/>
<path d="M331.836 219.076C330.864 215.753 327.463 213.871 324.252 214.867C321.687 215.643 320.014 217.996 319.879 220.571L292.672 227.577C291.133 225.888 288.758 225.112 286.437 225.832C283.198 226.829 281.362 230.318 282.334 233.613C283.306 236.908 286.707 238.818 289.919 237.821C291.511 237.351 292.753 236.243 293.508 234.886L324.44 226.912C325.493 227.189 326.6 227.189 327.733 226.857C330.945 225.888 332.781 222.399 331.836 219.076Z" fill="#415DA5"/>
<path d="M289.946 219.574C289.946 219.574 294.183 221.817 295.668 221.734C298.043 221.596 301.039 222.648 301.039 222.648C301.039 222.648 304.197 223.617 304.494 227.438C304.494 227.438 304.467 228.546 299.527 226.995C298.448 226.663 295.83 227.3 294.939 226.995C294.048 226.691 290.566 224.115 289.001 223.783L289.946 219.574Z" fill="#CE8E55"/>
<path d="M307.841 215.227C307.841 215.227 311.188 217.47 313.563 217.387C315.938 217.276 318.934 218.301 318.934 218.301C318.934 218.301 322.092 219.27 322.389 223.091C322.389 223.091 322.308 224.669 317.423 222.648C316.073 222.094 313.725 222.952 312.834 222.648C311.943 222.343 308.704 219.796 306.437 219.159L307.841 215.227Z" fill="#C0783D"/>
<path d="M393.646 333.708L393.457 332.601L352.754 339.606L354.32 337.336L354.806 337.502L355.345 335.84L377.316 303.666L376.426 303.029L356.56 332.158L367.276 299.18L366.25 298.82L354.374 335.342L351.864 339.025L351.432 338.72L351.405 338.637L352.161 337.862V295.636H351.081V336.948L350.811 336.893L349.785 333.958L349.866 333.902L349.704 333.708L338.233 300.925L337.207 301.312L347.734 331.41L326.573 306.407L325.763 307.127L348.76 334.29L349.596 336.699L343.712 335.674L312.861 319.642L312.375 320.639L340.095 335.065L309.19 329.61L309.001 330.718L343.361 336.782L348.922 339.689L348.22 340.437L309.568 346.334L309.73 347.442L346.951 341.766L346.654 342.098L312.969 356.939L313.401 357.964L344.63 344.202L320.122 369.565L320.905 370.341L347.302 343.012L350.271 341.71L329.002 376.045L329.92 376.654L349.272 345.393C345.116 356.579 335.669 382.164 335.453 382.829L336.479 383.188C336.695 382.552 346.249 356.718 351.702 342.015C351.945 342.624 352.215 343.289 352.457 343.926L349.245 383.798L350.325 383.881L353.375 346.196C359.097 360.594 367.222 381.167 367.438 381.776L368.463 381.416C368.247 380.752 358.935 357.244 354.482 346.03L374.536 378.537L375.454 377.955L352.619 340.907L386.601 365.08L387.222 364.166L354.077 340.603L393.646 333.708ZM349.866 337.862L349.353 338.609L346.924 337.336L349.866 337.862Z" fill="#415DA5"/>
<path d="M351.567 348.577C355.979 348.577 359.556 344.908 359.556 340.381C359.556 335.855 355.979 332.185 351.567 332.185C347.154 332.185 343.577 335.855 343.577 340.381C343.577 344.908 347.154 348.577 351.567 348.577Z" fill="#2C3A64"/>
<path d="M351.567 388.449C325.736 388.449 304.71 366.88 304.71 340.381C304.71 313.883 325.736 292.313 351.567 292.313C377.397 292.313 398.424 313.883 398.424 340.381C398.424 348.882 396.237 357.244 392.081 364.526C388.032 371.67 382.202 377.651 375.265 381.859C368.112 386.179 359.907 388.449 351.567 388.449ZM351.567 298.986C329.299 298.986 311.215 317.566 311.215 340.381C311.215 363.225 329.326 381.776 351.567 381.776C358.773 381.776 365.818 379.81 371.972 376.1C377.964 372.501 382.985 367.323 386.466 361.176C390.029 354.89 391.919 347.691 391.919 340.381C391.946 317.538 373.835 298.986 351.567 298.986Z" fill="#2C3A64"/>
<path d="M351.918 383.022C329.164 383.022 310.648 364.028 310.648 340.686C310.648 317.344 329.164 298.35 351.918 298.35C374.671 298.35 393.187 317.344 393.187 340.686C393.187 364.028 374.698 383.022 351.918 383.022ZM351.918 300.039C330.082 300.039 312.294 318.258 312.294 340.686C312.294 363.086 330.055 381.333 351.918 381.333C373.754 381.333 391.541 363.114 391.541 340.686C391.541 318.258 373.781 300.039 351.918 300.039Z" fill="#B84C42"/>
<path d="M529.332 346.833L525.283 346.03C525.283 346.03 534.946 306.85 533.623 303.61C532.543 300.925 521.423 298.986 515.971 294.279C514.81 293.282 513.919 292.175 513.407 290.901C510.492 283.619 515.242 278.22 515.242 278.22C515.242 278.22 525.148 280.545 534.136 284.505C540.533 287.329 546.471 290.984 548.117 295.221C552.058 305.466 529.332 346.833 529.332 346.833Z" fill="#C0783D"/>
<path d="M540.317 352.869C540.263 352.454 539.993 352.094 539.588 351.872C538.616 351.318 536.646 350.543 535.189 348.522C534.352 347.387 530.924 344.036 530.924 344.036H530.897C530.816 344.009 530.357 344.009 528.198 344.922C527.064 345.393 525.904 343.233 525.904 343.233C525.904 343.233 525.553 343.372 525.202 343.732C524.932 344.009 524.689 344.424 524.662 345.033C524.608 345.864 523.771 347.221 523.15 348.107C522.773 348.66 522.476 349.02 522.476 349.02C522.476 349.02 522.233 349.491 524.149 350.239L526.443 350.848C527.226 350.931 527.847 350.903 528.657 351.014C529.871 351.18 530.33 351.789 530.411 351.9C530.411 351.928 530.438 351.928 530.438 351.928L540.155 354.503C540.479 354.281 540.425 353.478 540.317 352.869Z" fill="#415DA5"/>
<path d="M573.678 296.218L569.603 291.87L569.953 291.123L569.306 291.566V291.593L523.043 323.685L512.732 290.597L509.25 291.732L519.885 325.872L479.317 354.004L528.198 358.352L528.522 354.614L489.951 351.18L521.342 330.552L529.952 358.158L533.434 357.022L532.436 353.866L534.784 355.417L573.678 296.218ZM524.527 328.447L561.748 303.998L532.112 352.731L524.527 328.447Z" fill="#739CF3"/>
<path d="M581.587 305.826C580.912 304.081 579.076 303.167 577.349 303.666C572.005 289.434 570.223 284.754 569.603 283.148L573.948 280.296C574.623 280.241 575.271 280.019 575.838 279.604C577.511 278.386 577.889 275.977 576.674 274.288C575.487 272.571 573.138 272.183 571.492 273.429C570.196 274.399 569.683 276.06 570.088 277.583L561.451 283.231C560.237 282.511 558.644 282.539 557.429 283.425C555.756 284.643 555.378 287.052 556.593 288.741C557.78 290.458 560.129 290.846 561.775 289.6C562.558 289.018 563.044 288.215 563.233 287.302L566.499 285.17C567.659 288.132 571.627 298.156 574.164 304.939L595.109 350.931L598.51 349.519L581.587 305.826Z" fill="#264796"/>
<path d="M490.626 352.592C490.626 352.398 490.626 352.177 490.599 351.983L516.268 347.581L516.133 346.75L490.464 351.152C490.14 349.796 489.411 348.633 488.386 347.774L503.96 324.959L503.285 324.488L488.332 346.39L496.402 321.581L495.619 321.304L487.252 347.054C486.577 346.695 485.795 346.501 485.012 346.445V318.95H484.202V346.445C483.743 346.473 483.284 346.556 482.852 346.695L474.539 322.91L473.783 323.187L481.692 345.808L465.767 327.008L465.146 327.561L481.746 347.165C480.882 347.636 480.153 348.356 479.587 349.187L478.642 349.02L455.456 336.948L455.078 337.696L475.916 348.522L452.676 344.424L452.541 345.255L478.372 349.823L479.047 350.183C478.75 350.931 478.561 351.734 478.561 352.592C478.561 352.758 478.561 352.925 478.588 353.091L452.946 356.995L453.054 357.825L478.696 353.921C478.75 354.171 478.804 354.42 478.885 354.641L455.456 364.969L455.78 365.745L479.209 355.417V355.444L460.828 374.467L461.394 375.048L479.641 356.164C480.018 356.69 480.45 357.161 480.99 357.549L467.494 379.312L468.169 379.755L481.665 357.992C481.773 358.047 481.908 358.13 482.016 358.185C478.642 367.295 472.488 383.964 472.326 384.435L473.109 384.711C473.244 384.296 478.669 369.621 482.799 358.518C483.365 358.684 483.932 358.795 484.553 358.795C484.661 358.795 484.742 358.795 484.85 358.795L482.718 385.21L483.527 385.265L485.66 358.684C485.929 358.628 486.172 358.573 486.415 358.49C490.653 369.178 496.213 383.244 496.375 383.687L497.158 383.41C496.996 382.939 490.68 366.991 487.198 358.158C487.279 358.13 487.36 358.075 487.414 358.047L501.719 381.278L502.421 380.835L488.116 357.604C488.683 357.189 489.168 356.635 489.573 356.053L510.815 371.172L511.274 370.479L489.978 355.333C490.41 354.447 490.626 353.534 490.626 352.592Z" fill="#415DA5"/>
<path d="M484.634 388.726C465.2 388.726 449.383 372.501 449.383 352.565C449.383 332.628 465.2 316.403 484.634 316.403C504.068 316.403 519.885 332.628 519.885 352.565C519.885 358.961 518.238 365.246 515.107 370.728C512.057 376.1 507.684 380.613 502.448 383.742C497.077 387.01 490.896 388.726 484.634 388.726ZM484.634 321.442C467.899 321.442 454.296 335.397 454.296 352.565C454.296 369.732 467.899 383.687 484.634 383.687C490.032 383.687 495.349 382.219 499.992 379.423C504.5 376.709 508.251 372.833 510.896 368.209C513.569 363.474 514.999 358.075 514.999 352.565C514.972 335.425 501.369 321.442 484.634 321.442Z" fill="#2C3A64"/>
<path d="M604.016 352.592C604.016 352.398 604.016 352.177 603.989 351.983L629.658 347.581L629.523 346.75L603.854 351.152C603.531 349.796 602.802 348.633 601.776 347.774L617.35 324.959L616.675 324.488L601.722 346.39L609.793 321.581L609.01 321.304L600.643 347.054C599.968 346.695 599.185 346.501 598.402 346.445V318.95H597.592V346.445C597.134 346.473 596.675 346.556 596.243 346.695L587.93 322.91L587.174 323.187L595.082 345.808L579.157 327.008L578.537 327.561L595.136 347.165C594.273 347.636 593.544 348.356 592.977 349.187L592.032 349.02L568.847 336.948L568.469 337.696L589.306 348.522L566.067 344.424L565.932 345.255L591.762 349.823L592.437 350.183C592.14 350.931 591.951 351.734 591.951 352.592C591.951 352.758 591.951 352.925 591.978 353.091L566.337 356.995L566.445 357.825L592.086 353.921C592.14 354.171 592.194 354.42 592.275 354.641L568.847 364.969L569.171 365.745L592.599 355.417V355.444L574.218 374.467L574.785 375.048L593.031 356.164C593.409 356.69 593.841 357.161 594.381 357.549L580.885 379.312L581.56 379.755L595.055 357.992C595.163 358.047 595.298 358.13 595.406 358.185C592.032 367.295 585.878 383.964 585.716 384.435L586.499 384.711C586.634 384.296 592.059 369.621 596.189 358.518C596.729 358.684 597.323 358.795 597.943 358.795C598.051 358.795 598.132 358.795 598.24 358.795L596.108 385.21L596.918 385.265L599.05 358.684C599.32 358.628 599.563 358.573 599.806 358.49C604.043 369.178 609.604 383.244 609.766 383.687L610.548 383.41C610.386 382.939 604.07 366.991 600.589 358.158C600.67 358.13 600.75 358.075 600.804 358.047L615.11 381.278L615.812 380.835L601.506 357.604C602.073 357.189 602.559 356.635 602.964 356.053L624.206 371.172L624.665 370.479L603.369 355.333C603.801 354.447 604.016 353.534 604.016 352.592Z" fill="#415DA5"/>
<path d="M598.024 388.726C578.591 388.726 562.774 372.501 562.774 352.565C562.774 332.628 578.591 316.403 598.024 316.403C617.458 316.403 633.275 332.628 633.275 352.565C633.275 358.961 631.629 365.246 628.498 370.728C625.448 376.1 621.075 380.613 615.839 383.742C610.467 387.01 604.286 388.726 598.024 388.726ZM598.024 321.442C581.29 321.442 567.686 335.397 567.686 352.565C567.686 369.732 581.29 383.687 598.024 383.687C603.423 383.687 608.74 382.219 613.382 379.423C617.89 376.709 621.642 372.833 624.287 368.209C626.959 363.474 628.39 358.075 628.39 352.565C628.363 335.425 614.759 321.442 598.024 321.442Z" fill="#2C3A64"/>
<path d="M513.353 315.489C512.84 315.683 512.273 315.627 511.787 315.323C495.295 305.106 472.488 308.954 465.902 310.367C465.551 310.45 465.2 310.173 465.2 309.785V308.456C465.2 307.432 465.929 306.573 466.901 306.435C470.463 305.881 478.804 304.718 483.473 304.69C483.608 304.69 483.716 304.69 483.851 304.69C494.297 304.69 503.312 306.601 510.708 310.394C512.219 311.17 513.973 311.28 515.566 310.699L517.59 309.979C518.751 309.564 520.02 310.2 520.424 311.391C520.694 312.166 520.289 312.997 519.534 313.274L513.353 315.489Z" fill="#D57912"/>
<path d="M498.022 289.738C498.022 289.738 497.347 286.665 499.236 286.443C501.126 286.222 508.008 287.745 509.817 287.551C511.652 287.329 521.234 285.723 522.908 287.385C524.581 289.046 523.879 290.514 520.505 290.846C517.131 291.15 512.651 291.732 511.382 292.839C510.141 293.919 500.91 297.159 498.022 289.738Z" fill="#415DA5"/>
<path d="M550.898 363.723H547.524L540.425 360.4C540.695 359.514 540.83 358.573 540.83 357.576C540.83 352.371 536.727 348.162 531.653 348.162C526.578 348.162 522.476 352.371 522.476 357.576C522.476 362.782 526.578 366.99 531.653 366.99C535.243 366.99 538.374 364.858 539.858 361.757L544.042 363.723H542.908C541.963 363.723 541.208 364.498 541.208 365.468C541.208 366.437 541.963 367.212 542.908 367.212H550.844C551.788 367.212 552.544 366.437 552.544 365.468C552.544 364.498 551.815 363.723 550.898 363.723Z" fill="#2C3A64"/>
<path d="M568.253 274.482C568.226 274.482 568.226 274.482 568.199 274.482C565.149 272.765 548.9 263.6 548.198 261.385C547.767 260.028 545.715 254.296 543.475 249.229C542.908 247.956 542.152 248.094 541.586 246.959C540.344 244.522 535.728 246.543 534.838 246.128C531.923 244.771 528.738 243.608 528.738 246.571C528.738 246.571 529.547 248.731 530.816 251.749C531.329 252.94 531.896 254.269 532.489 255.653C535 261.329 538.293 267.781 540.56 268.944C544.231 270.799 558.185 276.863 563.61 277.887C563.61 277.887 566.229 280.546 566.822 281.044C567.416 281.542 568.712 282.096 569.98 281.653C571.249 281.21 571.195 279.05 571.276 278.524C571.33 277.97 571.087 275.312 568.253 274.482Z" fill="#C0783D"/>
<path d="M527.091 241.67L537.213 245.519C538.508 244.218 539.804 242.169 540.857 240.313C542.152 237.988 543.043 235.939 543.043 235.939L535.971 230.844L532.84 228.573C532.678 233.197 527.091 241.67 527.091 241.67Z" fill="#CE8E55"/>
<path d="M532.624 230.927C532.624 230.927 535.189 238.126 540.83 240.286C542.125 237.96 543.016 235.911 543.016 235.911L535.944 230.816L532.624 230.927Z" fill="#C0783D"/>
<path d="M546.228 235.745C546.228 235.745 533.704 237.766 532.597 229.736C531.491 221.707 529.142 216.584 537.078 214.95C545.04 213.317 547.011 216.169 548.009 218.744C549.035 221.319 549.467 234.997 546.228 235.745Z" fill="#CE8E55"/>
<path d="M527.901 213.483C527.901 213.483 528.468 213.594 528.927 214.092C528.954 212.375 530.627 210.603 530.627 210.603C529.844 211.628 530.087 213.538 530.087 213.538C532.435 209.413 543.934 212.652 545.013 212.929C546.093 213.206 546.849 211.545 546.849 211.545C548.549 213.068 549.197 216.75 547.794 219.159C546.39 221.568 541.801 225.14 540.506 224.448C539.183 223.783 539.183 225.168 539.264 227.134C539.345 229.099 536.025 232.394 533.677 232.865C531.788 233.253 531.653 231.924 531.14 231.093C531.005 230.872 530.87 230.678 530.681 230.539C528.117 228.158 526.713 223.423 527.28 218.744C527.496 216.889 528.252 215.338 528.684 214.563C528.468 214.286 528.144 213.732 527.901 213.483Z" fill="#2C3A64"/>
<path d="M534.136 284.505C534.001 285.086 532.624 289.877 529.035 291.095C526.713 291.898 521.018 293.892 515.971 294.279C514.81 293.282 513.919 292.175 513.407 290.901C510.492 283.619 515.242 278.22 515.242 278.22C515.242 278.22 525.148 280.545 534.136 284.505Z" fill="#AA3E39"/>
<path d="M506.443 268.03C506.443 268.03 495.538 279.604 504.85 293.089C514.162 306.573 529.331 317.455 530.168 322.245C531.788 331.549 541.451 350.765 546.039 360.262L549.98 358.711C549.98 358.711 542.584 313.662 539.966 308.262C537.348 302.863 523.717 277.611 523.717 277.611L506.443 268.03Z" fill="#CE8E55"/>
<path d="M543.583 248.62C542.611 248.952 540.236 249.838 539.615 250.946C538.94 252.054 532.004 248.98 531.194 246.1C533.191 243.858 536.592 241.947 538.563 242.612C539.75 242.944 541.64 245.491 543.583 248.62Z" fill="#6488D3"/>
<path d="M503.636 271.297C503.636 271.297 516.807 280.933 525.607 280.379C525.607 280.379 531.383 290.486 532.678 293.836C532.678 293.836 517.698 301.534 509.898 300.094C509.898 300.094 499.749 289.987 500.343 282.899C500.937 275.838 503.636 271.297 503.636 271.297Z" fill="#B84C42"/>
<path d="M539.777 253.189L536.619 257.813L536.376 258.394L529.817 273.762L526.47 281.598C524.23 282.152 520.073 281.764 518.211 281.072C508.062 277.5 503.636 271.297 503.636 271.297C509.547 255.459 517.698 244.661 519.372 242.75C522.287 239.511 529.871 236.852 529.871 236.852C531.95 239.04 539.399 242.916 539.399 242.916C541.046 244.245 539.777 253.189 539.777 253.189Z" fill="#739CF3"/>
<path d="M536.376 258.394L529.817 273.762C524.824 263.434 527.982 248.454 527.982 248.454C527.982 248.454 535.998 255.57 536.268 256.124C536.295 256.207 536.376 257.065 536.376 258.394Z" fill="#6488D3"/>
<path d="M566.04 276.752H566.013C562.963 275.035 546.714 265.87 545.985 263.655C545.553 262.298 543.502 256.567 541.262 251.5C540.695 250.226 540.128 249.008 539.561 247.873C538.32 245.436 537.159 243.608 536.268 243.193C533.353 241.836 526.524 245.879 526.524 248.869C526.524 248.869 527.334 251.029 528.603 254.047C529.116 255.238 529.682 256.567 530.276 257.951C532.786 263.628 536.079 270.079 538.347 271.242C542.017 273.097 555.972 279.161 561.397 280.186C561.397 280.186 564.015 282.844 564.609 283.342C565.203 283.84 566.498 284.394 567.767 283.951C569.036 283.508 569.306 281.764 569.36 281.21C569.414 280.656 569.953 277.749 566.04 276.752Z" fill="#CE8E55"/>
<path d="M541.262 251.5C538.616 252.718 533.839 255.127 530.276 257.951C529.682 256.567 529.116 255.238 528.603 254.047C527.334 251.029 526.524 248.869 526.524 248.869C526.524 245.879 533.38 241.836 536.268 243.193C537.159 243.608 538.32 245.464 539.561 247.873C540.128 249.008 540.695 250.226 541.262 251.5Z" fill="#739CF3"/>
<path d="M544.501 363.972H546.849C547.632 363.862 548.225 363.64 549.035 363.557C550.277 363.419 550.844 363.862 550.951 363.972C550.978 363.972 550.978 364 550.978 364H560.992C561.235 363.668 560.992 362.92 560.776 362.366C560.614 361.979 560.264 361.702 559.832 361.591C558.779 361.314 556.674 361.065 554.757 359.487C553.678 358.601 549.548 356.219 549.548 356.219H549.521C549.44 356.219 549.008 356.33 547.119 357.77C546.147 358.518 544.501 356.718 544.501 356.718C544.501 356.718 544.177 356.939 543.961 357.382C543.772 357.715 543.637 358.185 543.745 358.767C543.907 359.597 543.421 361.12 543.016 362.145C542.773 362.782 542.584 363.225 542.584 363.225C542.584 363.225 542.476 363.751 544.501 363.972Z" fill="#739CF3"/>
<path d="M543.961 357.382C544.528 357.742 545.715 358.462 546.498 358.545C547.551 358.684 549.548 356.219 549.548 356.219H549.521C549.44 356.219 549.008 356.33 547.119 357.77C546.147 358.518 544.501 356.718 544.501 356.718C544.501 356.718 544.177 356.967 543.961 357.382Z" fill="#415DA5"/>
<path d="M544.501 363.972H546.849C547.632 363.862 548.225 363.64 549.035 363.557C550.277 363.419 550.844 363.862 550.951 363.972C550.978 363.972 550.978 364 550.978 364H560.992C561.235 363.668 560.992 362.92 560.776 362.366C560.479 362.117 560.398 363.446 560.209 363.64C560.021 363.834 552.031 363.723 551.572 363.419C551.113 363.114 549.71 362.588 547.793 363.003C546.12 363.363 543.637 362.422 543.016 362.173C542.773 362.809 542.584 363.252 542.584 363.252C542.584 363.252 542.476 363.751 544.501 363.972Z" fill="#415DA5"/>
<path d="M1036.42 390H71.9367C71.5048 390 71.127 389.64 71.127 389.169C71.127 388.726 71.4779 388.339 71.9367 388.339H1036.42C1036.85 388.339 1037.23 388.699 1037.23 389.169C1037.23 389.64 1036.88 390 1036.42 390Z" fill="#2E3552"/>
</g>
<path d="M1169.02 390H0.980639C0.457631 390 0 389.567 0 389C0 388.467 0.424943 388 0.980639 388H1169.02C1169.54 388 1170 388.433 1170 389C1170 389.567 1169.58 390 1169.02 390Z" fill="#2E3552"/>
<defs>
<clipPath id="clip0_503_5172">
<rect width="970.341" height="390" fill="white" transform="translate(66.8857)"/>
</clipPath>
</defs>
</svg>
