<?xml version="1.0" encoding="UTF-8"?>
<svg id="_Слой_1" data-name="Слой 1" xmlns="http://www.w3.org/2000/svg" viewBox="0 0 1508.04 441.9">
  <defs>
    <style>
      .cls-1 {
        fill: #f2f3f5;
      }

      .cls-1, .cls-2, .cls-3, .cls-4, .cls-5, .cls-6, .cls-7, .cls-8, .cls-9, .cls-10, .cls-11, .cls-12, .cls-13, .cls-14, .cls-15, .cls-16, .cls-17, .cls-18, .cls-19, .cls-20, .cls-21, .cls-22, .cls-23, .cls-24, .cls-25, .cls-26, .cls-27, .cls-28, .cls-29, .cls-30, .cls-31, .cls-32, .cls-33, .cls-34, .cls-35, .cls-36, .cls-37, .cls-38, .cls-39, .cls-40, .cls-41, .cls-42, .cls-43, .cls-44, .cls-45, .cls-46, .cls-47, .cls-48, .cls-49, .cls-50, .cls-51, .cls-52, .cls-53, .cls-54, .cls-55, .cls-56, .cls-57, .cls-58, .cls-59, .cls-60, .cls-61, .cls-62 {
        stroke-width: 0px;
      }

      .cls-2 {
        fill: #4c475f;
      }

      .cls-3 {
        fill: #4c4b4c;
      }

      .cls-4 {
        fill: #5f5b5c;
      }

      .cls-5 {
        fill: #5d6681;
      }

      .cls-6 {
        fill: #768199;
      }

      .cls-7 {
        fill: #5d6a8b;
      }

      .cls-8 {
        fill: #828ca5;
      }

      .cls-9 {
        fill: #83869b;
      }

      .cls-10 {
        fill: #274896;
      }

      .cls-11 {
        fill: #2a2831;
      }

      .cls-12 {
        fill: #474753;
      }

      .cls-13 {
        fill: #2c282f;
      }

      .cls-14 {
        fill: #292526;
      }

      .cls-15 {
        fill: #464052;
      }

      .cls-16 {
        fill: #313246;
      }

      .cls-17 {
        fill: #384761;
      }

      .cls-18 {
        fill: #3b3e4f;
      }

      .cls-19 {
        fill: #264795;
      }

      .cls-20 {
        fill: #264796;
      }

      .cls-21 {
        fill: #272326;
      }

      .cls-22 {
        fill: #5a5859;
      }

      .cls-23 {
        fill: #5a5253;
      }

      .cls-24 {
        fill: #57505f;
      }

      .cls-25 {
        fill: #3c3a4f;
      }

      .cls-26 {
        fill: #3f3e3e;
      }

      .cls-27 {
        fill: #453f4d;
      }

      .cls-28 {
        fill: #423e3f;
      }

      .cls-29 {
        fill: #232022;
      }

      .cls-30 {
        fill: #232023;
      }

      .cls-31 {
        fill: #232021;
      }

      .cls-32 {
        fill: #232940;
      }

      .cls-33 {
        fill: #23283b;
      }

      .cls-34 {
        fill: #232024;
      }

      .cls-35 {
        fill: #231f20;
      }

      .cls-36 {
        fill: #231f21;
      }

      .cls-37 {
        fill: #221e1f;
      }

      .cls-38 {
        fill: #252123;
      }

      .cls-39 {
        fill: #252226;
      }

      .cls-40 {
        fill: #24242e;
      }

      .cls-41 {
        fill: #242123;
      }

      .cls-42 {
        fill: #cbcfd8;
      }

      .cls-43 {
        fill: #dce2ee;
      }

      .cls-44 {
        fill: #acb6c8;
      }

      .cls-45 {
        fill: #d5d8de;
      }

      .cls-46 {
        fill: #d6d5dd;
      }

      .cls-47 {
        fill: #bbbfc8;
      }

      .cls-48 {
        fill: #a5aec1;
      }

      .cls-49 {
        fill: #b0b8c9;
      }

      .cls-50 {
        fill: #b0c6de;
      }

      .cls-51 {
        fill: #dadfe8;
      }

      .cls-52 {
        fill: #9da4b6;
      }

      .cls-53 {
        fill: #8e97ac;
      }

      .cls-54 {
        fill: #7f9fc8;
      }

      .cls-55 {
        fill: #9fa8b7;
      }

      .cls-56 {
        fill: #fdfdfd;
      }

      .cls-57 {
        fill: #fdfefe;
      }

      .cls-58 {
        fill: #6b6667;
      }

      .cls-59 {
        fill: #e5ecf4;
      }

      .cls-60 {
        fill: #fefefe;
      }

      .cls-61 {
        fill: #eeeff1;
      }

      .cls-62 {
        fill: #f4f5f7;
      }
    </style>
  </defs>
  <path class="cls-19" d="m754.37,438.98c-191.23,0-382.46.01-573.69-.02-21.66,0-42.69-3.64-63.03-11.25-54.67-20.46-95.99-67.48-109.17-124.33-2.39-10.3-3.8-20.73-4.35-31.3-2.58-49.86,16.51-96.16,47.75-128.94,25.66-26.93,56.79-44.12,93.24-51.56,11.31-2.31,22.77-3.32,34.32-3.29,3.36,0,6.72,0,10.08,0,2.62,0,2.65-.08,2.89-2.46.41-4.08,1.35-8.04,3.03-11.79,4.46-9.92,12.08-16.21,22.41-19.3,3.81-1.14,7.74-1.58,11.72-1.62,2.43-.02,4.75.53,7.03,1.31,3.76,1.28,7.31,3.01,10.87,4.73,2.92,1.4,5.83,2.81,8.75,4.21,3.05,1.47,6.29,2.27,9.63,2.77,20.68,3.11,40.94,7.91,60.55,15.25,4.71,1.76,9.34,3.76,13.96,5.76,1.68.73,3.34,1.17,5.19,1.16,15.6-.04,31.19-.01,46.79-.04,1.55,0,3.12-.17,4.65-.43,4.61-.79,9.19-1.68,13.8-2.5,1.5-.27,2.63-.87,3.34-2.34.99-2.05,2.23-3.97,3.24-6.01.64-1.28,1.17-2.64,1.54-4.02.59-2.15.34-2.88-1.59-3.68-3.53-1.48-5.52-4.5-6.92-7.92-1.57-3.83-2.17-7.9-2.04-11.98.21-6.79,1.84-13.28,5.2-19.26,5.98-10.67,15.16-17.04,26.87-20.05,7.72-1.98,15.41-1.97,23.12.09,7.24,1.94,14.13,4.6,20.17,9.15,9.73,7.33,14.73,17.06,15.14,29.25.24,7.11-1.26,13.79-4.11,20.25-2.19,4.95-4.88,9.62-7.86,14.13-.92,1.4-1.86,2.8-2.76,4.21-.29.45-.02,1.01.47,1.06.36.03.72.05,1.08.05,1.08,0,2.16,0,3.24,0,279.65,0,559.29,0,838.94,0,7.44,0,14.88.21,22.27,1.09,15.55,1.85,30.63,5.6,45.17,11.46,50.83,20.46,89.29,63.5,103.84,116.27,2.71,9.84,4.5,19.85,5.46,30.03.89,9.46,1.07,18.92.4,28.39-1.65,23.36-7.55,45.6-18.17,66.5-17.75,34.93-44.21,61.2-79.23,78.75-16.52,8.28-34,13.64-52.31,16.24-9.16,1.3-18.36,1.97-27.61,1.97-191.11,0-382.22,0-573.33,0Z"/>
  <path class="cls-60" d="m46.58,260.99c-.23-13.91,1.72-27.5,5.82-40.78,6.2-20.05,16.54-37.69,30.92-52.96,17.24-18.31,37.91-31.09,62.14-37.97,11.01-3.13,22.25-4.78,33.72-4.83,9.61-.04,19.19.29,28.66,2.06.24.04.47.07.71.09.87.08,1.71.03,2.2-.83.57-1,.16-1.84-.51-2.61-.48-.54-.99-1.05-1.45-1.6-6.7-7.97-11.42-16.9-12.65-27.35-1.28-10.95,1.37-20.75,9.45-28.61,5.55-5.4,12.46-7.91,20.07-8.72,4.39-.47,8.61.07,12.62,1.97,4.66,2.2,9.35,4.34,13.97,6.61,4.56,2.24,9.33,3.61,14.36,4.39,21.37,3.35,42.31,8.39,62.48,16.36,7.03,2.78,13.87,5.98,20.69,9.23,1.94.93,3.96,1.7,5.96,2.52,1.49.61,3,.64,4.58.34,17.44-3.26,34.87-6.52,52.33-9.68,1.86-.34,2.97-1.13,3.88-2.72,1.72-3.02,3.47-6.02,4.88-9.21.73-1.65,1.29-3.37,1.41-5.18.15-2.23-.53-4.09-2.81-4.88-3.81-1.32-5.63-4.32-6.74-7.87-2.01-6.39-1.65-12.82.23-19.14,3.72-12.52,11.94-20.8,24.24-25.06,3.64-1.26,7.44-1.85,11.26-2.28,3.5-.39,6.94.02,10.37.69,8.95,1.75,17.31,4.87,24.34,10.89,7.32,6.27,10.98,14.28,11.56,23.88.54,8.96-2.09,17.03-6.23,24.76-2.61,4.87-5.64,9.47-8.83,13.98-.42.59-.84,1.17-1.27,1.75-.7.95-.77,1.92-.3,3.04,1.22,2.87,2.44,5.74,3.51,8.66,3.14,8.55,6.3,17.09,9.28,25.7,1.48,4.28,2.14,3.77,5.42,3.23,6.75-1.11,13.57-1.74,20.4-1.93,36.47-1.04,68.06,10.7,94.23,36.34,20.18,19.77,33.14,43.56,38.92,71.2,2.99,14.31,3.48,28.77,1.88,43.3-2.07,18.85-7.82,36.52-17.25,52.95-11,19.15-25.58,34.97-44.24,46.92-11.51,7.37-23.98,12.56-37.22,15.87-13.82,3.46-27.88,4.94-42.09,4.31-33.11-1.48-61.73-13.76-85.74-36.56-17.85-16.96-30.3-37.32-37.31-60.95-.99-3.33-1.73-6.73-2.58-10.1-.15-.58-.19-1.19-.36-1.76-.5-1.62-1.43-2.11-2.98-1.54-1.8.66-3.57,1.39-5.37,2.05-.98.36-1.6,1.01-1.89,2-.33,1.15-.61,2.32-1,3.45-6.05,17.64-17.43,30.38-34.75,37.57-5.71,2.37-11.7,3.41-17.9,3.42-6.25,0-12.48-.02-18.6-1.47-1.52-.36-3.03-.73-4.53-1.15-1.19-.33-2.13-.07-2.83.95-.48.69-.94,1.39-1.41,2.08-7.79,11.32-16.73,21.65-27.38,30.37-16.7,13.68-35.52,23.09-56.81,27.26-13.86,2.72-27.87,3.44-41.91,2.19-19.28-1.72-37.27-7.71-53.94-17.53-21.33-12.57-38.21-29.59-50.51-51.09-7.94-13.87-13.22-28.71-15.59-44.54-.48-3.2-.93-6.41-1.15-9.64-.27-3.95-.27-7.91-.39-11.86Z"/>
  <path class="cls-60" d="m809.93,261.72c1.55.58,2.89,1.09,4.24,1.59.9.33,1.82.61,2.7.99,3.95,1.7,5.89,4.7,5.89,9.01,0,2.29-.23,4.54-.62,6.79-1.23,7.08-2.41,14.17-3.66,21.25-.59,3.31-1.63,6.51-3.02,9.57-3.05,6.73-8.03,11.21-15.27,13.09-2.68.69-5.36,1.27-8.13,1.37-2.04.08-4.07.17-6.11.17-32.61.01-65.23.01-97.84,0-1.28,0-2.63.35-4-.53.44-2.91.87-5.85,1.35-8.79,2.61-16.08,5.22-32.16,7.85-48.24,1.8-10.99,3.65-21.98,5.44-32.97,1.58-9.69,3.1-19.4,4.65-29.1.02-.12.03-.24.05-.36,1.09-4.52-.29-4.07,4.88-4.07,33.21-.01,66.42,0,99.64-.01,4.33,0,8.62.25,12.82,1.41,8.16,2.25,11.62,7.09,11.11,15.64-.21,3.46-.86,6.89-1.38,10.33-.63,4.14-1.39,8.27-1.99,12.42-.77,5.38-3.19,9.76-7.68,12.88-2.55,1.78-5.21,3.42-7.79,5.15-.98.65-2.16,1.05-3.13,2.41Z"/>
  <path class="cls-60" d="m1218.74,325.65c-10.8-.09-21.59-.17-32.38-.29-4.09-.05-8.12-.65-12.12-1.48-3.08-.64-5.99-1.71-8.63-3.45-3.7-2.44-5.94-5.82-6.76-10.18-.65-3.46-.64-6.91-.27-10.39.83-7.75,2.34-15.4,3.53-23.1,1.51-9.71,3.15-19.4,4.73-29.1.97-5.91,1.88-11.84,2.93-17.73.7-3.91,1.92-7.67,3.67-11.25,3.26-6.67,8.31-11.32,15.41-13.73,3.88-1.32,7.87-2.12,11.91-2.64,4.64-.6,9.31-.84,14-.83,17.03.02,34.07.02,51.1,0,6.01,0,11.98.38,17.9,1.47,2.37.44,4.65,1.13,6.84,2.14,6.4,2.93,9.68,7.96,10.12,14.93.27,4.21-.16,8.39-.83,12.54-2.28,13.96-4.59,27.91-6.87,41.86-1.04,6.39-2.03,12.78-3.07,19.17-.71,4.39-1.83,8.66-3.51,12.79-3.44,8.44-9.43,14-18.27,16.42-5.11,1.4-10.31,2.3-15.59,2.47-6.95.23-13.91.22-20.87.28-4.32.04-8.64,0-12.96,0,0,.03,0,.06,0,.09Z"/>
  <path class="cls-60" d="m1101.77,229.48c-.95-.71-1.82-.52-2.64-.52-13.92-.01-27.83,0-41.75,0-.36,0-.72,0-1.08,0-1.6.07-1.73.14-2.07,1.85-.38,1.88-.69,3.77-1,5.67-2.86,17.5-5.76,35-8.55,52.52-.96,6.04-1.98,12.07-3.87,17.9-.7,2.16-1.58,4.27-2.51,6.34-2.09,4.61-5.61,7.65-10.37,9.39-4.09,1.49-8.33,2.31-12.63,2.62-8.38.61-16.79.26-25.18.32-.12,0-.24,0-.36-.01-1.1-.09-1.44-.49-1.25-1.65,1.39-8.64,2.79-17.27,4.2-25.91.19-1.17.47-1.46,1.63-1.48,2.76-.04,5.52,0,8.28-.04,1.18-.02,2.4.23,3.55-.31.98-2.25.99-4.7,1.39-7.05,2.32-13.95,4.53-27.92,6.79-41.88.94-5.8,1.86-11.6,2.88-17.38.75-4.27,2.03-8.37,4.07-12.23,3.22-6.12,8.07-10.3,14.59-12.63,3.87-1.38,7.86-2.16,11.9-2.69,4.52-.59,9.07-.84,13.64-.83,26.63.02,53.26,0,79.9,0,.95,0,1.89,0,2.57,0,.9.83.65,1.57.54,2.24-1.98,12.18-3.99,24.36-5.98,36.55-1.8,11-3.59,22-5.38,33-1.6,9.82-3.21,19.63-4.81,29.45-1.06,6.51-2.1,13.01-3.14,19.52-.06.36-.08.72-.14,1.07-.36,1.97-.59,2.2-2.53,2.23-1.92.04-3.84,0-5.76.01-8.76,0-17.51,0-26.27,0-.96,0-1.92,0-2.88-.05-.92-.06-1.23-.47-1.08-1.44.97-6.03,1.97-12.06,2.95-18.1,1.83-11.24,3.65-22.48,5.48-33.71,1.81-11.12,3.64-22.24,5.44-33.36.52-3.18.99-6.36,1.46-9.43Z"/>
  <path class="cls-60" d="m961.47,273.5h-4.19c-20.27,0-40.55,0-60.82,0-4.52,0-3.61-.39-4.4,3.76-1.09,5.77-1.94,11.58-2.87,17.38-.07.46,0,.95,0,1.44,1.26.72,2.61.39,3.9.39,22.43.02,44.87.01,67.3.03,1.3,0,2.64-.27,4.07.39-.22,1.61-.42,3.26-.68,4.89-1.16,7.22-2.33,14.44-3.51,21.65-.32,1.98-.44,2.07-2.56,2.13-.6.02-1.2,0-1.8,0-35.27,0-70.54,0-105.81-.02-1.28,0-2.63.33-4.01-.5.46-3.04.88-6.1,1.38-9.15,2.11-13.01,4.23-26.02,6.36-39.03,2.3-14.07,4.64-28.14,6.93-42.22,1.56-9.58,3.07-19.17,4.6-28.76.06-.36.09-.72.18-1.06.85-3.45-.21-3.33,4.06-3.33,35.63,0,71.26,0,106.89.01,1.05,0,2.16-.26,3.26.41.28,2.61-.58,5.15-.95,7.73-.82,5.69-1.84,11.36-2.77,17.03-.36,2.2-.41,2.24-2.8,2.28-.84.02-1.68,0-2.52,0-22.31,0-44.63,0-66.94,0-4.64,0-3.68-.29-4.43,3.73-1.09,5.89-1.92,11.83-2.85,17.75-.19,1.23.06,1.57,1.21,1.62,1.08.05,2.16.03,3.24.03,20.03,0,40.07.01,60.11,0,5.12,0,4.02.02,3.47,4.05-.65,4.75-1.5,9.47-2.29,14.2-.16.94-.43,1.87-.74,3.18Z"/>
  <path class="cls-56" d="m1359.26,335.66c.78.72,1.49,1.33,2.15,2,2.83,2.92,4.22,6.31,3.54,10.45-.41,2.49-.76,4.98-1.55,7.38-2.28,6.98-6.87,11.66-13.91,13.88-2.41.76-4.87,1.27-7.41,1.29-4.44.03-8.87.03-13.31.01-2.79-.01-5.5-.58-8.05-1.65-6.06-2.53-9.51-7.06-10.09-13.67-.04-.48-.1-.96-.08-1.44.14-6.02-.25-5.04,4.98-5.12,2.4-.03,4.79.01,7.19.05.69,0,1.08.4,1.11,1.11.04.96,0,1.93.14,2.87.62,3.99,3.01,6.17,7.07,6.28,3.47.1,6.95.02,10.43,0,1.83-.01,3.55-.51,5.17-1.36,2.26-1.18,3.7-3.02,4.25-5.5.31-1.4.58-2.82.77-4.24.3-2.27-.66-3.95-2.59-5.11-1.48-.89-3.12-1.2-4.82-1.21-3.12-.03-6.23,0-9.35-.04-1.18-.01-2.39.18-3.49-.23-.52-.91-.06-1.71.07-2.51.4-2.36.77-4.73,1.21-7.08.24-1.28.59-1.55,1.97-1.57,3.24-.03,6.47-.04,9.71,0,1.7.02,3.37-.14,4.96-.7,2.9-1.02,4.94-2.88,5.44-6.09.18-1.18.51-2.35.64-3.54.29-2.71-1-4.84-3.71-5.31-4.98-.87-10.03-.82-15.03-.02-1.94.31-3.46,1.6-4.67,3.15-.89,1.14-1.54,2.42-2.01,3.79-.3.9-.42,1.98-1.02,2.62-.77.83-2.05.38-3.1.4-3.22.04-6.45.01-9.5.01-.63-.94-.35-1.63-.16-2.3.29-1.04.57-2.08.92-3.1,3.47-9.91,10.28-15.76,20.87-16.53,5.6-.41,11.26-.47,16.87.33,2.76.4,5.37,1.25,7.74,2.73,4.99,3.12,7.04,7.65,6.32,13.45-.09.71-.34,1.4-.41,2.12-.56,5.76-3.44,10.1-8.11,13.37-.38.27-.7.62-1.14,1.02Z"/>
  <path class="cls-56" d="m1419.08,345.53c2.35.01,4.37,0,6.39.04,1.85.04,1.97.23,1.64,2.18-.45,2.6-.87,5.2-1.35,7.79-.24,1.3-.59,1.57-1.95,1.6-1.68.04-3.36-.01-5.03.03-1.67.04-1.86.19-2.16,1.75-.5,2.59-.95,5.18-1.43,7.77-.13.71-.27,1.41-.44,2.11-.15.62-.48,1.11-1.19,1.12-3.72,0-7.43.01-11.15-.01-.75,0-1.02-.55-.91-1.21.37-2.24.83-4.47,1.17-6.72.81-5.32,1.7-4.8-3.95-4.81-7.07-.01-14.15,0-21.22,0-1.32,0-2.65,0-3.95-.16-3.75-.48-5.47-2.75-5.08-6.44.2-1.89,1.1-3.31,2.43-4.64,8.04-8.07,16.01-16.2,24.01-24.3,5.22-5.29,10.45-10.57,15.68-15.85.51-.51,1.03-1.01,1.52-1.53.61-.64,1.3-1,2.21-.99,3.6.02,7.19,0,10.79.03.9,0,1.24.46,1.08,1.42-.66,3.9-1.34,7.79-2.03,11.68-1.61,9.08-3.22,18.16-4.83,27.24-.08.47-.13.94-.27,1.93Z"/>
  <path class="cls-20" d="m348.31,284.19c1.03-1.76,2.23-3.4,3.61-4.9.82-.9,1.79-1.66,3.14-1.24,1.13.35,1.72,1.45,1.64,3.28-.13,3.25-.69,6.43-1.93,9.44-3.63,8.74-9.62,15.32-18.13,19.54-3.59,1.78-7.41,2.56-11.43,2.67-6.15.17-12.19-.41-18.07-2.25-1.36-.43-2.88-.3-4.09-1.19-5.03-1.79-9.82-4.24-15.09-5.35-2.07-.57-4.14-1.13-6.2-1.73-.87-.25-1.64-.24-2.32.43-1.36-.22-2.73-.45-4.1-.64-2.47-.66-4.98-1.12-7.51-1.49-4.84-1.46-9.8-2.33-14.78-3.12-16.35-4.03-32.89-7.19-49.37-10.63-1.44-.3-2.89-.17-4.23.4-6.98,2.94-13.56.92-20.12-1.54-.48-3.22,1.44-5.08,3.85-6.59,1.93-1.2,4.07-2.02,6.04-3.15,2.97-1.7,5.45-3.9,6.55-7.28,1.88-5.76-.76-9.31-6.89-9.33-8.26-1.2-12.43,2.5-12.29,10.84.03,1.92.51,3.77.61,5.67.09,1.71,0,3.43-1.8,4.31-1.67.83-3.23.26-4.71-.66-1.77-1.1-2.78-2.91-4.21-4.33-7.52-10.72-4.86-27.04,6.84-34.04,1.3-.71,2.43-1.65,3.6-2.55,6.03-2.43,12.22-3.12,18.61-1.72,2.8,1.59,4.44-.02,5.98-2.11,7.81-10.62,16.06-20.9,23.95-31.46,1.36-1.82,2.61-3.73,5.09-4.28.95-.21,1.56-1.07,2.17-1.81,6.2-7.46,12.18-15.11,18.77-22.23,2.15-2.32,2.11-5.47,4.07-7.79,5.1-6.04,9.9-12.32,15.02-18.34,2.52-2.97,3.66-5.66,2.51-9.72-1.73-6.08-2.78-12.38-2.78-18.78.06-.76.59-1.24,1.04-1.77.28-.79.53-1.59.84-2.37.37-.94,1.07-1.55,1.96-2,1.39-.71,2.24-.57,3.08.67.47.69.85,1.45,1.25,2.18,3.22,5.88,6.44,11.75,9.66,17.63.35.63.73,1.24,1.06,1.87.39.75,1.01.99,1.79.87,2.01-.33,4.01-.66,6.01-1.03,17.77-3.29,35.53-6.58,53.3-9.87,18.94-3.51,37.88-7.03,56.82-10.54,9.65-1.79,19.3-3.55,28.95-5.33,1.29-.24,2.58-.52,3.87-.79.58-.13.56-.71.79-1.11,4.05-.82,4.05-.87,3-4.86-1.79-6.76-4.21-13.36-5.13-20.34-.15-1.16-.62-2.31-.02-3.48.17-.43.49-.86.5-1.3.06-1.79.48-3.32,2.32-4.08.61-.26.76-.89.95-1.45,1.01-2.94,2.05-5.88,2.98-8.85.78-2.49,1.15-5.05.71-7.67-1.1.02-1.08.92-1.41,1.49-.78,1.35-1.42,2.78-2.5,3.93-.69.73-1.49,1.29-2.53,1.06-1.3-.29-2.25.11-3.23.97-2.5,2.19-6.49.38-7.31-2.36-.31-1.03-.58-2.09-.64-3.15-.27-5.05.08-10.06,1.43-14.95.44-1.6,1.05-3.2,1.81-4.68,3.68-7.17,9.65-9.59,17.41-7.87,2.91.64,5.76,1.64,8.56,2.68,4.6,1.71,8.36,4.66,11.38,8.49,3.73,4.73,4.48,9.9,2.04,15.5-1.01,2.31-2.2,4.52-3.47,6.69-2.99,5.07-6.35,9.87-10.16,14.35-1.48,1.73-3.02,3.4-4.81,4.83-1.12.9-1.18,1.06-.5,2.03,5.26,7.54,8.45,16.09,12,24.46,6.35,14.99,12.41,30.1,18.19,45.32.41,1.08.5,2.4,1.89,2.85,1.56,4.22,4.02,8.16,4.01,12.87.69,2.11,1.39,4.22,2.08,6.34,1.67,1.65,1.9,4.13,3.42,5.88-1.01.59-1.62,1.36-1.14,2.61.26.67.47,1.36.72,2.03,7.02,18.95,14.05,37.89,21.07,56.83.21.56.42,1.12.64,1.68q.82,2.09,3.14,2.81c.94,1.9.51,3.68-.49,5.4-1.12.61-2.33.9-3.57,1.13-3.59-.15-3.55-3.46-4.88-5.59-2.08-5.54-4.86-10.76-7.32-16.13-.38-1.26-.92-2.46-1.52-3.64-.53-1.16-1.13-2.3-1.53-3.52-.21-.59-.45-1.18-.72-1.74-.54-1.15-1.13-2.27-1.53-3.48-.44-1.4-1.18-2.63-2.15-3.72-7.58-16.9-16.11-33.36-23.21-50.48-4.68-11.26-9.95-22.26-14.84-33.42-1.68-3.84-1.8-3.78-4.99-1.31-1.2.46-1.78,1.57-2.53,2.47-17.23,20.88-34.45,41.77-51.67,62.66-14.25,17.28-28.52,34.55-42.77,51.83-3.1,3.77-2.8,2.62-.9,6.81,2.22.99,3.7-.92,5.54-1.42.47-.39,1.26-.11,1.62-.76l-.03.06c.69-.53,1.68-.04,2.33-.7,1.95-.55,3.91-1.09,5.85-1.66,2.88-.85,5.72-.51,8.47.44,4.02,1.39,5.51,5.12,3.71,8.99-1.22,2.62-3.22,4.4-5.97,5.37-2.61.92-5.3,1.48-8,2.04-5.63,1.15-11.26,2.27-16.88,3.45-4.12.86-8.04,2.32-11.81,4.2-2.78,1.39-5.58,2.75-8.38,4.11-.65.31-1.3.62-1.98.85-1.69.56-2.83-.51-2.44-2.27.08-.34.34-.64.43-.98.27-1.07-.63-.67-1.09-.83-.35-.51-.09-.95.31-1.19,5.28-3.05,9.23-7.83,14.44-11,3.4-2.07,3.38-3.46.69-6.5-2.68-3.02-5.94-5.01-9.86-5.96-2.67-1.15-5.44-.83-8.11-.24-5.81,1.27-10.59,4.31-14.18,9.1-2.51,3.35-3.93,7.08-3.9,11.32,0,.96.03,1.91-.01,2.87-.49,9.79,8.88,19.8,18.69,20.85,2.99.32,5.97.1,8.93-.44.38-.4.9-.35,1.39-.41,5.42-2.18,10.34-4.99,13.11-10.49.51-.68,1.27-1.04,1.98-1.45Z"/>
  <path class="cls-37" d="m270.74,120.38c.19.69.53,1.37.54,2.06.08,6.75,1.78,13.23,3.29,19.74.4,1.71.21,2.93-.91,4.26-2.99,3.57-5.85,7.25-8.79,10.86-3.32,4.07-6.68,8.12-10.02,12.18-.22.27-.52.64-.24.96,1.02,1.2.11,1.9-.58,2.73-5.74,6.88-11.45,13.78-17.19,20.67-1.61,1.93-3.25,3.82-4.9,5.71-.38.44-.81,1.04-1.47.82-1.38-.47-1.98.47-2.63,1.32-4.77,6.28-9.51,12.58-14.28,18.86-3.97,5.23-7.97,10.45-11.96,15.68-.29.38-.62.73-.94,1.08-1.99,2.18-2.48,2.22-5.07.35-.35-1.94,1.05-3.11,2.03-4.39,8.21-10.78,16.48-21.51,24.71-32.28,2.67-3.49,2.5-3.52-1.12-5.97-10.8-7.3-22.92-9.76-35.69-10.81-12.45-1.03-24.35.41-36.02,4.72-17.32,6.4-29.09,19.08-38.57,34.19-7.21,11.48-10.76,24.14-11.48,37.76-.77,14.48,1.98,28.11,7.98,41.2,1.15,2.5,2.2,5.06,2.92,7.73.3,1.13.86,2.61-.55,3.17-1.06.43-1.97-.7-2.57-1.61-3.71-5.61-7.21-11.35-9.82-17.56-4.06-9.69-6.48-19.73-7.04-30.3-1.22-23.24,4.84-44.15,19.55-62.26,14.89-18.33,33.91-29.79,57.53-33.01,20.93-2.85,40.78,1.29,59.98,9.52,3.08,1.32,6.05,2.91,9.24,3.95.23.07.47-.05.92-.36-.44-2.21-2.49-2.85-4.11-3.77-7.67-4.36-15.97-7.2-24.48-9.32-26.9-6.69-52.82-4.17-76.73,10.2-25.73,15.46-40.66,38.54-44.26,68.42-2.07,17.19-1.4,34.3,5.79,50.49,14.53,32.68,39.01,53.59,74.47,59.59,28.89,4.89,55.72-1.52,78.49-20.69,10.92-9.2,20.74-19.64,27.24-32.67.25-.47.54-.92.87-1.34.24-.25.5-.49.77-.71.68,0,1.36.03,2.04.02.93-.01,1.46.48,1.75,1.31-.4,2.64-1.49,5.05-2.59,7.44-2.07,4.47-4.59,8.69-7.41,12.72-11.18,15.98-24.9,29.09-42.48,37.93-9.84,4.95-20.22,8.16-31.12,9.59-8.81,1.16-17.65,1.64-26.55.99-11.85-.85-23.23-3.6-34.01-8.49-27.3-12.37-46.93-32.35-58.57-60.01-5.13-12.18-7.51-24.96-7.62-38.19-.06-8.29.35-16.52,1.93-24.69,2.99-15.43,9.08-29.52,18.25-42.24,14.79-20.51,34.2-34.7,58.48-42.03,8.88-2.68,17.98-4.14,27.28-4.2,7.68-.05,15.35.02,22.97,1.16,9.69,1.46,18.87,4.49,27.64,8.81,5.59,2.75,11.1,5.66,16.65,8.51.53.27,1.05.59,1.58.85,3.63,1.8,2.88,2.19,5.86-1.15,2.63-2.96,5.12-6.04,7.61-9.11,3.25-4,6.45-8.04,9.67-12.07.22-.28.43-.58.68-.84,1.71-1.85,2.05-3.99,1.34-6.35-1.11-3.68-1.72-7.47-2.4-11.24-.6-3.3-1.1-6.63-.9-10.01.7-1.44-.6-3.82,2.05-4.34.76.16,1,.83,1.36,1.39.3.47.61.94.91,1.42.42.47,1.13.82.7,1.65Z"/>
  <path class="cls-37" d="m451.32,133.07c.37-1.78,1.76-2.75,2.88-3.82,1.07.16,1.14,1,1.41,1.59,3.22,7.08,6.4,14.17,9.59,21.26,2.06,4.58,4.22,9.12,6.12,13.77,3.49,8.53,7.37,16.87,11.38,25.17,4.32,8.92,8.29,18.01,12.41,27.03.78,1.3,1.22,2.74,1.76,4.14.44,1.24,1.04,2.41,1.54,3.62.3.58.53,1.19.75,1.8.42,1.41,1,2.75,1.66,4.06.61,1.18.82,2.52,1.48,3.68,1.56,3.69,2.8,7.5,4.19,11.25.66,1.77,1.5,3.17,3.36,3.77.36.46,1.01.93,1.01,1.39,0,2.26,1.44,3.36,3.15,4.32-1.39.94-2.78,1.87-3.85,3.21-3.56,4.45-2.69,10.65,1.95,13.93,1.93,1.36,3.97,1.66,6.1.63,1.29-.62,2.53-1.37,3.74-2.14,2.03-1.28,4-2.65,6.02-3.94,1.21-.77,2.47-1.48,3.94-1.67,1.4-.19,2.36.41,2.69,1.77.14.58.18,1.19.2,1.78.03,1.32.02,2.64.01,3.96-.03,3.5-1.6,6.21-4.33,8.29-2.43,1.86-5.23,2.88-8.22,3.42-4.87.88-9.57.33-14.03-1.82-4.58-2.22-7.53-5.81-8.82-10.76-.87-3.32-.83-6.65-.21-9.98.5-2.67,1.89-4.88,3.64-6.91,3.63-4.21,3.35-2.7,1.06-7.64-8.36-18.05-16.74-36.1-25.13-54.14-.55-1.18-.89-2.49-1.86-3.38-.98-.06-1.65.51-2.37.9-7.45,4.07-13.81,9.51-19.57,15.68-9.32,9.98-15.83,21.61-20.25,34.48-.43,1.24-.9,2.47-1.35,3.7-2.04-.52-.99-1.89-.84-3.02.6-5.78,2.46-11.21,4.76-16.5,5.16-11.87,12.99-21.75,22.64-30.28,3.51-3.1,7.2-5.97,11.11-8.54.9-.59,1.81-1.17,2.69-1.79.94-.67,1.07-1,.51-2.12-2.38-4.75-1.22-4.71-6.43-2.69-8.95,3.46-16.08,9.41-22.22,16.63-8.19,9.62-13.88,20.64-17.9,32.56-3.27,9.71-5.17,19.69-5.56,29.94-.45,11.89,1.28,23.38,5.97,34.41,7.43,17.49,17.83,32.82,32.4,45.13,17.11,14.47,36.85,22.01,59.34,22.18,13.72.1,26.96-2.25,39.64-7.53,16.06-6.68,29.29-17.12,40.18-30.62,6-7.43,10.68-15.6,14.3-24.42,2.18-5.32,4.37-10.63,6.56-15.94,2.04,1.2.7,2.99.79,4.53-.2,3.99-1.38,7.77-2.65,11.51-4.93,14.49-12.86,27.26-22.66,38.92-8.68,10.33-19.1,18.47-31.17,24.48-10.17,5.07-20.93,8.23-32.16,9.87-6.3.92-12.62,1.41-18.99,1.41-24.91-.01-47.13-7.79-66.46-23.44-20.9-16.92-34.16-38.71-39.58-65.01-5.89-28.55-.58-55.22,14.63-80.02,10.15-16.55,23.87-29.26,41.04-38.28,3-1.58,2.67-1.25,1.32-4.29-2.88-6.46-5.79-12.89-8.7-19.34-1.53-3.38-3.08-6.76-4.62-10.14Z"/>
  <path class="cls-37" d="m493.65,183.61c-.97-.08-1.84-.18-2.12-1.44-.33-1.5-.86-2.96-1.3-4.44,10.57-2.93,21.33-4.65,32.32-4.37,20.45.53,38.94,6.78,54.6,20.11,15.46,13.16,26.1,29.57,31.29,49.33,1.32,5.01,1.99,10.11,1.99,15.29,0,3.72.02,7.44,0,11.15-.1,18.12-5.63,34.41-16.64,48.8-8.54,11.15-19.32,19.59-31.88,25.79-12.66,6.25-26.08,9.61-40.18,10-39.34,1.09-69.34-22.01-82.3-50.24-3.11-6.79-5.07-13.96-6.82-21.18-.65-2.67-1.47-5.32-1.51-8.11-.04-2.69-1.25-5.48.73-7.99,1.13,3.56,1.57,7.27,2.02,10.95,2.07,16.73,9.75,30.72,21,42.88,11.84,12.8,26.57,20.67,43.5,24.54,9.42,2.16,18.97,2.98,28.59,1.99,12.01-1.24,23.14-5.23,33.26-11.77,19.36-12.51,32.22-29.88,37.94-52.26,3.97-15.54,2.99-30.98-2.5-46-8.64-23.61-24.46-40.65-47.65-50.59-9.95-4.27-20.44-5.96-31.25-5.74-7.83.16-15.54,1.13-23.08,3.28Z"/>
  <path class="cls-37" d="m488.16,171.4c-1.35-3.62-2.67-7.25-4.08-10.84-.3-.76-.05-1.36.07-2.04,6.83-1.88,13.8-2.98,20.83-3.74,4.76-.52,9.55-.79,14.35-.74,31.89.37,58.01,12.88,78.32,37.4,9.08,10.96,16.27,23.07,20.89,36.61,1.27,3.74,2.45,7.5,2.76,11.48-.05,1.53,1.36,3.32-.81,4.45-.9-1.96-1.83-3.9-2.68-5.87-1.96-4.5-3.99-8.98-5.8-13.54-3.04-7.66-7.4-14.5-12.57-20.86-14.96-18.4-33.86-30.52-57.13-35.6-10.4-2.27-20.91-2.55-31.48-1.52-7.06.69-13.94,2.29-20.78,4.08-.33.26-.78.23-1.14.43-.25.1-.5.2-.75.3Z"/>
  <path class="cls-20" d="m264.84,117.84c-1.88.9-9.14,3.13-10.92,3.36-4.38.57-8.6.08-12.67-1.7-6.34-2.76-12.02-6.52-16.88-11.42-3.7-3.73-6.1-8.28-7.5-13.34-.45-1.62-.57-3.3-.42-4.99.3-3.49,2.16-5.77,5.42-6.91,2.91-1.02,5.9-.96,8.89-.45,3.31.57,6.62,1.14,9.89,1.87,9.31,2.07,18.75,2.51,28.24,2.62,6.47.07,12.95.07,19.43.17,4.32.07,8.64.47,12.85,1.44,3.49.81,6.92,1.93,10.34,3,.77.24,1.48.76,2.16,1.23.34.23.22.64-.07.88-.17.15-.46.32-.64.27-2.42-.61-4.52,1.56-6.97.78-1.25-.4-2.55-.65-3.84-.94-.81-.18-1.68-.51-2.44,0-1.42.98-3,.7-4.53.72-18.35.23-36.69.44-55.04.66-.72,0-1.44.05-2.15.06-.29,0-.48.13-.48.42,0,.22,0,.53.14.66.94.92,1.84,1.92,2.9,2.67,1.76,1.25,3.55,2.47,5.46,3.45,5.01,2.57,10.09,5.01,15.15,7.49,2.15,1.06,4.31,2.11,6.07,3.79.69,2.23-.53,3.37-2.35,4.19Z"/>
  <path class="cls-31" d="m438.54,80.24c.38,1.37.95,2.72,1.11,4.11.59,5.13,2.27,9.97,3.65,14.9.64,2.29,1.36,4.57,1.99,6.86.19.68.25,1.4.24,2.11,0,.29-.31.79-.54.84-1.44.25-2.92,1.14-4.31-.14-1.85-6.53-3.74-13.06-5.55-19.61-.79-2.88-1.19-5.84-1.45-8.82-.08-.95-.19-1.9.13-2.84.2-.6.86-.92,1.41-.6.41.23.84.47,1.16.8.75.76,1.44,1.59,2.15,2.38Z"/>
  <path class="cls-38" d="m330.43,253.08c.45-.12.93-.42,1.34-.34,4.55.95,7.87,3.73,10.59,7.34.35.46.57,1.05.76,1.6.39,1.11.18,2.15-.72,2.92-.71.62-1.52,1.14-2.31,1.66-3.77,2.5-7.38,5.2-10.56,8.44-.85.87-1.77,1.54-2.96,1.88-.65.19-1.39.41-1.74,1.13-1.14.58-2.28,1.17-3.39,1.74-.76-.85-.1-1.24.23-1.6,3.56-3.87,7.7-7.07,12.01-10.05.59-.41,1.22-.75,1.78-1.18,2.36-1.8,2.85-3.86,1.59-6.58-.82-1.76-2.06-3.19-3.48-4.47-.62-.56-1.25-1.09-1.88-1.64-.15-.19-.34-.34-.56-.43-.24-.14-.47-.28-.71-.42Z"/>
  <path class="cls-21" d="m347.03,285.71c-2.7,5.95-7.44,9.31-13.7,10.73-.26-.12-.36-.26-.3-.42.07-.17.14-.25.22-.25h0c.25-.2.51-.39.78-.56,2.98-2.11,5.28-4.8,7.14-7.94,1.46-2.47,2.99-4.91,5.05-6.96.55-.55,1.06-.28,1.38.72.03.11,0,.24,0,.36-.81,1.36.28,2.97-.57,4.33Z"/>
  <path class="cls-14" d="m517.59,254.97c-.12-.3-.43-.71-.33-.9.66-1.29,1.28-2.53.07-3.84.25-.22.51-.44.76-.67,5.64.54,9.32,3.8,11.86,8.61.16.83-.2,1.12-.99.99-3.02-3.47-6.91-4.6-11.36-4.2Z"/>
  <path class="cls-17" d="m287.96,304.17c.4-.3.86-.5,1.33-.36,4.56,1.41,8.97,3.2,13.31,5.17.19.09.3.35.45.54-.99.1-1.87-.28-2.78-.57-4.22-1.3-8.31-2.93-12.31-4.79Z"/>
  <path class="cls-22" d="m528.96,259.17c.33-.33.66-.66.99-.99,1.34,1.3,1.79,3.01,2.11,4.76.03.18-.11.5-.27.6-.32.2-.76.11-.91-.2-.67-1.37-1.28-2.78-1.91-4.17Z"/>
  <path class="cls-26" d="m432.56,242.43c.39.98-.32,2.26.84,3.02,0,.36.1.77-.05,1.06-.53,1.06-.05,2.61-1.55,3.19-.78-1.14-.07-2.3-.02-3.44.06-1.3.02-2.65.78-3.82Z"/>
  <path class="cls-23" d="m431.83,266.33c-.86.87-.64,1.98-.68,3.02-.07,1.65.35,3.31-.04,4.96-1.03-2.78-.87-5.62-.4-8.46.08-.47.47-.9,1-.52.19.14.09.65.13.99Z"/>
  <path class="cls-28" d="m621.33,287.39c-.05-.9-.12-1.8-.13-2.7,0-.7-.05-1.36-.66-1.83-.13-1.13.46-2.06.83-3.04.72-.09.82.39.78.86-.18,2.25.19,4.56-.82,6.7Z"/>
  <path class="cls-55" d="m264.84,117.84c.89-1.34,2.58-2.23,2.35-4.19,1,.55.5,1.49.58,2.27-.72.78-1.34,1.59-1.47,2.72-.07.55-.38,1.08-.58,1.62-.43-.75.15-1.88-.88-2.41Z"/>
  <path class="cls-3" d="m620.48,243.99c.67-.41.71-1.07.72-1.77,0-.9.06-1.79.1-2.69.97,2.21.8,4.52.74,7.21-1.17-.83-1.53-1.69-1.56-2.76Z"/>
  <path class="cls-25" d="m359.26,255.54c-1.04,1.02-2.39,1.49-3.69,2-.81.31-1.64.26-2.11-.69,1.65-.28,3.04-1.39,4.74-1.48.4-.22.75-.17,1.06.17Z"/>
  <path class="cls-9" d="m347.03,285.71c-.06-1.48-.21-2.96.57-4.33.07.55.17,1.09.2,1.64.03.47.11.88.51,1.16-.04.83-.63,1.2-1.29,1.52Z"/>
  <path class="cls-2" d="m362.91,254.02c-.6.82-1.45.81-2.33.7.58-.87,1.47-.76,2.33-.7Z"/>
  <path class="cls-46" d="m270.74,120.38c-.23-.55-.47-1.1-.7-1.65.43,0,.86,0,1.29.01.17.68.03,1.25-.59,1.64Z"/>
  <path class="cls-2" d="m359.26,255.54c-.35-.06-.71-.11-1.06-.17.68-.66,1.5-.82,2.41-.7-.2.67-.74.82-1.35.87Z"/>
  <path class="cls-24" d="m333.25,295.76c.05.22.08.45.08.68-.5.03-.99.06-1.49.09.33-.5.77-.82,1.41-.77Z"/>
  <path class="cls-20" d="m488.9,171.1c.24-.53.64-.61,1.14-.43-.26.47-.65.59-1.14.43Z"/>
  <path class="cls-24" d="m334.02,295.2c-.1.41-.35.61-.78.57.09-.42.35-.61.78-.57Z"/>
  <path class="cls-20" d="m331.14,253.5c.36-.07.52.11.56.43-.36.07-.55-.06-.56-.43Z"/>
  <path class="cls-20" d="m754.35,296.06c-7.8,0-15.59,0-23.39,0-.96,0-1.92-.01-2.88-.05-.69-.03-1.11-.38-1.08-1.11.02-.48.05-.96.13-1.43.99-6.15,1.99-12.3,2.99-18.45.08-.47.21-.94.33-1.4.16-.64.53-1.06,1.22-1.1.72-.04,1.44-.06,2.16-.06,16.19,0,32.38,0,48.58,0,.6,0,1.2-.01,1.8.02,1.24.07,1.53.35,1.36,1.5-.32,2.25-.67,4.5-1.03,6.75-.72,4.5-1.45,8.99-2.19,13.48-.26,1.57-.51,1.78-2.09,1.84-.96.04-1.92.01-2.88.01-7.68,0-15.35,0-23.03,0Z"/>
  <path class="cls-20" d="m733.82,252.06c.35-2.17.7-4.41,1.08-6.63.72-4.25,1.44-8.49,2.18-12.73.35-2.01.45-2.07,2.56-2.13.48-.02.96,0,1.44,0,15.93,0,31.85,0,47.78,0,.84,0,1.68,0,2.51.05.88.06,1.25.51,1.1,1.45-.54,3.31-1.11,6.61-1.68,9.91-.54,3.06-1.1,6.12-1.64,9.18-.17.98-.7,1.45-1.71,1.41-.72-.03-1.44,0-2.16,0-15.93,0-31.85,0-47.78-.01-1.17,0-2.39.31-3.69-.47Z"/>
  <path class="cls-20" d="m1235.35,228.95c7.79,0,15.59,0,23.38,0,.84,0,1.68-.01,2.52.03,1,.05,1.33.41,1.23,1.31-.07.59-.2,1.18-.29,1.77-2.04,12.53-4.08,25.06-6.11,37.6-1.27,7.8-2.52,15.61-3.79,23.41-.13.83-.33,1.65-.51,2.46-.12.51-.46.83-.98.88-.6.05-1.2.07-1.79.07-16.43,0-32.85,0-49.28,0-.6,0-1.2-.01-1.8-.05-.71-.04-1.08-.45-1.04-1.15.05-.84.14-1.67.28-2.5,1.79-10.87,3.6-21.74,5.39-32.62,1.55-9.46,3.06-18.92,4.59-28.38.1-.59.16-1.19.31-1.76.17-.63.59-1.03,1.28-1.05.96-.02,1.92-.03,2.88-.03,7.91,0,15.83,0,23.74,0Z"/>
  <path class="cls-10" d="m1410.63,320.67c.32,1.21-.26,2.32-.45,3.44-1.16,6.73-2.39,13.45-3.61,20.16-.32,1.74-.44,1.89-2,1.89-5.88.03-11.75.01-17.63,0-.32,0-.76-.07-.94-.28-.43-.49.05-.88.36-1.2,1.5-1.55,3.02-3.08,4.54-4.62,5.89-5.98,11.78-11.96,17.68-17.93.57-.57,1-1.39,2.05-1.47Z"/>
  <path class="cls-60" d="m275.65,301.55c-.05.3-.1.6-.15.91l-.15.29c-1.86,4.46-4.43,8.49-7.32,12.34-6,7.99-12.63,15.45-20.36,21.76-14.91,12.18-31.75,20.03-51.18,21.73-7.91.69-15.8.93-23.71.1-12.95-1.35-25.06-5.36-36.33-11.82-19.67-11.28-34.17-27.28-43.15-48.15-4.36-10.12-6.78-20.71-7.13-31.74-.34-10.71.12-21.35,2.9-31.77,8.27-30.97,27.28-52.53,56.96-64.59,11.23-4.56,23.02-6.44,35.13-6.68,16.76-.33,32.56,3.63,47.79,10.24,2.41,1.05,4.71,2.37,6.98,3.7,1.12.66,2.1,1.58,3.1,2.44.5.43.63,1,.16,1.57-.3.37-.61.74-.93,1.09-.46.5-1,.56-1.61.26-1.39-.7-2.79-1.39-4.19-2.07-11.93-5.84-24.42-9.99-37.58-11.82-26.08-3.62-49.96,1.85-70.56,18.65-17.88,14.59-28.87,33.39-32.24,56.42-2.59,17.67-.36,34.65,7.06,50.92,2.59,5.69,5.81,11.03,9.31,16.2.38.57.66,1.29,1.53,1.34.43-.87,0-1.64-.3-2.41-1.64-4.12-3.23-8.26-4.94-12.35-5.74-13.69-7.62-27.95-5.94-42.64,1.92-16.79,8.58-31.57,19.65-44.36,1.49-1.72,2.96-3.46,4.43-5.2,4.16-4.9,9.1-8.86,14.6-12.13,14.26-8.47,29.71-11.87,46.21-10.69,4.9.35,9.8.72,14.65,1.66,7.49,1.45,14.55,3.99,21.04,8.04,2.22,1.39,4.43,2.8,6.47,4.09.22,1.3-.57,1.81-1.05,2.44-9.03,11.81-18.08,23.61-27.12,35.43-.73.95-1.39,1.95-2.08,2.93-.82.28-1.61.12-2.43-.05-4.05-.83-8.05-.47-11.98.72-1.35.41-2.72.8-4.07,1.19-1.4.7-2.91,1.2-4.2,2.11-6.08,2.78-11.04,6.76-13.22,13.32-2.86,8.61-.54,16.25,6.45,22.17.39-.69.07-1.68.93-2.15.91.93,1.79,1.9,2.74,2.79,1.13,1.06,2.32,2.06,3.93,2.34,1.61.29,2.61-.44,2.59-2.05-.02-1.19-.21-2.37-.32-3.56-.19-2.02-.47-4.03-.54-6.05-.22-6.88,5.3-10.24,11.11-10.52,1.02-.05,1.72.75,2.61,1.04,2.31.76,2.86,2.7,3.1,4.77.71,6.27-1.35,11.23-7.03,14.4-2.59,1.45-5.02,3.16-7.65,4.45-.31,1.52,1.55,1.46,1.65,2.57.55.58,1.3.58,2,.58,1.1,0,2.1.33,3.13.69,4.9,1.72,9.84,1.92,14.71-.03,1.76-.7,3.48-.76,5.27-.38,5.26,1.09,10.53,2.19,15.79,3.31,10.05,2.13,20.1,4.28,30.15,6.42,1.16.25,2.39.31,3.27,1.28.86,2.54-.83,4.38-1.96,6.22-11.17,18.09-26.21,31.38-46.65,38.4-19.71,6.78-39.03,5.7-58.29-1.45-3.81-1.41-7.61-2.87-11.31-4.57-.45-.21-.87-.47-1.3-.71-.26-.13-.52-.28-.77-.43-.34-.19-.68-.4-1.02-.59-.2-.08-.38-.2-.55-.33.01.01-.08-.24-.08-.24,0,0-.22.15-.2.16.12.17.23.33.36.49.16.18.3.35.47.52.02,0,.27.25.29.25.23.16.45.32.68.48.13.08.25.15.39.23.3.15.58.31.87.47,10.01,6.08,20.56,10.93,32.07,13.23,28.06,5.6,53.51-.15,75.85-18.33,9.57-7.79,17.16-17.29,23.31-27.96.59-1.02.96-2.22,2.15-2.78,2.73-.28,5.24.65,7.78,1.44Z"/>
  <path class="cls-60" d="m333.11,237.6c-.48-.01-.98.07-1.43-.05-4.44-1.28-8.95-1.61-13.53-.98-.59.08-1.2.04-1.79.02-.54-.02-.88-.36-1.03-.84-.22-.68-.41-1.38-.58-2.08-5.73-24.26-11.45-48.51-17.16-72.77-.11-.47-.25-.93-.28-1.41-.03-.5.17-.94.71-1.09.58-.16,1.16-.3,1.75-.43,18.5-4.07,36.79-8.96,55.12-13.69,18.34-4.73,36.65-9.54,55.14-13.62,9.6-2.12,19.24-4.01,29.02-5.11,1.46-.16,2.98-.76,4.42.15-.32,1.52-1.66,2.27-2.55,3.35-3.07,3.7-6.49,7.06-9.91,10.42-.93.92-1.79,1.91-2.68,2.87-2.11,3.14-5.21,5.35-7.65,8.16-.77,1.24-1.91,2.15-2.91,3.18-1.64,1.69-3.33,3.34-4.99,5.01-.22.21-.44.42-.67.63-.21.22-.42.44-.63.66-.1.11-.21.22-.31.33-.2.24-.42.46-.63.68-.1.12-.22.23-.32.35-.21.25-.44.48-.67.7-10.34,9.26-19.87,19.32-29.48,29.32-14.66,15.27-29.85,30.03-44.83,44.99-.6.6-1.24,1.13-2.13,1.24Z"/>
  <path class="cls-37" d="m134.79,334.5c5.45,2.18,10.84,4.49,16.44,6.27,7,2.22,14.13,3.76,21.44,4.39,9.19.79,18.19-.43,27.02-2.9,8.83-2.47,17.1-6.21,24.82-11.17,1.01-.65,2.02-1.3,2.96-2.04,8.42-6.68,15.64-14.48,21.65-23.39,1.82-2.69,3.34-5.54,4.45-8.6.46-.12.95-.41,1.36-.32,3.7.79,7.38,1.64,11.06,2.48.69.16,1.4.3,1.88.91-.21,1.58-.97,2.96-1.78,4.28-1.18,1.94-2.4,3.87-3.71,5.73-3.6,5.09-7.6,9.87-11.84,14.45-7.43,8.02-16.38,13.96-26.07,18.85-11.64,5.88-24.02,8.71-37.07,8.73-7.58.01-15.07-.67-22.49-2.22-2.59-.54-5.09-1.37-7.57-2.24-6.9-2.44-13.62-5.27-19.97-8.95-1.44-.84-2.77-1.87-4.16-2.81-.31-.1-.54-.3-.68-.59l-.05-.04c-.29-.16-.52-.38-.69-.66l-.03-.03c-.28-.17-.48-.4-.6-.7-.05-.22-.11-.44-.16-.66.25-.27.52-.31.83-.1.22,0,.41.06.58.2.3.18.54.45.91.48.2.01.38.09.53.21.29.21.53.48.93.48Z"/>
  <path class="cls-60" d="m259.27,249.27c-.11.87-.28,1.62-1.42,1.7-3.11.22-6.21.51-9.32.76-9.8.8-19.59,1.59-29.39,2.39-1.19.1-2.39.18-3.57.38-1.34.23-2.28-.13-2.99-1.36-1.33-2.28-2.78-4.48-4.14-6.74-.86-1.42-.84-1.67.3-2.79,3.15-3.12,6.32-6.22,9.5-9.32,7.12-6.95,14.23-13.91,21.37-20.84.83-.81,1.49-1.93,2.88-1.95,1.6.26,2.34,1.54,3.16,2.69,7.05,9.73,10.81,20.87,13.81,32.34.24.91.47,1.87-.19,2.75Z"/>
  <path class="cls-60" d="m294.91,244.24c-.92-1.22-.82-2.73-1.03-4.11-1.82-12.21-5.98-23.58-12.04-34.29-1.71-3.01-3.52-5.97-5.37-8.9-1.92-3.04-4.12-5.87-6.63-8.45-.83-.86-1.64-1.74-2.43-2.63-.47-.53-.37-1.09.02-1.62.14-.19.31-.37.47-.54,3.38-3.71,6.76-7.42,10.12-11.15.49-.54,1-1,1.73-1.17,1.69.88,1.92,2.67,2.5,4.18,7.58,19.66,15.22,39.3,22.76,58.97.14.34.25.69.35,1.04.16.52.29,1.06.33,1.61-2.39,4.18-6.47,5.79-10.78,7.06Z"/>
  <path class="cls-57" d="m258.21,283.68c-.51.44-.74,1.13-1.7,1.05-9.3-.83-18.6-1.6-27.9-2.38-6.2-.52-12.4-1.01-18.61-1.52-.58-.05-1.19,0-1.67-.4-.19-.52.04-.93.31-1.33,1.44-2.06,2.91-4.1,4.31-6.19.68-1.01,1.47-1.36,2.72-1.22,4.52.5,9.05.87,13.58,1.32,8.93.89,17.86,1.81,26.78,2.72.71.07,1.43.16,2.14.26.89.12,1.08.81,1.21,1.54.92,2.29.5,4.33-1.16,6.14Z"/>
  <path class="cls-35" d="m333.11,237.6c6.35-6.5,12.61-13.09,19.06-19.49,12.13-12.06,24.15-24.23,36.07-36.5,6.42-6.61,13.1-12.95,19.68-19.4.42-.41.92-.74,1.38-1.11.47-.07.81-.28.85-.81l-.05.05c.48-.02.73-.28.77-.75l-.04.04c.46-.04.73-.28.78-.75l.11.18-.12-.17c.75-.07,1.11.23.96,1.01-.32.44-.63.89-.95,1.33-.15.25-.36.45-.62.59l-.09.09c-.15.27-.36.48-.62.65-.27.39-.5.82-.82,1.17-4.66,4.98-9.41,9.88-14,14.92-15.26,16.73-31.81,32.18-47.6,48.38-2.92,3-5.74,6.09-8.63,9.12-.66.69-1.37,1.35-2.13,1.91-1.65,1.21-2.09,1.14-3.98-.46Z"/>
  <path class="cls-35" d="m304.53,235.34c-1.56-2.98-2.58-6.17-3.78-9.3-6.81-17.65-13.61-35.3-20.4-52.96-.21-.56-.39-1.13-.58-1.7.54-1.82,1.89-2.93,3.26-4,.94.58,1.04,1.44,1.33,2.19,3.76,9.78,7.52,19.56,11.29,29.33,1.79,4.65,3.68,9.27,5.05,14.07.83.79.65,1.99,1.16,2.92.37,1,.42,2.1.9,3.07.48,1.92,1,3.82,1.66,5.69.54,2.72,1.59,5.35,1.68,8.17,0,.57-.09,1.13-.28,1.68-.26.53-.59.97-1.29.83Z"/>
  <path class="cls-36" d="m259.27,249.27c-1.52-5.42-3-10.84-4.94-16.14-2.85-7.82-6.56-15.16-11.85-21.63.24-.53.4-1.14.75-1.58.73-.94,1.26-.97,2.07-.25,2.52,2.23,4.72,4.76,6.53,7.58,3.24,5.04,5.9,10.38,7.92,16.02,1.85,5.16,3.63,10.36,4.75,15.74.2.95-.09,1.33-1.04,1.41-.59.05-1.21-.02-1.79.09-1.16.22-1.72-.59-2.4-1.23Z"/>
  <path class="cls-31" d="m167.07,274.98c-.03.95-.05,1.89-.1,2.84,0,.1-.12.2-.21.36-1.66-.21-2.7-1.4-3.73-2.54-6.72-7.33-6.8-17.91-2.44-24.94,2.84-4.59,6.8-7.94,11.96-9.75.75-.16,1.58-.49,1.64.79-4.2,2.57-7.19,6.2-9.24,10.63-1.01,2.19-1.63,4.45-1.59,6.9.12,8.03-.78,6.16,3.21,14.76.15.32.34.63.5.95Z"/>
  <path class="cls-41" d="m179.25,285.18c-1.5-.33-2.92-.85-4.19-1.73.53-1.24,1.63-1.52,2.54-2.01,1.77-.97,3.6-1.83,5.37-2.8,1.04-.57,2.03-1.23,3.01-1.91,4.72-3.28,6.21-7.88,5.51-13.4-.22-1.75-1.25-3.05-2.3-4.35.41-.5.95-.76,1.57-.63,4.46.97,6.55,3.54,6.49,7.19-.08,5.13-2.79,8.43-6.84,10.92-1.92,1.18-3.99,2.11-6.02,3.12-1.07.54-2.08,1.14-2.93,2-.76.77-1.49,1.51-1.23,2.78.11.55-.6.6-.98.81Z"/>
  <path class="cls-29" d="m449.86,58.16c-.03-2.21.11-4-.5-5.75-.25-.73.38-1.28,1.24-1.33,1.5-.1,2.55.52,3.12,1.89.22.54.44,1.14.45,1.71.09,3.58.24,7.16-.96,10.63-1.4,4.06-2.88,8.09-3.88,12.28-.11.46-.29.91-.53,1.32-.26.47-.78.68-1.19.34-1.8-1.5-2.58-2.39-1.75-4.93.81-2.5,1.7-4.97,2.53-7.46.98-2.96,1.74-5.96,1.48-8.7Z"/>
  <path class="cls-30" d="m431.93,55.69c.16-4.55.62-9.06,2.24-13.36,1.38-3.67,3.78-6.35,7.58-7.6.3-.1.77-.09,1,.09.34.25.07.62-.16.87-3.63,3.82-5.05,8.54-5.75,13.62-.34,2.5-.67,4.97-.58,7.49.05,1.53-.54,2.79-1.46,3.94-.83,1.03-1.99.84-2.48-.44-.21-.55-.27-1.15-.38-1.73-.04-.23-.02-.48-.02-.72,0-.72,0-1.44,0-2.16Z"/>
  <path class="cls-40" d="m282.95,237.48c-.05-.46-.1-.91-.15-1.37-.16-.26-.32-.52-.51-.76-1.35-5.07-2.93-10.06-5.04-14.88-2.01-4.6-4.3-9.04-7.1-13.21-2.13-3.18-4.44-6.21-7.26-8.82-1.41-1.31-2.59-2.79-3.44-4.53-.07-.14.06-.49.2-.6.14-.11.51-.14.63-.03,1.23,1.12,2.59,2.15,3.62,3.45,2.07,2.61,4.25,5.13,6.22,7.84,2.67,3.68,4.91,7.62,7.32,11.45.69,1.1,1.15,2.33,1.72,3.5.71.5.3,1.55.99,2.06.32.71.5,1.48.9,2.17.29.56.53,1.15.82,1.71.32.75.38,1.59.8,2.3.65,1.6,1.02,3.29,1.58,4.93.22.91.29,1.84.24,2.78-.23.89-.12,2.05-1.54,2.04Z"/>
  <path class="cls-62" d="m283.68,235.24c-.06-.84-.13-1.68-.19-2.53-.02-.9-.96-2.13.83-2.4,2.35,4.7,3.77,9.71,4.81,14.84.49,2.42.09,2.98-2.47,3.75-.22.07-.47.02-.71.03-1.1-1.28-.67-2.98-1.21-4.42-.3-3.09-.94-6.15-1.07-9.27Z"/>
  <path class="cls-39" d="m258.21,283.68c.39-2.04.77-4.09,1.16-6.14,1.28-1.88,3.1-1.18,4.79-.95.23.03.59.56.55.79-.43,2.3-.93,4.59-1.43,6.88-.04.2-.25.44-.44.52-1.14.45-2.32.26-3.48.12-.68-.08-.87-.71-1.14-1.22Z"/>
  <path class="cls-1" d="m305.32,233.05c-.55-2.77-1.1-5.54-1.65-8.31-.06-.91-.99-2.14.85-2.38,1.76,4.45,3.54,8.9,5.27,13.37.52,1.34.22,1.93-1.2,2.43-.55.19-1.18.15-1.77.22-.29-.07-.5-.23-.64-.49-.23-.66-.41-1.33-.69-1.97-.06-.42.06-.83.08-1.25.02-.56,0-1.11-.26-1.62Z"/>
  <path class="cls-61" d="m509.85,250.39c-.54.24-1.08.48-1.63.71-.39.16-.69-.04-.92-.3-.15-.17-.27-.39-.35-.61-1.77-4.91-3.53-9.82-5.3-14.73-.3-.82-.59-1.64.82-1.57,2.33,4.93,4.68,9.85,6.98,14.79.24.52.27,1.14.4,1.72Z"/>
  <path class="cls-13" d="m305.79,234.67c.07.42.15.85.22,1.27.51.66-.09,1.66.69,2.25,0,0,.12.19.13.19-.19.87-.71,1.46-1.47,1.92-2.96,1.78-5.89,3.6-8.84,5.4-.2.12-.42.22-.64.31-.75.33-1.25-.12-1.18-1.1.02-.23.14-.45.21-.68,3.03-1.86,6.07-3.72,9.11-5.57.64-.39,1.14-.84,1.04-1.68.01-.39-.3-.63-.43-.95-.03-.23-.07-.47-.1-.7.22-.23.44-.46.66-.68.21-.35.41-.34.59.02Z"/>
  <path class="cls-59" d="m216.95,260.43c1.12-.19,2.23-.09,3.33.16,2.19.81,4.53-.15,6.72.57,1.34.05,2.69.11,4.03.16.25.14.34.28.27.44-.07.16-.14.25-.22.25-2.21.18-4.4.61-6.63.29-2.58.06-5.16.03-7.75.02-.82,0-1.84,0-1.68-1.18.16-1.15,1.09-.97,1.92-.7Z"/>
  <path class="cls-11" d="m412.56,159.89c-.32-.34-.64-.67-.96-1.01,1.62-2.19,3.62-4,5.75-5.69.76-.23.99.13.89.83-1.68,2.16-3.59,4.1-5.68,5.87Z"/>
  <path class="cls-18" d="m283.68,235.24c1.01,2.94,1.51,5.97,1.46,9.09.27,1.12.54,2.24-.11,3.33-.21-.41-.6-.81-.6-1.22-.02-3.07-.99-5.97-1.48-8.95.82-.56.49-1.5.74-2.25Z"/>
  <path class="cls-27" d="m420.19,150.34c2.5-2.89,5.22-5.55,8.15-8,0,.88-.41,1.57-1.02,2.17-2.01,1.99-4.01,3.98-6.01,5.97-.41.26-.78.22-1.11-.14Z"/>
  <path class="cls-43" d="m216.95,260.43c-.34.1-.7.15-1,.32-.15.08-.29.38-.27.56.02.18.24.47.39.48,1.05.09,2.1.11,3.15.19,1.74.13,3.52-.36,5.23.32-2.8.56-5.64.29-8.46.41-.6.03-1.13-.18-1.38-.85-.39-1.07.15-1.83,1.33-1.75.34.02.67.21,1,.33Z"/>
  <path class="cls-45" d="m304.52,222.37c-.96.55-.59,1.58-.85,2.38-.87-1.83-1.24-3.79-1.49-5.77-.24-.81.13-1.03.87-.9.58,1.4,1.34,2.74,1.47,4.3Z"/>
  <path class="cls-51" d="m284.32,230.31c-.92.58-.59,1.59-.83,2.4-.84-1.61-1.13-3.38-1.46-5.13-.23-.8.13-1.02.86-.89.6,1.16,1.34,2.26,1.43,3.62Z"/>
  <path class="cls-42" d="m502.47,233.88c-.7.3-.65.99-.82,1.57-.82-1.07-1.14-2.33-1.43-3.6-.31-.78-.61-1.55.73-1.54.64,1.13,1.37,2.23,1.51,3.57Z"/>
  <path class="cls-32" d="m284.21,286.42c-.06.33-.34.52-.7.59-.52.1-.96-.08-1.16-.55-.29-.69-.2-1.39.22-2.01.12-.18.35-.38.54-.39.17-.02.43.16.53.33.36.6.76,1.21.57,2.04Z"/>
  <path class="cls-16" d="m420.19,150.34c.37.05.74.09,1.11.14-.55,1.59-1.7,2.66-3.06,3.54-.3-.28-.59-.55-.89-.83.69-1.21,1.72-2.08,2.84-2.86Z"/>
  <path class="cls-47" d="m500.96,230.31c-.61.34-.64.96-.73,1.54-.82-1.27-1.34-2.65-1.56-4.14-.2-.66-.04-1.03.73-.93.52,1.18,1.04,2.35,1.56,3.53Z"/>
  <path class="cls-15" d="m174.18,241.74c-.36-.64-1.07-.59-1.64-.79,1.35-1.02,2.89-1.44,4.57-1.42-.73,1.06-1.85,1.62-2.93,2.22Z"/>
  <path class="cls-43" d="m227.01,261.16c-1.73.03-3.46.06-5.19.08-.6,0-1.13-.18-1.53-.65,2.26-.07,4.53-.19,6.72.57Z"/>
  <path class="cls-53" d="m498,226.14c-.8-1.11-1.08-2.42-1.42-3.7-.23-.72.08-.88.72-.71.49,1.18.98,2.37,1.47,3.55-.2.34-.28.79-.78.86Z"/>
  <path class="cls-7" d="m497.3,221.73c-.24.24-.48.47-.72.71-.94-1.31-1.31-2.81-1.47-4.38,1.27.9,1.63,2.35,2.19,3.67Z"/>
  <path class="cls-44" d="m303.05,218.06c-.29.3-.58.6-.87.9-.67-.86-.64-1.9-.74-2.91-.22-.68.02-.91.7-.74.3.91.61,1.83.91,2.74Z"/>
  <path class="cls-12" d="m285.03,247.65c.04-1.11.08-2.22.11-3.33.83,1.43.5,3.07.81,4.6-.7-.14-.9-.64-.93-1.27Z"/>
  <path class="cls-49" d="m282.9,226.69c-.29.3-.57.59-.86.89-.62-.56-.67-1.32-.74-2.08-.26-.75.06-1,.78-.92.32.69.87,1.28.83,2.11Z"/>
  <path class="cls-6" d="m280.65,223.9c-.56-.59-.7-1.34-.75-2.11-.21-.33-.16-.63.12-.9.8.52,1.05,1.39,1.4,2.2-.2.32-.29.76-.77.81Z"/>
  <path class="cls-8" d="m302.14,215.32c-.23.25-.47.49-.7.74-.83-.88-.53-2.04-.74-3.07,1.06.42,1.21,1.4,1.44,2.33Z"/>
  <path class="cls-54" d="m233.9,261.34c1.02-.16,2.02-.14,3.15.19-1.07.72-2.08.55-3.09.47-.23-.13-.31-.26-.26-.42.06-.16.12-.24.19-.24Z"/>
  <path class="cls-52" d="m280.65,223.9c.26-.27.51-.54.77-.81.22.5.43,1,.65,1.49-.26.31-.52.61-.78.92-.46-.44-.59-1.01-.64-1.61Z"/>
  <path class="cls-50" d="m233.9,261.34c.02.22.04.44.07.66-.96.09-1.92.29-2.88,0-.03-.23-.05-.46-.05-.69.95,0,1.91.01,2.86.02Z"/>
  <path class="cls-48" d="m498,226.14c.26-.29.52-.57.78-.86.21.5.42,1,.62,1.5-.24.31-.49.62-.73.93-.49-.41-.63-.97-.67-1.57Z"/>
  <path class="cls-5" d="m280.02,220.88c-.04.3-.08.6-.12.9-.68-.62-.65-1.47-.74-2.28.63.24.84.75.86,1.38Z"/>
  <path class="cls-18" d="m282.29,235.35c.17.25.34.51.51.76-.17-.25-.34-.51-.51-.76Z"/>
  <path class="cls-11" d="m410.28,162.56c.21-.22.42-.43.62-.65-.06.36-.27.57-.62.65Z"/>
  <path class="cls-11" d="m411,161.82c.21-.2.41-.39.62-.59-.07.34-.28.54-.62.59Z"/>
  <polygon class="cls-20" points="275.35 302.75 275.26 302.52 275.5 302.45 275.57 302.68 275.35 302.75"/>
  <path class="cls-34" d="m234.65,111.56c-5.07-2.91-9.22-6.8-11.97-11.98-1.51-2.84-2.68-5.86-2.49-9.21.14-2.54.65-3.27,3.11-4.16.45-.16.9-.32,1.37-.42.2-.04.44.08.68.13.5.45.08.89-.1,1.27-1.06,2.17-1,4.48-.41,6.65,1.67,6.11,4.54,11.52,9.82,15.37.57.41.99,1.02,1.48,1.54.2.33.44.61.83.73.2.01.39.06.57.15.25.21.49.42.73.64h0c0,1.21-.58,1.24-1.44.72h0c-.26-.25-.49-.52-.83-.66-.21-.02-.42-.07-.62-.15-.26-.19-.51-.39-.74-.61Z"/>
  <path class="cls-33" d="m236.84,112.98c.59-.02,1.13-.13,1.44-.72,2.14,1.12,4.23,2.31,6.34,4.02-2.49-.07-4.61-1.01-7.78-3.3Z"/>
  <path class="cls-33" d="m238.27,112.27c-.24-.22-.49-.43-.73-.64.24.22.49.43.73.64Z"/>
  <path class="cls-33" d="m236,112.32c.28.22.55.44.83.66-.28-.22-.55-.44-.83-.66Z"/>
  <path class="cls-33" d="m234.65,111.56c.25.21.49.41.74.61-.25-.21-.49-.41-.74-.61Z"/>
  <path class="cls-33" d="m236.97,111.48c-.43-.06-.7-.31-.83-.73.28.24.55.48.83.73Z"/>
  <path class="cls-58" d="m131.84,333.13l-.83.1c-.38-.09-.6-.32-.18-.55.41-.23.83-.05,1.01.45Z"/>
  <path class="cls-58" d="m133.33,333.8c-.46.13-.75-.05-.91-.48.44-.1.75.05.91.48Z"/>
  <path class="cls-58" d="m131.17,333.89c.43.03.61.28.6.7-.42-.05-.64-.26-.6-.7Z"/>
  <path class="cls-58" d="m134.79,334.5c-.46.13-.75-.07-.93-.48.44-.1.76.05.93.48Z"/>
  <path class="cls-58" d="m131.8,334.62c.42.03.65.25.7.66-.43,0-.66-.24-.7-.66Z"/>
  <path class="cls-58" d="m132.55,335.33c.42-.03.65.16.68.59-.42.03-.63-.18-.68-.59Z"/>
  <path class="cls-11" d="m410.15,160.29c-.07.5-.36.76-.85.81.12-.44.4-.72.85-.81Z"/>
  <path class="cls-11" d="m410.87,159.59c-.05.47-.3.72-.77.75.08-.44.34-.68.77-.75Z"/>
  <path class="cls-11" d="m411.61,158.88c-.06.46-.32.71-.78.75.08-.44.34-.68.78-.75Z"/>
  <path class="cls-4" d="m304.63,236.04c.4.2.56.51.43.95-.39-.2-.54-.52-.43-.95Z"/>
  <path class="cls-4" d="m305.79,234.67c-.2,0-.4,0-.59-.02.04-.53.08-1.07.12-1.6.5.44.61.99.47,1.62Z"/>
  <path class="cls-4" d="m306.7,238.19c-.95-.53-.88-1.37-.69-2.25.61.63.66,1.44.69,2.25Z"/>
</svg>