<svg id="Слой_1" data-name="Слой 1" xmlns="http://www.w3.org/2000/svg" viewBox="0 0 1589.32 1589.32"><defs><style>.cls-1{fill:#264796;}.cls-2{fill:#010101;}</style></defs><path class="cls-1" d="M535.14,1072.77c-7.56-.39-13.89-4.84-17.26-12.85s-2-15.33,4.19-21.6c1.28-1.31,2.59-2.6,3.88-3.9q254.64-254.63,509.23-509.3c6.45-6.45,13.4-10.44,22.73-7.67,14.17,4.21,19.16,22.25,9.18,33.08-1.57,1.72-3.27,3.33-4.92,5Q806.83,810.84,551.52,1066.23C547.25,1070.5,542.42,1072.78,535.14,1072.77Z"/><path class="cls-2" d="M695.12,644.26c-47.64,0-95.28.3-142.92-.18-14.22-.15-23.91,8.64-23.83,24,.39,84.62.19,169.24.17,253.86,0,13.46-8,22.33-20.13,22.48s-20.74-8.29-20.78-20.63c-.11-27.82,0-55.64,0-83.46q0-87.2,0-174.4c0-32.3,21-56.93,52.84-62.08a69,69,0,0,1,11.95-.49c2.42,0,3.32-.42,3.46-3.2.64-12.37,8.58-19.93,20.9-20q28-.15,56,0c11.59.08,19.73,7.35,20.47,18.84.25,4,1.58,4.36,4.91,4.36q91.71-.14,183.4-.06c15.6,0,25.42,13.79,20.07,28-3.09,8.17-10.54,13-20.52,13q-51.72,0-103.44,0Z"/><path class="cls-2" d="M887.44,985.4q-77.73,0-155.44,0c-15.14,0-24.81-13.08-20.25-27.12,2.82-8.67,10.49-13.79,20.93-13.8q55.73,0,111.45,0,97.22,0,194.42,0c11.41,0,18.83-5.21,21.55-14.83.88-3.11.65-6.28.65-9.43q0-126.7,0-253.4c0-13.66,8.17-22.52,20.61-22.51,11.74,0,20.27,8.51,20.31,20.62.11,25.49,0,51,0,76.47q0,90.72,0,181.43c0,32.32-21,56.9-52.88,62.06a65.13,65.13,0,0,1-10.46.53Q962.9,985.44,887.44,985.4Z"/><path class="cls-2" d="M685.6,783.85c.94-48.66,39.43-91.47,87.67-97.64a96.5,96.5,0,0,1,15.92-.9c10.31.38,18.1,8.14,19.09,18.84a19.8,19.8,0,0,1-15.7,21.27c-4.87.94-10,.72-14.84,1.61-30.11,5.49-50.18,28.84-51.23,59.37-.51,15.13-12,24.35-26,20.91C690.58,804.9,685.35,796.64,685.6,783.85Z"/><path class="cls-2" d="M804.66,903.41c-17.46,1.75-26-13.11-23.09-25.25,2.32-9.56,9.95-15.35,21.53-15.67,17.36-.49,32-7.12,43.69-19.84,10.42-11.34,15.68-24.84,16-40.3.27-11.82,6.51-19.43,17.07-21.27,12.72-2.21,23.6,6.77,23.87,19.72,1,47.66-34.38,91.44-81.29,100.59A89.05,89.05,0,0,1,804.66,903.41Z"/></svg>