<svg width="250" height="330" viewBox="0 0 250 330" fill="none" xmlns="http://www.w3.org/2000/svg">
<g clip-path="url(#clip0_354_26552)">
<path d="M29.3203 200.296C29.3203 200.296 29.3203 200.219 29.3203 200.142C29.3203 199.988 29.3203 199.834 29.3203 199.602C29.3203 199.14 29.3203 198.523 29.3203 197.675C29.3203 195.979 29.3203 193.512 29.2432 190.428L29.3975 190.582C20.8327 190.582 7.25243 190.659 -8.1025 190.659C-8.02534 190.582 -8.25682 190.813 -7.94818 190.505V190.582V190.659V190.813V191.122V191.739C-7.94818 192.124 -7.94818 192.587 -7.94818 192.972C-7.94818 193.82 -7.94818 194.668 -7.94818 195.439C-7.94818 197.058 -7.94818 198.754 -7.94818 200.296L-8.1025 200.142C2.54564 200.142 11.8821 200.219 18.595 200.219C21.9129 200.219 24.6135 200.296 26.4654 200.296C27.3913 200.296 28.0858 200.296 28.6259 200.296C28.1629 200.296 27.3913 200.296 26.5426 200.296C24.6907 200.296 21.9901 200.296 18.6722 200.373C11.9592 200.373 2.54564 200.45 -8.17966 200.45H-8.33398V200.296C-8.33398 198.677 -8.33398 197.058 -8.33398 195.439C-8.33398 194.591 -8.33398 193.743 -8.33398 192.972C-8.33398 192.587 -8.33398 192.124 -8.33398 191.739V191.122V190.813V190.659V190.582V190.428C-7.94818 190.042 -8.25682 190.351 -8.1025 190.274C7.17527 190.274 20.8327 190.351 29.3975 190.351H29.5518V190.505C29.5518 193.666 29.4747 196.133 29.4747 197.829C29.4747 198.677 29.4747 199.294 29.4747 199.757C29.4747 199.988 29.4747 200.142 29.4747 200.219C29.3203 200.219 29.3203 200.296 29.3203 200.296Z" fill="#E0E0E0"/>
<path d="M34.4137 190.428C34.4137 190.428 34.4137 190.351 34.4137 190.274C34.4137 190.12 34.4137 189.965 34.4137 189.734C34.4137 189.272 34.4137 188.578 34.4137 187.73C34.4137 185.956 34.3365 183.566 34.3365 180.56L34.4908 180.714C28.6266 180.714 20.7563 180.714 11.96 180.791C11.8057 180.945 12.1915 180.56 12.1143 180.637V180.714V180.791V180.945V181.253V181.87C12.1143 182.333 12.1143 182.718 12.1143 183.181C12.1143 184.029 12.1143 184.877 12.1143 185.725C12.1143 187.344 12.1143 188.963 12.1143 190.505L11.96 190.351C18.4415 190.351 24.0742 190.428 28.0865 190.428C30.0927 190.428 31.6359 190.428 32.7933 190.505C33.3334 190.505 33.7192 190.505 34.0279 190.505C34.2594 190.351 34.4137 190.351 34.4137 190.428C34.4137 190.428 34.2594 190.428 34.0279 190.428C33.7192 190.428 33.3334 190.428 32.7933 190.428C31.7131 190.428 30.0927 190.428 28.1637 190.505C24.1513 190.505 18.5186 190.582 11.96 190.582H11.8057V190.428C11.8057 188.886 11.8057 187.267 11.8057 185.648C11.8057 184.8 11.8057 183.952 11.8057 183.104C11.8057 182.641 11.8057 182.256 11.8057 181.793V181.176V180.868V180.714V180.637V180.56C11.7285 180.637 12.1915 180.174 11.96 180.405C20.6791 180.405 28.6266 180.483 34.4908 180.483H34.6452V180.637C34.6452 183.721 34.568 186.188 34.568 187.961C34.568 188.809 34.568 189.426 34.568 189.888C34.4137 190.197 34.4137 190.428 34.4137 190.428Z" fill="#E0E0E0"/>
<path d="M124.689 275.311C124.689 275.311 124.689 275.234 124.689 275.157C124.689 275.003 124.689 274.848 124.689 274.617C124.689 274.155 124.689 273.538 124.689 272.69C124.689 270.994 124.689 268.527 124.612 265.443L124.767 265.597C116.202 265.597 102.622 265.674 87.2666 265.674C87.3438 265.597 87.1123 265.828 87.421 265.52V265.597V265.674V265.828V266.137V266.753C87.421 267.139 87.421 267.601 87.421 267.987C87.421 268.835 87.421 269.683 87.421 270.454C87.421 272.073 87.421 273.769 87.421 275.311L87.2666 275.157C97.9148 275.157 107.251 275.234 113.964 275.234C117.282 275.234 119.983 275.311 121.835 275.311C122.76 275.311 123.455 275.311 123.995 275.311C123.532 275.311 122.76 275.311 121.912 275.311C120.06 275.311 117.359 275.311 114.041 275.388C107.328 275.388 97.9148 275.465 87.1895 275.465H87.0352V275.311C87.0352 273.692 87.0352 272.073 87.0352 270.454C87.0352 269.606 87.0352 268.758 87.0352 267.987C87.0352 267.601 87.0352 267.139 87.0352 266.753V266.137V265.828V265.674V265.597V265.52C87.421 265.134 87.1123 265.443 87.2666 265.366C102.544 265.366 116.202 265.443 124.767 265.443H124.921V265.597C124.921 268.758 124.844 271.225 124.844 272.921C124.844 273.769 124.844 274.386 124.844 274.848C124.844 275.08 124.844 275.234 124.844 275.311C124.689 275.234 124.689 275.311 124.689 275.311Z" fill="#E0E0E0"/>
<path d="M129.783 265.366C129.783 265.366 129.783 265.289 129.783 265.211C129.783 265.057 129.783 264.903 129.783 264.672C129.783 264.209 129.783 263.515 129.783 262.667C129.783 260.894 129.706 258.504 129.706 255.497L129.86 255.651C123.996 255.651 116.125 255.651 107.329 255.729C107.175 255.883 107.561 255.497 107.483 255.574V255.651V255.729V255.883V256.191V256.808C107.483 257.271 107.483 257.656 107.483 258.119C107.483 258.967 107.483 259.815 107.483 260.663C107.483 262.282 107.483 263.901 107.483 265.443L107.252 265.211C113.733 265.211 119.366 265.289 123.379 265.289C125.385 265.289 126.928 265.289 128.085 265.366C128.625 265.366 129.011 265.366 129.32 265.366C129.629 265.366 129.783 265.366 129.783 265.366C129.783 265.366 129.629 265.366 129.397 265.366C129.088 265.366 128.703 265.366 128.162 265.366C127.082 265.366 125.462 265.366 123.533 265.443C119.52 265.443 113.888 265.52 107.329 265.52H107.175V265.366C107.175 263.824 107.175 262.205 107.175 260.586C107.175 259.738 107.175 258.89 107.175 258.041C107.175 257.579 107.175 257.193 107.175 256.731V256.114V255.806V255.651V255.574V255.497C107.098 255.574 107.561 255.112 107.329 255.343C116.048 255.343 123.996 255.42 129.86 255.42H130.014V255.574C130.014 258.658 129.937 261.125 129.937 262.899C129.937 263.747 129.937 264.363 129.937 264.826C129.783 265.134 129.783 265.366 129.783 265.366Z" fill="#E0E0E0"/>
<path d="M241.125 125.05H203.625V134.996H241.125V125.05Z" fill="#EBEBEB"/>
<path d="M225.23 145.404C225.23 145.404 225.23 145.327 225.23 145.249C225.23 145.095 225.23 144.941 225.23 144.71C225.23 144.247 225.23 143.63 225.23 142.782C225.23 141.086 225.23 138.619 225.153 135.535L225.308 135.689C216.743 135.689 203.163 135.767 187.808 135.767C187.885 135.689 187.653 135.921 187.962 135.612V135.689V135.767V135.921V136.229V136.846C187.962 137.231 187.962 137.694 187.962 138.079C187.962 138.928 187.962 139.776 187.962 140.547C187.962 142.166 187.962 143.862 187.962 145.404L187.808 145.249C198.456 145.249 207.792 145.327 214.505 145.327C217.823 145.327 220.524 145.404 222.376 145.404C223.301 145.404 223.996 145.404 224.536 145.404C224.073 145.404 223.301 145.404 222.453 145.404C220.601 145.404 217.9 145.404 214.582 145.481C207.869 145.481 198.456 145.558 187.73 145.558H187.576V145.404C187.576 143.785 187.576 142.166 187.576 140.547C187.576 139.698 187.576 138.85 187.576 138.079C187.576 137.694 187.576 137.231 187.576 136.846V136.229V135.921V135.767V135.689V135.612C187.962 135.227 187.653 135.535 187.808 135.458C203.085 135.458 216.743 135.535 225.308 135.535H225.462V135.689C225.462 138.85 225.385 141.318 225.385 143.014C225.385 143.862 225.385 144.478 225.385 144.941C225.385 145.172 225.385 145.327 225.385 145.404C225.23 145.327 225.23 145.404 225.23 145.404Z" fill="#E0E0E0"/>
<path d="M132.936 81.8177L132.936 24.5658C132.936 13.5205 123.982 4.57126 112.936 4.57722L20.9179 4.62681C9.87261 4.63277 0.918602 13.5916 0.918602 24.637L0.918602 81.8889C0.918602 92.9342 9.87261 101.883 20.9179 101.877L112.936 101.828C123.982 101.822 132.936 92.863 132.936 81.8177Z" fill="#FAFAFA"/>
<path d="M122.534 19.4917C121.377 19.567 120.451 18.663 120.374 17.533C120.296 16.403 121.222 15.4991 122.38 15.4237C123.537 15.3484 124.463 16.2524 124.54 17.3824C124.54 18.5123 123.692 19.4163 122.534 19.4917Z" fill="#E0E0E0"/>
<path d="M122.899 92.2154C121.956 92.4154 121.058 91.9784 120.63 91.2425C119.768 89.7614 121.738 87.7129 123.306 88.4027C124.105 88.7539 124.643 89.5914 124.519 90.5581C124.365 91.3868 123.747 92.0647 122.899 92.2154Z" fill="#E0E0E0"/>
<path d="M101.157 37.8586C97.3852 38.3611 93.203 37.3654 91.197 34.1321L86.6469 26.7978C86.6068 26.7332 86.5211 26.7146 86.4578 26.7567C86.3945 26.7989 86.3089 26.7803 86.2688 26.7157L84.3643 23.6451C83.5602 22.3487 83.8714 20.6537 85.0836 19.7275C85.4048 19.4821 85.8075 19.3411 86.102 19.0643C86.3935 18.7901 86.5478 18.3789 86.4964 17.9678C86.4192 17.2739 85.7248 16.8113 85.0303 16.8884C84.5121 16.8884 84.0247 17.2739 83.5064 17.2739H81.2495C80.7865 17.2739 80.4779 17.6594 80.4779 18.0449C80.4779 18.5074 80.8637 18.8158 81.2495 18.8158C82.045 18.8158 82.3849 19.8268 81.7509 20.3073L81.5487 20.4606C81.5037 20.4947 81.4537 20.5223 81.4092 20.5574C81.4023 20.5628 81.3957 20.5684 81.3892 20.5742C81.2133 20.7322 81.1505 21.0013 81.1352 21.2373C81.1255 21.3871 81.1636 21.5397 81.2495 21.6684L84.956 27.5636C84.9974 27.6294 84.9788 27.7162 84.9141 27.7594C84.8498 27.8022 84.8309 27.8882 84.8715 27.954L85.1321 28.3771C85.2971 28.6451 85.2494 28.9924 85.0183 29.206L68.3808 44.5789C64.6109 48.0623 58.5471 46.9116 56.3154 42.2893L53.447 36.3483C53.417 36.2861 53.3455 36.2559 53.28 36.2777C53.2135 36.2999 53.1409 36.2684 53.1118 36.2046L50.07 29.5607C49.9648 29.3311 50.1327 29.0696 50.3853 29.0696C52.16 28.9925 56.1723 28.1445 56.0952 27.6048C55.7865 25.6003 53.7803 26.14 53.1631 26.6026C52.5458 27.0651 50.3853 27.4506 47.0674 26.5255C43.7495 25.5232 39.8143 27.5277 41.0489 29.7635C42.2834 31.9993 45.6785 30.3803 46.4501 29.7635C47.2904 29.0918 48.4493 29.8856 48.8955 30.8645L51.6401 36.8857C51.6729 36.9577 51.6486 37.0428 51.5828 37.0866C51.5157 37.1314 51.4919 37.2189 51.5274 37.2914L52.3989 39.0765C52.7768 39.8505 52.717 40.7667 52.2418 41.4852L50.8021 43.6618C48.751 46.763 44.617 47.5691 40.9603 46.8958C39.0283 46.5401 37.0076 46.4726 34.9532 46.7247C24.4594 48.1124 17.0519 57.7495 18.4408 68.2346C19.8297 78.7197 29.4748 86.1209 39.9686 84.7332C49.3845 83.4837 56.2756 75.5774 56.6306 66.4253C56.6597 65.6739 57.2333 65.0385 57.984 64.9943C58.7046 64.952 59.3206 65.4787 59.5733 66.1548C60.5265 68.706 63.1621 70.342 65.9717 70.0078C66.6172 69.8788 67.2723 70.1649 67.6013 70.735C67.7918 71.0651 67.9724 71.3845 68.1322 71.7039C68.2513 71.8942 68.363 72.0846 68.4696 72.2704C68.8192 72.8796 68.5977 73.6865 67.9779 74.0168C67.4377 74.2481 67.2834 74.942 67.5149 75.4045C67.733 75.7677 68.088 75.9939 68.5154 75.9545C68.5687 75.9496 68.6459 75.9446 68.698 75.9321C68.8513 75.8952 68.9767 75.8288 69.1163 75.7554L73.3019 73.5542C73.8421 73.3229 73.9964 72.6291 73.7649 72.1665C73.5334 71.6268 72.839 71.4726 72.376 71.7039L72.2587 71.7664C71.6886 72.0702 70.9891 71.835 70.6013 71.3184C69.7015 69.8199 70.2046 67.8861 70.8407 66.258C71.1876 65.3702 71.3315 64.3922 71.2186 63.3775C70.9619 61.0693 70.4667 58.4492 71.8483 56.5824L85.4712 38.1766C86.9265 36.2103 89.9053 36.3283 91.2006 38.4035C92.1914 39.9908 91.7161 42.0573 90.3689 43.356C86.141 47.4316 83.8662 53.3908 84.6445 59.6769C86.0334 70.162 95.6785 77.5632 106.172 76.1755C116.666 74.7878 124.074 65.1507 122.685 54.6656C121.373 43.795 111.728 36.4709 101.157 37.8586ZM50.5332 47.1926C52.0265 44.8887 55.4642 45.1021 56.6611 47.5729L60.9753 56.4788C61.6211 57.812 61.0595 59.3937 60.2771 60.6516C60.1176 60.908 59.978 61.1778 59.8594 61.459C59.565 62.1564 58.9676 62.726 58.213 62.7871C57.3265 62.8589 56.5451 62.2258 56.3462 61.3589C55.531 57.8051 53.7289 54.6787 51.2802 52.2223C49.9428 50.8808 49.5029 48.7822 50.5332 47.1926ZM44.3477 63.7682C43.291 63.8258 42.8603 62.412 43.7666 61.8657C44.3517 61.5131 44.9665 61.1413 45.6013 60.7562C47.0256 59.884 48.3404 59.0938 49.448 58.4345C50.5264 57.7925 51.9153 58.0846 52.4133 59.2365C52.917 60.4015 52.1748 61.7056 50.9466 62.0253C49.6647 62.3589 48.1371 62.7637 46.5273 63.2233C45.8674 63.4431 45.138 63.5932 44.5374 63.7399C44.4751 63.7551 44.4117 63.7647 44.3477 63.7682ZM45.6013 60.6791C43.4816 61.965 41.5847 63.1025 40.2021 63.8731C40.1497 63.9024 40.092 63.9198 40.0322 63.9247C39.6861 63.9535 39.4544 63.5764 39.6365 63.2807L39.7846 63.0402C39.8043 63.0082 39.827 62.9784 39.8527 62.9509C40.9274 61.7991 42.3026 60.2736 43.9038 58.5975C45.0098 57.4004 46.0607 56.2857 46.958 55.3357C47.8302 54.4122 49.2935 54.338 50.1044 55.3158C50.8933 56.267 50.5706 57.6632 49.5221 58.3174C48.3992 59.0181 47.0574 59.8343 45.6013 60.6791ZM47.7624 53.0409C48.2123 53.4082 48.2195 54.077 47.8245 54.5029C46.7946 55.6134 45.4481 57.0699 43.9038 58.6746C43.5077 59.11 42.8286 58.5738 43.1545 58.0836L46.3993 53.2026C46.6854 52.7723 47.2652 52.6447 47.6697 52.9662C47.7009 52.991 47.7317 53.0159 47.7624 53.0409ZM46.6712 63.5443C46.4472 63.5596 46.3853 63.1949 46.6044 63.1462C48.8983 62.5569 50.9695 61.9675 52.487 61.5671C52.9066 61.4564 53.3316 61.7051 53.4202 62.1299C53.4267 62.1612 53.4332 62.1925 53.4397 62.2241C53.531 62.6658 53.2127 63.0974 52.7626 63.1281L46.6712 63.5443ZM45.31 51.414C45.4625 51.4957 45.525 51.6985 45.4302 51.8432L41.6661 57.5953C41.7433 57.4411 41.8205 57.364 41.8976 57.2098C43.0286 54.9497 44.0301 52.9484 44.7834 51.5616C44.8832 51.3778 45.1257 51.3152 45.31 51.414ZM42.8033 50.3286C44.0009 50.7166 44.4518 52.1102 43.8825 53.2331C43.2986 54.3848 42.6005 55.7427 41.8205 57.2098C41.7576 57.3353 41.6948 57.5119 41.5904 57.6565C41.5429 57.7221 41.4893 57.7835 41.4445 57.8511C40.7117 58.9576 38.9757 58.2446 39.2352 56.943C39.2735 56.751 39.3122 56.5572 39.3513 56.3617C39.6712 54.7635 39.9641 53.3006 40.1978 52.0529C40.4294 50.8163 41.6064 49.9409 42.8033 50.3286ZM38.419 49.5013C39.6539 49.5651 40.3865 50.7359 40.1465 51.949C39.8946 53.2221 39.5983 54.7117 39.2742 56.2846C38.7427 58.9397 38.286 61.3708 37.9774 62.8436C37.9675 62.8912 37.9486 62.9357 37.9216 62.9762C37.8507 63.0824 37.7314 63.1462 37.6037 63.1462C37.5074 63.1462 37.4003 63.1462 37.268 63.1462C37.1137 61.6043 36.8822 59.0601 36.6507 56.1305C36.5144 54.5416 36.3781 53.0597 36.2576 51.7949C36.1386 50.547 37.1671 49.4367 38.419 49.5013ZM35.3522 49.5893C35.3947 49.5813 35.4375 49.5778 35.4808 49.5754C35.8404 49.5552 36.1379 49.7729 36.1733 50.1313C36.324 51.6576 36.526 53.7767 36.7279 56.1305C36.9556 59.0124 37.1833 61.5214 37.3376 63.0702C37.3417 63.1113 37.3093 63.1462 37.268 63.1462C36.9644 63.1462 36.6331 63.0567 36.524 62.7734C35.9702 61.3344 35.1361 59.1227 34.1816 56.6701C33.7567 55.5925 33.3595 54.5703 33.0018 53.6385C32.3412 51.9179 33.3223 49.9877 35.1307 49.6321C35.2045 49.6176 35.2783 49.6033 35.3522 49.5893ZM29.7284 51.487C30.8081 50.913 32.0593 51.5199 32.4933 52.6631C32.9518 53.8708 33.5001 55.2916 34.1044 56.8243C35.1049 59.3949 35.973 61.6347 36.5249 63.054C36.5934 63.2304 36.4786 63.4453 36.3221 63.5516C36.1899 63.6415 36.0411 63.5933 35.9452 63.4654C35.0066 62.2128 33.5352 60.2381 31.7896 58.0579C30.8349 56.786 29.9339 55.5945 29.1495 54.5779C28.3756 53.5749 28.6098 52.0818 29.7284 51.487ZM26.0868 54.2244C26.9567 53.3668 28.3833 53.5463 29.1244 54.5174C29.9103 55.5472 30.8468 56.7608 31.8668 58.0579C33.5426 60.3147 35.0808 62.2965 36.0266 63.484C36.1184 63.5993 36.0948 63.7748 35.9957 63.8839C35.8744 64.0172 35.6698 64.0494 35.5254 63.9415C34.2691 63.0021 32.3137 61.5496 30.0921 59.8311C28.7581 58.8314 27.483 57.8906 26.412 57.0993C25.4571 56.3937 25.2413 55.058 26.0868 54.2244ZM23.4332 57.6453C24.0246 56.6187 25.3649 56.4648 26.3128 57.1755C27.3685 57.967 28.6328 58.9082 30.0149 59.9082C32.2649 61.6487 34.3101 63.1163 35.5083 64.0544C35.6351 64.1537 35.6758 64.3287 35.6159 64.4783C35.5503 64.642 35.368 64.7165 35.2034 64.6534C33.7669 64.1024 31.3697 63.2241 28.7032 62.144C27.2049 61.5542 25.7868 61.0179 24.5746 60.5663C23.3855 60.1234 22.7997 58.7448 23.4332 57.6453ZM21.7829 61.9501C22.0719 60.7389 23.3869 60.1804 24.5493 60.6271C25.7837 61.1015 27.2397 61.6613 28.7803 62.2211C31.5427 63.2654 34.0161 64.2376 35.4317 64.7884C35.5154 64.8209 35.5699 64.8935 35.558 64.9825C35.535 65.1529 35.3469 65.3587 35.1757 65.3416C33.6479 65.189 31.1383 64.9771 28.2402 64.7652C26.5829 64.6272 25.0354 64.4892 23.7289 64.384C22.4713 64.2827 21.49 63.1774 21.7829 61.9501ZM21.4501 67.8491C21.2037 65.8794 23.0113 64.3697 24.9908 64.5178C25.9709 64.5911 27.0418 64.6719 28.1631 64.7652C31.2729 64.9926 33.9354 65.22 35.4175 65.3741C35.4611 65.3786 35.4933 65.4153 35.4933 65.4591C35.4933 65.6133 35.5705 65.7675 35.6476 65.9217C34.2587 66.2301 31.481 66.7697 28.3174 67.3865C25.5396 67.9262 23.0705 68.3888 21.6044 68.6971C21.5273 68.4659 21.4501 68.1575 21.4501 67.8491ZM21.6044 68.6971C23.1476 68.3888 25.6168 67.9262 28.3174 67.3865C31.481 66.7697 34.2587 66.2301 35.6476 65.9217C35.7754 66.1771 35.6728 66.4873 35.4178 66.6161C34.0712 67.2966 31.7709 68.4838 29.1661 69.8536C28.4278 70.2336 27.7154 70.6007 27.0421 70.9473C24.825 72.0887 22.0939 71.1423 21.6044 68.6971ZM25.6939 76.7923C23.9542 74.9298 24.9151 72.0821 27.1811 70.9155C27.8361 70.5783 28.5275 70.222 29.2433 69.8536C31.8298 68.4934 34.1161 67.3132 35.4666 66.6305C35.7371 66.4937 36.1276 66.5555 36.3421 66.7697C35.339 67.6949 33.2557 69.6994 30.7865 72.0123C28.7032 74.0168 26.8513 75.7129 25.6939 76.7923ZM27.0828 78.1029C26.6198 77.7174 26.1569 77.2548 25.6939 76.7923C26.8513 75.7129 28.626 74.0168 30.7865 72.0123C33.2557 69.6994 35.339 67.6949 36.3421 66.7697C36.5793 66.8883 36.6324 67.16 36.4971 67.3882C35.7374 68.6697 34.3901 70.9943 32.7927 73.6313C31.9925 74.9779 31.2382 76.2556 30.5927 77.3516C29.8485 78.6151 28.1201 79.1393 27.0828 78.1029ZM31.1943 80.6648C30.0554 80.1795 29.6748 78.7797 30.3028 77.7128C30.9927 76.541 31.8257 75.1287 32.7155 73.6313C34.2997 71.0162 35.6379 68.7082 36.4009 67.4202C36.5416 67.1828 36.8668 67.0319 37.1137 67.1552C36.805 68.4659 36.0334 71.3184 35.1075 74.6336C34.6414 76.3102 34.2316 77.8743 33.8951 79.1898C33.5829 80.4104 32.3533 81.1587 31.1943 80.6648ZM35.6481 81.8325C34.408 81.6896 33.6724 80.4409 33.9968 79.2356C34.3477 77.9315 34.7662 76.3525 35.1847 74.6336C36.0334 71.3184 36.805 68.4659 37.1137 67.1552C37.268 67.1552 37.4223 67.1552 37.5766 67.1552C37.5766 68.4659 37.6538 71.4726 37.731 74.942C37.7776 76.7142 37.8243 78.3454 37.8539 79.699C37.8812 80.9466 36.8878 81.9754 35.6481 81.8325ZM39.7371 81.8035C38.7602 81.9255 37.9603 81.16 37.941 80.1757C37.9127 78.7362 37.8604 76.9276 37.8081 74.942C37.731 71.4726 37.6538 68.5429 37.5766 67.1552C37.6538 67.1552 37.731 67.1552 37.731 67.1552C37.8081 67.1552 37.9624 67.1552 38.0396 67.0781C38.4254 68.3888 39.3513 71.1642 40.3544 74.4794C40.7988 75.9326 41.2221 77.2801 41.591 78.4445C42.073 79.9661 41.3116 81.5413 39.7371 81.8035ZM44.6252 80.3397C43.4911 80.8821 42.1337 80.2249 41.759 79.0249C41.3533 77.7251 40.868 76.1587 40.3544 74.4794C39.3513 71.1642 38.4254 68.3117 38.0396 67.0781C38.2333 66.9814 38.5372 67.0916 38.657 67.272C39.4942 68.5331 40.9861 70.8074 42.6692 73.4C43.6516 74.8489 44.5488 76.2128 45.2922 77.3543C45.9793 78.4092 45.7608 79.7965 44.6252 80.3397ZM50.0766 76.1755C48.3208 78.0551 45.4616 77.5167 44.0443 75.3702C43.6342 74.7492 43.1994 74.0897 42.7464 73.4C41.0272 70.8577 39.5531 68.6216 38.7612 67.3466C38.6199 67.1191 38.6989 66.8049 38.8884 66.6155C39.8915 67.5407 42.1291 69.391 44.7526 71.6268C46.9131 73.4771 48.9192 75.1732 50.0766 76.1755ZM51.0026 74.942C50.6939 75.4045 50.3853 75.79 50.0766 76.1755C48.9192 75.1732 46.9902 73.5542 44.7526 71.6268C42.2063 69.391 39.9686 67.5407 38.8884 66.6155C39.0427 66.5384 39.1199 66.3843 39.197 66.2301C40.4316 66.8468 43.055 68.0033 46.1415 69.391C47.4136 69.9518 48.6132 70.4945 49.6698 70.975C51.2082 71.6747 51.9104 73.5166 51.0026 74.942ZM53.2244 70.2355C52.8767 71.4236 51.5531 71.9118 50.4291 71.3931C49.2042 70.8278 47.7294 70.1377 46.1415 69.391C43.1322 68.0033 40.5087 66.7697 39.197 66.2301C39.197 66.1302 39.3524 66.072 39.4521 66.067L40.8174 65.9988C42.3606 66.2301 44.5211 66.5385 46.9131 66.9239C48.5611 67.1526 50.1277 67.3814 51.4517 67.5779C52.7192 67.766 53.5844 69.0057 53.2244 70.2355ZM53.8284 66.5366C53.8117 67.3258 53.0777 67.8317 52.2972 67.7136C50.8293 67.4913 48.9371 67.2076 46.8359 66.9239C44.4439 66.5385 42.3606 66.2301 40.8174 65.9988L52.3458 65.176C53.1394 65.1194 53.8452 65.7411 53.8284 66.5366ZM69.7138 55.6934C68.5685 57.2494 66.4207 57.6485 64.5056 57.9037C64.1712 57.9037 63.8729 57.7896 63.727 57.4887L62.869 55.7189C62.0994 54.1312 62.4574 52.227 63.7511 51.0272L85.3225 31.0229C85.8071 30.5735 86.5828 30.6864 86.9191 31.2552C87.1307 31.6129 87.1081 32.0624 86.8617 32.397L69.7138 55.6934ZM119.83 54.6656C118.287 54.8969 115.817 55.2053 113.04 55.5908C109.953 55.9762 107.253 56.3617 105.787 56.5159C105.787 56.3342 105.909 56.1754 106.085 56.1289C107.584 55.7319 109.994 55.0783 112.808 54.3572C114.504 53.9215 116.078 53.4858 117.397 53.1265C118.517 52.8213 119.701 53.5119 119.83 54.6656ZM118.594 50.3991C119.123 51.5769 118.353 52.8459 117.104 53.1713C115.832 53.5026 114.321 53.9032 112.731 54.3572C109.772 55.1154 107.26 55.799 105.783 56.1881C105.739 56.1997 105.709 56.1759 105.709 56.1305C105.709 55.8123 105.768 55.4659 106.041 55.3027C107.384 54.5004 109.404 53.2557 111.728 51.8902C113.158 51.0142 114.478 50.221 115.589 49.5599C116.664 48.9199 118.082 49.2576 118.594 50.3991ZM116.313 46.5991C117.077 47.5376 116.747 48.9196 115.71 49.5424C114.571 50.2264 113.217 51.044 111.805 51.8902C109.468 53.3053 107.326 54.5906 105.976 55.3884C105.799 55.493 105.546 55.3906 105.43 55.2211C105.353 55.1098 105.384 54.9862 105.476 54.8876C106.507 53.7837 108.276 51.9393 110.185 49.8856C111.3 48.6784 112.359 47.555 113.262 46.5997C114.112 45.6995 115.532 45.6387 116.313 46.5991ZM111.033 42.4073C113.207 43.5571 113.354 46.4562 111.668 48.2462C111.176 48.7682 110.654 49.3177 110.107 49.8856C108.232 51.9042 106.558 53.7206 105.465 54.8304C105.345 54.9529 105.158 54.9519 105.024 54.8441C104.876 54.7253 104.782 54.5145 104.867 54.345C105.572 52.9367 106.66 50.778 107.947 48.4208C109.182 45.9537 110.262 43.795 111.033 42.4073ZM111.033 42.4073C110.339 43.795 109.259 45.9537 107.947 48.4208C106.812 50.6883 105.793 52.725 105.089 54.0818C104.92 54.4074 104.514 54.5502 104.166 54.4343C104.475 52.9695 104.938 50.4253 105.478 47.4957C105.621 46.7829 105.758 46.097 105.887 45.4451C106.371 43.0005 108.831 41.242 111.033 42.4073ZM102.314 40.7883C104.75 40.532 106.397 42.9452 105.915 45.3468C105.776 46.0355 105.63 46.7564 105.478 47.4957C104.938 50.3482 104.398 52.8924 104.166 54.4343C103.928 54.4343 103.707 54.3065 103.589 54.0994L103.555 54.0396C103.5 53.944 103.466 53.8383 103.455 53.7287C103.306 52.1893 103.155 49.9474 102.932 47.4186C102.7 44.7202 102.469 42.3302 102.314 40.7883ZM101.62 40.8654C101.851 40.8654 102.083 40.7883 102.314 40.7883C102.469 42.3302 102.7 44.7202 102.932 47.4186C102.997 48.1422 103.063 48.847 103.127 49.5208C103.227 50.5661 101.842 51.0315 101.293 50.1362C101.254 50.0722 101.222 50.0038 101.198 49.9328C100.971 49.2746 100.682 48.6164 100.462 47.9582C100.069 46.9606 99.6995 46.0104 99.3629 45.1355C98.6346 43.2422 99.6052 41.1022 101.62 40.8654ZM97.167 42.0693C97.5776 41.8819 98.0369 42.1177 98.1988 42.5389C98.7482 43.9679 99.5282 45.8922 100.308 48.0353C100.39 48.2798 100.08 48.4353 99.9439 48.2165L96.8135 43.1915C96.5729 42.8055 96.6977 42.2887 97.1097 42.0958C97.1288 42.0869 97.1479 42.078 97.167 42.0693ZM98.0913 49.2848C98.162 49.3981 98.0928 49.4465 97.9989 49.3516C97.9952 49.3478 97.9917 49.3438 97.9885 49.3396C96.4998 47.3564 95.1418 45.5689 94.1537 44.336C94.0201 44.1692 94.055 43.9208 94.2219 43.7875C94.3815 43.6599 94.6105 43.707 94.7187 43.8803L98.0913 49.2848ZM90.8174 47.1102C92.2843 45.1114 95.1853 45.5571 96.7035 47.5172C97.1364 48.0761 97.5943 48.6634 98.0705 49.2689C98.302 49.5773 98.5334 49.8856 98.7649 50.194L102.006 55.4366C100.771 54.5114 98.6878 52.8924 96.2186 51.1192C94.0581 49.5002 92.0519 48.0353 90.8174 47.1102ZM90.8174 47.1102C92.0519 48.0353 93.981 49.5002 96.2186 51.1192C98.6878 52.9695 100.848 54.5885 102.006 55.4366C101.884 55.6798 101.579 55.8702 101.325 55.7714C99.8694 55.2041 97.5777 54.3097 94.9841 53.355C94.236 53.0605 93.508 52.7794 92.8156 52.5155C90.5161 51.6391 89.2793 49.0311 90.8174 47.1102ZM87.9094 53.1612C88.1984 51.95 89.5135 51.3914 90.6758 51.8381C91.9103 52.3125 93.3662 52.8723 94.9069 53.4321C97.7095 54.5375 100.23 55.4315 101.66 55.9796C101.776 56.024 101.851 56.1307 101.851 56.2548C101.851 56.4333 101.697 56.5768 101.52 56.5591C99.9889 56.406 97.3776 56.1911 94.3668 55.9762C92.7094 55.8383 91.1619 55.7003 89.8555 55.595C88.5978 55.4937 87.6166 54.3884 87.9094 53.1612ZM87.5766 59.0601C87.3302 57.0904 89.1378 55.5807 91.1173 55.7288C92.0974 55.8021 93.1684 55.8829 94.2896 55.9762C97.4754 56.2036 100.214 56.431 101.698 56.5851C101.742 56.5896 101.774 56.6263 101.774 56.6701C101.774 56.9146 101.685 57.1738 101.445 57.2181C99.9489 57.4938 97.4126 58.0457 94.4439 58.5975C92.1453 59.0441 90.0581 59.4379 88.5757 59.7352C88.0935 59.8319 87.696 59.5372 87.5766 59.0601ZM88.3233 62.1849C87.9219 60.9846 88.7442 59.7852 89.9869 59.5453C91.2897 59.2939 92.8252 58.9981 94.4439 58.6746C97.5253 58.0882 100.258 57.5017 101.713 57.2467C101.842 57.2241 101.968 57.2894 102.027 57.4062C102.1 57.5532 102.041 57.7317 101.894 57.8056C100.582 58.4659 98.1774 59.7031 95.3699 61.1417C93.8367 61.9309 92.4154 62.6641 91.2239 63.2742C90.1061 63.8465 88.7216 63.3759 88.3233 62.1849ZM90.3773 66.2542C89.6633 65.2066 90.1158 63.7645 91.2442 63.1867C92.4315 62.5787 93.8454 61.8493 95.3699 61.0646C98.2228 59.6028 100.729 58.3489 101.968 57.6313C102.072 57.5707 102.224 57.6268 102.317 57.7038C102.408 57.779 102.397 57.8924 102.311 57.9724C101.25 58.952 99.1823 60.875 96.8359 63.1462C95.5562 64.3775 94.3638 65.4924 93.3661 66.4195C92.4609 67.2606 91.0733 67.2753 90.3773 66.2542ZM93.2094 69.3139C92.4071 68.6459 92.4528 67.4113 93.2121 66.6948C94.2343 65.7302 95.49 64.5437 96.9131 63.2233C99.2816 60.9307 101.366 58.9927 102.418 58.022C102.495 57.9504 102.612 57.9359 102.7 57.9938C102.824 58.075 102.866 58.2434 102.79 58.3703C102.041 59.6144 100.582 62.0254 98.9192 64.8423C97.4532 67.3094 96.1415 69.5452 95.3699 70.8558C94.5983 70.3933 93.9038 69.9307 93.2094 69.3139ZM95.3699 70.8558C96.1415 69.5452 97.4532 67.3094 98.9192 64.8423C100.617 61.9666 102.102 59.514 102.769 58.2939C102.817 58.2051 102.957 58.1879 103.05 58.2293C103.16 58.2785 103.214 58.4007 103.186 58.5177C102.847 59.9132 102.109 62.6378 101.234 65.8446C100.997 66.6979 100.774 67.5221 100.568 68.2992C99.9411 70.6675 97.482 72.0972 95.3699 70.8558ZM104.089 73.1687C101.55 73.1687 100.084 70.645 100.721 68.1877C100.913 67.448 101.112 66.6621 101.311 65.8446C102.121 62.6097 102.86 59.8656 103.261 58.4814C103.294 58.3667 103.4 58.291 103.515 58.3194C103.66 58.3547 103.78 58.4866 103.781 58.6353C103.79 60.0595 103.862 62.9033 103.935 66.153C104.012 69.0826 104.089 71.6268 104.089 73.1687ZM105.864 73.0145C105.246 73.0916 104.706 73.1687 104.089 73.1687C104.089 71.6268 104.012 69.0826 103.935 66.153C103.863 62.9321 103.791 60.1099 103.72 58.6735C103.711 58.5062 103.844 58.3662 104.012 58.3662C104.103 58.3662 104.184 58.426 104.21 58.5136C104.619 59.8776 105.514 62.5718 106.481 65.7675C106.928 67.2281 107.353 68.5819 107.723 69.7503C108.192 71.2308 107.411 72.8857 105.864 73.0145ZM110.823 71.5497C109.643 72.1112 108.322 71.3878 107.933 70.1399C107.533 68.8592 107.059 67.3285 106.558 65.6904C105.622 62.5979 104.754 59.9751 104.328 58.5728C104.285 58.431 104.386 58.2795 104.522 58.2221C104.625 58.1787 104.752 58.2039 104.814 58.2969C105.623 59.5054 107.181 61.8085 108.95 64.5339C109.931 65.981 110.827 67.3434 111.57 68.484C112.264 69.5492 111.971 71.0037 110.823 71.5497ZM114.576 69.0507C113.64 69.8922 112.175 69.6155 111.481 68.5645C110.741 67.4426 109.849 66.0967 108.873 64.611C107.125 61.9185 105.583 59.638 104.767 58.4181C104.693 58.3085 104.757 58.1516 104.871 58.0847C104.97 58.0266 105.081 58.0376 105.168 58.1121C106.292 59.0741 108.371 60.854 110.802 62.9149C112.11 64.0351 113.361 65.0988 114.402 65.9863C115.358 66.8011 115.511 68.2116 114.576 69.0507ZM117.129 66.153C116.662 66.8537 115.673 66.9289 115.032 66.3827C113.917 65.4331 112.477 64.2141 110.879 62.8378C108.539 60.8541 106.525 59.1308 105.376 58.1466C105.241 58.031 105.236 57.7998 105.349 57.6627C105.416 57.582 105.54 57.5476 105.635 57.592C106.987 58.2245 109.452 59.3449 112.345 60.6791C113.628 61.2446 114.837 61.7916 115.9 62.2751C117.409 62.9617 118.081 64.7949 117.129 66.153ZM119.352 61.429C119.017 62.6683 117.658 63.1133 116.493 62.5751C115.28 62.0153 113.829 61.3359 112.268 60.602C109.527 59.3048 107.056 58.2097 105.674 57.5686C105.524 57.499 105.462 57.3192 105.536 57.1712C105.593 57.0564 105.717 56.992 105.844 57.0117C107.35 57.2457 109.946 57.6167 112.962 58.0579C114.614 58.2871 116.184 58.5163 117.51 58.7131C118.794 58.9037 119.692 60.1759 119.352 61.429ZM113.04 58.1349C110.233 57.7246 107.791 57.3749 106.252 57.1397C105.983 57.0986 105.787 56.7881 105.787 56.5159C107.253 56.3617 109.953 55.9762 113.04 55.5908C115.817 55.2053 118.287 54.8969 119.83 54.6656C119.83 54.7682 119.838 54.8707 119.853 54.9723C119.86 55.0231 119.867 55.074 119.874 55.1248C120.161 57.3406 117.985 58.9375 115.779 58.5831C114.92 58.445 113.998 58.2946 113.04 58.1349Z" fill="#E0E0E0"/>
<path d="M14.9694 17.5009C14.9694 18.6574 14.0435 19.5825 12.8861 19.5825C11.7287 19.5825 10.8027 18.6574 10.8027 17.5009C10.8027 16.3445 11.7287 15.4193 12.8861 15.4193C14.0435 15.4193 14.9694 16.3445 14.9694 17.5009Z" fill="#E0E0E0"/>
<path d="M14.9694 89.9714C14.9694 91.1278 14.0435 92.053 12.8861 92.053C11.7287 92.053 10.8027 91.1278 10.8027 89.9714C10.8027 88.815 11.7287 87.8898 12.8861 87.8898C14.0435 87.9669 14.9694 88.8921 14.9694 89.9714Z" fill="#E0E0E0"/>
<path d="M178.009 49.4187C189.121 49.4187 198.071 49.4187 198.071 49.4958C198.071 49.4187 189.043 49.4187 178.009 49.4187C166.898 49.4187 157.948 49.4187 157.948 49.4187C157.871 49.4187 166.898 49.4187 178.009 49.4187Z" fill="#E0E0E0"/>
<path d="M178.857 43.251C168.209 40.0901 159.645 37.4688 159.645 37.4688C159.645 37.4688 168.287 40.0901 178.857 43.251Z" fill="#E0E0E0"/>
<path d="M181.56 37.7001C190.819 43.8678 198.227 48.8791 198.227 48.8791C198.227 48.8791 190.742 43.8678 181.56 37.7001C172.301 31.5324 164.816 26.5982 164.816 26.5211C164.816 26.5211 172.301 31.5324 181.56 37.7001Z" fill="#E0E0E0"/>
<path d="M185.725 33.0743C192.746 41.632 198.533 48.5707 198.456 48.5707C198.456 48.6478 192.746 41.7091 185.725 33.0743Z" fill="#E0E0E0"/>
<path d="M190.973 29.9133C186.652 19.7366 183.18 11.4102 183.18 11.4102C183.257 11.4102 186.729 19.6595 190.973 29.9133Z" fill="#E0E0E0"/>
<path d="M196.991 28.3714C195.833 17.3466 194.984 8.40347 194.984 8.40347C194.984 8.40347 195.91 17.3466 196.991 28.3714Z" fill="#E0E0E0"/>
<path d="M203.165 28.6798C201.081 39.5504 199.307 48.4165 199.307 48.4165C199.307 48.3394 201.004 39.5504 203.165 28.6798C205.248 17.8092 206.946 8.94315 206.946 8.94315C207.023 8.94315 205.325 17.8092 203.165 28.6798Z" fill="#E0E0E0"/>
<path d="M209.029 30.7614C203.859 40.5526 199.615 48.4936 199.615 48.4936C199.615 48.4936 203.782 40.4755 209.029 30.7614C214.199 20.9702 218.442 13.0292 218.442 13.0292C218.442 12.9521 214.199 20.9702 209.029 30.7614Z" fill="#E0E0E0"/>
<path d="M213.966 34.385C221.759 26.444 228.086 20.1221 228.086 20.1221C228.164 20.1221 221.836 26.5211 213.966 34.385Z" fill="#E0E0E0"/>
<path d="M217.748 39.3191C208.026 44.6388 200.078 48.8791 200.078 48.8791C200.078 48.8791 207.949 44.5617 217.748 39.3191C227.47 33.9995 235.418 29.6821 235.418 29.6821C235.34 29.7592 227.47 34.0766 217.748 39.3191Z" fill="#E0E0E0"/>
<path d="M219.83 45.1784C208.951 47.4142 200.154 49.1874 200.154 49.1874C200.154 49.1874 208.951 47.3371 219.83 45.1784Z" fill="#E0E0E0"/>
<path d="M220.216 51.3462C209.182 50.3439 200.231 49.5729 200.231 49.5729C200.154 49.4958 209.104 50.2668 220.216 51.3462C231.249 52.2713 240.2 53.1194 240.2 53.1194C240.2 53.1194 231.249 52.3484 220.216 51.3462Z" fill="#E0E0E0"/>
<path d="M218.75 57.3597C208.488 53.1965 200.154 49.8042 200.154 49.8042C200.154 49.8042 208.488 53.1194 218.75 57.3597C229.012 61.4458 237.346 64.838 237.346 64.838C237.346 64.838 229.012 61.5229 218.75 57.3597Z" fill="#E0E0E0"/>
<path d="M215.587 62.6793C206.945 55.7406 199.924 50.0355 199.924 50.0355C200.001 50.0355 207.023 55.6635 215.587 62.6793Z" fill="#E0E0E0"/>
<path d="M211.034 66.8425C217.361 75.9399 222.377 83.4182 222.377 83.4182C222.377 83.4182 217.361 76.017 211.034 66.8425Z" fill="#E0E0E0"/>
<path d="M205.479 69.5409C208.875 80.1031 211.575 88.6607 211.575 88.6607C211.575 88.7378 208.797 80.1801 205.479 69.5409Z" fill="#E0E0E0"/>
<path d="M199.384 70.5431C199.229 59.4413 199.152 50.4981 199.152 50.4981C199.152 50.4981 199.307 59.4413 199.384 70.5431Z" fill="#E0E0E0"/>
<path d="M193.21 69.695C196.296 59.0557 198.765 50.4209 198.843 50.4209C198.843 50.4209 196.373 59.0557 193.21 69.695Z" fill="#E0E0E0"/>
<path d="M187.578 67.1509C193.596 57.8223 198.535 50.3439 198.535 50.3439C198.612 50.3439 193.674 57.8993 187.578 67.1509C181.559 76.4796 176.621 83.9579 176.621 83.9579C176.698 83.9579 181.559 76.4025 187.578 67.1509Z" fill="#E0E0E0"/>
<path d="M182.949 63.0648C174.538 70.2347 167.594 76.017 167.594 76.017C167.671 76.017 174.538 70.2347 182.949 63.0648Z" fill="#E0E0E0"/>
<path d="M178.086 51.8087C167.052 53.1193 158.102 54.1216 158.102 54.1216C158.179 54.1216 167.129 53.0422 178.086 51.8087Z" fill="#E0E0E0"/>
<path d="M199.152 92.3614C222.995 92.3614 242.285 73.0873 242.285 49.2645C242.285 25.4418 222.995 6.16769 199.152 6.16769C175.31 6.16769 156.02 25.4418 156.02 49.2645C156.02 73.0873 175.31 92.3614 199.152 92.3614ZM199.152 12.5667C219.445 12.5667 235.881 28.9882 235.881 49.2645C235.881 69.5409 219.445 85.9624 199.152 85.9624C178.859 85.9624 162.424 69.5409 162.424 49.2645C162.424 28.9882 178.859 12.5667 199.152 12.5667Z" fill="#263238"/>
<path d="M199.152 86.3479C178.55 86.3479 161.807 69.618 161.807 49.0333C161.807 28.4485 178.55 11.7186 199.152 11.7186C219.754 11.7186 236.498 28.4485 236.498 49.0333C236.498 69.618 219.754 86.3479 199.152 86.3479ZM199.152 12.4896C179.013 12.4896 162.578 28.9111 162.578 49.0333C162.578 69.1554 179.013 85.5769 199.152 85.5769C219.291 85.5769 235.726 69.1554 235.726 49.0333C235.726 28.9111 219.291 12.4896 199.152 12.4896Z" fill="#E0E0E0"/>
<path d="M199.153 12.4896C199.153 12.4896 199.385 12.4896 199.771 12.4896C200.156 12.4896 200.774 12.4896 201.545 12.5667C201.931 12.5667 202.394 12.5667 202.857 12.6438C203.32 12.7209 203.86 12.798 204.4 12.8751C204.94 12.9522 205.558 13.0293 206.175 13.1064C206.792 13.1835 207.487 13.4147 208.181 13.5689C211.036 14.1857 214.354 15.4964 217.98 17.578C221.53 19.6596 225.233 22.7434 228.397 26.8295C228.783 27.3692 229.169 27.9089 229.554 28.4485C229.94 28.9882 230.249 29.605 230.635 30.1447C230.943 30.7614 231.406 31.3011 231.715 31.9179C232.024 32.5346 232.332 33.1514 232.641 33.8453C232.795 34.1537 232.95 34.462 233.104 34.8475C233.258 35.1559 233.335 35.5414 233.49 35.8498C233.721 36.5436 234.03 37.2375 234.261 37.9314C234.493 38.6252 234.647 39.3962 234.879 40.0901C235.033 40.861 235.341 41.5549 235.419 42.3259C235.65 43.8678 235.959 45.4097 235.959 46.9516C235.959 47.7226 236.036 48.5707 236.036 49.3416C235.959 50.1126 235.959 50.9607 235.882 51.8087C235.882 52.1942 235.882 52.6568 235.804 53.0423C235.727 53.4277 235.65 53.8903 235.65 54.2758C235.496 55.1239 235.419 55.8948 235.264 56.7429C234.801 58.3619 234.493 60.058 233.798 61.677L233.335 62.9106C233.181 63.2961 233.027 63.6816 232.795 64.1441C232.409 64.9151 232.024 65.6861 231.638 66.5341C231.252 67.3051 230.712 68.076 230.249 68.847C230.017 69.2325 229.786 69.618 229.554 70.0035L228.783 71.0828C227.78 72.5476 226.468 73.8583 225.233 75.246C224.539 75.8628 223.845 76.4795 223.15 77.0963L222.61 77.5589L222.07 77.9444L220.912 78.7924L219.755 79.6405L218.521 80.4115L217.286 81.1824L216.669 81.5679C216.437 81.645 216.206 81.7992 216.051 81.8763C215.203 82.2618 214.354 82.7243 213.428 83.1098C212.502 83.4182 211.653 83.8037 210.727 84.1121C207.024 85.3456 203.088 85.9624 199.153 86.0395C195.141 85.9624 191.206 85.3456 187.579 84.1121C186.653 83.8037 185.727 83.4182 184.879 83.1098C184.03 82.7243 183.181 82.2618 182.255 81.8763C182.024 81.7992 181.792 81.645 181.638 81.5679L181.021 81.1824L179.786 80.4115L178.551 79.6405L177.394 78.7924L176.237 77.9444L175.696 77.5589L175.156 77.0963C174.462 76.4795 173.767 75.8628 173.073 75.246C171.838 73.8583 170.527 72.5476 169.524 71.0828L168.752 70.0035C168.443 69.618 168.289 69.2325 168.058 68.847C167.595 68.076 167.132 67.3051 166.669 66.5341C166.283 65.7632 165.897 64.9151 165.511 64.1441C165.125 63.3732 164.894 62.5251 164.585 61.7541C163.891 60.1351 163.582 58.5161 163.119 56.82C162.965 55.9719 162.888 55.201 162.733 54.3529C162.656 53.9674 162.579 53.5048 162.579 53.1194C162.502 52.7339 162.502 52.2713 162.502 51.8858C162.425 51.0378 162.425 50.2668 162.348 49.4187C162.348 48.6478 162.425 47.7997 162.425 47.0287C162.425 45.4097 162.733 43.8678 162.965 42.403C163.042 41.632 163.274 40.9381 163.505 40.1672C163.737 39.4733 163.891 38.7023 164.122 38.0085C164.354 37.3146 164.662 36.6207 164.894 35.9269C165.048 35.6185 165.125 35.233 165.28 34.9246C165.434 34.6162 165.588 34.3079 165.743 33.9224C166.051 33.3056 166.36 32.6117 166.669 31.995C166.977 31.3782 167.363 30.8385 167.749 30.2218C168.135 29.605 168.443 29.0653 168.829 28.5256C169.215 27.986 169.601 27.4463 169.987 26.9066C173.15 22.7434 176.854 19.7366 180.403 17.655C183.953 15.5734 187.348 14.2628 190.203 13.646C190.897 13.4918 191.591 13.2606 192.209 13.1835C192.826 13.1064 193.443 13.0293 193.983 12.9522C194.524 12.8751 195.064 12.798 195.527 12.7209C195.99 12.7209 196.453 12.6438 196.838 12.6438C197.61 12.6438 198.15 12.5667 198.613 12.5667C198.922 12.4896 199.153 12.4896 199.153 12.4896C199.153 12.4896 198.922 12.4896 198.536 12.5667C198.15 12.5667 197.533 12.6438 196.838 12.6438C196.453 12.6438 196.067 12.7209 195.527 12.7209C195.064 12.798 194.524 12.8751 193.983 12.9522C193.443 13.0293 192.826 13.1064 192.209 13.2606C191.591 13.3377 190.897 13.5689 190.203 13.7231C187.348 14.3399 184.03 15.6505 180.48 17.8092C176.931 19.8908 173.304 22.9747 170.141 27.0608C169.755 27.6005 169.369 28.1401 168.983 28.6027C168.598 29.1424 168.289 29.7592 167.903 30.2988C167.595 30.9156 167.132 31.4553 166.9 32.0721C166.591 32.6888 166.283 33.3056 165.974 33.9224C165.82 34.2308 165.666 34.5391 165.511 34.8475C165.357 35.1559 165.28 35.5414 165.125 35.8498C164.894 36.5436 164.662 37.2375 164.354 37.9314C164.122 38.6252 163.968 39.3191 163.814 40.0901C163.659 40.7839 163.428 41.5549 163.351 42.3259C163.119 43.7907 162.811 45.3326 162.811 46.9516C162.811 47.7226 162.733 48.4936 162.733 49.3416C162.811 50.1126 162.811 50.9607 162.888 51.7316C162.888 52.1171 162.888 52.5797 162.965 52.9652C163.042 53.3506 163.119 53.7361 163.119 54.1987C163.274 54.9697 163.351 55.8177 163.505 56.6658C163.968 58.2848 164.277 59.9038 164.894 61.5229C165.203 62.2938 165.434 63.1419 165.82 63.9128C166.206 64.6838 166.591 65.4548 166.977 66.2257C167.363 66.9967 167.903 67.6906 168.366 68.4615C168.598 68.847 168.829 69.2325 169.061 69.618L169.832 70.6973C170.835 72.1621 172.147 73.4728 173.304 74.7834C173.999 75.4002 174.693 76.017 175.311 76.6337L175.851 77.0963L176.391 77.4818L177.471 78.3299L178.629 79.1779L179.863 79.9489L181.098 80.6427L181.715 81.0282C181.946 81.1053 182.101 81.2595 182.332 81.3366C183.181 81.7221 184.03 82.1847 184.879 82.5702C185.804 82.8785 186.653 83.264 187.579 83.5724C191.206 84.7289 195.141 85.4227 199.076 85.4227C203.011 85.3456 206.869 84.7289 210.573 83.5724C211.499 83.264 212.348 82.8785 213.274 82.5702C214.122 82.1847 214.971 81.7221 215.82 81.3366C216.051 81.2595 216.283 81.1053 216.437 81.0282L217.054 80.6427L218.289 79.9489L219.446 79.1779L220.527 78.3299L221.607 77.4818L222.147 77.0963L222.687 76.6337C223.382 76.017 224.076 75.4002 224.693 74.7834C225.928 73.3957 227.162 72.1621 228.166 70.6973L228.937 69.618C229.169 69.2325 229.4 68.847 229.632 68.4615C230.095 67.6906 230.558 66.9967 231.021 66.2257C231.406 65.4548 231.792 64.6838 232.178 63.9128C232.409 63.5274 232.564 63.1419 232.718 62.7564L233.181 61.5229C233.875 59.9809 234.184 58.2848 234.57 56.6658C234.724 55.8177 234.801 55.0468 234.956 54.1987C235.033 53.8132 235.11 53.4277 235.11 52.9652C235.187 52.5797 235.187 52.1171 235.187 51.7316C235.264 50.9607 235.264 50.1126 235.341 49.3416C235.341 48.5707 235.264 47.7226 235.264 46.9516C235.264 45.4097 234.956 43.8678 234.724 42.3259C234.647 41.5549 234.416 40.861 234.261 40.0901C234.03 39.3962 233.953 38.6252 233.721 37.9314C233.49 37.2375 233.258 36.5436 232.95 35.8498C232.795 35.5414 232.718 35.1559 232.564 34.8475C232.409 34.5391 232.255 34.2308 232.101 33.9224C231.792 33.3056 231.483 32.6888 231.175 32.0721C230.866 31.4553 230.48 30.9156 230.172 30.2988C229.786 29.7592 229.477 29.1424 229.091 28.6027C228.706 28.0631 228.32 27.5234 227.934 27.0608C224.771 22.8976 221.144 19.8908 217.595 17.8092C214.045 15.7276 210.727 14.417 207.872 13.7231C207.178 13.5689 206.483 13.3377 205.866 13.2606C205.249 13.1835 204.632 13.0293 204.091 12.9522C203.551 12.8751 203.011 12.798 202.548 12.7209C202.085 12.7209 201.622 12.6438 201.237 12.6438C200.465 12.5667 199.925 12.5667 199.539 12.5667C199.308 12.4896 199.153 12.4896 199.153 12.4896Z" fill="#263238"/>
<path d="M194.6 49.4187C194.6 46.9517 196.606 44.9471 199.075 44.9471C201.544 44.9471 203.55 46.9517 203.55 49.4187C203.55 51.8858 201.544 53.8903 199.075 53.8903C196.683 53.8903 194.6 51.8858 194.6 49.4187Z" fill="#E0E0E0"/>
<path d="M194.6 49.4187C194.677 49.4187 194.6 49.8042 194.831 50.4981C194.985 51.1919 195.448 52.1171 196.451 52.8881C197.455 53.659 198.998 54.0445 200.541 53.5048C202.084 52.9652 203.396 51.3461 203.396 49.4958C203.396 47.5684 202.084 45.9494 200.541 45.4868C198.998 44.9471 197.377 45.3326 196.451 46.1036C195.448 46.8745 194.985 47.7997 194.831 48.4936C194.677 49.0332 194.677 49.4187 194.6 49.4187C194.6 49.4187 194.6 49.3416 194.6 49.1103C194.6 48.9562 194.6 48.6478 194.677 48.2623C194.831 47.5684 195.294 46.4891 196.297 45.7181C197.3 44.87 198.998 44.4075 200.695 45.0242C201.544 45.3326 202.316 45.8723 202.856 46.6433C203.473 47.4142 203.782 48.4165 203.782 49.4187C203.782 50.421 203.473 51.4232 202.856 52.1942C202.316 52.9652 201.467 53.5048 200.695 53.8132C198.998 54.43 197.3 53.8903 196.297 53.1194C195.217 52.2713 194.831 51.269 194.677 50.5752C194.6 50.1897 194.6 49.9584 194.6 49.7271C194.6 49.4958 194.6 49.4187 194.6 49.4187Z" fill="#263238"/>
<path d="M132.793 121.735H125.231L122.762 127.594V128.365L126.697 133.762L136.188 128.365L136.11 125.667L132.793 121.735Z" fill="#FFBF9D"/>
<path d="M87.4242 128.365C87.1156 128.674 93.9057 143.322 97.2236 146.406C100.927 149.798 105.943 147.485 105.943 147.485L128.088 132.837L123.613 126.515L104.091 133.916L94.9088 112.329L87.4242 128.365Z" fill="#FFBF9D"/>
<path d="M50.309 82.8015C51.1578 82.2618 52.3152 82.2618 53.1639 81.7992C54.0899 81.2596 54.63 80.3344 54.8615 79.3321C55.093 78.3299 55.093 77.2505 55.0158 76.2483L61.2658 88.3524C60.417 89.4318 59.4911 90.434 58.2565 91.0508C57.0991 91.6676 55.5559 91.8989 54.3985 91.205C53.2411 90.5111 52.701 88.815 53.4726 87.7357C52.1609 88.5837 50.2318 88.2753 49.3831 86.9647C48.5343 85.577 48.9201 83.5724 50.309 82.8015Z" fill="#263238"/>
<path d="M79.8602 56.4346C81.5577 58.2849 81.6349 59.8268 81.5577 60.6749C81.5577 60.9062 81.4806 61.2145 81.2491 61.2145C81.1719 61.2145 81.0176 61.1375 80.9404 61.1375C78.8571 60.0581 76.7738 58.9017 74.6133 57.8223" fill="#263238"/>
<path d="M56.4047 79.5634C55.4016 76.5567 54.4757 73.4728 54.0127 70.3119C53.5498 67.1509 53.6269 63.8358 54.7072 60.829C54.8615 60.3665 56.2504 57.2826 56.7134 57.3597C57.022 57.3597 56.1732 60.2123 56.4047 60.5207C58.0251 63.3732 58.4881 66.7654 58.2566 70.0806C58.0251 73.3957 57.3307 76.4025 56.4047 79.5634Z" fill="#263238"/>
<path d="M82.253 84.4206C82.4844 80.7199 82.3301 73.0103 82.0986 66.0716C81.8672 58.5933 76.003 52.5798 68.6727 52.2714H67.9783C60.1079 52.4256 55.7869 59.2872 56.0956 67.3823L56.4814 94.2118L56.8672 94.7515C59.5678 98.6834 63.1172 101.15 67.361 101.844C70.4474 102.307 73.9196 100.842 74.0739 97.4498C74.1511 97.3727 74.2283 93.0554 74.2283 93.0554C74.1511 93.0554 81.79 92.1302 82.253 84.4206Z" fill="#FFBF9D"/>
<path d="M74.1519 93.0553C74.1519 93.0553 69.368 93.1324 64.4297 89.6631C64.4297 89.6631 66.513 95.5224 74.0747 95.1369L74.1519 93.0553Z" fill="#FF9A6C"/>
<path d="M79.3226 73.1645C79.3226 73.7813 78.8596 74.2438 78.2424 74.2438C77.6251 74.2438 77.1621 73.7813 77.1621 73.2416C77.1621 72.6248 77.6251 72.1622 78.2424 72.1622C78.8596 72.0851 79.3226 72.5477 79.3226 73.1645Z" fill="#263238"/>
<path d="M80.3256 69.3868C80.1713 69.541 79.3997 68.8471 78.2423 68.8471C77.0849 68.77 76.2361 69.3868 76.0818 69.2326C76.0046 69.1555 76.1589 68.9242 76.5447 68.6158C76.9305 68.3845 77.5478 68.1532 78.2423 68.1532C78.9367 68.1532 79.554 68.4616 79.8626 68.77C80.2485 69.0784 80.4028 69.3868 80.3256 69.3868Z" fill="#263238"/>
<path d="M69.3675 72.702C69.3675 73.3187 68.9046 73.7813 68.2873 73.7813C67.67 73.7813 67.207 73.3187 67.207 72.7791C67.207 72.1623 67.67 71.6997 68.2873 71.6997C68.9046 71.6997 69.3675 72.1623 69.3675 72.702Z" fill="#263238"/>
<path d="M68.9037 69.2326C68.7494 69.3868 67.9778 68.6929 66.8204 68.6929C65.663 68.6158 64.8142 69.2326 64.6599 69.0784C64.5828 69.0013 64.7371 68.77 65.1229 68.4616C65.5087 68.2303 66.126 67.999 66.8204 67.999C67.5148 67.999 68.1321 68.3074 68.4408 68.6158C68.9037 68.9242 68.9809 69.1555 68.9037 69.2326Z" fill="#263238"/>
<path d="M72.6867 78.4841C72.6867 78.407 73.3811 78.3299 74.6157 78.2529C74.9243 78.2529 75.233 78.1758 75.233 77.9445C75.3101 77.7132 75.233 77.4048 75.0786 77.0193C74.8472 76.2483 74.6157 75.4774 74.307 74.7064C73.2268 71.3913 72.4552 68.6158 72.6095 68.6158C72.7638 68.5387 73.6897 71.2371 74.77 74.5522C75.0015 75.4003 75.233 76.1712 75.4644 76.8651C75.5416 77.2506 75.7731 77.6361 75.5416 78.0216C75.4644 78.2528 75.233 78.407 75.0015 78.407C74.8472 78.4841 74.6157 78.4841 74.4614 78.4841C73.3811 78.5612 72.6867 78.5612 72.6867 78.4841Z" fill="#263238"/>
<path d="M69.445 65.532C69.2907 65.8403 68.1332 65.4549 66.8215 65.3778C65.4326 65.3007 64.2752 65.4549 64.1981 65.1465C64.1209 64.9923 64.3524 64.761 64.8925 64.5297C65.3555 64.2984 66.1271 64.1442 66.9758 64.2213C67.8246 64.2984 68.5191 64.5297 68.982 64.8381C69.3678 65.0694 69.5221 65.3778 69.445 65.532Z" fill="#263238"/>
<path d="M80.5571 67.5364C80.3256 67.7677 79.3997 67.4593 78.2423 67.4593C77.0849 67.3823 76.159 67.6135 75.9275 67.3052C75.8503 67.151 76.0047 66.9197 76.3905 66.6884C76.7763 66.4571 77.5479 66.2258 78.3195 66.3029C79.0911 66.38 79.7855 66.6113 80.1713 66.9197C80.5571 67.0739 80.6343 67.3823 80.5571 67.5364Z" fill="#263238"/>
<path d="M56.405 73.0874C56.2507 73.0103 51.3124 71.3142 51.2352 76.5567C51.1581 81.7993 56.3278 80.797 56.405 80.6428C56.3278 80.4887 56.405 73.0874 56.405 73.0874Z" fill="#FFBF9D"/>
<path d="M54.7855 78.6383C54.7855 78.6383 54.7083 78.7154 54.554 78.7925C54.3997 78.8696 54.1682 78.8696 53.8596 78.7925C53.3194 78.5612 52.8565 77.7132 52.8565 76.7109C52.8565 76.2484 52.9336 75.7858 53.1651 75.4003C53.3194 75.0148 53.5509 74.7835 53.8596 74.7064C54.1682 74.6293 54.3225 74.7835 54.3997 74.9377C54.4769 75.0919 54.3997 75.169 54.4769 75.169C54.4769 75.169 54.554 75.0919 54.554 74.8606C54.554 74.7835 54.4769 74.6293 54.3225 74.5522C54.1682 74.4751 54.0139 74.398 53.8596 74.398C53.4738 74.398 53.088 74.7835 52.9336 75.169C52.7022 75.5545 52.625 76.0942 52.625 76.6338C52.625 77.7132 53.1651 78.7154 53.9367 78.9467C54.3225 79.0238 54.6312 78.9467 54.7855 78.7925V78.6383Z" fill="#FF9A6C"/>
<path d="M78.7802 57.3597C79.6289 56.8972 77.1598 54.1217 75.0764 53.1965C71.99 51.7317 67.2061 50.8836 64.3511 51.7317C60.8789 52.734 58.024 54.5072 56.2493 57.6681C54.4746 60.9062 53.7802 64.6068 53.8573 68.2303C53.8573 69.3097 54.0116 70.5432 54.5518 71.4684C55.2462 72.6248 56.3264 73.2416 56.5579 74.9377C56.6351 75.5545 56.7122 76.0941 57.098 76.5567C58.024 77.559 59.1814 76.6338 59.7215 75.6316C60.8789 73.55 61.0332 71.0829 61.1104 68.77C61.1876 67.0739 61.2647 65.3778 60.8018 63.7587C60.5703 62.9107 60.1845 62.0626 59.953 61.1375C59.7215 60.2123 59.7987 59.21 60.3388 58.5162C60.4159 58.362 60.5703 58.2849 60.7246 58.0536C62.1906 56.743 64.274 56.3575 66.0487 56.9743C68.9808 58.0536 73.919 59.5955 75.2308 58.5933C77.0826 57.1284 77.5456 56.2033 77.5456 56.2033L78.7802 57.3597Z" fill="#263238"/>
<path d="M52.7778 72.8561C52.7007 72.779 52.5463 72.779 52.4692 72.6248C46.3735 66.6884 51.3118 60.9832 51.3889 59.21C51.5432 56.7429 48.6111 59.8268 48.3025 56.6658C47.8395 52.4255 52.3148 50.5752 57.7932 48.802C60.1081 48.0311 65.7408 47.7998 70.6019 48.8791C75 49.8043 77.9321 52.9652 79.5525 55.4323C79.5525 55.4323 80.5556 55.972 80.7871 56.4346C81.5587 57.8994 81.1729 58.5162 81.1729 58.5162C81.1729 58.5162 71.5278 53.3507 63.2716 60.1352C55.0926 66.9197 56.4815 72.7019 54.321 72.779L52.7778 72.8561Z" fill="#455A64"/>
<path d="M59.5678 52.4255C59.5678 52.4255 59.4134 52.5026 59.1048 52.5797C58.9505 52.6568 58.7962 52.7339 58.5647 52.811C58.3332 52.8881 58.1789 52.9652 57.8702 53.1194C57.4073 53.3507 56.8671 53.6591 56.2499 54.0446C55.6326 54.43 55.0153 54.8926 54.398 55.5094C53.7807 56.0491 53.2406 56.6658 52.8548 57.2055C52.3918 57.7452 52.0832 58.2849 51.7745 58.7474C51.6202 58.9787 51.5431 59.21 51.3887 59.3642C51.3116 59.5184 51.2344 59.7497 51.1573 59.8268C51.0029 60.1352 50.9258 60.2123 50.9258 60.2123C50.9258 60.2123 51.0029 60.0581 51.0801 59.7497C51.1573 59.5955 51.2344 59.4413 51.3116 59.21C51.3887 58.9787 51.5431 58.8245 51.6202 58.5932C51.8517 58.1307 52.2375 57.591 52.7005 56.9742C53.1634 56.4345 53.7036 55.8178 54.3208 55.2781C54.9381 54.7384 55.5554 54.2759 56.1727 53.8133C56.79 53.4278 57.3301 53.1194 57.8702 52.8881C58.1017 52.7339 58.3332 52.6568 58.5647 52.5797C58.7962 52.5026 58.9505 52.4255 59.1048 52.4255C59.3363 52.5026 59.5678 52.4255 59.5678 52.4255Z" fill="#263238"/>
<path d="M79.7825 55.5865C79.7825 55.5865 79.7826 55.5865 79.7054 55.5865C79.6282 55.5865 79.5511 55.5094 79.4739 55.5094C79.2424 55.4323 78.9338 55.2781 78.4708 55.1239C78.0079 54.9698 77.4677 54.7385 76.8505 54.5843C76.2332 54.4301 75.4616 54.1988 74.6128 54.1217C72.9924 53.8904 70.9091 53.8133 68.7486 54.1988C67.6684 54.4301 66.5109 54.7385 65.4307 55.1239C64.2733 55.5865 63.193 56.1262 62.1128 56.8201C61.0325 57.5139 60.0295 58.362 59.1807 59.2101C58.3319 60.0581 57.5603 60.9833 56.943 61.9855C55.7085 63.8358 54.8597 65.7632 54.3196 67.3823C53.7023 69.0013 53.3165 70.3119 53.085 71.2371C52.9307 71.6997 52.8535 72.0851 52.7764 72.3164C52.7764 72.3935 52.6992 72.5477 52.6992 72.6248C52.6992 72.5477 52.6992 72.4706 52.7764 72.3164C52.8535 72.0851 52.9307 71.6997 53.0079 71.2371C53.2393 70.3119 53.6251 69.0013 54.1653 67.3823C54.7825 65.7632 55.5542 63.9129 56.7887 61.9855C57.406 61.0604 58.1776 60.1352 59.0264 59.2101C59.8751 58.362 60.8782 57.5139 61.9585 56.8201C63.0387 56.1262 64.1961 55.5094 65.3535 55.1239C66.5109 54.6614 67.6684 54.353 68.7486 54.1988C70.9863 53.8133 72.9924 53.8904 74.6128 54.1988C75.4616 54.353 76.156 54.5072 76.8505 54.7385C77.4677 54.8927 78.0079 55.1239 78.4708 55.2781C78.9338 55.4323 79.2424 55.5865 79.4739 55.7407C79.5511 55.8178 79.6282 55.8178 79.7054 55.8949C79.7826 55.5865 79.7825 55.5865 79.7825 55.5865Z" fill="#263238"/>
<path d="M56.1733 70.2348C56.1733 70.2348 55.556 70.389 54.7844 70.0806C54.0128 69.7722 53.627 69.2325 53.627 69.2325C53.627 69.2325 54.0899 69.618 54.7844 69.9264C55.4788 70.2348 56.1733 70.2348 56.1733 70.2348Z" fill="#263238"/>
<path d="M58.8735 65.609C58.8735 65.609 58.642 65.609 58.3334 65.4548C58.0247 65.3777 57.5618 65.1465 57.176 64.8381C56.7901 64.5297 56.4815 64.1442 56.3272 63.8358C56.1729 63.5274 56.0957 63.3732 56.0957 63.3732C56.1729 63.3732 56.4815 64.1442 57.3303 64.761C58.1019 65.3006 58.8735 65.5319 58.8735 65.609Z" fill="#263238"/>
<path d="M63.5804 59.8268C63.5033 59.8268 63.2718 59.1329 62.6545 58.362C62.0372 57.591 61.4199 57.2055 61.4199 57.1284C61.4199 57.1284 62.1144 57.4368 62.8088 58.2078C63.4261 59.0558 63.6576 59.8268 63.5804 59.8268Z" fill="#263238"/>
<path d="M68.2873 57.4368C68.2101 57.4368 68.133 56.7429 67.8243 55.8949C67.5157 55.0468 67.0527 54.5071 67.0527 54.5071C67.0527 54.5071 67.5929 54.9697 67.9787 55.8178C68.3645 56.6658 68.3645 57.4368 68.2873 57.4368Z" fill="#263238"/>
<path d="M75.3846 56.9743C75.3074 56.9743 75.5389 56.2804 75.3074 55.3553C75.0759 54.5072 74.5358 53.9675 74.6129 53.9675C74.6129 53.9675 74.7673 54.0446 74.9987 54.2759C75.1531 54.5072 75.3845 54.8927 75.5389 55.2782C75.616 55.7407 75.616 56.1262 75.616 56.4346C75.4617 56.8201 75.3846 56.9743 75.3846 56.9743Z" fill="#263238"/>
<path d="M79.629 57.9765C79.5519 57.9765 79.7833 57.4368 79.7833 56.7429C79.7833 56.0491 79.5519 55.5094 79.629 55.5094C79.629 55.5094 79.9377 56.0491 79.9377 56.7429C79.9377 57.5139 79.629 57.9765 79.629 57.9765Z" fill="#263238"/>
<path d="M72.9164 81.4909C72.8393 81.4909 69.7529 79.5635 69.7529 79.5635C69.7529 79.5635 68.4411 81.3367 69.4442 82.416C70.4473 83.4954 71.9905 83.187 72.2991 82.7244C72.6078 82.2619 72.9164 81.4909 72.9164 81.4909Z" fill="#FF9A6C"/>
<path d="M71.8366 83.0328C71.8366 83.0328 71.6823 83.187 71.3737 83.2641C71.065 83.3412 70.5249 83.2641 69.9848 83.0328C69.599 82.8015 69.2132 82.5702 68.9817 82.0305C68.7502 81.4909 68.9045 80.8741 69.136 80.4115C69.2903 80.1031 69.4447 79.7947 69.6761 79.5634L69.7533 79.4864L69.9076 79.5634C71.7595 80.7199 73.1484 81.6451 73.0712 81.7221C72.994 81.7992 71.6052 80.9512 69.6761 79.8718H69.9076C69.7533 80.1031 69.5218 80.4115 69.4447 80.6428C69.2132 81.1054 69.136 81.645 69.2903 82.0305C69.4447 82.416 69.8305 82.7244 70.1391 82.9557C70.6792 83.187 71.1422 83.2641 71.4508 83.2641C71.6823 83.1099 71.8366 83.0328 71.8366 83.0328Z" fill="#263238"/>
<path d="M73.1487 289.805L72.4543 304.608C72.4543 304.608 87.0376 310.313 87.1919 313.088L58.7969 312.703L58.9512 289.574L73.1487 289.805Z" fill="#263238"/>
<path d="M63.7355 303.297C63.1954 303.451 62.8096 304.068 62.8868 304.608C63.0411 305.147 63.6584 305.61 64.1985 305.456C64.7386 305.302 65.2016 304.608 65.0473 304.068C64.893 303.528 64.1214 303.066 63.5812 303.374" fill="#E0E0E0"/>
<path d="M58.7969 312.703L58.874 310.39L86.0345 311.623C86.0345 311.623 87.2691 312.163 87.1148 313.088L58.7969 312.703Z" fill="#455A64"/>
<path d="M72.9171 304.453C72.9171 304.608 72.2226 304.685 71.5282 305.07C70.8337 305.533 70.4479 306.072 70.3708 306.072C70.2164 306.072 70.4479 305.224 71.2967 304.685C72.1455 304.145 72.9942 304.376 72.9171 304.453Z" fill="white"/>
<path d="M75.8493 305.764C75.8493 305.918 75.3091 306.15 74.769 306.689C74.306 307.229 74.1517 307.923 73.9974 307.923C73.8431 307.923 73.7659 307.152 74.3832 306.381C75.0776 305.687 75.8493 305.61 75.8493 305.764Z" fill="white"/>
<path d="M77.5478 309.388C77.3935 309.388 77.2391 308.694 77.625 307.923C78.0108 307.152 78.628 306.843 78.7052 306.998C78.7824 307.152 78.3194 307.537 78.0879 308.154C77.7021 308.771 77.7021 309.388 77.5478 309.388Z" fill="white"/>
<path d="M72.6866 301.061C72.6095 301.215 71.9922 300.984 71.2206 301.061C70.449 301.061 69.8317 301.37 69.7545 301.215C69.6774 301.138 70.2947 300.599 71.2206 300.599C72.1465 300.522 72.7638 300.984 72.6866 301.061Z" fill="white"/>
<path d="M39.7388 294.739L38.1956 312.626L40.9734 327.12C41.2048 328.199 40.4332 329.201 39.4301 329.278C38.8129 329.356 38.2727 329.124 37.8869 328.739C35.3406 325.963 26.0814 315.632 26.3129 314.322C26.5443 312.78 26.6987 295.356 26.6987 295.356L39.7388 294.739Z" fill="#263238"/>
<path d="M39.5071 329.278L26.4669 313.088L26.3898 313.859C26.3126 314.553 26.5441 315.17 26.9299 315.709C27.933 317.097 30.9423 320.952 37.8867 328.739C38.2725 329.201 38.8898 329.433 39.5071 329.278Z" fill="#455A64"/>
<g opacity="0.6">
<path d="M30.4032 307.537C30.789 307.846 30.9433 308.539 30.6347 309.002C30.326 309.465 29.6316 309.542 29.1686 309.233C28.7057 308.925 28.6285 308.077 28.9371 307.691C29.3229 307.306 30.0945 307.229 30.4803 307.614" fill="white"/>
</g>
<path d="M35.9586 321.26C36.0358 321.338 36.4987 320.412 37.579 319.95C38.6592 319.487 39.5852 319.796 39.6623 319.719C39.6623 319.641 39.4308 319.487 39.045 319.41C38.6592 319.333 38.042 319.333 37.4247 319.564C36.8074 319.796 36.4216 320.258 36.1901 320.567C35.9586 320.952 35.8815 321.183 35.9586 321.26Z" fill="white"/>
<path d="M37.0385 323.727C37.1157 323.805 37.7329 323.265 38.6589 323.034C39.5848 322.802 40.3564 323.034 40.4336 322.957C40.5107 322.879 39.662 322.417 38.5817 322.648C37.5015 322.879 36.9613 323.65 37.0385 323.727Z" fill="white"/>
<path d="M33.7978 318.022C33.875 318.099 34.8009 317.251 36.1898 316.789C37.5787 316.326 38.8132 316.48 38.8132 316.326C38.8132 316.249 37.5787 315.864 36.0355 316.403C34.5694 316.943 33.7207 317.945 33.7978 318.022Z" fill="white"/>
<path d="M33.7971 312.548C33.8743 312.626 34.8002 312.317 36.1119 312.317C37.3465 312.317 38.3496 312.703 38.4268 312.626C38.5039 312.548 37.5008 311.932 36.1119 311.932C34.7231 311.855 33.72 312.471 33.7971 312.548Z" fill="white"/>
<path d="M34.1055 307.229C34.1826 307.306 35.1857 306.766 36.4974 306.921C37.8092 307.075 38.7351 307.769 38.8123 307.691C38.8123 307.691 38.6579 307.383 38.2721 307.152C37.8863 306.921 37.2691 306.612 36.5746 306.535C35.8802 306.458 35.1857 306.612 34.7999 306.766C34.337 306.998 34.1055 307.229 34.1055 307.229Z" fill="white"/>
<path d="M36.5752 305.995C36.5752 305.995 36.6523 305.764 36.6523 305.301C36.6523 304.839 36.5752 304.222 36.2665 303.528C36.1122 303.22 35.9579 302.757 35.4178 302.449C35.1863 302.295 34.8005 302.372 34.569 302.526C34.3375 302.757 34.2604 303.066 34.2604 303.297C34.1832 304.453 35.1091 305.61 36.3437 305.841C37.5783 306.072 38.8128 305.379 39.3529 304.453C39.5073 304.222 39.5844 303.914 39.4301 303.605C39.3529 303.297 38.9671 303.143 38.7357 303.143C38.1955 303.22 37.8869 303.451 37.5011 303.682C36.8838 304.145 36.4208 304.608 36.1894 304.993C35.9579 305.379 35.8807 305.61 35.8807 305.61C35.9579 305.687 36.4208 304.762 37.6554 303.914C37.9641 303.76 38.3499 303.451 38.7357 303.451C38.89 303.451 39.0443 303.528 39.1215 303.682C39.1986 303.837 39.1215 304.068 39.0443 304.222C38.5813 304.993 37.5011 305.61 36.4208 305.379C35.3406 305.147 34.569 304.145 34.6462 303.22C34.6462 302.989 34.7233 302.757 34.8776 302.68C35.032 302.526 35.1863 302.526 35.3406 302.603C35.6492 302.757 35.8807 303.143 36.035 303.451C36.6523 304.993 36.498 305.995 36.5752 305.995Z" fill="white"/>
<path d="M86.4972 168.687C86.4972 168.687 88.6577 177.167 87.8861 187.421C87.5775 191.43 74.3059 301.601 74.3059 301.601H56.4046L61.4201 198.06L59.954 198.369C59.954 198.369 50.1546 242.545 49.383 249.715C48.6886 256.114 39.8923 306.689 39.8923 306.689L22.9941 306.535L29.2441 241.312L35.3398 182.024L37.6546 164.755L86.4972 168.687Z" fill="#263238"/>
<path d="M83.7959 98.9147C88.3483 100.148 91.9749 103.695 94.907 109.246L103.163 125.436L87.5767 133.377L77.7773 114.334L83.7959 98.9147Z" fill="#E07A25"/>
<path d="M41.7444 165.14C41.7444 165.14 41.6672 165.14 41.59 165.063C41.5129 164.986 41.3586 164.909 41.2042 164.755C40.8956 164.524 40.4326 164.061 39.8154 163.521C38.6579 162.442 36.8833 160.9 35.1086 158.587C34.2598 157.431 33.411 156.043 32.8709 154.347C32.7166 153.884 32.7166 153.422 32.8709 152.959C33.0252 152.497 33.3339 152.034 33.874 151.88C34.4141 151.726 34.9542 151.957 35.34 152.265C35.7259 152.574 36.0345 152.959 36.4203 153.268C39.0437 156.197 41.2814 160.129 42.2845 164.678L42.3617 164.909H42.1302C39.5067 165.063 36.8061 164.986 34.1055 164.524C28.5499 163.598 23.6117 161.208 19.7536 158.202C19.5221 158.048 19.2907 157.816 19.0592 157.585C18.8277 157.354 18.6734 156.968 18.7505 156.66C18.8277 156.274 19.0592 155.966 19.3678 155.889C19.6765 155.735 19.9851 155.735 20.2938 155.735C21.4512 155.735 22.6086 155.812 23.6888 155.966C25.8493 156.274 27.7783 156.737 29.553 157.354C33.0252 158.587 35.5715 160.206 37.1919 161.44C38.0407 162.057 38.5808 162.596 38.9666 162.982C39.1209 163.136 39.2752 163.29 39.4296 163.444C39.5067 163.521 39.5839 163.598 39.5839 163.598C39.5839 163.598 39.5067 163.598 39.4296 163.444C39.2752 163.367 39.1209 163.213 38.9666 163.059C38.5808 162.673 37.9635 162.211 37.1147 161.594C35.4944 160.438 32.9481 158.818 29.4758 157.662C27.7783 157.045 25.7721 156.583 23.6888 156.351C22.6086 156.197 21.5283 156.12 20.3709 156.12C19.8308 156.12 19.2135 156.274 19.1363 156.814C19.0592 157.277 19.5221 157.739 19.9851 158.048C23.8431 160.977 28.7042 163.29 34.1826 164.215C36.8833 164.678 39.5839 164.832 42.1302 164.601L41.9758 164.832C41.0499 160.283 38.8894 156.429 36.266 153.576C35.9573 153.19 35.6487 152.882 35.2629 152.574C34.8771 152.265 34.4913 152.111 34.1055 152.188C33.7197 152.265 33.411 152.651 33.3339 153.036C33.1796 153.422 33.2567 153.884 33.3339 154.27C33.874 155.889 34.7228 157.277 35.4944 158.433C37.1919 160.746 38.9666 162.365 40.0468 163.444C40.587 163.984 41.0499 164.369 41.3586 164.678C41.5129 164.832 41.59 164.909 41.6672 164.986C41.6672 165.063 41.7444 165.063 41.7444 165.14Z" fill="#AE7461"/>
<path d="M74.1514 95.5224L84.4909 99.146L84.1823 143.631L88.4261 177.553C72.994 185.108 55.1699 182.333 36.2656 176.242C36.1113 174.777 36.1884 173.467 36.6514 172.465L39.6607 143.553C39.6607 143.553 38.889 121.196 38.889 120.81C38.889 120.425 42.4384 98.6834 42.4384 98.6834L55.8644 94.0576C55.8644 94.0576 63.0403 100.534 69.136 100.842C74.46 101.073 74.1514 96.3705 74.1514 96.3705V95.5224Z" fill="#E07A25"/>
<path d="M84.337 110.171C84.337 110.171 84.2598 110.556 84.2598 111.173C84.2598 111.867 84.2598 112.792 84.1827 113.949C84.1827 116.338 84.1055 119.499 84.1055 122.969C84.0284 126.515 83.9512 129.676 83.874 131.989C83.7969 133.068 83.7969 133.994 83.7969 134.765C83.7969 135.381 83.7969 135.767 83.7969 135.767C83.7969 135.767 83.874 135.381 83.9512 134.765C84.0284 134.148 84.1055 133.145 84.1827 131.989C84.337 129.676 84.4142 126.438 84.4913 122.969C84.5685 119.422 84.4913 116.261 84.4913 113.949C84.4913 112.869 84.4913 111.944 84.4141 111.173C84.337 110.556 84.337 110.171 84.337 110.171Z" fill="#263238"/>
<path d="M37.5001 161.44L87.5001 165.295C87.5001 165.295 89.9692 183.027 89.0433 197.598C87.8859 214.945 85.3396 255.189 85.3396 255.189L40.818 253.878L46.2964 166.914L37.0371 165.14L37.5001 161.44Z" fill="#AE7461"/>
<path d="M61.9607 213.48C61.6521 213.326 61.4978 213.017 61.4978 212.709V194.206C61.4978 193.897 61.6521 193.589 61.9607 193.358C63.2724 192.587 63.7354 191.507 63.1181 189.734C62.4237 187.807 60.7261 186.573 60.7261 186.573L60.4175 186.65L61.112 188.732C61.4978 189.888 60.8805 191.122 59.7231 191.507H59.6459C58.4885 191.893 57.2539 191.276 56.8681 190.12L56.1737 188.038L55.865 188.115C55.865 188.115 55.0934 190.197 55.7879 192.047C56.328 193.435 57.0224 194.129 58.0255 194.283C58.4885 194.36 58.8743 194.745 58.8743 195.208V212.555C58.8743 212.863 58.72 213.171 58.4113 213.326C57.3311 213.942 56.6366 215.176 56.791 216.564C56.9453 218.106 58.1799 219.416 59.8002 219.57C61.8836 219.802 63.5811 218.183 63.5811 216.178C63.5811 215.176 62.9638 214.097 61.9607 213.48ZM62.7323 216.41L61.5749 218.414C61.5749 218.491 61.4978 218.491 61.4206 218.491H59.1058C59.0286 218.491 58.9515 218.414 58.9515 218.414L57.7941 216.41C57.7941 216.332 57.7941 216.255 57.7941 216.178L58.9515 214.174C58.9515 214.097 59.0286 214.097 59.1058 214.097H61.4206C61.4978 214.097 61.5749 214.174 61.5749 214.174L62.7323 216.178C62.7323 216.255 62.7323 216.332 62.7323 216.41Z" fill="#EBEBEB"/>
<path d="M66.3584 198.369C66.667 198.523 66.8214 198.832 66.7442 199.217L65.8954 217.643C65.8954 217.951 65.664 218.26 65.3553 218.414C64.0436 219.108 63.5035 220.187 64.0436 221.96C64.6609 223.965 66.2812 225.198 66.2812 225.198L66.5899 225.121L66.0498 223.04C65.7411 221.883 66.4356 220.65 67.593 220.341H67.6701C68.8275 220.033 70.0621 220.727 70.3707 221.883L70.9109 223.965L71.2195 223.888C71.2195 223.888 72.1454 221.883 71.5282 219.956C71.0652 218.491 70.3707 217.797 69.3677 217.643C68.9047 217.566 68.5189 217.18 68.5961 216.641L69.4448 199.294C69.4448 198.986 69.6763 198.677 69.9849 198.523C71.1423 197.906 71.8368 196.75 71.7596 195.362C71.6825 193.82 70.4479 192.433 68.9047 192.201C66.8985 191.893 65.0467 193.358 64.9695 195.362C64.738 196.596 65.3553 197.752 66.3584 198.369ZM65.664 195.439L66.8985 193.512C66.9757 193.435 66.9757 193.435 67.0528 193.435L69.3677 193.512C69.4448 193.512 69.522 193.589 69.522 193.589L70.6022 195.671C70.6022 195.748 70.6022 195.825 70.6022 195.902L69.3677 197.829C69.2905 197.906 69.2905 197.906 69.2133 197.906L66.8985 197.829C66.8214 197.829 66.7442 197.752 66.7442 197.752L65.664 195.671C65.664 195.593 65.664 195.516 65.664 195.439Z" fill="#EBEBEB"/>
<path d="M86.4183 201.299C85.8782 208.7 84.7208 216.024 83.0233 223.194C82.5603 225.199 81.943 227.357 80.2455 228.591C78.8566 229.593 77.0819 229.824 75.3844 229.901C69.5973 230.133 63.8103 229.516 58.2547 228.051C55.7084 227.357 53.0078 226.355 51.6961 224.119C50.5387 222.192 50.693 219.802 50.9245 217.566C51.3874 212.092 51.7732 206.695 52.2362 201.222L86.4183 201.299Z" fill="#AE7461"/>
<path d="M86.4186 201.299C86.4186 201.299 86.3414 201.299 86.2643 201.299C86.11 201.299 85.9556 201.299 85.8013 201.299C85.3383 201.299 84.7211 201.299 83.9495 201.299C82.3291 201.299 79.9371 201.299 76.9278 201.376C70.9093 201.376 62.3445 201.453 52.3137 201.453L52.468 201.299C52.1593 204.922 51.8507 208.7 51.5421 212.632C51.3877 214.636 51.2334 216.641 51.0791 218.722C51.0019 219.725 51.0019 220.804 51.1563 221.806C51.3106 222.809 51.6964 223.811 52.3137 224.582C53.4711 226.124 55.4001 226.972 57.1748 227.511C59.0266 228.051 60.8785 228.514 62.7303 228.822C66.434 229.516 70.0606 229.747 73.5328 229.747C75.2303 229.67 77.005 229.747 78.5482 229.285C79.3198 229.053 80.0143 228.668 80.5544 228.128C81.0945 227.589 81.5575 226.972 81.8661 226.278C82.4834 224.89 82.792 223.425 83.1779 222.038C83.4865 220.65 83.7951 219.339 84.0266 218.029C85.0297 212.863 85.647 208.7 85.9556 205.77C86.1099 204.305 86.1871 203.226 86.3414 202.455C86.3414 202.07 86.4186 201.838 86.4186 201.607C86.4186 201.453 86.4186 201.299 86.4186 201.299C86.4186 201.299 86.4186 201.376 86.4186 201.607C86.4186 201.838 86.4186 202.147 86.3414 202.455C86.2643 203.226 86.1871 204.383 86.0328 205.847C85.7241 208.777 85.2612 213.017 84.2581 218.106C84.0266 219.416 83.718 220.727 83.4093 222.115C83.1007 223.502 82.792 224.967 82.0976 226.432C81.789 227.126 81.326 227.82 80.7087 228.36C80.0914 228.899 79.3198 229.362 78.5482 229.593C76.9279 230.056 75.2303 230.056 73.4556 230.133C69.9834 230.21 66.2797 229.901 62.576 229.208C60.7241 228.899 58.7951 228.437 56.9433 227.897C55.0914 227.28 53.1624 226.432 51.8507 224.813C51.1562 223.965 50.7704 222.886 50.6161 221.806C50.4618 220.727 50.4618 219.725 50.539 218.645C50.6933 216.564 50.8476 214.559 51.0019 212.555C51.3106 208.623 51.6192 204.768 51.9279 201.222V201.067H52.0822C62.1902 201.144 70.755 201.144 76.8507 201.222C79.86 201.222 82.1748 201.299 83.8723 201.299C84.6439 201.299 85.2612 201.299 85.7241 201.299C85.9556 201.299 86.0328 201.299 86.1871 201.299C86.3414 201.299 86.4186 201.299 86.4186 201.299Z" fill="#263238"/>
<path d="M171.991 311.315H128.473V313.088H171.991V311.315Z" fill="#E0E0E0"/>
<path d="M153.085 195.362H147.529V311.392H153.085V195.362Z" fill="#E0E0E0"/>
<path d="M121.372 165.757C112.421 159.204 105.168 153.884 105.168 153.884C105.168 153.807 112.421 159.127 121.372 165.757Z" fill="#E0E0E0"/>
<path d="M116.974 170.075C123.533 179.018 128.78 186.342 128.78 186.342C128.78 186.342 123.456 179.095 116.974 170.075Z" fill="#E0E0E0"/>
<path d="M111.495 172.927C114.967 183.489 117.745 191.97 117.745 192.047C117.668 191.97 114.89 183.412 111.495 172.927Z" fill="#E0E0E0"/>
<path d="M105.399 173.852C105.477 184.954 105.554 193.897 105.554 193.897C105.477 193.974 105.399 184.954 105.399 173.852Z" fill="#E0E0E0"/>
<path d="M99.2256 172.927C102.543 162.365 105.321 153.807 105.321 153.807C105.321 153.807 102.621 162.365 99.2256 172.927C95.9077 183.489 93.207 192.047 93.207 192.047C93.207 192.124 95.9077 183.489 99.2256 172.927Z" fill="#E0E0E0"/>
<path d="M93.6708 170.152C100.075 161.131 105.322 153.807 105.322 153.807C105.399 153.807 100.152 161.131 93.6708 170.152C87.2664 179.172 82.0967 186.496 82.0195 186.496C82.0967 186.573 87.2664 179.249 93.6708 170.152Z" fill="#E0E0E0"/>
<path d="M89.272 165.834C98.1455 159.204 105.399 153.807 105.399 153.807C105.399 153.884 98.1455 159.281 89.272 165.834C80.3986 172.542 73.2227 177.861 73.2227 177.861C73.2227 177.938 80.3986 172.542 89.272 165.834Z" fill="#E0E0E0"/>
<path d="M86.3408 160.438C96.8347 156.814 105.322 153.961 105.322 153.961C105.399 153.884 96.9118 156.814 86.3408 160.438C75.847 164.061 67.3594 166.991 67.3594 166.991C67.3594 166.914 75.9242 163.984 86.3408 160.438Z" fill="#E0E0E0"/>
<path d="M85.2609 154.347C96.3721 154.116 105.323 153.961 105.323 153.961C105.4 153.884 96.3721 154.116 85.2609 154.347C74.1498 154.655 65.1992 154.809 65.1992 154.809C65.1992 154.732 74.227 154.578 85.2609 154.347Z" fill="#E0E0E0"/>
<path d="M86.1104 148.179C96.7586 151.34 105.401 153.961 105.323 153.961C105.401 153.961 96.7586 151.417 86.1104 148.179C75.4623 145.018 66.8203 142.474 66.8203 142.474C66.8975 142.474 75.4623 145.018 86.1104 148.179Z" fill="#E0E0E0"/>
<path d="M88.8102 142.628C97.9923 148.873 105.4 153.961 105.4 154.039C105.323 154.039 97.9151 148.95 88.8102 142.628Z" fill="#E0E0E0"/>
<path d="M93.0527 138.08C86.2626 129.368 80.707 122.198 80.707 122.198C80.707 122.275 86.2626 129.368 93.0527 138.08Z" fill="#E0E0E0"/>
<path d="M98.4552 135.15C102.236 145.558 105.322 154.039 105.245 154.039C105.245 154.039 102.236 145.558 98.4552 135.15Z" fill="#E0E0E0"/>
<path d="M104.551 133.916C104.937 145.018 105.323 153.961 105.323 153.961C105.245 154.039 104.937 145.018 104.551 133.916C104.088 122.815 103.779 113.871 103.779 113.871C103.779 113.871 104.088 122.892 104.551 133.916Z" fill="#E0E0E0"/>
<path d="M110.647 134.687C107.638 145.404 105.246 154.039 105.246 154.039C105.246 153.961 107.638 145.327 110.647 134.687C113.579 123.971 116.049 115.336 116.049 115.336C116.049 115.336 113.657 123.971 110.647 134.687Z" fill="#E0E0E0"/>
<path d="M116.279 137.231C110.183 146.483 105.168 153.961 105.168 153.961C105.168 153.961 110.106 146.483 116.279 137.231C122.375 127.98 127.313 120.502 127.39 120.502C127.39 120.502 122.452 127.98 116.279 137.231Z" fill="#E0E0E0"/>
<path d="M120.908 141.395C112.266 148.333 105.245 153.961 105.245 153.961C105.168 153.961 112.189 148.333 120.908 141.395Z" fill="#E0E0E0"/>
<path d="M123.918 146.792C113.578 150.723 105.168 153.962 105.168 153.884C105.168 153.884 113.578 150.723 123.918 146.792C134.257 142.783 142.668 139.622 142.668 139.622C142.745 139.622 134.335 142.86 123.918 146.792Z" fill="#E0E0E0"/>
<path d="M125.23 152.805C136.341 152.188 145.291 151.649 145.291 151.726C145.291 151.726 136.341 152.188 125.23 152.805Z" fill="#E0E0E0"/>
<path d="M124.612 158.973C113.887 156.197 105.168 153.884 105.168 153.884C105.168 153.884 113.887 156.12 124.612 158.973Z" fill="#E0E0E0"/>
<path d="M122.144 164.678C112.808 158.741 105.246 153.884 105.246 153.884C105.246 153.807 112.808 158.664 122.144 164.678C131.481 170.614 139.12 175.471 139.12 175.471C139.042 175.471 131.481 170.614 122.144 164.678Z" fill="#E0E0E0"/>
<path d="M129.32 121.196C111.11 107.858 85.6474 111.79 72.2987 129.907C58.9499 148.025 62.8851 173.544 81.0178 186.805C99.1505 200.142 124.691 196.21 137.962 178.093C151.388 159.975 147.453 134.456 129.32 121.196ZM84.6443 181.947C69.2122 170.614 65.8172 148.95 77.1598 133.454C88.5024 118.035 110.184 114.642 125.694 125.975C141.126 137.309 144.521 158.973 133.178 174.469C121.836 189.965 100.154 193.281 84.6443 181.947Z" fill="#263238"/>
<path d="M105.014 189.503C97.5294 189.503 90.3535 187.113 84.1806 182.641C76.5417 177.09 71.6035 168.841 70.1374 159.59C68.6714 150.261 70.9862 140.932 76.5417 133.377C82.0973 125.744 90.3535 120.81 99.6127 119.345C108.949 117.88 118.286 120.193 125.847 125.744C133.486 131.295 138.424 139.544 139.89 148.796C141.357 158.125 139.042 167.453 133.486 175.009C127.931 182.641 119.674 187.576 110.415 189.04C108.64 189.349 106.789 189.503 105.014 189.503ZM105.168 119.654C103.394 119.654 101.619 119.808 99.8442 120.039C90.7393 121.427 82.7146 126.284 77.2362 133.762C71.7578 141.163 69.5201 150.338 70.9862 159.435C72.3751 168.533 77.2362 176.551 84.7207 182.025C92.1281 187.498 101.31 189.734 110.415 188.269C119.52 186.882 127.545 182.025 133.023 174.546C138.502 167.145 140.739 157.971 139.273 148.873C137.884 139.776 133.023 131.758 125.539 126.284C119.52 121.967 112.421 119.654 105.168 119.654Z" fill="#E0E0E0"/>
<path d="M246.373 150.415L237.963 150.107C237.654 150.107 237.345 150.184 237.037 150.338C236.497 150.569 236.111 151.032 236.034 151.649L233.564 169.535C233.487 170.229 233.796 170.845 234.336 171.154C234.568 171.308 234.722 171.385 235.031 171.385C235.956 171.539 236.805 170.845 236.96 169.92L239.274 153.499L246.296 153.807C246.373 153.807 246.45 153.807 246.527 153.807C247.376 153.73 247.993 153.036 248.071 152.188C248.071 151.186 247.299 150.415 246.373 150.415Z" fill="#E0E0E0"/>
<path d="M246.372 150.415C246.372 150.415 246.449 150.415 246.604 150.415C246.758 150.415 246.989 150.492 247.221 150.646C247.452 150.8 247.761 151.032 247.915 151.417C248.07 151.803 248.147 152.342 247.915 152.882C247.684 153.422 247.144 153.884 246.449 153.884C245.755 153.884 245.06 153.884 244.366 153.807C242.823 153.73 241.125 153.73 239.273 153.653L239.428 153.499C239.042 156.12 238.656 159.127 238.193 162.288C237.962 163.907 237.73 165.603 237.499 167.299C237.344 168.147 237.267 169.072 237.113 169.92C236.959 170.923 235.955 171.694 234.875 171.462C234.258 171.385 233.718 170.923 233.486 170.383C233.332 170.075 233.332 169.766 233.332 169.535C233.332 169.226 233.409 168.995 233.409 168.764C233.564 167.685 233.718 166.682 233.872 165.68C234.181 163.676 234.412 161.671 234.721 159.821C234.952 157.97 235.261 156.197 235.493 154.501C235.647 153.653 235.724 152.882 235.878 152.111C235.956 151.726 235.955 151.34 236.187 150.955C236.418 150.569 236.727 150.338 237.036 150.184C237.344 149.952 237.807 149.952 238.116 149.952C238.425 149.952 238.81 149.952 239.119 150.029C239.736 150.029 240.354 150.107 240.971 150.107C242.128 150.184 243.054 150.184 243.903 150.261C244.675 150.338 245.292 150.338 245.755 150.338C246.141 150.338 246.372 150.415 246.372 150.415C246.372 150.415 246.141 150.415 245.755 150.415C245.292 150.415 244.675 150.415 243.903 150.415C243.054 150.415 242.128 150.338 240.971 150.338C240.431 150.338 239.814 150.261 239.119 150.261C238.81 150.261 238.425 150.261 238.116 150.261C237.807 150.261 237.499 150.261 237.19 150.492C236.881 150.646 236.65 150.878 236.496 151.186C236.341 151.494 236.341 151.88 236.264 152.265C236.187 153.036 236.033 153.807 235.955 154.655C235.724 156.351 235.493 158.125 235.261 159.975C235.03 161.825 234.721 163.83 234.489 165.834C234.335 166.836 234.181 167.916 234.026 168.918L233.949 169.689C233.949 169.92 233.949 170.152 234.104 170.383C234.258 170.846 234.721 171.154 235.184 171.231C235.955 171.385 236.804 170.768 236.959 169.997C237.113 169.149 237.19 168.224 237.344 167.376C237.576 165.68 237.807 163.984 238.039 162.365C238.502 159.127 238.965 156.197 239.273 153.576V153.422H239.428C241.28 153.499 242.977 153.576 244.52 153.653C245.292 153.653 245.986 153.73 246.604 153.73C247.221 153.73 247.684 153.345 247.915 152.882C248.147 152.419 248.147 151.957 247.993 151.571C247.838 151.186 247.607 150.955 247.375 150.8C246.681 150.415 246.372 150.415 246.372 150.415Z" fill="#263238"/>
<path d="M230.479 184.877L233.411 165.526L237.732 165.911L234.877 185.802L230.479 184.877Z" fill="#264796"/>
<path d="M168.905 135.69C168.287 135.227 168.056 134.533 168.287 133.762L175.232 113.794C175.54 112.946 176.466 112.484 177.392 112.792C178.241 113.1 178.704 114.026 178.395 114.951L171.451 134.919C171.142 135.767 170.216 136.229 169.29 135.921C169.213 135.844 169.059 135.767 168.905 135.69Z" fill="#E0E0E0"/>
<path d="M168.904 135.69C168.904 135.69 169.058 135.767 169.367 135.921C169.675 135.998 170.215 136.075 170.755 135.69C171.296 135.381 171.45 134.456 171.759 133.608C172.067 132.683 172.376 131.681 172.762 130.524C173.533 128.288 174.459 125.59 175.462 122.583C176.002 121.118 176.542 119.499 177.083 117.88C177.391 117.032 177.623 116.261 177.931 115.413C178.086 114.951 178.24 114.565 178.163 114.18C178.086 113.794 177.931 113.409 177.546 113.177C176.928 112.638 175.848 112.869 175.462 113.563C175.231 113.871 175.154 114.334 174.999 114.719C174.845 115.105 174.691 115.567 174.536 115.953C173.996 117.572 173.456 119.114 172.916 120.656C171.836 123.585 170.91 126.284 170.138 128.597C169.367 130.833 168.672 132.606 168.209 133.916C167.978 134.533 168.209 135.073 168.441 135.304C168.749 135.535 168.904 135.69 168.904 135.69C168.904 135.69 168.749 135.613 168.518 135.304C168.286 134.996 168.055 134.456 168.209 133.762C168.672 132.452 169.289 130.601 169.984 128.365C170.755 126.13 171.681 123.431 172.684 120.425C173.225 118.96 173.765 117.341 174.305 115.722C174.459 115.336 174.613 114.874 174.768 114.488C174.922 114.103 174.999 113.64 175.308 113.255C175.617 112.869 176.002 112.561 176.542 112.484C177.005 112.407 177.546 112.484 178.009 112.792C178.394 113.1 178.703 113.563 178.78 114.103C178.78 114.334 178.78 114.642 178.703 114.874C178.626 115.105 178.549 115.336 178.472 115.49C178.163 116.338 177.854 117.186 177.623 117.957C177.083 119.576 176.543 121.118 176.002 122.66C174.922 125.59 173.996 128.288 173.225 130.601C172.839 131.758 172.453 132.76 172.144 133.608C171.99 134.071 171.836 134.456 171.681 134.842C171.527 135.227 171.296 135.535 170.987 135.767C170.37 136.152 169.752 136.075 169.444 135.921C169.289 135.844 169.135 135.767 169.058 135.69C168.904 135.69 168.904 135.69 168.904 135.69Z" fill="#263238"/>
<path d="M168.638 130.855L149.131 190.591L153.386 191.978L172.893 132.243L168.638 130.855Z" fill="#264796"/>
<path d="M150.616 193.743L103.779 154.655L106.711 151.186L151.927 188.963L232.792 175.086L233.486 179.557L150.616 193.743Z" fill="#264796"/>
<path d="M158.851 166.593L158.791 169.984L234.779 171.325L234.839 167.934L158.851 166.593Z" fill="#264796"/>
<path d="M167.907 137.638L105.352 151.695L106.096 155.004L168.652 140.948L167.907 137.638Z" fill="#264796"/>
<path d="M109.181 155.812C107.792 157.739 105.169 158.125 103.24 156.737C101.311 155.349 100.925 152.728 102.314 150.801C103.703 148.873 106.326 148.488 108.255 149.875C110.107 151.263 110.57 153.884 109.181 155.812Z" fill="#E0E0E0"/>
<path d="M160.65 199.68C156.483 205.385 148.458 206.618 142.748 202.455C137.038 198.292 135.804 190.274 139.971 184.569C144.137 178.864 152.162 177.63 157.872 181.793C163.582 185.956 164.816 193.974 160.65 199.68Z" fill="#E0E0E0"/>
<path d="M160.648 199.68C160.571 199.68 161.343 198.754 162.114 196.904C162.5 195.979 162.809 194.745 162.963 193.358C163.117 191.97 162.963 190.274 162.5 188.578C161.96 186.882 161.034 185.031 159.568 183.566C158.102 182.025 156.173 180.714 153.858 180.097C152.701 179.712 151.543 179.557 150.232 179.635C149.614 179.635 148.997 179.712 148.38 179.789C147.762 179.943 147.145 180.02 146.528 180.251C144.059 181.022 141.744 182.641 140.123 184.8C138.503 187.036 137.654 189.657 137.654 192.278C137.654 192.895 137.732 193.589 137.809 194.206C137.963 194.822 138.04 195.439 138.272 196.056C138.657 197.212 139.12 198.369 139.815 199.294C141.127 201.299 142.978 202.763 144.83 203.689C146.759 204.614 148.688 204.999 150.54 204.922C152.315 204.922 153.935 204.46 155.247 203.92C156.559 203.38 157.639 202.686 158.411 202.07C159.954 200.605 160.571 199.602 160.648 199.68C160.648 199.68 160.648 199.757 160.571 199.834C160.494 199.988 160.34 200.142 160.185 200.296C160.031 200.528 159.799 200.759 159.568 201.067C159.259 201.376 158.951 201.684 158.565 201.992C157.793 202.686 156.713 203.38 155.401 203.92C154.09 204.537 152.392 204.922 150.617 204.999C148.765 204.999 146.759 204.691 144.753 203.766C142.824 202.841 140.895 201.376 139.583 199.294C138.889 198.292 138.349 197.135 137.963 195.902C137.732 195.285 137.654 194.668 137.5 194.052C137.423 193.435 137.346 192.741 137.346 192.047C137.346 189.349 138.194 186.65 139.815 184.337C141.512 182.102 143.827 180.405 146.373 179.635C146.991 179.403 147.685 179.326 148.302 179.172C148.92 179.095 149.614 179.018 150.232 179.018C151.543 179.018 152.778 179.172 153.935 179.557C156.327 180.251 158.256 181.562 159.722 183.181C161.188 184.723 162.114 186.65 162.654 188.346C163.194 190.12 163.272 191.816 163.117 193.281C162.963 194.745 162.654 195.979 162.191 196.904C162.037 197.367 161.806 197.752 161.574 198.138C161.42 198.523 161.188 198.754 161.034 198.986C160.88 199.217 160.802 199.371 160.648 199.448C160.725 199.602 160.648 199.68 160.648 199.68Z" fill="#263238"/>
<path d="M156.286 195.306C158.087 191.971 156.841 187.808 153.503 186.009C150.165 184.21 145.999 185.455 144.198 188.79C142.397 192.125 143.643 196.288 146.981 198.087C150.319 199.886 154.485 198.641 156.286 195.306Z" fill="#263238"/>
<path d="M189.738 123.046C189.043 124.048 181.713 119.422 178.858 116.955C176.003 114.488 173.843 112.484 171.759 112.252C169.676 112.021 162.114 109.477 163.503 104.234C164.892 98.9918 173.765 101.69 177.469 108.089C181.173 114.488 185.108 117.032 186.728 117.264C188.272 117.495 192.207 119.576 189.738 123.046Z" fill="#263238"/>
<path d="M246.065 152.497C245.988 152.42 245.91 152.42 245.91 152.342L239.892 146.483C239.197 145.866 239.197 144.787 239.892 144.093C240.509 143.399 241.589 143.399 242.284 144.093L248.302 149.952C248.997 150.569 248.997 151.649 248.302 152.342C247.685 152.882 246.759 152.959 246.065 152.497Z" fill="#263238"/>
<path d="M143.055 216.641C142.284 216.101 141.898 215.099 142.129 214.097L147.916 191.43C148.225 190.12 149.537 189.349 150.848 189.734C152.16 190.043 152.932 191.353 152.546 192.664L146.759 215.33C146.45 216.641 145.138 217.412 143.827 217.026C143.595 216.949 143.287 216.872 143.055 216.641Z" fill="#263238"/>
<path d="M143.056 216.641C143.056 216.641 143.21 216.795 143.596 216.872C143.982 217.026 144.599 217.103 145.294 216.795C145.68 216.641 145.988 216.41 146.297 216.024C146.605 215.639 146.683 215.176 146.837 214.636C147.068 213.557 147.377 212.323 147.763 210.936C148.457 208.237 149.229 204.999 150.155 201.376C150.618 199.603 151.081 197.675 151.544 195.748C151.775 194.745 152.007 193.743 152.315 192.741C152.47 192.201 152.547 191.816 152.393 191.276C152.238 190.814 152.007 190.428 151.544 190.12C150.772 189.503 149.615 189.58 148.843 190.197C148.457 190.505 148.226 190.891 148.072 191.353C147.917 191.816 147.84 192.355 147.686 192.818C147.223 194.745 146.683 196.673 146.22 198.446C145.294 201.993 144.445 205.231 143.751 207.929C143.056 210.627 142.439 212.863 142.13 214.328C142.053 215.099 142.362 215.639 142.593 215.947C142.902 216.564 143.056 216.641 143.056 216.641C143.056 216.641 142.825 216.564 142.593 216.255C142.362 215.947 141.976 215.33 142.053 214.559C142.362 213.017 142.902 210.859 143.596 208.083C144.291 205.385 145.062 202.147 145.988 198.523C146.451 196.75 146.914 194.823 147.377 192.895C147.531 192.433 147.609 191.893 147.763 191.43C147.917 190.891 148.226 190.428 148.612 190.043C149.46 189.272 150.849 189.272 151.775 189.965C152.238 190.274 152.624 190.814 152.701 191.353C152.855 191.893 152.778 192.51 152.624 192.972C152.393 193.974 152.084 194.977 151.852 195.979C151.389 197.906 150.849 199.834 150.386 201.607C149.46 205.153 148.612 208.392 147.917 211.09C147.531 212.401 147.223 213.634 146.991 214.713C146.837 215.253 146.76 215.793 146.374 216.178C146.065 216.564 145.68 216.872 145.294 216.949C144.522 217.258 143.828 217.103 143.519 216.949C143.21 216.795 143.056 216.641 143.056 216.641Z" fill="#455A64"/>
<path d="M137.885 215.253C137.113 214.713 136.805 213.711 137.036 212.786C137.422 211.63 138.656 210.936 139.814 211.244L149.999 214.251C151.156 214.636 151.851 215.87 151.542 217.026C151.156 218.183 149.922 218.877 148.765 218.568L138.579 215.561C138.348 215.561 138.116 215.407 137.885 215.253Z" fill="#263238"/>
<path d="M249.536 152.342C248.996 153.73 247.375 154.347 245.986 153.807C244.598 153.268 243.98 151.649 244.52 150.261C245.061 148.873 246.681 148.256 248.07 148.796C249.459 149.336 250.076 150.955 249.536 152.342Z" fill="#263238"/>
<path d="M228.549 235.375L230.632 235.761C230.863 235.838 231.095 235.607 231.172 235.375L239.351 189.657H239.428C239.737 187.884 238.579 186.188 236.727 185.879L227.005 184.106C225.231 183.798 223.533 184.954 223.224 186.805H223.302L215.123 232.754C215.045 232.985 215.277 233.217 215.508 233.294L217.592 233.679C217.823 233.756 218.055 233.525 218.132 233.294L226.234 187.807C226.311 187.575 226.542 187.421 226.774 187.421L236.033 189.04C236.265 189.117 236.419 189.349 236.419 189.58L228.317 234.913C228.163 235.067 228.317 235.298 228.549 235.375Z" fill="#264796"/>
<path d="M153.703 176.705C153.625 176.705 156.789 166.605 160.801 154.193C164.814 141.78 168.132 131.758 168.286 131.835C168.363 131.835 165.199 141.934 161.187 154.347C157.175 166.682 153.78 176.705 153.703 176.705Z" fill="#263238"/>
<path d="M157.87 178.555C157.793 178.555 161.034 168.456 165.201 156.043C169.367 143.631 172.762 133.608 172.917 133.685C172.994 133.685 169.753 143.785 165.587 156.197C161.42 168.61 158.025 178.632 157.87 178.555Z" fill="#263238"/>
<path d="M233.409 165.526C233.486 165.526 232.946 169.843 232.175 175.24C231.403 180.56 230.631 184.877 230.554 184.877C230.477 184.877 231.017 180.56 231.789 175.163C232.56 169.843 233.255 165.526 233.409 165.526Z" fill="#263238"/>
<path d="M237.729 166.682C237.807 166.682 237.266 171 236.495 176.397C235.723 181.716 234.952 186.034 234.875 186.034C234.797 186.034 235.337 181.716 236.109 176.319C236.881 170.923 237.575 166.605 237.729 166.682Z" fill="#263238"/>
<path d="M79.2435 153.653C79.475 153.422 79.7836 153.268 80.0922 153.268L98.9194 155.426C99.228 155.503 99.5367 155.658 99.691 155.966C100.308 157.354 101.389 157.97 103.24 157.585C105.324 157.122 106.713 155.503 106.713 155.503L106.635 155.195L104.475 155.658C103.24 155.889 102.083 155.118 101.852 153.884V153.807C101.62 152.574 102.392 151.417 103.626 151.186L105.787 150.723L105.71 150.415C105.71 150.415 103.703 149.336 101.697 149.875C100.231 150.261 99.4595 150.878 99.2281 151.88C99.0737 152.342 98.6879 152.728 98.1478 152.651L80.4781 150.646C80.1694 150.646 79.8608 150.415 79.7064 150.107C79.1663 148.95 78.0089 148.102 76.5429 148.025C74.9225 148.025 73.4564 149.104 73.1478 150.723C72.6848 152.805 74.0737 154.732 76.1571 154.964C77.3145 155.195 78.549 154.655 79.2435 153.653ZM76.1571 154.116L74.228 152.728C74.1509 152.651 74.1509 152.574 74.1509 152.497L74.3824 150.107C74.3824 150.03 74.4595 149.952 74.5367 149.952L76.6972 149.027C76.7743 149.027 76.8515 149.027 76.9287 149.027L78.8577 150.415C78.9348 150.492 78.9348 150.569 78.9348 150.646L78.7034 153.036C78.7034 153.113 78.6262 153.19 78.549 153.19L76.3885 154.193C76.3114 154.193 76.2342 154.193 76.1571 154.116Z" fill="#EBEBEB"/>
<path d="M76.1585 154.116C76.1585 154.116 76.2357 154.116 76.3129 154.116C76.39 154.116 76.5443 153.961 76.6987 153.884C77.0845 153.73 77.5474 153.422 78.1647 153.19L78.3962 153.113C78.4734 153.036 78.4734 153.113 78.4734 153.036C78.4734 152.805 78.4734 152.651 78.5505 152.419C78.6277 152.034 78.6277 151.571 78.7048 151.109V150.723V150.646C78.7048 150.646 78.7048 150.646 78.6277 150.569C78.3962 150.415 78.2419 150.261 78.0104 150.107C77.6246 149.798 77.1616 149.49 76.7758 149.181L76.6215 149.258L76.2357 149.413C76.0042 149.49 75.7727 149.644 75.5413 149.721C75.3098 149.798 75.0783 149.952 74.8468 150.029L74.6153 150.107C74.6153 150.107 74.6153 150.107 74.6153 150.184V150.338C74.5382 150.8 74.5382 151.263 74.461 151.648C74.461 151.88 74.3838 152.034 74.3838 152.265V152.497C74.3838 152.497 74.3839 152.497 74.461 152.574C75.5413 153.499 76.2357 154.116 76.1585 154.116C76.1585 154.193 75.3869 153.653 74.2295 152.882C74.1524 152.882 73.998 152.728 73.998 152.574C73.998 152.419 73.998 152.342 73.998 152.265C73.998 152.034 73.9981 151.88 74.0752 151.648C74.1524 151.263 74.1524 150.8 74.2295 150.338V150.184C74.2295 150.107 74.2295 149.952 74.3067 149.875C74.3067 149.798 74.3839 149.798 74.461 149.798H74.5382L74.6925 149.721C74.924 149.644 75.1555 149.49 75.3869 149.413C75.6184 149.336 75.8499 149.181 76.0814 149.104L76.4672 148.95L76.6987 148.873C76.853 148.796 76.9301 148.873 77.0845 148.95C77.5474 149.258 77.9332 149.567 78.319 149.875C78.5505 150.029 78.7048 150.184 78.9363 150.338C78.9363 150.338 79.0906 150.415 79.0906 150.569C79.0906 150.646 79.0906 150.646 79.0906 150.723V150.8L79.0135 151.186C78.9363 151.648 78.9363 152.111 78.8592 152.497C78.8592 152.728 78.782 152.882 78.782 153.113C78.782 153.267 78.6277 153.422 78.5505 153.422L78.319 153.499C77.7018 153.73 77.1616 153.961 76.7758 154.116C76.6215 154.193 76.4672 154.27 76.3129 154.27C76.2357 154.193 76.1585 154.116 76.1585 154.116Z" fill="#263238"/>
<path d="M79.2442 153.653C79.2442 153.653 79.0898 153.961 78.6269 154.347C78.1639 154.732 77.3923 155.195 76.2349 155.118C75.1547 155.118 73.6886 154.347 73.0713 152.805C72.7627 152.034 72.7627 151.109 73.0713 150.261C73.38 149.413 74.0744 148.642 75.0775 148.256C76.0034 147.871 77.238 147.871 78.2411 148.41C78.704 148.719 79.167 149.104 79.4756 149.567C79.63 149.798 79.7843 150.107 79.8615 150.261C80.0158 150.415 80.2473 150.569 80.4787 150.569C82.7936 150.8 85.2627 151.109 87.8861 151.417C90.5096 151.726 93.2102 152.034 96.0652 152.342C96.7596 152.419 97.454 152.497 98.1485 152.574C98.4571 152.574 98.6886 152.419 98.8429 152.111C98.9201 152.034 98.9201 151.803 98.9973 151.571C99.0744 151.417 99.1516 151.186 99.3059 151.032C99.7689 150.338 100.54 150.029 101.235 149.798C102.007 149.567 102.778 149.49 103.55 149.644C104.321 149.721 105.016 149.952 105.71 150.338L105.787 150.415V150.492C105.787 150.569 105.865 150.646 105.865 150.8L105.942 151.032L105.71 151.109C105.247 151.186 104.707 151.34 104.244 151.417L103.473 151.571C103.241 151.649 103.01 151.726 102.855 151.803C102.084 152.265 101.698 153.268 101.929 154.116C102.161 154.964 102.932 155.658 103.858 155.658C104.244 155.658 104.707 155.503 105.17 155.426C105.633 155.349 106.096 155.272 106.482 155.195H106.636V155.349C106.636 155.426 106.713 155.58 106.713 155.658V155.735L106.636 155.812C105.865 156.583 104.939 157.199 104.013 157.662C103.01 158.047 101.929 158.279 100.926 157.893C100.463 157.739 100 157.354 99.7689 156.891C99.6145 156.66 99.5374 156.428 99.3831 156.274C99.3059 156.12 99.1516 155.966 98.9973 155.889C98.8429 155.812 98.6115 155.812 98.38 155.735C98.1485 155.735 97.917 155.658 97.6855 155.658C97.2226 155.58 96.7596 155.58 96.3738 155.503C92.8244 155.118 89.738 154.732 87.1917 154.424C84.6454 154.116 82.5621 153.884 81.1732 153.653C80.8645 153.576 80.5559 153.576 80.2473 153.499C79.9386 153.422 79.7843 153.422 79.5528 153.499C79.3213 153.499 79.2442 153.73 79.2442 153.653C79.2442 153.653 79.2442 153.576 79.3213 153.499C79.3985 153.422 79.4757 153.345 79.7071 153.268C79.8615 153.19 80.1701 153.19 80.4016 153.268C80.7102 153.268 81.0189 153.345 81.3275 153.345C82.7935 153.499 84.7997 153.73 87.346 153.961C89.9695 154.27 93.0559 154.578 96.6053 154.964C97.0682 155.041 97.5312 155.041 97.917 155.118C98.1485 155.118 98.38 155.195 98.6115 155.195H98.9201C99.0744 155.195 99.1516 155.272 99.3059 155.272C99.5374 155.349 99.7689 155.58 99.846 155.889C99.9232 156.12 100.078 156.274 100.155 156.506C100.386 156.891 100.772 157.199 101.158 157.354C102.007 157.662 103.087 157.508 103.936 157.122C104.861 156.737 105.71 156.12 106.405 155.426L106.328 155.58C106.328 155.503 106.25 155.349 106.25 155.272L106.482 155.426C106.019 155.503 105.556 155.58 105.17 155.735C104.707 155.812 104.244 155.966 103.781 155.966C102.778 155.966 101.775 155.195 101.544 154.116C101.235 153.113 101.698 151.88 102.624 151.34C102.855 151.186 103.087 151.109 103.395 151.032L104.167 150.878C104.63 150.8 105.17 150.646 105.633 150.569L105.479 150.8C105.479 150.723 105.479 150.646 105.402 150.492L105.479 150.646C104.861 150.338 104.167 150.107 103.473 150.029C102.778 149.952 102.007 149.952 101.312 150.184C100.618 150.415 99.9232 150.723 99.5374 151.263C99.4602 151.417 99.3831 151.571 99.3059 151.726C99.2287 151.88 99.2287 152.034 99.1516 152.265C98.9973 152.651 98.5343 152.959 98.0713 152.959C97.2997 152.882 96.6053 152.805 95.9108 152.728C93.0559 152.419 90.3553 152.111 87.7318 151.803C85.1084 151.494 82.6392 151.186 80.3244 150.955C80.0158 150.955 79.63 150.8 79.4756 150.569C79.2442 150.261 79.2442 150.029 79.0127 149.798C78.704 149.336 78.3182 148.95 77.8553 148.719C76.9293 148.179 75.8491 148.179 75.0003 148.565C74.1516 148.95 73.4571 149.644 73.1485 150.415C72.8398 151.186 72.8398 152.111 73.0713 152.805C73.6114 154.27 74.9232 154.964 76.0034 155.041C77.0837 155.118 77.9324 154.655 78.3182 154.347C79.0127 153.961 79.2442 153.653 79.2442 153.653Z" fill="#263238"/>
<path d="M50.0769 143.399L47.4534 114.334L32.9473 114.874C32.9473 114.874 36.0337 150.569 39.8917 155.503C43.6726 160.36 76.6201 160.9 76.6201 160.9L76.5429 153.19L77.7775 150.261C77.1602 150.261 50.0769 143.399 50.0769 143.399Z" fill="#FFBF9D"/>
<path d="M42.9794 98.452C42.5936 98.6062 34.4146 101.459 33.0257 108.86C32.0998 113.948 30.8652 136.846 30.8652 136.846H52.3159L51.5443 113.1L42.9794 98.452Z" fill="#E07A25"/>
<path d="M42.5938 103.078C42.5166 103.155 44.6771 104.234 46.3747 106.547C48.0722 108.86 48.458 111.25 48.5352 111.173C48.5352 111.173 48.5352 110.556 48.3037 109.631C48.0722 108.706 47.5321 107.472 46.6062 106.316C45.7574 105.159 44.6771 104.311 43.9055 103.772C43.1339 103.232 42.5938 103.001 42.5938 103.078Z" fill="#263238"/>
<path d="M49.8458 114.334C49.8458 114.334 49.8458 114.488 49.9229 114.796C49.9229 115.105 50.0001 115.567 50.0001 116.03C50.0773 117.186 50.2316 118.728 50.3087 120.656C50.5402 124.588 50.926 129.984 51.3118 135.921C51.3118 136.306 51.389 136.692 51.389 137V137.231H51.1575C45.4476 137.154 40.2779 137 36.5742 137C34.7223 136.923 33.2563 136.923 32.176 136.846C31.7131 136.846 31.3273 136.769 31.0186 136.769C30.71 136.769 30.6328 136.769 30.6328 136.692C30.6328 136.692 30.7871 136.692 31.0186 136.692C31.3273 136.692 31.7131 136.692 32.176 136.692C33.2563 136.692 34.7223 136.692 36.5742 136.692C40.355 136.692 45.4476 136.769 51.1575 136.846L50.926 137.077C50.926 136.769 50.8489 136.383 50.8489 135.998C50.5402 130.062 50.2316 124.665 50.0001 120.656C49.9229 118.728 49.8458 117.186 49.7686 116.03C49.7686 115.49 49.7686 115.105 49.7686 114.796C49.8458 114.488 49.8458 114.334 49.8458 114.334Z" fill="#263238"/>
<path d="M93.2871 149.952C93.2871 149.952 92.284 150.338 90.5865 150.415C88.889 150.492 87.4229 147.485 84.9538 148.179C82.4075 148.796 77.1606 150.492 77.1606 150.492L74.3828 160.052C74.3828 160.052 80.71 165.217 81.6359 165.295C82.639 165.372 88.2717 164.446 88.7347 163.29C88.7347 163.29 90.5094 163.598 91.5896 161.825C91.5896 161.825 93.6729 161.363 93.7501 160.052C93.8273 158.664 91.9754 158.279 91.9754 158.279C91.9754 158.279 95.139 157.893 94.8303 156.197C94.5217 154.501 92.3612 154.116 92.3612 154.116L90.355 153.345C90.355 153.345 95.4476 152.805 93.2871 149.952Z" fill="#FFBF9D"/>
<path d="M84.5684 151.571C84.5684 151.494 85.9572 151.803 87.6548 152.419C89.2751 152.959 90.5869 153.499 90.5869 153.653C90.5869 153.73 89.198 153.422 87.5004 152.805C85.8801 152.188 84.5684 151.648 84.5684 151.571Z" fill="#FF9A6C"/>
<path d="M87.9629 158.048C87.9629 157.97 88.8888 157.97 89.9691 158.048C91.0493 158.125 91.9752 158.202 91.9752 158.279C91.9752 158.356 91.0493 158.51 89.9691 158.433C88.8888 158.356 87.9629 158.125 87.9629 158.048Z" fill="#FF9A6C"/>
<path d="M87.4221 161.208C87.4221 161.131 88.4252 161.208 89.6598 161.363C90.8944 161.517 91.8203 161.748 91.8203 161.825C91.8203 161.902 90.8172 161.902 89.5826 161.748C88.3481 161.594 87.345 161.286 87.4221 161.208Z" fill="#FF9A6C"/>
<path d="M85.2617 162.75C85.2617 162.673 86.1105 162.673 87.1136 162.828C88.1167 163.059 88.8883 163.367 88.8883 163.444C88.8883 163.521 88.0395 163.367 87.0364 163.213C86.0333 162.982 85.2617 162.828 85.2617 162.75Z" fill="#FF9A6C"/>
<path d="M106.172 150.878L103.626 151.34L102.777 153.653L104.398 155.58L106.867 155.195L107.793 152.805L106.172 150.878Z" fill="#455A64"/>
<path d="M105.71 152.342L104.707 152.497L104.398 153.422L105.016 154.116L105.942 153.961L106.327 153.036L105.71 152.342Z" fill="#E0E0E0"/>
<path d="M124.305 122.815C124.074 122.275 123.611 121.966 123.071 121.812C122.53 121.658 121.99 121.812 121.45 121.889C121.064 121.966 120.679 122.198 120.447 122.506C120.138 122.892 120.138 123.431 120.293 123.817C120.447 124.434 120.91 124.973 121.373 125.436C121.836 125.898 122.453 126.669 122.993 127.055L124.922 125.821C123.534 123.817 124.691 123.817 124.305 122.815Z" fill="#FFBF9D"/>
<path d="M136.036 128.52L134.647 128.443C134.647 128.443 131.869 129.599 131.175 128.443C130.48 127.286 131.792 126.207 131.792 126.207C131.792 126.207 130.634 126.669 129.94 125.667C129.246 124.665 130.634 123.817 130.634 123.817C130.634 123.817 128.937 124.588 128.628 123.663C128.243 122.737 128.937 121.812 128.937 121.812C128.937 121.812 127.625 122.583 127.239 122.198C126.854 121.812 126.699 121.273 127.008 120.656C127.317 119.962 129.863 118.805 129.863 118.805C129.863 118.805 130.789 118.343 131.483 119.191L131.792 120.039C131.792 120.039 134.107 118.497 135.187 120.116C136.344 121.658 135.573 122.044 135.573 122.044C135.573 122.044 137.039 122.198 137.425 123.585C137.81 124.973 137.039 125.204 137.039 125.204C137.039 125.204 138.351 126.207 138.196 127.055C137.965 127.749 136.036 128.52 136.036 128.52Z" fill="#FFBF9D"/>
<path d="M131.715 119.885C131.715 119.808 130.866 120.039 129.94 120.656C129.091 121.273 128.551 121.966 128.628 122.044C128.706 122.121 129.323 121.504 130.094 120.964C130.943 120.347 131.715 119.962 131.715 119.885Z" fill="#FF9A6C"/>
<path d="M135.572 121.966C135.572 121.889 134.261 121.966 132.795 122.583C131.329 123.2 130.325 123.971 130.403 124.048C130.48 124.125 131.56 123.431 132.949 122.892C134.338 122.275 135.572 122.044 135.572 121.966Z" fill="#FF9A6C"/>
<path d="M136.961 125.204C136.961 125.127 136.652 125.05 136.189 125.05C135.726 125.05 135.032 125.127 134.337 125.359C132.871 125.744 131.791 126.207 131.791 126.284C131.791 126.361 132.948 126.053 134.414 125.667C135.109 125.513 135.803 125.359 136.266 125.282C136.652 125.204 136.961 125.204 136.961 125.204Z" fill="#FF9A6C"/>
</g>
<defs>
<clipPath id="clip0_354_26552">
<rect width="250" height="330" fill="white"/>
</clipPath>
</defs>
</svg>
