<svg width="44" height="44" viewBox="0 0 44 44" fill="none" xmlns="http://www.w3.org/2000/svg">
<rect width="44" height="44" rx="22" fill="#FDFDFD"/>
<g clip-path="url(#clip0_184_2345)">
<path d="M13 31L14.65 27.2C13.3877 25.408 12.8227 23.217 13.061 21.0381C13.2994 18.8591 14.3248 16.8421 15.9447 15.3655C17.5646 13.8889 19.6677 13.0542 21.8594 13.0181C24.051 12.982 26.1805 13.7469 27.8482 15.1693C29.5159 16.5918 30.6071 18.5739 30.9172 20.7438C31.2272 22.9137 30.7347 25.1222 29.5321 26.9547C28.3295 28.7873 26.4994 30.118 24.3854 30.6971C22.2713 31.2762 20.0186 31.0639 18.05 30.1L13 31" stroke="#264796" stroke-width="2" stroke-linecap="round" stroke-linejoin="round"/>
<path d="M19 20C19 20.1326 19.0527 20.2598 19.1464 20.3536C19.2402 20.4473 19.3674 20.5 19.5 20.5C19.6326 20.5 19.7598 20.4473 19.8536 20.3536C19.9473 20.2598 20 20.1326 20 20V19C20 18.8674 19.9473 18.7402 19.8536 18.6464C19.7598 18.5527 19.6326 18.5 19.5 18.5C19.3674 18.5 19.2402 18.5527 19.1464 18.6464C19.0527 18.7402 19 18.8674 19 19V20ZM19 20C19 21.3261 19.5268 22.5979 20.4645 23.5355C21.4021 24.4732 22.6739 25 24 25H25C25.1326 25 25.2598 24.9473 25.3536 24.8536C25.4473 24.7598 25.5 24.6326 25.5 24.5C25.5 24.3674 25.4473 24.2402 25.3536 24.1464C25.2598 24.0527 25.1326 24 25 24H24C23.8674 24 23.7402 24.0527 23.6464 24.1464C23.5527 24.2402 23.5 24.3674 23.5 24.5C23.5 24.6326 23.5527 24.7598 23.6464 24.8536C23.7402 24.9473 23.8674 25 24 25" stroke="#264796" stroke-width="2" stroke-linecap="round" stroke-linejoin="round"/>
</g>
<defs>
<clipPath id="clip0_184_2345">
<rect width="24" height="24" fill="white" transform="translate(10 10)"/>
</clipPath>
</defs>
</svg>
