<svg width="19" height="21" viewBox="0 0 19 21" fill="none" xmlns="http://www.w3.org/2000/svg">
<path d="M9.49999 9.4981C9.7599 9.4981 10.0173 9.4469 10.2574 9.34744C10.4975 9.24798 10.7157 9.1022 10.8995 8.91841C11.0833 8.73463 11.229 8.51645 11.3285 8.27633C11.428 8.0362 11.4792 7.77884 11.4792 7.51893C11.4792 7.25902 11.428 7.00166 11.3285 6.76154C11.229 6.52141 11.0833 6.30323 10.8995 6.11945C10.7157 5.93567 10.4975 5.78988 10.2574 5.69042C10.0173 5.59096 9.7599 5.53976 9.49999 5.53976C8.97509 5.53976 8.47168 5.74828 8.10051 6.11945C7.72935 6.49061 7.52083 6.99402 7.52083 7.51893C7.52083 8.04384 7.72935 8.54725 8.10051 8.91841C8.47168 9.28958 8.97509 9.4981 9.49999 9.4981Z" stroke="black"/>
<path d="M2.86583 6.72125C4.42541 -0.134583 14.5825 -0.126666 16.1342 6.72917C17.0446 10.7508 14.5429 14.155 12.35 16.2608C11.5837 16.9999 10.5606 17.4129 9.49604 17.4129C8.43144 17.4129 7.40835 16.9999 6.64208 16.2608C4.45708 14.155 1.95541 10.7429 2.86583 6.72125Z" stroke="black"/>
</svg>
