<svg id="Слой_1" data-name="Слой 1" xmlns="http://www.w3.org/2000/svg" viewBox="0 0 1024 1024"><defs><style>.cls-1{fill:#e07a25;}.cls-2{fill:#eaf1f8;}.cls-3{fill:#ba6222;}.cls-4{fill:#264796;}.cls-5{fill:#e66363;}</style></defs><path class="cls-1" d="M889.76,468.94q-15.81,78-31.6,156c-.26,1.3-.35,2.64-.52,4a17.65,17.65,0,0,1-3.48.06,153.77,153.77,0,0,0-97.35,13.43c-13.7,6.74-25.83,15.66-37.17,25.76q3.14-23.7,6.29-47.4c2.49-18.59,5.12-37.17,7.53-55.77,1.55-12,4.29-23.91,4.51-36.06.28-15.64-11-27.7-27.41-28.48a27.76,27.76,0,0,0-28.64,23.48c-1.55,9.83-2.74,19.73-4.13,29.59q-5.87,41.92-11.74,83.84c-4,28.62-7.82,57.25-11.9,85.85-2.28,16,4.53,28,19.71,33.92-3.21,18.55-2.18,37,1.89,55.26,1.72,7.74,4.22,15.32,6.36,23q-57-.09-113.9-.17c-100.76,0-201.52-.3-302.27.16-35.77.16-66.87-24.36-73.95-61.42-8.73-45.64-18.39-91.11-27.6-136.66q-16.66-82.49-33.25-165c-.19-1-.22-2-.33-3,2-.07,4-.21,6-.21H688.91Q789.34,469,889.76,468.94ZM481.88,629h0c0,34.32-.14,68.64.06,102.95.11,18.83,19.79,32.19,37.43,25.77,12.36-4.5,19.43-15,19.43-29.06q0-99.2,0-198.4a37.35,37.35,0,0,0-1-8.88c-3.47-14.14-15.51-22.51-28.49-21.92-17.86.81-27.78,15.64-27.56,30.09C482.22,562.66,481.88,595.81,481.88,629ZM337.8,758.06c15.34,1,31.28-13.39,28.42-32.5-2.23-14.94-4.14-29.92-6.16-44.89-3.45-25.49-6.82-51-10.3-76.48-3.54-25.81-7.41-51.58-10.69-77.43-2.74-21.58-25.16-33.33-43.45-21.91-11.71,7.32-14.82,18.34-12.8,32,5.54,37.43,10.26,75,15.4,112.46,3.86,28.12,7.91,56.21,11.79,84.32A28.2,28.2,0,0,0,337.8,758.06Z"/><path class="cls-1" d="M827.74,335.12q39.21-.11,78.42-.22c11.82,0,23.67.52,35.46-.13,15.27-.84,31.64,8.28,32.9,29.33.68,11.24,1.19,22.63-.54,33.88-2.29,14.89-14,25-29,25.1-15.31.09-30.63,0-46,0q-142.41,0-284.82,0l-493.19,0c-15.64,0-31.28.22-46.92,0A28.88,28.88,0,0,1,46,394.94c-.19-10.48-.15-21,0-31.45A28.7,28.7,0,0,1,74.71,335c39.44-.13,78.88,0,118.32,0-.83,1-1.65,2-2.5,3-6.69,7.83-9.07,16.93-6.94,26.87,3.46,16.25,16.32,25.37,34.48,25,8.62-.14,17.22.26,25.87-.72,12.45-1.4,24.14-4.95,34.7-11.39,18.5-11.28,32.54-27.68,47.56-42.92l367,0c1.5,0,3-.05,4.49-.07,9.26,10.45,19.58,19.84,29.4,29.73a89.42,89.42,0,0,0,19.58,14.34c17.2,9.76,35.92,11.91,55.25,11,17.34,1.7,31.71-10.47,34.58-24C839,354.07,835.58,344,827.74,335.12Z"/><path class="cls-2" d="M682.11,835.31c-2.14-7.65-4.64-15.23-6.36-23-4.07-18.27-5.1-36.71-1.89-55.26.36-2.12.71-4.24,1.08-6.36,3.7-21.43,12.21-40.84,24.47-58.74,5.94-8.66,13.31-16.06,20.23-23.87,11.34-10.1,23.47-19,37.17-25.76a153.77,153.77,0,0,1,97.35-13.43,17.65,17.65,0,0,0,3.48-.06c7.55,3.44,15.78,4.81,23.47,7.92,35.13,14.23,61.56,37.87,79.5,71.31,14.36,26.78,19.56,55.4,17.07,85.25-2.52,30.15-13.87,57.15-32.6,81.07-19.38,24.75-44.29,41.43-74,50.85-29.33,9.31-59,9.47-88.6,1-28.23-8.1-52-23.43-71.62-45.06a140.15,140.15,0,0,1-21.62-31.57Q685.67,842.46,682.11,835.31ZM717,779.21A107.69,107.69,0,0,0,825.09,887.69c60.77-.18,108.74-47.71,108.54-109.34-.2-59-48.28-109.75-113.28-107.32A108,108,0,0,0,717,779.21Z"/><path class="cls-3" d="M121.05,423l493.19,0q142.41,0,284.82,0l-9.3,45.9q-100.43,0-200.85.09H136.8c-2,0-4,.14-6,.21-3.61-13.63-5.76-27.58-8.71-41.35Z"/><path class="cls-4" d="M827.74,335.12c7.84,8.86,11.3,18.95,8.78,30.8-2.87,13.52-17.24,25.69-34.58,24-9.87-1.63-16.74-7.83-23.45-14.68-13.57-13.87-27.49-27.41-41.26-41.08q-41.82-41.92-83.65-83.85Q601.31,198,549,145.65c-15.36-15.46-12.33-39.25,6-49.89,12.44-7.22,27.31-5.12,38.45,5.77s22.19,22.11,33.26,33.18q98.07,98.07,196.14,196.13C824.41,332.36,826.12,333.7,827.74,335.12Z"/><path class="cls-4" d="M218.07,389.92c-18.16.34-31-8.78-34.48-25-2.13-9.94.25-19,6.94-26.87.85-1,1.67-2,2.5-3,1.59-1.46,3.24-2.86,4.77-4.39Q311.93,216.48,426,102.31c9.92-9.93,21.38-13.22,34.65-8.56,20,7,26.89,32.67,13.25,49-1.81,2.16-3.86,4.14-5.86,6.14q-90.63,90.65-181.24,181.29c-1.38,1.38-3.25,2.42-3.66,4.59-2.13.4-3.34,2.08-4.73,3.47-12.34,12.31-24.8,24.51-36.93,37C234.85,382.13,227.94,388.3,218.07,389.92Z"/><path class="cls-3" d="M218.07,389.92c9.87-1.62,16.78-7.79,23.45-14.67,12.13-12.51,24.59-24.71,36.93-37,1.39-1.39,2.6-3.07,4.73-3.47l43,.13c-15,15.24-29.05,31.64-47.55,42.92-10.56,6.44-22.25,10-34.7,11.39C235.29,390.18,226.69,389.78,218.07,389.92Z"/><path class="cls-3" d="M737.23,334.15c13.77,13.67,27.69,27.21,41.26,41.08,6.71,6.85,13.58,13,23.45,14.68-19.33.91-38.05-1.24-55.25-11a89.42,89.42,0,0,1-19.58-14.34c-9.82-9.89-20.14-19.28-29.4-29.73q17.09-.06,34.17-.15C733.67,334.68,735.52,335.06,737.23,334.15Z"/><path class="cls-5" d="M782.73,809.82c-.16-3.26,1.54-6,4-8.44,6.39-6.33,12.65-12.8,19.13-19,2.29-2.2,2.58-3.59.1-5.94-6.53-6.19-12.81-12.64-19.12-19-5.44-5.52-5.72-12.39-.82-17.26s11.77-4.55,17.29.87c6.06,6,12.22,11.83,18,18.06,2.89,3.13,4.65,3.61,7.76.17,5.7-6.29,11.89-12.14,17.95-18.09,5.51-5.41,12.62-5.83,17.29-1.15,4.92,4.92,4.79,11.7-.63,17.33-6,6.24-12.07,12.45-18.41,18.34-2.92,2.72-3.41,4.31-.16,7.26,6.28,5.7,12.14,11.88,18.09,17.94,5.8,5.91,6.23,12.68,1.27,17.69s-11.83,4.54-17.66-1.2c-6.06-6-12.15-11.89-18-18.08-2.58-2.73-4.23-3.16-7-.15-6.12,6.58-12.6,12.85-19,19.13-3.79,3.7-8.31,4.92-13.29,2.65C785,818.81,782.61,815.23,782.73,809.82Z"/></svg>