<svg id="Слой_1" data-name="Слой 1" xmlns="http://www.w3.org/2000/svg" viewBox="0 0 1024 1024"><defs><style>.cls-1{fill:#e07a25;}.cls-2{fill:#fdd3c3;}.cls-3{fill:#ba6222;}.cls-4{fill:#eaf1f8;}.cls-5{fill:#264796;}.cls-6{fill:#cca99e;}</style></defs><path class="cls-1" d="M208.33,462.12q-.08-64.46-.15-128.91,0-127.17,0-254.35c0-13.32,5.51-23.36,18.09-29,4.1-1.84,8.35-2,12.69-2H405.9c0,38.47.37,76.94-.09,115.4-.17,13.67,13.63,22.17,25.25,15.42,8.77-5.08,18.15-9.1,27.15-13.79,5.91-3.09,11.49-3.36,17.51-.14,9.25,4.94,18.7,9.49,28.09,14.15,6.73,3.35,13.17,3.07,19.11-1.84,4.77-3.95,6-9.34,6-15.2q0-57,0-113.9l145.86-.11c8,0,16-.1,24,.07,14.6.32,27.12,12.65,27.16,27.27.12,43,0,85.92-.06,128.87-13-.73-25.86.89-38.56,3.4A200.9,200.9,0,0,0,525,406.9a48.51,48.51,0,0,1-1.93,13.24c-7.05,25.57-28.76,41.72-56.43,41.79-49,.12-97.93,0-146.9,0Q264,462,208.33,462.12Z"/><path class="cls-2" d="M578.8,765.08c10.65,1.48,21.16,3.89,32,3.91a73.37,73.37,0,0,0,40.93-12.36C675.57,741.11,699,725,722.85,709.52c14.37-9.34,29.75-9.54,44.42-1.16,15.09,8.61,22.49,22.44,21.52,39.87-.78,14.19-8.67,24.72-19.39,33.52-12.31,10.1-24.38,20.51-36.56,30.78q-21.33,18-42.67,35.91c-10.92,9.19-21.75,18.49-32.76,27.56-16.66,13.72-35.83,22-57,26-18.65,3.56-36.91,1.19-55.24-2.43-30.54-6-61-12.63-91.76-17.26-33-5-62.68,4-88.75,25.24-13.16,10.71-21.94,24.82-32,38-5.93,7.8-11.54,15.84-17.54,23.58-6.39,8.23-18.57,9.49-27.35,3Q233,931.46,178.27,890.75c-5.06-3.76-10.17-7.47-15.24-11.21-10.26-7.59-12.12-18-5.2-28.78,7.53-11.76,15.27-23.39,22.47-35.35,13.28-22.08,26-44.49,39.39-66.5,10.46-17.17,21.77-33.71,35.36-48.73,18.63-20.59,41-34.72,67.81-41.48a133.91,133.91,0,0,1,69.87,1c12.57,3.5,23.95,9.75,35.94,14.59A165.46,165.46,0,0,0,474,685.05c16,1.65,31.93.5,47.89,1,17.94.51,32.55,14.89,34.43,30.88,1.27,10.73-2.48,19.51-7.18,28.3a71.38,71.38,0,0,1-10,13.64c-21.21,13.84-44.78,16.52-69.22,14a155.83,155.83,0,0,1-36.3-8,13.12,13.12,0,0,0-17.14,8.44c-2.21,6.81,1.62,13.05,9.72,15.78a188.48,188.48,0,0,0,70.28,10c16.39-.82,32.29-3.34,47.52-9.38C557.53,784.33,570,777.27,578.8,765.08Z"/><path class="cls-3" d="M208.33,462.12Q264,462,319.75,462c49,0,97.94.09,146.9,0,27.67-.07,49.38-16.22,56.43-41.79A48.51,48.51,0,0,0,525,406.9,201.17,201.17,0,0,1,687.29,207.5c12.7-2.51,25.54-4.13,38.56-3.4L726,260a169.57,169.57,0,0,0-30.17,3.39A144,144,0,0,0,582.94,422.67c5.72,44.55,28.11,78.88,65.42,103.66,1.24.82,3.35,1,3.26,3.27-9.32-.12-18.65-.34-28-.34q-191.35,0-382.73.07c-11.69,0-21.19-3.36-27.91-13.23a27,27,0,0,1-4.75-15C208.09,488.1,208.29,475.11,208.33,462.12Z"/><path class="cls-4" d="M651.62,529.6c.09-2.24-2-2.45-3.26-3.27-37.31-24.78-59.7-59.11-65.42-103.66A144,144,0,0,1,695.8,263.43,169.57,169.57,0,0,1,726,260c30.65.73,58.94,9,83.93,27.06,23.48,17,40.38,39.12,51,66.15,8.28,21,10.73,42.9,8.78,65.06a138.12,138.12,0,0,1-31.27,76.75c-22.44,27.44-50.95,44.85-85.75,51.46a142.53,142.53,0,0,1-77.33-6.64C667.22,536.87,660,531.92,651.62,529.6ZM725.83,511c58.51.66,108-47.05,106.78-108.6-1.11-58-47.29-104.1-106.67-104.3a106.45,106.45,0,1,0-.11,212.9Z"/><path class="cls-5" d="M528.91,48q0,56.94,0,113.9c0,5.86-1.19,11.25-6,15.2-5.94,4.91-12.38,5.19-19.11,1.84-9.39-4.66-18.84-9.21-28.09-14.15-6-3.22-11.6-2.95-17.51.14-9,4.69-18.38,8.71-27.15,13.79-11.62,6.75-25.42-1.75-25.25-15.42.46-38.46.12-76.93.09-115.4l1-.33a35.26,35.26,0,0,0,3.95.41Q467,48,523.19,48a35.11,35.11,0,0,0,3.94-.42Z"/><path class="cls-6" d="M578.8,765.08C570,777.27,557.53,784.33,544,789.71c-15.23,6-31.13,8.56-47.52,9.38a188.48,188.48,0,0,1-70.28-10c-8.1-2.73-11.93-9-9.72-15.78a13.12,13.12,0,0,1,17.14-8.44,155.83,155.83,0,0,0,36.3,8c24.44,2.5,48-.18,69.22-14Z"/><path class="cls-5" d="M706.59,452.67a12.68,12.68,0,0,1-8.18-3.53C687.22,438,676,426.85,664.86,415.56c-4.94-5-4.87-11.81-.26-16.55s11.76-4.87,17,.15q11.31,10.95,22.23,22.28c2.27,2.37,3.5,2.28,5.78,0q29.35-29.62,58.94-59.05c2.24-2.25,4.48-4.6,7.72-5.26,5-1,9.32.25,12.34,4.53s3.19,8.68.36,13.08a23.73,23.73,0,0,1-3.23,3.79Q751.29,413,716.84,447.42C714.06,450.21,711.07,452.44,706.59,452.67Z"/></svg>