<?xml version="1.0" encoding="UTF-8" standalone="no"?><!DOCTYPE svg PUBLIC "-//W3C//DTD SVG 1.1//EN" "http://www.w3.org/Graphics/SVG/1.1/DTD/svg11.dtd"><svg width="100%" height="100%" viewBox="0 0 512 512" version="1.1" xmlns="http://www.w3.org/2000/svg" xmlns:xlink="http://www.w3.org/1999/xlink" xml:space="preserve" xmlns:serif="http://www.serif.com/" style="fill-rule:evenodd;clip-rule:evenodd;stroke-linecap:round;stroke-linejoin:round;stroke-miterlimit:1.5;"><rect id="parts" x="0" y="0" width="512" height="512" style="fill:none;"/><path d="M136,173.43c-0,-23.292 14.324,-44.187 36.049,-52.586c56.285,-21.62 113.889,-20.703 167.808,0.001c21.754,8.371 36.107,29.274 36.107,52.583c0.036,40.396 0.036,105.622 0.036,142.709c-0,7.455 -2.972,14.603 -8.258,19.86c-5.285,5.258 -12.449,8.192 -19.904,8.152c-0,-0 -0.001,-0 -0.002,-0c-15.397,-0.083 -27.836,-12.588 -27.836,-27.986l0,-5.377c0,-6.043 -2.401,-11.839 -6.674,-16.112c-4.273,-4.273 -10.069,-6.674 -16.112,-6.674l-17.214,0l0,56l-48,0.299l0,-56.299l-17.214,0c-6.043,0 -11.839,2.401 -16.112,6.674c-4.273,4.273 -6.674,10.069 -6.674,16.112l0,5.377c0,15.398 -12.439,27.903 -27.836,27.986c-0.001,-0 -0.002,-0 -0.002,-0c-7.455,0.04 -14.619,-2.894 -19.904,-8.152c-5.286,-5.257 -8.258,-12.405 -8.258,-19.86c0,-37.086 0,-102.311 0,-142.707Z" style="fill:none;stroke:#212529;stroke-width:20px;"/><path d="M344,170.003c-75.351,-0.609 -76.363,85.019 0,85.997l0,-85.997Z" style="fill:none;stroke:#212529;stroke-width:20px;"/><path d="M168,255.997c75.351,0.609 76.363,-85.019 0,-85.997l0,85.997Z" style="fill:none;stroke:#212529;stroke-width:20px;"/><path d="M272,344l0,56l-32,0l0,-55.701" style="fill:none;stroke:#212529;stroke-width:20px;"/></svg>