<?xml version="1.0" encoding="UTF-8" standalone="no"?><!DOCTYPE svg PUBLIC "-//W3C//DTD SVG 1.1//EN" "http://www.w3.org/Graphics/SVG/1.1/DTD/svg11.dtd"><svg width="100%" height="100%" viewBox="0 0 512 512" version="1.1" xmlns="http://www.w3.org/2000/svg" xmlns:xlink="http://www.w3.org/1999/xlink" xml:space="preserve" xmlns:serif="http://www.serif.com/" style="fill-rule:evenodd;clip-rule:evenodd;stroke-linecap:round;stroke-linejoin:round;stroke-miterlimit:1.5;"><rect id="roller" x="0" y="0" width="512" height="512" style="fill:none;"/><circle cx="394" cy="346" r="28" style="fill:none;stroke:#212529;stroke-width:20px;"/><circle cx="309" cy="346" r="28" style="fill:none;stroke:#212529;stroke-width:20px;"/><circle cx="224" cy="346" r="28" style="fill:none;stroke:#212529;stroke-width:20px;"/><circle cx="139" cy="346" r="28" style="fill:none;stroke:#212529;stroke-width:20px;"/><path d="M394,346l-256,0" style="fill:none;stroke:#212529;stroke-width:20px;"/><path d="M374.255,236.708c9.407,3.162 15.745,11.978 15.745,21.902c-0,0.001 -0,0.001 -0,0.002c-0,7.794 -3.096,15.269 -8.608,20.78c-5.511,5.512 -12.986,8.608 -20.78,8.608c-42.927,-0 -123.376,-0 -175.96,-0c-12.595,0 -24.551,-5.553 -32.676,-15.177c-8.126,-9.624 -11.596,-22.341 -9.485,-34.759c4.429,-26.04 9.525,-56.011 12.485,-73.419c1.594,-9.375 7.534,-17.441 16.014,-21.745c29.094,-14.877 48.716,-22.293 64.501,-22.261c13.294,0.024 24.799,9.249 27.712,22.219c2.635,11.731 6.336,28.215 9.232,41.111c2.793,12.436 11.877,22.511 23.958,26.571c22.031,7.404 57.497,19.324 77.862,26.168Z" style="fill:none;stroke:#212529;stroke-width:20px;"/><path d="M172,142c0,0 -11.001,-12.573 -19.212,-21.957c-2.319,-2.65 -5.604,-4.261 -9.12,-4.47c-3.516,-0.21 -6.97,0.998 -9.588,3.355c-0,0 -0.001,0.001 -0.002,0.002c-2.652,2.386 -4.23,5.741 -4.378,9.306c-0.148,3.565 1.147,7.039 3.593,9.638c9.448,10.039 22.707,24.126 22.707,24.126" style="fill:none;stroke:#212529;stroke-width:20px;"/><path d="M293.249,190c-0,-0 -16.843,24.676 -27.187,39.832c-2.094,3.066 -2.883,6.839 -2.194,10.488c0.688,3.648 2.798,6.874 5.864,8.967c0,0 0,0 0,0c6.387,4.359 15.097,2.716 19.456,-3.67c10.344,-15.156 27.187,-39.832 27.187,-39.832l-23.126,-15.785Z" style="fill:none;stroke:#212529;stroke-width:20px;"/><path d="M271.504,136.864c-0,-0 -28.403,9.267 -45.847,14.959c-3.53,1.152 -6.457,3.659 -8.139,6.969c-1.682,3.311 -1.979,7.154 -0.827,10.683c-0,0 -0,0 -0,0c2.398,7.351 10.301,11.365 17.652,8.967c17.444,-5.692 45.846,-14.96 45.846,-14.96l-8.685,-26.618Z" style="fill:none;stroke:#212529;stroke-width:20px;"/></svg>