<?xml version="1.0" encoding="UTF-8" standalone="no"?><!DOCTYPE svg PUBLIC "-//W3C//DTD SVG 1.1//EN" "http://www.w3.org/Graphics/SVG/1.1/DTD/svg11.dtd"><svg width="100%" height="100%" viewBox="0 0 512 512" version="1.1" xmlns="http://www.w3.org/2000/svg" xmlns:xlink="http://www.w3.org/1999/xlink" xml:space="preserve" xmlns:serif="http://www.serif.com/" style="fill-rule:evenodd;clip-rule:evenodd;stroke-linecap:round;stroke-linejoin:round;stroke-miterlimit:1.5;"><rect id="skateboard" x="0" y="0" width="512" height="512" style="fill:none;"/><path d="M385.452,128.489c-11.815,-11.815 -27.839,-18.452 -44.547,-18.452c-16.709,-0 -32.733,6.637 -44.548,18.452c-47.182,47.182 -121.236,121.235 -168.417,168.417c-24.602,24.602 -24.602,64.49 -0,89.093c0,0 0.001,0.001 0.001,0.001c11.815,11.815 27.839,18.452 44.548,18.452c16.709,0 32.733,-6.637 44.548,-18.452c47.182,-47.182 121.235,-121.236 168.417,-168.417c24.602,-24.602 24.602,-64.49 -0,-89.093c-0.001,-0 -0.001,-0.001 -0.002,-0.001Z" style="fill:none;stroke:#212529;stroke-width:20px;"/><path d="M292,133.185c0,-0 -5.913,-5.914 -11.395,-11.395c-5.053,-5.053 -13.245,-5.053 -18.298,-0c-6.742,6.741 -15.872,15.872 -22.614,22.613c-5.053,5.053 -5.053,13.245 0,18.298c5.482,5.482 11.395,11.395 11.395,11.395l40.912,-40.911Z" style="fill:none;stroke:#212529;stroke-width:20px;"/><path d="M342,260.912c-0,-0 5.913,5.913 11.395,11.395c5.053,5.053 13.245,5.053 18.298,-0c6.742,-6.742 15.872,-15.872 22.614,-22.614c5.053,-5.053 5.053,-13.245 -0,-18.298c-5.482,-5.482 -11.395,-11.395 -11.395,-11.395l-40.912,40.912Z" style="fill:none;stroke:#212529;stroke-width:20px;"/><path d="M222,380.815c0,0 5.913,5.914 11.395,11.395c5.053,5.053 13.245,5.053 18.298,0c6.742,-6.741 15.872,-15.872 22.614,-22.613c5.053,-5.053 5.053,-13.245 -0,-18.298c-5.482,-5.482 -11.395,-11.395 -11.395,-11.395l-40.912,40.911Z" style="fill:none;stroke:#212529;stroke-width:20px;"/><path d="M178,247.185c0,-0 -5.913,-5.914 -11.395,-11.395c-5.053,-5.053 -13.245,-5.053 -18.298,-0c-6.742,6.741 -15.872,15.872 -22.614,22.613c-5.053,5.053 -5.053,13.245 0,18.298c5.482,5.482 11.395,11.395 11.395,11.395l40.912,-40.911Z" style="fill:none;stroke:#212529;stroke-width:20px;"/><path d="M273,223.904c-0,-4.695 -3.806,-8.5 -8.5,-8.5l-0,-0c-4.694,-0 -8.5,3.805 -8.5,8.5l0,-0c0,4.694 3.806,8.5 8.5,8.5l0,-0c4.694,-0 8.5,-3.806 8.5,-8.5l0,-0Z" style="fill:#212529;"/><path d="M296.5,247.498c0,-2.254 -0.895,-4.415 -2.489,-6.009c-1.594,-1.594 -3.755,-2.489 -6.009,-2.489l-0.004,-0c-2.254,-0 -4.415,0.895 -6.009,2.489c-1.594,1.594 -2.489,3.755 -2.489,6.009l0,0.004c-0,2.254 0.895,4.415 2.489,6.009c1.594,1.594 3.755,2.489 6.009,2.489l0.004,-0c2.254,0 4.415,-0.895 6.009,-2.489c1.594,-1.594 2.489,-3.755 2.489,-6.009l0,-0.004Z" style="fill:#212529;"/><path d="M256,287.5c-0,-4.694 -3.806,-8.5 -8.5,-8.5l-0,0c-4.694,0 -8.5,3.806 -8.5,8.5l0,0c0,4.694 3.806,8.5 8.5,8.5l0,0c4.694,-0 8.5,-3.806 8.5,-8.5l0,-0Z" style="fill:#212529;"/><path d="M232.5,264.498c0,-2.254 -0.895,-4.415 -2.489,-6.009c-1.594,-1.594 -3.755,-2.489 -6.009,-2.489l-0.078,0c-4.652,0 -8.424,3.772 -8.424,8.424l0,0.152c0,4.652 3.772,8.424 8.424,8.424l0.078,0c2.254,0 4.415,-0.895 6.009,-2.489c1.594,-1.594 2.489,-3.755 2.489,-6.009l-0,-0.004Z" style="fill:#212529;"/></svg>